<svg width="350" height="333" viewBox="0 0 350 333" fill="none" xmlns="http://www.w3.org/2000/svg">
<path d="M51.2533 160.114C-17.0857 199.546 -17.0857 263.544 51.2607 302.998C119.607 342.452 230.407 342.46 298.746 302.998C367.085 263.537 367.085 199.568 298.746 160.114C230.407 120.66 119.592 120.66 51.2533 160.114Z" fill="#FAFAFA"/>
<path d="M108.594 310.656C135.022 310.656 156.447 298.288 156.447 283.03C156.447 267.773 135.022 255.404 108.594 255.404C82.1656 255.404 60.7412 267.773 60.7412 283.03C60.7412 298.288 82.1656 310.656 108.594 310.656Z" fill="#E0E0E0"/>
<path d="M189.421 215.624C187.567 215.659 185.737 215.201 184.118 214.299C180.125 211.988 177.926 206.818 177.926 199.723C177.926 183.429 189.421 163.505 203.545 155.351L257.693 124.089C261.396 121.956 264.988 120.83 268.114 120.83C269.968 120.797 271.798 121.257 273.417 122.163C277.409 124.466 279.608 129.643 279.608 136.739C279.608 153.033 268.121 172.949 253.99 181.111L199.841 212.373C196.138 214.499 192.546 215.624 189.421 215.624Z" fill="#E0E0E0"/>
<path d="M275.268 118.956L257.752 108.846C252.782 105.972 245.901 106.387 238.332 110.771L184.176 142.034C169.001 150.796 156.706 172.096 156.706 189.613C156.706 198.367 159.78 204.522 164.749 207.388L182.266 217.498C187.235 220.371 194.116 219.957 201.693 215.572L202.218 215.254L255.308 184.606L255.574 184.458L255.841 184.31C271.017 175.548 283.311 154.247 283.311 136.731C283.311 127.984 280.238 121.829 275.268 118.956ZM253.989 181.11L199.841 212.373C196.138 214.506 192.546 215.631 189.42 215.631C187.566 215.663 185.736 215.203 184.117 214.298C180.125 211.995 177.925 206.818 177.925 199.722C177.925 183.428 189.413 163.512 203.544 155.351L257.692 124.088C261.396 121.963 264.988 120.829 268.113 120.829C269.968 120.798 271.797 121.258 273.416 122.162C277.408 124.473 279.608 129.65 279.608 136.738C279.608 153.047 268.121 172.956 253.989 181.11Z" fill="#E0E0E0"/>
<path d="M275.267 118.956C270.298 116.089 263.417 116.504 255.84 120.881L201.662 152.144C186.516 160.905 174.259 182.206 174.259 199.722C174.259 208.484 177.332 214.639 182.302 217.498C187.272 220.357 194.152 219.957 201.729 215.572L255.611 184.465L255.877 184.317C271.053 175.555 283.348 154.255 283.348 136.738C283.311 127.984 280.237 121.829 275.267 118.956ZM253.989 181.11L199.841 212.373C196.137 214.506 192.545 215.631 189.42 215.631C187.565 215.663 185.736 215.203 184.117 214.298C180.125 211.995 177.925 206.818 177.925 199.722C177.925 183.428 189.412 163.513 203.544 155.351L257.692 124.088C261.395 121.963 264.987 120.829 268.113 120.829C269.967 120.798 271.797 121.258 273.416 122.163C277.408 124.473 279.608 129.65 279.608 136.738C279.608 153.047 268.12 172.956 253.989 181.11Z" fill="#F0F0F0"/>
<path d="M248.568 181.029C252.271 183.162 257.367 182.851 263.01 179.599C274.29 173.082 283.43 157.247 283.43 144.219C283.43 137.709 281.149 133.109 277.453 130.999L272.49 128.132C268.787 125.999 263.692 126.31 258.048 129.569C246.768 136.079 237.621 151.922 237.621 164.942C237.621 171.46 239.91 176.052 243.605 178.163L248.568 181.029Z" fill="#01966B"/>
<path d="M283.429 144.233C283.429 137.723 281.148 133.123 277.452 131.012C273.757 128.902 268.646 129.183 263.01 132.442C251.723 138.952 242.583 154.794 242.583 167.822C242.583 174.333 244.864 178.932 248.56 181.043C252.256 183.154 257.366 182.865 263.01 179.613C274.29 173.096 283.429 157.261 283.429 144.233Z" fill="#01966B"/>
<path opacity="0.4" d="M283.429 144.233C283.429 137.723 281.148 133.123 277.452 131.012C273.757 128.902 268.646 129.183 263.01 132.442C251.723 138.952 242.583 154.794 242.583 167.822C242.583 174.333 244.864 178.932 248.56 181.043C252.256 183.154 257.366 182.865 263.01 179.613C274.29 173.096 283.429 157.261 283.429 144.233Z" fill="white"/>
<path d="M259.766 170.23C259.096 170.23 258.446 170.002 257.922 169.585L251.256 164.312C250.951 164.069 250.697 163.768 250.508 163.427C250.32 163.085 250.2 162.71 250.156 162.323C250.113 161.935 250.146 161.543 250.254 161.168C250.362 160.793 250.542 160.443 250.786 160.138C251.029 159.834 251.33 159.58 251.671 159.391C252.012 159.202 252.387 159.083 252.775 159.039C253.162 158.995 253.555 159.028 253.93 159.136C254.304 159.244 254.654 159.425 254.959 159.668L258.662 162.631L268.787 140.715C268.941 140.349 269.168 140.018 269.453 139.741C269.738 139.464 270.076 139.248 270.446 139.104C270.817 138.961 271.212 138.893 271.609 138.906C272.006 138.918 272.397 139.01 272.758 139.177C273.118 139.343 273.442 139.581 273.709 139.875C273.976 140.169 274.182 140.514 274.313 140.889C274.444 141.264 274.498 141.661 274.473 142.058C274.447 142.454 274.342 142.841 274.164 143.196L262.462 168.541C262.274 168.947 261.996 169.306 261.65 169.589C261.303 169.872 260.897 170.074 260.462 170.178C260.233 170.221 259.999 170.239 259.766 170.23Z" fill="#FAFAFA"/>
<path d="M189.421 120.069C187.566 120.101 185.736 119.641 184.118 118.736C180.125 116.433 177.926 111.256 177.926 104.16C177.926 87.8662 189.421 67.943 203.545 59.7885L257.693 28.5261C261.396 26.393 264.988 25.2673 268.114 25.2673C269.968 25.2345 271.798 25.6946 273.417 26.6004C277.409 28.9038 279.608 34.0809 279.608 41.1762C279.608 57.4703 268.121 77.3936 253.99 85.548L199.841 116.81C196.138 118.944 192.546 120.069 189.421 120.069Z" fill="#E0E0E0"/>
<path d="M275.268 23.393L257.752 13.2833C252.782 10.4096 245.901 10.8243 238.332 15.2089L184.176 46.4714C169.001 55.2332 156.706 76.534 156.706 94.0501C156.706 102.805 159.78 108.959 164.749 111.826L182.266 121.935C187.235 124.809 194.116 124.394 201.693 120.01L202.218 119.691L255.308 89.0434L255.574 88.8953L255.841 88.7472C271.017 79.9854 283.311 58.6845 283.311 41.1684C283.311 32.4214 280.238 26.2445 275.268 23.393ZM253.989 85.5476L199.841 116.81C196.138 118.943 192.546 120.069 189.42 120.069C187.566 120.1 185.736 119.641 184.117 118.736C180.125 116.432 177.925 111.255 177.925 104.16C177.925 87.8658 189.413 67.95 203.544 59.7881L257.692 28.5256C261.396 26.4 264.988 25.2668 268.113 25.2668C269.968 25.2352 271.797 25.6952 273.416 26.6C277.408 28.9108 279.608 34.0879 279.608 41.1758C279.608 57.4847 268.121 77.3931 253.989 85.5476Z" fill="#E0E0E0"/>
<path d="M275.267 23.3931C270.298 20.5268 263.417 20.9416 255.84 25.3188L201.662 56.6108C186.516 65.343 174.259 86.6438 174.259 104.16C174.259 112.922 177.332 119.076 182.302 121.935C187.272 124.794 194.152 124.394 201.729 120.01L255.611 88.9028L255.877 88.7546C271.053 79.9929 283.348 58.692 283.348 41.1759C283.311 32.4215 280.237 26.2446 275.267 23.3931ZM253.989 85.5477L199.841 116.81C196.137 118.943 192.545 120.069 189.42 120.069C187.565 120.101 185.736 119.641 184.117 118.736C180.125 116.432 177.925 111.255 177.925 104.16C177.925 87.8659 189.412 67.95 203.544 59.7882L257.692 28.5257C261.395 26.4001 264.987 25.2669 268.113 25.2669C269.967 25.2353 271.797 25.6952 273.416 26.6001C277.408 28.9109 279.608 34.0879 279.608 41.1759C279.608 57.4848 268.12 77.3932 253.989 85.5477Z" fill="#F0F0F0"/>
<path d="M193.745 118.136C197.449 120.269 202.544 119.965 208.188 116.706C219.468 110.196 228.607 94.3536 228.607 81.3332C228.607 74.8155 226.326 70.2236 222.63 68.1053L217.668 65.2464C213.965 63.1134 208.869 63.4171 203.226 66.6759C191.946 73.1935 182.799 89.0284 182.799 102.056C182.799 108.567 185.087 113.166 188.783 115.277L193.745 118.136Z" fill="#263238"/>
<path d="M228.607 81.3263C228.607 74.816 226.326 70.2167 222.63 68.1058C218.934 65.995 213.824 66.2839 208.188 69.5353C196.9 76.0529 187.761 91.8878 187.761 104.916C187.761 111.426 190.042 116.025 193.738 118.136C197.433 120.247 202.544 119.966 208.188 116.707C219.438 110.196 228.607 94.3838 228.607 81.3263Z" fill="#455A64"/>
<path d="M217.098 96.1467L211.973 92.2732L217.957 80.8821C218.321 80.1858 218.394 79.3732 218.16 78.6232C217.925 77.8731 217.402 77.247 216.705 76.8827C216.009 76.5183 215.196 76.4455 214.446 76.6802C213.696 76.9149 213.07 77.438 212.706 78.1343L207.203 88.6514L202.87 85.3704C202.243 84.896 201.452 84.6904 200.673 84.7987C199.894 84.9071 199.19 85.3205 198.715 85.9481C198.241 86.5757 198.035 87.366 198.144 88.1453C198.252 88.9245 198.665 89.6287 199.293 90.1031L204.418 93.9693L198.456 105.36C198.092 106.057 198.019 106.869 198.253 107.619C198.488 108.369 199.011 108.995 199.708 109.36C200.404 109.724 201.217 109.797 201.967 109.562C202.717 109.328 203.343 108.804 203.707 108.108L209.21 97.591L213.543 100.872C214.057 101.261 214.683 101.471 215.328 101.472C215.949 101.473 216.555 101.279 217.059 100.917C217.564 100.555 217.942 100.043 218.141 99.4544C218.339 98.8657 218.347 98.2296 218.164 97.636C217.981 97.0425 217.615 96.5215 217.12 96.1467H217.098Z" fill="#FAFAFA"/>
<path d="M129.206 247.97C128.651 254.398 128.295 259.168 128.399 260.272C128.762 264.271 131.006 266.752 132.739 268.419C136.361 271.863 138.938 273.233 143.441 276.203C142.842 277.795 133.569 277.951 130.902 276.81C127.041 275.12 123.29 273.185 119.674 271.018C115.971 268.597 115.075 267.108 114.912 263.294C114.912 262.82 114.519 259.716 114.549 259.509C114.497 258.613 113.92 253.784 113.164 247.844L129.206 247.97Z" fill="#FFA8A7"/>
<path d="M74.6435 260.679V245.318L91.1524 246.511L88.0787 261.568C88.0787 261.568 86.242 282.069 85.3754 285.394C82.5832 296.149 73.1771 291.808 72.0439 286.135C71.3106 282.321 74.6435 260.679 74.6435 260.679Z" fill="#FFA8A7"/>
<path d="M150.833 282.233C151.078 282.233 151.263 284.729 149.885 285.7C148.3 286.818 143.745 288.529 137.968 287.47C132.191 286.411 129.14 284.544 126.933 282.589C124.726 280.634 121.637 277.864 119.038 277.16C116.623 276.508 112.727 274.982 111.994 274.197C111.261 273.412 111.587 270.316 111.587 270.316L150.833 282.233Z" fill="#263238"/>
<path d="M114.55 259.488C114.319 259.576 114.11 259.711 113.936 259.884C113.761 260.058 113.624 260.266 113.535 260.496C113.298 261.347 113.209 262.458 112.728 263.851C112.054 265.791 111.409 269.776 111.617 271.435C111.824 273.094 117.053 274.753 119.542 275.812C122.436 277.197 125.109 279.004 127.474 281.174C130.066 283.441 135.68 285.907 139.48 286.188C145.279 286.618 149.108 285.381 150.434 283.507C152.041 281.196 151.5 278.663 145.034 275.36C143.805 274.738 139.546 272.027 138.095 271.05C136.568 270.024 135.124 268.88 133.777 267.628C133.107 266.996 132.471 266.329 131.873 265.628C131.251 265.009 130.729 264.297 130.325 263.517C130.266 263.347 130.222 263.154 130.17 262.984C130.015 262.501 129.903 262.005 129.836 261.503C129.762 260.977 129.748 260.222 129.244 259.881C128.74 259.54 120.356 260.555 119.704 261.362C119.26 262.022 119.004 262.79 118.964 263.584C118.919 263.947 118.905 264.325 118.875 264.673C118.875 264.828 118.875 265.11 118.682 265.036C118.49 264.962 118.26 264.399 118.186 264.214C118.031 263.799 117.942 263.354 117.771 262.94C117.627 262.437 117.374 261.972 117.031 261.577C115.979 260.644 114.898 260.747 114.601 260.429C114.638 260.459 114.564 259.799 114.55 259.488Z" fill="#37474F"/>
<path d="M145.374 275.559C136.939 275.559 134.154 281.691 133.591 284.654C135.459 285.449 137.432 285.97 139.449 286.202C145.249 286.631 149.344 285.409 150.64 283.543C152.181 281.343 151.196 278.055 145.374 275.559Z" fill="#FAFAFA"/>
<path d="M132.984 276.306C132.891 276.301 132.803 276.264 132.732 276.203C132.695 276.168 132.666 276.126 132.646 276.08C132.626 276.033 132.615 275.983 132.615 275.932C132.615 275.882 132.626 275.832 132.646 275.785C132.666 275.739 132.695 275.697 132.732 275.662C133.999 274.403 137.984 271.766 141.013 272.263C141.065 272.268 141.115 272.284 141.16 272.31C141.206 272.335 141.246 272.37 141.277 272.412C141.308 272.453 141.33 272.501 141.342 272.552C141.354 272.603 141.356 272.656 141.346 272.707C141.336 272.759 141.315 272.808 141.285 272.851C141.256 272.895 141.218 272.932 141.174 272.961C141.13 272.99 141.08 273.01 141.029 273.02C140.977 273.029 140.924 273.029 140.872 273.018C138.043 272.559 134.34 275.188 133.34 276.188C133.293 276.233 133.237 276.268 133.176 276.288C133.114 276.309 133.049 276.315 132.984 276.306Z" fill="#F5F5F5"/>
<path d="M129.503 274.123C129.41 274.12 129.322 274.086 129.251 274.027C129.214 273.992 129.185 273.95 129.164 273.904C129.144 273.857 129.134 273.807 129.134 273.756C129.134 273.706 129.144 273.655 129.164 273.609C129.185 273.562 129.214 273.521 129.251 273.486C130.518 272.219 134.502 269.583 137.531 270.079C137.583 270.085 137.633 270.102 137.678 270.128C137.724 270.154 137.763 270.188 137.795 270.23C137.827 270.271 137.85 270.318 137.863 270.369C137.876 270.419 137.879 270.472 137.872 270.523C137.847 270.627 137.783 270.717 137.694 270.775C137.604 270.833 137.496 270.855 137.391 270.834C134.561 270.375 130.858 273.005 129.858 274.004C129.812 274.05 129.756 274.085 129.694 274.105C129.633 274.126 129.567 274.132 129.503 274.123Z" fill="#F5F5F5"/>
<path d="M126.31 271.678C126.218 271.675 126.129 271.641 126.058 271.581C126.02 271.547 125.99 271.506 125.969 271.459C125.948 271.412 125.938 271.362 125.938 271.311C125.938 271.26 125.948 271.209 125.969 271.163C125.99 271.116 126.02 271.075 126.058 271.041C127.325 269.774 131.324 267.137 134.339 267.634C134.39 267.64 134.44 267.657 134.485 267.683C134.53 267.709 134.569 267.743 134.6 267.785C134.631 267.826 134.654 267.874 134.666 267.924C134.678 267.974 134.68 268.027 134.672 268.078C134.661 268.13 134.641 268.179 134.611 268.222C134.582 268.266 134.544 268.303 134.5 268.332C134.456 268.361 134.406 268.381 134.354 268.391C134.303 268.4 134.249 268.4 134.198 268.389C131.369 267.937 127.665 270.559 126.658 271.559C126.614 271.605 126.559 271.639 126.498 271.66C126.438 271.68 126.373 271.687 126.31 271.678Z" fill="#F5F5F5"/>
<path d="M123.155 269.241C123.062 269.236 122.974 269.199 122.904 269.138C122.866 269.104 122.835 269.063 122.815 269.017C122.794 268.971 122.783 268.921 122.783 268.871C122.783 268.821 122.794 268.771 122.815 268.725C122.835 268.679 122.866 268.638 122.904 268.604C124.644 266.805 128.829 264.709 131.888 265.205C131.939 265.211 131.989 265.228 132.034 265.254C132.079 265.28 132.118 265.315 132.149 265.356C132.18 265.398 132.202 265.445 132.215 265.495C132.227 265.546 132.229 265.598 132.221 265.649C132.198 265.753 132.135 265.843 132.047 265.901C131.958 265.959 131.851 265.98 131.747 265.96C129.021 265.516 125.081 267.523 123.518 269.115C123.471 269.163 123.414 269.199 123.351 269.22C123.289 269.242 123.221 269.249 123.155 269.241Z" fill="#F5F5F5"/>
<path d="M86.7159 286.476C86.4567 290.038 85.8345 292.401 84.4495 294.475C83.0645 296.549 80.4945 297.178 77.9097 296.541C75.3248 295.904 71.9846 294.231 71.3032 291.149C70.6218 288.068 70.1848 285.965 70.8143 282.654L86.7159 286.476Z" fill="#263238"/>
<path d="M74.6431 260.68C73.5766 260.568 73.8062 265.479 73.1619 270.263C72.4212 275.396 71.6213 277.425 70.9844 281.632C70.2437 286.439 71.0881 288.594 72.8656 291.52C74.6431 294.445 81.0126 297.371 84.227 293.238C86.8415 289.868 86.997 286.098 86.8119 281.292C86.6267 276.322 87.1896 272.996 87.6636 269.241C88.1598 265.368 89.0338 261.976 88.108 261.568C87.8615 262.82 87.545 264.056 87.16 265.272C87.0489 265.538 86.6267 266.205 86.4712 265.197C86.4267 264.901 86.5304 264.212 86.4712 263.916C86.4045 263.079 85.8638 262.939 85.5157 262.753C84.0877 262.105 82.5367 261.771 80.9682 261.776C78.8796 261.776 77.0724 261.657 75.8948 262.205C75.1542 262.531 75.206 263.153 75.1542 263.761C75.1023 264.368 75.0357 264.931 74.8431 264.783C74.4432 264.516 74.6431 260.68 74.6431 260.68Z" fill="#37474F"/>
<path d="M70.6295 284.418C70.4096 287.01 71.0868 289.599 72.5478 291.751C74.3253 294.676 81.2207 297.616 84.398 293.484C85.9904 291.425 86.4422 288.973 86.6866 286.477C84.8572 283.241 73.6439 281.715 70.6295 284.418Z" fill="#FAFAFA"/>
<path d="M84.4424 281.219C84.3985 281.229 84.3529 281.229 84.309 281.219C84.309 281.219 79.3393 279.249 74.5104 280.234C74.4105 280.255 74.3063 280.238 74.2185 280.186C74.1307 280.134 74.0657 280.051 74.0363 279.953C74.0267 279.904 74.027 279.853 74.037 279.804C74.0471 279.755 74.0669 279.708 74.0952 279.667C74.1234 279.626 74.1596 279.59 74.2017 279.563C74.2437 279.536 74.2907 279.517 74.34 279.508C79.4504 278.472 84.472 280.471 84.6645 280.56C84.7097 280.58 84.7503 280.609 84.784 280.645C84.8176 280.681 84.8436 280.724 84.8602 280.77C84.8768 280.816 84.8838 280.866 84.8807 280.915C84.8777 280.964 84.8646 281.012 84.8423 281.056C84.7976 281.118 84.7364 281.166 84.6657 281.195C84.595 281.224 84.5176 281.232 84.4424 281.219Z" fill="#F5F5F5"/>
<path d="M74.7916 276.612C74.7182 276.604 74.6482 276.577 74.5894 276.533C74.5306 276.488 74.4852 276.428 74.4583 276.36C74.4435 276.313 74.4384 276.263 74.4431 276.214C74.4478 276.165 74.4624 276.117 74.4858 276.073C74.5093 276.03 74.5412 275.992 74.5797 275.961C74.6183 275.93 74.6626 275.907 74.7101 275.893C79.5243 274.412 84.8198 276.76 85.0198 276.856C85.0644 276.876 85.1044 276.906 85.1371 276.942C85.1698 276.979 85.1946 277.022 85.2099 277.069C85.2252 277.115 85.2307 277.164 85.226 277.213C85.2213 277.262 85.2066 277.309 85.1828 277.352C85.1275 277.44 85.0418 277.505 84.9421 277.533C84.8424 277.562 84.7356 277.553 84.6421 277.508C84.5976 277.508 79.4576 275.227 74.9619 276.597C74.9066 276.612 74.8488 276.617 74.7916 276.612Z" fill="#F5F5F5"/>
<path d="M75.014 273.234C74.9406 273.226 74.8706 273.199 74.8118 273.155C74.753 273.11 74.7076 273.05 74.6807 272.982C74.6647 272.935 74.6584 272.886 74.6622 272.837C74.666 272.787 74.6797 272.74 74.7026 272.696C74.7254 272.652 74.757 272.614 74.7952 272.583C74.8335 272.552 74.8777 272.529 74.9251 272.515C80.2207 270.812 85.2422 273.345 85.4348 273.448C85.4776 273.473 85.5149 273.506 85.5446 273.545C85.5743 273.584 85.5957 273.629 85.6074 273.677C85.6192 273.725 85.6212 273.774 85.6131 273.823C85.6051 273.872 85.5872 273.918 85.5607 273.959C85.5019 274.046 85.4123 274.106 85.3103 274.128C85.2083 274.15 85.1018 274.132 85.0126 274.078C84.9682 274.078 80.117 271.626 75.1917 273.211C75.1343 273.23 75.0741 273.237 75.014 273.234Z" fill="#F5F5F5"/>
<path d="M75.3022 269.908C75.2302 269.903 75.161 269.878 75.1022 269.836C75.0434 269.794 74.9973 269.737 74.9689 269.671C74.9516 269.624 74.9441 269.575 74.9468 269.525C74.9495 269.475 74.9624 269.427 74.9846 269.382C75.0068 269.338 75.0379 269.299 75.076 269.267C75.1141 269.235 75.1583 269.211 75.2059 269.197C80.1682 267.523 85.5749 270.123 85.7823 270.241C85.826 270.263 85.8647 270.295 85.8958 270.333C85.9269 270.371 85.9498 270.415 85.963 270.462C85.9762 270.509 85.9795 270.559 85.9726 270.608C85.9657 270.656 85.9488 270.703 85.923 270.745C85.8653 270.832 85.7762 270.894 85.6742 270.917C85.5721 270.941 85.4649 270.924 85.3749 270.871C85.3305 270.871 80.0867 268.338 75.4799 269.893C75.4221 269.909 75.3619 269.914 75.3022 269.908Z" fill="#EBEBEB"/>
<path d="M81.3611 136.053C80.265 146.118 79.8799 148.599 79.1392 170.959C78.3986 192.645 78.3986 195.822 78.2653 198.437C77.969 204.429 74.2732 206.828 73.9769 220.96C73.7103 233.914 74.1917 249.778 74.1917 249.778C74.1917 249.778 76.7395 251.963 82.0499 252.23C84.9182 252.396 87.7842 251.868 90.4044 250.689C90.4044 250.689 97.4997 221.663 99.729 212.739C102.358 202.229 106.617 183.95 106.617 183.95C106.617 183.95 108.757 200.244 109.58 205.517C110.32 210.532 108.491 212.487 109.654 223.715C110.579 232.669 113.357 247.63 113.357 247.63C115.829 248.825 118.544 249.431 121.289 249.4C127.355 249.134 129.273 247.178 129.273 247.178C129.273 247.178 132.673 213.702 132.702 200.896C132.702 187.342 131.962 156.094 131.266 136.134L81.3611 136.053Z" fill="#455A64"/>
<path d="M106.609 183.951L109.72 161.421C109.72 161.421 117.608 159.199 122.533 154.059C122.296 157.762 115.393 162.776 112.105 163.62L108.402 183.618L109.528 205.526L106.609 183.951Z" fill="#37474F"/>
<path d="M95.6553 139.053C94.5143 140.936 93.5877 142.941 92.8928 145.03C92.1846 147.092 91.5985 149.194 91.1374 151.325C90.6852 153.446 90.3465 155.59 90.1228 157.747C89.8735 159.9 89.8016 162.07 89.908 164.235C90.382 162.116 90.819 160.005 91.2559 157.895C91.6929 155.784 92.1151 153.688 92.5743 151.592C93.0335 149.496 93.5001 147.4 93.9889 145.311C94.4777 143.223 95.011 141.149 95.6553 139.053Z" fill="#37474F"/>
<path d="M92.6488 139.941C91.5319 140.967 90.5196 142.101 89.627 143.326C88.7299 144.528 87.9205 145.793 87.2051 147.111C86.4985 148.419 85.9015 149.784 85.4202 151.192C84.9256 152.589 84.6217 154.046 84.5166 155.524L86.4867 151.584C87.1533 150.288 87.8199 148.999 88.5161 147.718C89.2123 146.437 89.9085 145.163 90.6047 143.874C91.3009 142.585 92.0045 141.297 92.6488 139.941Z" fill="#37474F"/>
<path d="M97.4922 164.826C96.7516 171.566 96.0998 178.321 95.4481 185.06C94.7963 191.8 93.315 199.266 92.2411 205.939C91.1672 212.612 86.0123 238.868 85.168 245.593C86.5752 238.927 92.5744 212.857 93.6927 206.139C94.8111 199.422 96.1369 191.911 96.5812 185.142C97.0256 178.372 97.3145 171.603 97.4922 164.826Z" fill="#37474F"/>
<path d="M124.696 164.539L125.437 182.226C125.541 185.188 125.674 188.114 125.748 191.061C125.822 194.009 125.933 196.987 125.815 199.86C125.696 202.734 124.793 230.967 125.074 236.892C125.978 230.338 126.918 205.852 127.296 199.919C127.422 193.95 127.022 188.069 126.6 182.144C126.178 176.219 125.533 170.39 124.696 164.539Z" fill="#37474F"/>
<path d="M112.594 244.187L113.497 250.386C113.497 250.386 116.823 251.904 122.385 251.571C127.947 251.238 129.236 249.475 129.236 249.475L129.777 243.602C129.777 243.602 127.688 245.083 122.6 245.327C116.016 245.594 112.594 244.187 112.594 244.187Z" fill="#37474F"/>
<path d="M73.8877 245.424L74.0951 251.616C74.0951 251.616 76.7243 253.593 82.2421 254.097C87.7599 254.6 90.241 252.756 90.241 252.756L91.389 247.283C91.389 247.283 88.6042 248.379 83.5308 247.964C80.2048 247.619 76.9521 246.762 73.8877 245.424Z" fill="#37474F"/>
<path d="M181.665 107.645C173.416 111.493 164.849 114.62 156.061 116.992C149.87 118.577 145.952 116.125 141.989 113.289C135.747 108.809 129.88 103.831 124.443 98.402C121.11 90.1586 121.044 80.9376 122.584 76.7012C129.791 77.3233 132.39 80.7228 137.879 85.9444C143.367 91.1659 152.491 100.542 152.491 100.542C152.491 100.542 172.77 97.528 173.97 97.1799C175.836 96.6244 176.607 96.343 177.207 95.195C177.786 93.9908 178.295 92.7544 178.732 91.4918C179.395 89.7439 180.166 88.0395 181.043 86.3888C181.591 85.3519 182.132 84.3001 182.761 83.3077C183.272 82.5004 183.961 81.308 184.887 80.9302C185.412 80.7883 185.971 80.8518 186.45 81.108C186.902 80.5743 187.397 80.0789 187.931 79.6267C188.175 79.3881 188.472 79.2105 188.798 79.1083C189.028 79.0528 189.269 79.0637 189.493 79.1397C189.717 79.2158 189.915 79.3538 190.064 79.5378C190.56 79.0547 191.211 78.7633 191.901 78.7157C192.24 78.7409 192.56 78.8773 192.814 79.1036C193.067 79.33 193.238 79.6337 193.301 79.9674C193.284 80.4346 193.302 80.9025 193.353 81.3672C193.509 81.7263 193.713 82.0627 193.96 82.3671C194.208 82.8586 194.325 83.4057 194.301 83.9557C194.276 84.5057 194.11 85.0401 193.819 85.5074C193.079 87.085 192.086 88.5366 191.242 90.0697C190.624 91.1896 190.073 92.3445 189.59 93.5285C189.435 93.9063 188.887 94.8395 188.99 95.2468C189.094 95.6542 189.916 95.5357 190.227 95.3727C191.03 94.8707 191.791 94.3034 192.501 93.6767C193.217 93.0481 194.126 92.6824 195.078 92.6398C195.251 92.6345 195.421 92.6809 195.567 92.7731C195.937 93.0323 195.811 93.61 195.634 94.0248C194.745 96.0615 193.293 97.728 191.931 99.4685C190.476 101.425 188.756 103.17 186.82 104.653C185.203 105.815 183.477 106.817 181.665 107.645Z" fill="#FFA8A7"/>
<path d="M193.042 81.3981C192.892 81.2965 192.715 81.2422 192.534 81.2422C192.354 81.2422 192.177 81.2965 192.027 81.3981C191.652 81.6763 191.331 82.0201 191.079 82.4127C190.396 83.3201 189.786 84.2811 189.257 85.2864C188.709 86.2937 188.176 87.3158 187.635 88.3231C187.075 89.2515 186.635 90.2469 186.324 91.2856C186.324 91.3301 186.324 91.4115 186.383 91.3449C186.88 90.4413 187.302 89.4933 187.791 88.5823C188.279 87.6713 188.761 86.7825 189.272 85.8789C189.751 85.0035 190.293 84.1644 190.894 83.3682C191.198 82.9682 191.509 82.5609 191.849 82.1831C192.086 81.9239 192.59 81.4425 193.027 81.5017C193.064 81.524 193.079 81.4129 193.042 81.3981Z" fill="#F28F8F"/>
<path d="M189.968 79.5604C188.44 81.0916 187.145 82.8383 186.124 84.7449C185.127 86.3907 184.341 88.1548 183.783 89.996C184.532 88.224 185.408 86.5087 186.405 84.8634C187.472 83.034 188.812 81.412 189.997 79.6789C190.049 79.6789 190.034 79.516 189.968 79.5604Z" fill="#F28F8F"/>
<path d="M186.109 81.3167C185.147 82.4776 184.312 83.7391 183.62 85.0791C183.243 85.8198 182.88 86.5011 182.554 87.227C182.145 87.9897 181.841 88.8044 181.65 89.6489C181.65 89.6933 181.687 89.7674 181.732 89.7081C182.124 89.0271 182.452 88.3104 182.71 87.5677C183.035 86.827 183.391 86.1234 183.769 85.4124C184.509 84.0348 185.339 82.7017 186.124 81.3537C186.109 81.3389 186.109 81.2944 186.109 81.3167Z" fill="#F28F8F"/>
<path d="M122.333 76.377C131.102 78.0286 131.361 79.3395 137.316 85.0869C144.026 91.6119 152.514 100.374 152.514 100.374L164.668 98.4258C164.668 98.4258 168.023 101.796 168.749 105.38C169.823 110.706 169.112 112.987 169.112 112.987C165.071 114.662 160.927 116.077 156.706 117.223C151.44 118.46 149.462 118.542 144.604 115.609C134.102 109.269 124.118 98.6628 124.118 98.6628C124.118 98.6628 118.615 86.2719 122.333 76.377Z" fill="#455A64"/>
<path d="M130.909 101.074C130.806 85.7503 126.465 78.1587 122.362 76.3663C120.051 75.7738 107.801 74.2777 101.587 75.1369C92.6996 76.3812 86.8485 79.4622 80.1679 84.3431C74.9835 94.2084 81.0863 104.148 81.2789 118.413C81.4344 129.67 81.0419 132.396 80.2494 144.824C90.137 153.156 125.429 152.712 131.591 142.054C131.502 130.018 131.035 118.687 130.909 101.074Z" fill="#01966B"/>
<path d="M97.3062 69.6764C96.5656 65.9732 92.7661 62.2699 91.0107 59.0482C89.2554 55.8264 88.3 53.5896 88.3963 50.6493C88.4481 48.9162 89.4776 46.5313 90.7515 45.9981C90.4226 44.9578 90.3085 43.8615 90.4159 42.7758C90.5233 41.6901 90.85 40.6375 91.3764 39.6818C91.9027 38.7261 92.6176 37.8872 93.4777 37.2161C94.3379 36.5449 95.3254 36.0554 96.3804 35.7772C97.5792 35.4929 98.7571 35.1266 99.9058 34.6811C101.283 34.0589 101.572 32.9258 102.668 31.9333C104.557 30.2372 107.853 30.1039 109.142 32.5554C110.386 30.852 112.104 30.8446 114.171 31.3038C115.028 31.4715 115.791 31.9585 116.304 32.6665C116.816 33.3745 117.041 34.2506 116.933 35.1181C119.592 33.5257 122.118 35.3625 122.421 36.9474C122.644 38.1177 122.421 39.1101 123.214 40.1396C124.117 41.3024 125.747 41.2357 126.221 40.2655C126.547 41.9171 125.932 43.2281 124.125 43.1688C124.444 43.6242 124.66 44.1439 124.757 44.6915C124.854 45.2391 124.831 45.8013 124.688 46.3388C124.489 47.0122 124.09 47.609 123.543 48.0497C122.997 48.4904 122.329 48.7539 121.629 48.8051C121.579 49.7067 121.326 50.5854 120.888 51.3751C120.364 52.1899 119.653 52.8678 118.814 53.3526C116.118 54.7376 113.104 55.2487 110.171 55.9449L106.698 56.767C106.498 56.8188 105.438 56.9077 105.32 57.0929L97.3062 69.6764Z" fill="#263238"/>
<path d="M92.6775 65.0168C95.329 66.4981 97.0399 64.7576 97.0399 64.7576L97.5435 75.9265C99.3877 81.3035 105.772 84.8512 110.342 84.4438C115.66 83.9772 115.978 80.2444 112.305 76.1931L112.356 72.8602C113.801 72.834 115.243 72.7203 116.674 72.5195C119.57 72.0381 121.688 69.6162 122.429 66.4463C123.23 62.3249 123.23 58.0878 122.429 53.9665C122.207 52.9655 122.125 51.9386 122.185 50.915C122.392 48.2043 121.859 46.6489 121.096 44.3974C117.822 41.9162 110.401 41.2497 103.624 45.6417C104.543 49.7226 103.039 53.0481 100.099 54.6701C100.269 55.7736 100.491 58.5732 98.6693 58.5732C97.351 58.5732 97.188 56.929 95.8327 55.5144C94.4773 54.0998 91.2851 53.8109 90.1297 55.981C88.5077 59.0176 89.7742 63.3948 92.6775 65.0168Z" fill="#FFA8A7"/>
<path d="M112.356 72.8904C107.727 72.4756 104.135 72.0608 101.639 68.7946C100.462 67.1107 99.4692 65.3056 98.6768 63.4102C99.038 65.7752 99.773 68.0677 100.854 70.2018C102.076 72.2978 105.054 74.1272 112.297 74.542L112.356 72.8904Z" fill="#F28F8F"/>
<path d="M109.898 55.1159C109.89 55.3714 109.808 55.6191 109.661 55.8282C109.514 56.0374 109.309 56.1987 109.071 56.2921C108.833 56.3856 108.573 56.407 108.323 56.3538C108.073 56.3006 107.844 56.1751 107.665 55.9928C107.486 55.8106 107.364 55.5797 107.315 55.3289C107.266 55.078 107.292 54.8183 107.389 54.582C107.487 54.3458 107.652 54.1433 107.863 53.9999C108.075 53.8565 108.324 53.7784 108.579 53.7754C108.931 53.7793 109.268 53.9225 109.515 54.1737C109.762 54.4249 109.9 54.7636 109.898 55.1159Z" fill="#263238"/>
<path d="M109.423 50.864L106.52 52.1528C106.358 51.7548 106.355 51.3099 106.513 50.91C106.67 50.5102 106.975 50.1862 107.364 50.0049C107.555 49.922 107.761 49.8785 107.969 49.877C108.178 49.8755 108.384 49.9161 108.576 49.9963C108.769 50.0765 108.943 50.1947 109.088 50.3438C109.234 50.4929 109.348 50.6699 109.423 50.864Z" fill="#263238"/>
<path d="M120.548 51.0127L117.444 50.272C117.484 50.0675 117.564 49.8732 117.681 49.7008C117.797 49.5284 117.948 49.3816 118.123 49.2693C118.299 49.1571 118.495 49.0817 118.7 49.0478C118.906 49.0139 119.116 49.0222 119.318 49.0722C119.731 49.1793 120.088 49.4394 120.316 49.7997C120.544 50.16 120.627 50.5936 120.548 51.0127Z" fill="#263238"/>
<path d="M120.192 54.1164C120.185 54.3704 120.103 54.6166 119.957 54.8245C119.811 55.0324 119.607 55.1928 119.37 55.2857C119.134 55.3786 118.875 55.3999 118.627 55.3469C118.378 55.294 118.151 55.1692 117.973 54.988C117.794 54.8068 117.673 54.5772 117.625 54.3278C117.576 54.0784 117.602 53.8202 117.698 53.5853C117.795 53.3504 117.959 53.1491 118.169 53.0065C118.38 52.8638 118.627 52.7862 118.881 52.7832C119.055 52.7842 119.227 52.8195 119.387 52.8871C119.547 52.9547 119.692 53.0533 119.814 53.1772C119.936 53.3011 120.032 53.4478 120.097 53.609C120.162 53.7702 120.194 53.9426 120.192 54.1164Z" fill="#263238"/>
<path d="M118.941 59.3824L114.134 61.745L113.297 52.4277L118.941 59.3824Z" fill="#F28F8F"/>
<path d="M109.489 62.9141L114.741 64.7138C114.637 65.0655 114.464 65.3927 114.231 65.676C113.998 65.9592 113.711 66.1928 113.386 66.3628C113.062 66.5328 112.706 66.6357 112.341 66.6655C111.975 66.6952 111.608 66.6511 111.26 66.5358C110.553 66.2788 109.974 65.7577 109.644 65.0822C109.313 64.4067 109.258 63.6295 109.489 62.9141Z" fill="#B16668"/>
<path d="M110.038 63.8697C109.819 63.8223 109.595 63.8 109.371 63.803C109.363 64.3983 109.541 64.9813 109.879 65.471C110.218 65.9608 110.7 66.333 111.26 66.536C111.544 66.6302 111.842 66.6753 112.141 66.6693C112.217 66.0219 112.041 65.3703 111.649 64.8492C111.258 64.3281 110.681 63.9774 110.038 63.8697Z" fill="#F28F8F"/>
<path d="M138.271 116.265C140.211 116.076 142.124 115.683 143.982 115.095C145.537 114.731 147.12 114.503 148.715 114.414C150.366 114.251 152.025 114.132 153.684 113.955C154.099 113.91 154.269 114.303 154.292 114.695C154.296 115.044 154.223 115.39 154.078 115.707C153.934 116.025 153.721 116.306 153.455 116.532C152.915 116.978 152.293 117.315 151.625 117.525C151.039 117.732 150.44 117.903 149.833 118.036C149.196 118.169 147.678 118.48 148.026 119.421L138.271 116.265Z" fill="#FFA8A7"/>
<path d="M138.271 116.268C139.574 116.337 140.879 116.172 142.123 115.779C142.752 115.573 143.393 115.403 144.041 115.268C144.694 115.13 145.354 115.028 146.019 114.964C147.278 114.794 148.574 114.69 149.855 114.52C151.136 114.35 152.41 114.187 153.684 113.957C152.388 113.957 151.099 114.031 149.811 114.105C148.522 114.179 147.248 114.276 145.952 114.431C145.299 114.52 144.653 114.654 144.019 114.831C143.382 115.016 142.752 115.149 142.115 115.386C141.478 115.623 141.308 115.661 140.516 115.905C139.777 116.079 139.027 116.2 138.271 116.268Z" fill="#F28F8F"/>
<path d="M80.383 85.0623C84.7527 84.3216 89.9372 87.025 94.8995 93.6093L109.972 113.199C109.972 113.199 122.348 114.94 128.302 115.643C135.205 116.458 136.227 116.384 138.271 116.265L148.026 119.398C148.27 120.08 149.507 120.628 150.122 120.976C153.373 122.931 158.698 123.294 160.787 123.531C162.876 123.768 163.127 124.524 162.594 125.338C162.197 125.703 161.693 125.931 161.157 125.99C162.32 126.072 163.283 126.309 163.653 126.953C164.12 127.768 162.787 128.212 162.172 128.353L160.602 128.753C160.693 128.917 160.741 129.102 160.741 129.29C160.741 129.478 160.693 129.662 160.602 129.827C160.38 130.091 160.105 130.306 159.794 130.456C158.313 131.197 156.336 131.197 154.988 131.123C156.069 131.441 156.588 131.419 157.039 131.73C157.195 131.815 157.315 131.953 157.377 132.119C157.44 132.284 157.441 132.467 157.38 132.634C157.232 133.063 155.336 133.271 154.877 133.293C151.173 133.5 151.277 133.359 149.174 132.774C147.901 132.42 146.661 131.954 145.47 131.382C144.73 130.982 143.419 130.323 142.308 129.664C139.471 127.975 137.353 127.679 136.057 127.731C126.177 128.123 121.34 128.16 109.579 128.382C103.306 128.501 101.432 126.427 97.7288 122.072C93.8404 117.473 89.878 113.007 83.5677 105.645C79.0646 100.342 76.3909 93.6315 80.383 85.0623Z" fill="#FFA8A7"/>
<path d="M160.617 128.753C158.692 129.033 156.745 129.123 154.803 129.02C153.846 128.896 152.91 128.647 152.018 128.279L149.248 127.316C150.109 127.788 150.997 128.209 151.907 128.575C152.813 128.986 153.778 129.253 154.766 129.368C156.736 129.476 158.712 129.269 160.617 128.753Z" fill="#F28F8F"/>
<path d="M160.927 126.109C159.003 126.385 157.055 126.474 155.113 126.375C154.157 126.251 153.22 126.002 152.329 125.635L149.559 124.672C150.419 125.144 151.307 125.564 152.218 125.931C153.124 126.341 154.088 126.609 155.076 126.723C157.047 126.828 159.022 126.621 160.927 126.109Z" fill="#F28F8F"/>
<path d="M155.002 131.124C153.999 130.965 153.009 130.732 152.04 130.428C151.055 130.146 150.114 129.754 149.114 129.465C149.988 130.028 150.932 130.474 151.921 130.791C152.915 131.11 153.963 131.223 155.002 131.124Z" fill="#F28F8F"/>
<path d="M83.0565 82.3164C78.383 85.116 77.1313 87.8416 76.5092 90.0117C75.8871 92.1817 75.5982 97.8328 79.8939 103.691C84.1896 109.55 98.1063 123.4 100.632 125.748C103.157 128.095 103.135 128.762 108.379 128.71C113.889 128.629 118.059 128.318 118.059 128.318C116.611 126.085 116.007 123.409 116.356 120.77C116.83 116.053 118.896 114.105 118.896 114.105L110.223 112.764C110.223 112.764 101.269 100.966 96.2621 94.4851C91.2554 88.0045 87.604 83.931 83.0565 82.3164Z" fill="#455A64"/>
<path d="M170.712 38.0462C167.02 42.1765 161.892 44.7432 156.373 45.223L153.885 45.2971C148.398 45.1735 143.159 42.9851 139.215 39.1689C135.27 35.3526 132.91 30.1891 132.605 24.7091C132.3 19.2291 134.073 13.8357 137.57 9.60548C141.067 5.37528 146.031 2.61946 151.47 1.88812L153.959 1.69555C158.213 1.59496 162.403 2.7411 166.013 4.99273C169.623 7.24437 172.496 10.5031 174.277 14.3673C176.058 18.2316 176.669 22.5324 176.036 26.7399C175.402 30.9474 173.552 34.8776 170.712 38.0462Z" fill="white"/>
<path d="M170.238 5.84999C165.799 1.97288 160.074 -0.111157 154.181 0.00457391C148.289 0.120304 142.651 2.42749 138.367 6.47592C134.084 10.5243 131.462 16.0235 131.015 21.9003C130.567 27.7771 132.325 33.6099 135.946 38.2604L133.354 45.141C133.257 45.4005 133.241 45.683 133.307 45.9519C133.374 46.2207 133.52 46.4632 133.726 46.6479C133.932 46.8326 134.189 46.9509 134.464 46.9872C134.738 47.0236 135.017 46.9764 135.265 46.8519L141.819 43.5116C146.841 46.5901 152.83 47.6881 158.617 46.5917C164.405 45.4953 169.576 42.283 173.125 37.581C176.673 32.879 178.342 27.0242 177.809 21.158C177.275 15.2918 174.576 9.83452 170.238 5.84999ZM170.712 38.0457C167.02 42.1759 161.892 44.7426 156.373 45.2225L153.884 45.2965C148.397 45.1729 143.159 42.9846 139.214 39.1683C135.269 35.352 132.909 30.1885 132.604 24.7085C132.3 19.2285 134.073 13.8351 137.57 9.60492C141.067 5.37472 146.03 2.61891 151.47 1.88756L153.958 1.68759C158.212 1.58901 162.402 2.7367 166.011 4.98932C169.621 7.24193 172.493 10.5011 174.274 14.3655C176.054 18.2298 176.666 22.5306 176.033 26.7381C175.4 30.9456 173.55 34.8762 170.712 38.0457Z" fill="#455A64"/>
<path opacity="0.7" d="M170.712 38.0456C167.02 42.1758 161.892 44.7425 156.373 45.2224L153.885 45.2964C148.398 45.1729 143.159 42.9845 139.215 39.1682C135.27 35.3519 132.91 30.1884 132.605 24.7084C132.3 19.2284 134.073 13.835 137.57 9.60483C141.067 5.37463 146.031 2.61881 151.47 1.88747L153.959 1.6875C158.213 1.58892 162.402 2.73661 166.012 4.98923C169.622 7.24184 172.494 10.501 174.274 14.3654C176.055 18.2297 176.666 22.5305 176.033 26.738C175.401 30.9455 173.551 34.8761 170.712 38.0456Z" fill="white"/>
<path d="M146.93 14.0269C146.93 14.1603 146.93 14.3454 146.93 14.5602C146.93 14.775 146.93 14.9527 146.93 15.0935C146.913 15.5244 146.81 15.9476 146.626 16.3377C146.447 16.7226 146.195 17.0695 145.886 17.3598C145.544 17.6609 145.146 17.8923 144.715 18.0412C143.721 18.377 142.644 18.377 141.649 18.0412C141.219 17.8907 140.822 17.6594 140.479 17.3598C140.169 17.0695 139.918 16.7226 139.738 16.3377C139.554 15.9476 139.451 15.5244 139.435 15.0935C139.435 14.9527 139.435 14.775 139.435 14.5602C139.435 14.3454 139.435 14.1603 139.435 14.0269C139.442 13.5933 139.543 13.1663 139.731 12.7753C139.905 12.3898 140.158 12.0443 140.471 11.7606C140.821 11.4631 141.22 11.2276 141.649 11.0644C142.644 10.7285 143.721 10.7285 144.715 11.0644C145.146 11.2259 145.544 11.4615 145.893 11.7606C146.205 12.0463 146.457 12.3912 146.634 12.7753C146.811 13.1699 146.911 13.5947 146.93 14.0269ZM141.886 15.0194C141.889 15.1794 141.924 15.3372 141.989 15.4834C142.054 15.6297 142.147 15.7615 142.264 15.8711C142.522 16.067 142.836 16.173 143.16 16.173C143.484 16.173 143.798 16.067 144.056 15.8711C144.286 15.6551 144.422 15.357 144.434 15.0416C144.446 14.8863 144.446 14.7303 144.434 14.575C144.446 14.4172 144.446 14.2588 144.434 14.101C144.421 13.788 144.285 13.4927 144.056 13.2789C143.798 13.0831 143.484 12.977 143.16 12.977C142.836 12.977 142.522 13.0831 142.264 13.2789C142.035 13.4927 141.899 13.788 141.886 14.101C141.874 14.2588 141.874 14.4172 141.886 14.575C141.875 14.7229 141.875 14.8715 141.886 15.0194Z" fill="#01966B"/>
<path d="M155.618 17.783C155.618 17.8314 155.608 17.8793 155.589 17.9238C155.57 17.9683 155.542 18.0086 155.507 18.0422C155.472 18.078 155.431 18.1063 155.385 18.1254C155.339 18.1445 155.29 18.154 155.24 18.1533H153.522C153.472 18.154 153.423 18.1445 153.377 18.1254C153.331 18.1063 153.29 18.078 153.255 18.0422C153.22 18.0086 153.193 17.9683 153.174 17.9238C153.155 17.8793 153.145 17.8314 153.144 17.783V14.2797C153.163 13.9349 153.061 13.5944 152.855 13.3169C152.739 13.1924 152.596 13.0957 152.437 13.0342C152.278 12.9726 152.107 12.9477 151.937 12.9614C151.769 12.9461 151.6 12.9703 151.443 13.032C151.286 13.0937 151.146 13.1913 151.033 13.3169C150.828 13.5944 150.726 13.9349 150.745 14.2797V17.783C150.744 17.8314 150.734 17.8793 150.715 17.9238C150.696 17.9683 150.668 18.0086 150.633 18.0422C150.6 18.0778 150.56 18.106 150.516 18.1252C150.471 18.1443 150.423 18.1539 150.374 18.1533H148.626C148.578 18.1539 148.53 18.1443 148.485 18.1252C148.44 18.106 148.4 18.0778 148.367 18.0422C148.332 18.0086 148.304 17.9683 148.285 17.9238C148.266 17.8793 148.256 17.8314 148.256 17.783V11.3246C148.254 11.2759 148.264 11.2274 148.283 11.1826C148.302 11.1378 148.331 11.0978 148.367 11.0653C148.4 11.0288 148.44 10.9994 148.484 10.979C148.529 10.9586 148.577 10.9476 148.626 10.9468H150.308C150.357 10.9485 150.405 10.9598 150.449 10.9802C150.494 11.0005 150.534 11.0294 150.567 11.0653C150.603 11.0978 150.632 11.1378 150.651 11.1826C150.67 11.2274 150.679 11.2759 150.678 11.3246V11.643C150.763 11.5411 150.855 11.4446 150.952 11.3542C151.074 11.2437 151.211 11.1514 151.359 11.0802C151.535 10.9982 151.719 10.9337 151.907 10.8876C152.15 10.8319 152.399 10.807 152.648 10.8135C153.06 10.8072 153.471 10.8698 153.863 10.9987C154.22 11.1171 154.547 11.3146 154.818 11.5764C155.091 11.8545 155.3 12.1879 155.433 12.554C155.59 13.0088 155.665 13.4877 155.655 13.9687L155.618 17.783Z" fill="#01966B"/>
<path d="M158.084 31.994C158.084 32.1347 158.084 32.3125 158.084 32.5273C158.084 32.742 158.084 32.9198 158.084 33.0605C158.071 33.492 157.967 33.9159 157.78 34.3048C157.605 34.6922 157.353 35.04 157.039 35.3269C156.698 35.6294 156.3 35.861 155.869 36.0083C155.38 36.1835 154.863 36.2688 154.343 36.2601C153.821 36.2682 153.302 36.183 152.81 36.0083C152.379 35.861 151.981 35.6294 151.64 35.3269C151.326 35.04 151.074 34.6922 150.899 34.3048C150.712 33.9159 150.609 33.492 150.596 33.0605C150.596 32.9198 150.596 32.742 150.596 32.5273C150.596 32.3125 150.596 32.1347 150.596 31.994C150.6 31.5632 150.699 31.1385 150.885 30.7497C151.06 30.3626 151.312 30.015 151.625 29.7276C151.972 29.4271 152.371 29.1935 152.803 29.0388C153.294 28.8616 153.814 28.7738 154.336 28.7796C154.856 28.7733 155.373 28.8611 155.862 29.0388C156.293 29.1935 156.693 29.4271 157.039 29.7276C157.357 30.0112 157.609 30.3598 157.78 30.7497C157.967 31.1386 158.071 31.5625 158.084 31.994ZM153.047 32.9939C153.05 33.1495 153.085 33.3028 153.15 33.4443C153.215 33.5857 153.309 33.7122 153.425 33.816C153.677 34.0226 153.996 34.1282 154.321 34.1122C154.644 34.1285 154.961 34.0227 155.21 33.816C155.326 33.7115 155.419 33.585 155.485 33.4438C155.552 33.3026 155.589 33.1496 155.595 32.9939C155.625 32.6786 155.625 32.3612 155.595 32.0458C155.589 31.8901 155.552 31.7371 155.485 31.5959C155.419 31.4547 155.326 31.3282 155.21 31.2237C154.961 31.017 154.644 30.9112 154.321 30.9275C153.996 30.9115 153.677 31.0171 153.425 31.2237C153.309 31.3275 153.215 31.454 153.15 31.5955C153.085 31.7369 153.05 31.8902 153.047 32.0458C153.008 32.3606 153.008 32.6791 153.047 32.9939Z" fill="#01966B"/>
<path d="M167.786 28.9211H169.49C169.539 28.9204 169.589 28.9299 169.634 28.949C169.68 28.9681 169.722 28.9964 169.756 29.0322C169.792 29.0653 169.82 29.1054 169.839 29.1501C169.858 29.1947 169.868 29.2429 169.867 29.2915V30.6839C169.867 30.784 169.828 30.8801 169.757 30.951C169.686 31.0218 169.59 31.0616 169.49 31.0616H167.786V35.7424C167.788 35.7911 167.779 35.8396 167.759 35.8844C167.74 35.9292 167.711 35.9692 167.675 36.0017C167.641 36.0374 167.599 36.0658 167.553 36.0849C167.507 36.104 167.458 36.1135 167.408 36.1128H165.668C165.618 36.1135 165.569 36.104 165.523 36.0849C165.477 36.0658 165.436 36.0374 165.401 36.0017C165.365 35.9692 165.336 35.9292 165.317 35.8844C165.298 35.8396 165.289 35.7911 165.29 35.7424V31.069H162.631V35.7498C162.633 35.7985 162.624 35.847 162.605 35.8918C162.585 35.9366 162.557 35.9766 162.52 36.0091C162.487 36.044 162.446 36.0718 162.402 36.0908C162.357 36.1099 162.309 36.1199 162.261 36.1202H160.513C160.463 36.1209 160.414 36.1114 160.368 36.0923C160.322 36.0732 160.281 36.0449 160.246 36.0091C160.21 35.9766 160.181 35.9366 160.162 35.8918C160.143 35.847 160.134 35.7985 160.135 35.7498V31.069H159.18C159.131 31.0687 159.084 31.0587 159.039 31.0397C158.995 31.0206 158.954 30.9928 158.921 30.9579C158.885 30.9234 158.857 30.882 158.837 30.8361C158.818 30.7902 158.809 30.741 158.81 30.6913V29.2915C158.809 29.2429 158.819 29.1947 158.838 29.1501C158.857 29.1054 158.885 29.0653 158.921 29.0322C158.954 28.9974 158.995 28.9696 159.039 28.9505C159.084 28.9314 159.131 28.9214 159.18 28.9211H160.135V28.5434C160.131 28.1537 160.209 27.7675 160.365 27.4102C160.51 27.0879 160.725 26.802 160.994 26.5733C161.277 26.3394 161.601 26.161 161.95 26.0474C162.338 25.927 162.743 25.867 163.15 25.8697H164.468C164.517 25.8691 164.565 25.8787 164.609 25.8978C164.654 25.9169 164.694 25.9452 164.727 25.9808C164.763 26.0153 164.791 26.0567 164.811 26.1026C164.83 26.1484 164.839 26.1977 164.838 26.2474V27.6472C164.838 27.6957 164.828 27.7436 164.809 27.7881C164.79 27.8326 164.762 27.8729 164.727 27.9065C164.694 27.942 164.654 27.9703 164.609 27.9894C164.565 28.0086 164.517 28.0181 164.468 28.0176H163.224C163.138 28.0089 163.052 28.0198 162.971 28.0493C162.89 28.0788 162.817 28.1262 162.757 28.1879C162.663 28.3104 162.615 28.4629 162.624 28.6175V28.9211H165.283V28.5434C165.275 28.1534 165.353 27.7665 165.512 27.4102C165.657 27.0879 165.873 26.802 166.142 26.5733C166.423 26.3379 166.748 26.1593 167.097 26.0474C167.498 25.9227 167.915 25.8627 168.334 25.8697H169.653C169.701 25.87 169.749 25.88 169.793 25.899C169.838 25.9181 169.878 25.9459 169.912 25.9808C169.948 26.0153 169.976 26.0567 169.995 26.1026C170.014 26.1484 170.024 26.1977 170.023 26.2474V27.6472C170.021 27.7449 169.981 27.8379 169.912 27.907C169.843 27.976 169.75 28.0157 169.653 28.0176H168.401C168.316 28.0084 168.231 28.019 168.151 28.0486C168.072 28.0781 168 28.1258 167.942 28.1879C167.847 28.3104 167.8 28.4629 167.808 28.6175L167.786 28.9211Z" fill="#01966B"/>
<path d="M142.19 36.2239C141.972 36.2217 141.758 36.1554 141.577 36.0333C141.395 35.9112 141.254 35.7386 141.17 35.5368C141.085 35.3351 141.062 35.113 141.102 34.8981C141.143 34.6832 141.246 34.4849 141.398 34.3278L164.565 11.0495C164.661 10.9226 164.783 10.8179 164.923 10.7424C165.064 10.6668 165.218 10.6223 165.377 10.6118C165.536 10.6013 165.695 10.625 165.844 10.6814C165.993 10.7377 166.128 10.8254 166.24 10.9385C166.352 11.0516 166.438 11.1874 166.493 11.3368C166.548 11.4862 166.57 11.6456 166.558 11.8043C166.546 11.963 166.5 12.1173 166.423 12.2567C166.347 12.3961 166.241 12.5173 166.113 12.6122L142.975 35.8683C142.875 35.9776 142.754 36.0654 142.619 36.1265C142.484 36.1876 142.338 36.2207 142.19 36.2239Z" fill="#37474F"/>
</svg>
