<svg width="430" height="321" viewBox="0 0 430 321" fill="none" xmlns="http://www.w3.org/2000/svg">
<path d="M429.732 281.211H0.268311V281.426H429.732V281.211Z" fill="#EBEBEB"/>
<path d="M73.7753 289.391H45.3276V289.605H73.7753V289.391Z" fill="#EBEBEB"/>
<path d="M183.795 287.059H147.265V287.273H183.795V287.059Z" fill="#EBEBEB"/>
<path d="M97.0351 292.398H80.5522V292.613H97.0351V292.398Z" fill="#EBEBEB"/>
<path d="M386.7 295.926H373.618V296.141H386.7V295.926Z" fill="#EBEBEB"/>
<path d="M365.965 295.926H336.512V296.141H365.965V295.926Z" fill="#EBEBEB"/>
<path d="M285.286 289.742H264.818V289.957H285.286V289.742Z" fill="#EBEBEB"/>
<path d="M203.834 242.904H37.9924C36.6916 242.904 35.4441 242.388 34.5244 241.468C33.6046 240.548 33.0879 239.301 33.0879 238V4.86153C33.0992 3.56824 33.6209 2.33177 34.5395 1.42127C35.458 0.510772 36.699 -4.95824e-05 37.9924 3.60968e-09H203.834C205.135 3.60969e-09 206.382 0.51672 207.302 1.43649C208.222 2.35625 208.738 3.60372 208.738 4.90447V238C208.738 239.301 208.222 240.548 207.302 241.468C206.382 242.388 205.135 242.904 203.834 242.904ZM37.9924 0.171786C36.7493 0.174057 35.5577 0.668881 34.6787 1.54789C33.7997 2.42689 33.3049 3.61843 33.3026 4.86153V238C33.3049 239.243 33.7997 240.435 34.6787 241.314C35.5577 242.193 36.7493 242.688 37.9924 242.69H203.834C205.077 242.688 206.269 242.193 207.148 241.314C208.027 240.435 208.521 239.243 208.524 238V4.86153C208.521 3.61843 208.027 2.42689 207.148 1.54789C206.269 0.668881 205.077 0.174057 203.834 0.171786H37.9924Z" fill="#EBEBEB"/>
<path d="M389.628 242.904H223.769C222.469 242.902 221.223 242.385 220.304 241.466C219.385 240.546 218.867 239.3 218.865 238V4.86153C218.879 3.56894 219.401 2.33377 220.319 1.42375C221.237 0.513732 222.477 0.00218879 223.769 0H389.628C390.919 0.00447028 392.155 0.517288 393.07 1.4273C393.985 2.33732 394.504 3.5712 394.516 4.86153V238C394.516 239.298 394.001 240.543 393.085 241.462C392.169 242.381 390.926 242.9 389.628 242.904ZM223.769 0.171786C222.526 0.174057 221.335 0.668881 220.456 1.54789C219.577 2.42689 219.082 3.61843 219.08 4.86153V238C219.082 239.243 219.577 240.435 220.456 241.314C221.335 242.193 222.526 242.688 223.769 242.69H389.628C390.871 242.688 392.063 242.193 392.942 241.314C393.821 240.435 394.316 239.243 394.318 238V4.86153C394.316 3.61843 393.821 2.42689 392.942 1.54789C392.063 0.668881 390.871 0.174057 389.628 0.171786H223.769Z" fill="#EBEBEB"/>
<path d="M264.388 121.43L357.041 121.43V28.5282L264.388 28.5282V121.43Z" fill="#F0F0F0"/>
<path d="M264.388 28.5391H262.791V121.441H264.388V28.5391Z" fill="#E0E0E0"/>
<path d="M272.574 115.563L348.864 115.562V34.3939L272.574 34.3939V115.563Z" fill="#FAFAFA"/>
<path d="M302.611 97.9159H326.772C332.012 97.9159 335.516 93.6728 334.597 88.4678L329.899 61.5576C329.377 58.9538 327.989 56.6032 325.962 54.8878C323.935 53.1725 321.387 52.1932 318.733 52.1094H294.631C289.392 52.1094 285.887 56.3525 286.806 61.5576L291.505 88.4678C292.023 91.0625 293.401 93.4066 295.416 95.1211C297.432 96.8356 299.966 97.8203 302.611 97.9159Z" fill="#F0F0F0"/>
<path d="M90.4299 149.641H69.8157V276.805H90.4299V149.641Z" fill="#F0F0F0"/>
<path d="M180.883 276.812H71.9199V281.202H180.883V276.812Z" fill="#F0F0F0"/>
<path d="M90.4299 276.812H182.696L182.696 149.648H90.4299L90.4299 276.812Z" fill="#F5F5F5"/>
<path d="M94.1403 238.562H178.985V215.852H94.1403V238.562Z" fill="#F0F0F0"/>
<path d="M94.1403 268.289H178.985V245.579H94.1403V268.289Z" fill="#F0F0F0"/>
<path d="M168.945 214.465H104.182C103.622 214.465 103.168 214.919 103.168 215.478V216.569C103.168 217.129 103.622 217.583 104.182 217.583H168.945C169.504 217.583 169.958 217.129 169.958 216.569V215.478C169.958 214.919 169.504 214.465 168.945 214.465Z" fill="#F5F5F5"/>
<path d="M168.945 244.191H104.182C103.622 244.191 103.168 244.645 103.168 245.205V246.296C103.168 246.856 103.622 247.309 104.182 247.309H168.945C169.504 247.309 169.958 246.856 169.958 246.296V245.205C169.958 244.645 169.504 244.191 168.945 244.191Z" fill="#F5F5F5"/>
<path d="M94.1403 179.359H178.985V156.649H94.1403V179.359Z" fill="#F0F0F0"/>
<path d="M94.1403 208.855H178.985V186.145H94.1403V208.855Z" fill="#F0F0F0"/>
<path d="M168.945 155.27H104.182C103.622 155.27 103.168 155.723 103.168 156.283V157.374C103.168 157.934 103.622 158.387 104.182 158.387H168.945C169.504 158.387 169.958 157.934 169.958 157.374V156.283C169.958 155.723 169.504 155.27 168.945 155.27Z" fill="#F5F5F5"/>
<path d="M168.945 184.746H104.182C103.622 184.746 103.168 185.2 103.168 185.76V186.85C103.168 187.41 103.622 187.864 104.182 187.864H168.945C169.504 187.864 169.958 187.41 169.958 186.85V185.76C169.958 185.2 169.504 184.746 168.945 184.746Z" fill="#F5F5F5"/>
<path d="M179.355 21.5195H63.6487V123.096H179.355V21.5195Z" fill="#E6E6E6"/>
<path d="M191.757 17.5703H56.1585C56.0078 17.5703 55.8585 17.6001 55.7194 17.6581C55.5802 17.716 55.4539 17.8009 55.3477 17.9079C55.2415 18.0149 55.1575 18.1419 55.1006 18.2815C55.0437 18.4211 55.015 18.5705 55.0161 18.7213C55.0161 19.0243 55.1365 19.3148 55.3507 19.5291C55.565 19.7433 55.8555 19.8636 56.1585 19.8636H191.757C192.061 19.8637 192.353 19.7436 192.568 19.5296C192.784 19.3156 192.906 19.025 192.908 18.7213C192.908 18.416 192.787 18.1233 192.571 17.9074C192.355 17.6916 192.063 17.5703 191.757 17.5703Z" fill="#E6E6E6"/>
<path d="M184.268 21.5195H65.9419V123.096H184.268V21.5195Z" fill="#F0F0F0"/>
<path d="M179.355 123.105H63.6487V126.361H182.739L179.355 123.105Z" fill="#E6E6E6"/>
<path d="M192.444 123.105H74.1272L77.5028 126.361H195.829L192.444 123.105Z" fill="#F0F0F0"/>
<path d="M177.396 116.228V28.3945L72.8219 28.3945V116.228H177.396Z" fill="#FAFAFA"/>
<path d="M96.5627 116.228L136.898 28.3945H155.949L115.605 116.228H96.5627Z" fill="white"/>
<path d="M119.693 116.228L160.037 28.3945H167.458L127.123 116.228H119.693Z" fill="white"/>
<path d="M177.396 116.228V28.3945H176.52V116.228H177.396Z" fill="#E6E6E6"/>
<g opacity="0.4">
<path d="M72.899 15.5156H61.0715V99.3383H72.899V15.5156Z" fill="#F0F0F0"/>
<path d="M77.5115 15.5156H68.2952V99.3383H77.5115V15.5156Z" fill="#E6E6E6"/>
<path d="M84.7264 15.5156H72.8989V99.3383H84.7264V15.5156Z" fill="#F0F0F0"/>
<path d="M89.3386 15.5156H80.1223V99.3383H89.3386V15.5156Z" fill="#E6E6E6"/>
<path d="M96.554 15.5156H84.7266V99.3383H96.554V15.5156Z" fill="#F0F0F0"/>
</g>
<g opacity="0.4">
<path d="M172.999 15.5156H166.179V99.3383H172.999V15.5156Z" fill="#F0F0F0"/>
<path d="M175.644 15.5156H170.336V99.3383H175.644V15.5156Z" fill="#E6E6E6"/>
<path d="M179.81 15.5156H172.99V99.3383H179.81V15.5156Z" fill="#F0F0F0"/>
<path d="M182.464 15.5156H177.156V99.3383H182.464V15.5156Z" fill="#E6E6E6"/>
<path d="M186.63 15.5156H179.81V99.3383H186.63V15.5156Z" fill="#F0F0F0"/>
</g>
<path d="M306.776 183.992C306.675 185.234 306.945 186.479 307.551 187.568C308.157 188.658 309.072 189.543 310.181 190.112C311.291 190.681 312.543 190.909 313.782 190.766C315.02 190.623 316.188 190.117 317.139 189.31C318.09 188.504 318.78 187.434 319.122 186.235C319.465 185.036 319.444 183.763 319.063 182.576C318.682 181.389 317.958 180.342 316.982 179.567C316.005 178.791 314.821 178.323 313.579 178.22C311.912 178.085 310.259 178.616 308.984 179.699C307.708 180.781 306.914 182.325 306.776 183.992Z" fill="#E0E0E0"/>
<path d="M324.306 194.026C327.755 193.518 330.14 190.311 329.633 186.861C329.125 183.412 325.917 181.027 322.468 181.534C319.018 182.042 316.633 185.25 317.141 188.699C317.648 192.148 320.856 194.533 324.306 194.026Z" fill="#E0E0E0"/>
<path d="M328.138 188.575C328.037 189.818 328.306 191.062 328.912 192.152C329.518 193.241 330.434 194.126 331.543 194.695C332.652 195.265 333.905 195.492 335.143 195.35C336.382 195.207 337.55 194.7 338.5 193.894C339.451 193.087 340.141 192.017 340.483 190.818C340.826 189.62 340.805 188.347 340.424 187.16C340.043 185.973 339.319 184.925 338.343 184.15C337.367 183.375 336.183 182.906 334.94 182.803C334.114 182.734 333.283 182.828 332.493 183.081C331.704 183.334 330.972 183.74 330.34 184.276C329.708 184.813 329.188 185.469 328.81 186.206C328.432 186.944 328.204 187.749 328.138 188.575Z" fill="#E0E0E0"/>
<path d="M295.052 187.297C294.951 188.539 295.22 189.784 295.827 190.873C296.433 191.962 297.348 192.848 298.457 193.417C299.566 193.986 300.819 194.214 302.057 194.071C303.296 193.928 304.464 193.422 305.415 192.615C306.365 191.809 307.055 190.738 307.398 189.54C307.74 188.341 307.72 187.068 307.339 185.881C306.958 184.694 306.233 183.647 305.257 182.871C304.281 182.096 303.097 181.627 301.855 181.525C300.187 181.389 298.535 181.921 297.259 183.003C295.984 184.085 295.19 185.63 295.052 187.297Z" fill="#E0E0E0"/>
<path d="M344.456 194.026C347.906 193.518 350.291 190.311 349.783 186.861C349.276 183.412 346.068 181.027 342.618 181.534C339.169 182.042 336.784 185.25 337.292 188.699C337.799 192.148 341.007 194.533 344.456 194.026Z" fill="#E0E0E0"/>
<path d="M296.937 187.278C299.587 185.011 299.898 181.026 297.631 178.376C295.365 175.726 291.38 175.415 288.73 177.682C286.08 179.948 285.769 183.933 288.035 186.583C290.302 189.233 294.287 189.544 296.937 187.278Z" fill="#E0E0E0"/>
<path d="M277.633 185.859C277.532 187.102 277.802 188.346 278.408 189.435C279.014 190.525 279.929 191.41 281.038 191.979C282.147 192.548 283.4 192.776 284.639 192.633C285.877 192.491 287.045 191.984 287.996 191.178C288.946 190.371 289.636 189.301 289.979 188.102C290.321 186.904 290.301 185.63 289.92 184.443C289.539 183.256 288.814 182.209 287.838 181.434C286.862 180.658 285.678 180.19 284.436 180.087C282.769 179.952 281.116 180.484 279.84 181.566C278.565 182.648 277.771 184.192 277.633 185.859Z" fill="#E0E0E0"/>
<path d="M270.427 187.562C270.427 187.562 271.509 213.39 313.012 213.39C354.515 213.39 355.598 187.562 355.598 187.562H270.427Z" fill="#F0F0F0"/>
<path d="M379.278 213.391H371.385V281.203H379.278V213.391Z" fill="#E6E6E6"/>
<path d="M381.383 213.391H376.736V281.203H381.383V213.391Z" fill="#F0F0F0"/>
<path d="M345.694 213.391H337.801V281.203H345.694V213.391Z" fill="#E6E6E6"/>
<path d="M347.172 213.391H342.525V281.203H347.172V213.391Z" fill="#F0F0F0"/>
<path d="M270.77 221.625H382.826V213.405H270.77V221.625Z" fill="#F0F0F0"/>
<path d="M236.525 213.391H228.631V281.203H236.525V213.391Z" fill="#E6E6E6"/>
<path d="M238.002 213.391H233.355V281.203H238.002V213.391Z" fill="#F0F0F0"/>
<path d="M227.223 221.625H267.395V213.405H227.223V221.625Z" fill="#E6E6E6"/>
<path d="M270.1 213.391H262.207V281.203H270.1V213.391Z" fill="#E6E6E6"/>
<path d="M272.213 213.391H267.566V281.203H272.213V213.391Z" fill="#F0F0F0"/>
<path d="M215 320.005C306.976 320.005 381.537 315.652 381.537 310.282C381.537 304.912 306.976 300.559 215 300.559C123.024 300.559 48.4626 304.912 48.4626 310.282C48.4626 315.652 123.024 320.005 215 320.005Z" fill="#F5F5F5"/>
<path d="M305.599 301.741C305.6 303.457 304.992 305.119 303.883 306.429C302.775 307.739 301.237 308.613 299.544 308.896C278.705 312.412 257.424 312.412 236.585 308.896C234.899 308.606 233.37 307.728 232.269 306.418C231.169 305.109 230.568 303.452 230.572 301.741V232.168H305.634L305.599 301.741Z" fill="#01966B"/>
<path opacity="0.3" d="M230.529 233.422V243.188C235.047 244.863 249.881 246.091 268.064 246.091C286.248 246.091 301.107 244.863 305.6 243.188V233.422H230.529Z" fill="black"/>
<path d="M307.008 240.87C307.008 243.078 289.967 244.864 268.064 244.864C246.162 244.864 229.121 243.078 229.121 240.87L228.408 232.195H307.764L307.008 240.87Z" fill="#01966B"/>
<path d="M268.064 236.178C289.966 236.178 307.721 234.394 307.721 232.192C307.721 229.991 289.966 228.207 268.064 228.207C246.163 228.207 228.408 229.991 228.408 232.192C228.408 234.394 246.163 236.178 268.064 236.178Z" fill="#01966B"/>
<path opacity="0.3" d="M268.064 236.178C289.966 236.178 307.721 234.394 307.721 232.192C307.721 229.991 289.966 228.207 268.064 228.207C246.163 228.207 228.408 229.991 228.408 232.192C228.408 234.394 246.163 236.178 268.064 236.178Z" fill="black"/>
<path opacity="0.2" d="M240.596 296.841C239.824 296.839 239.085 296.531 238.539 295.986C237.994 295.44 237.686 294.701 237.684 293.929V254.041C237.686 253.269 237.994 252.53 238.539 251.984C239.085 251.439 239.824 251.131 240.596 251.129C241.367 251.133 242.105 251.442 242.65 251.987C243.195 252.532 243.503 253.27 243.508 254.041V293.929C243.503 294.7 243.195 295.438 242.65 295.983C242.105 296.528 241.367 296.836 240.596 296.841Z" fill="black"/>
<path opacity="0.2" d="M295.542 296.841C294.77 296.839 294.031 296.531 293.485 295.986C292.94 295.44 292.632 294.701 292.63 293.929V254.041C292.632 253.269 292.94 252.53 293.485 251.984C294.031 251.439 294.77 251.131 295.542 251.129C296.312 251.133 297.05 251.442 297.596 251.987C298.141 252.532 298.449 253.27 298.453 254.041V293.929C298.449 294.7 298.141 295.438 297.596 295.983C297.05 296.528 296.312 296.836 295.542 296.841Z" fill="black"/>
<path opacity="0.2" d="M277.22 296.841C276.45 296.836 275.712 296.528 275.166 295.983C274.621 295.438 274.313 294.7 274.309 293.929V254.041C274.313 253.27 274.621 252.532 275.166 251.987C275.712 251.442 276.45 251.133 277.22 251.129C277.992 251.131 278.731 251.439 279.277 251.984C279.822 252.53 280.13 253.269 280.132 254.041V293.929C280.13 294.701 279.822 295.44 279.277 295.986C278.731 296.531 277.992 296.839 277.22 296.841Z" fill="black"/>
<path opacity="0.2" d="M258.908 296.841C258.137 296.836 257.399 296.528 256.854 295.983C256.309 295.438 256.001 294.7 255.997 293.929V254.041C256.001 253.27 256.309 252.532 256.854 251.987C257.399 251.442 258.137 251.133 258.908 251.129C259.68 251.131 260.419 251.439 260.965 251.984C261.51 252.53 261.818 253.269 261.82 254.041V293.929C261.818 294.701 261.51 295.44 260.965 295.986C260.419 296.531 259.68 296.839 258.908 296.841Z" fill="black"/>
<path d="M165.938 72.2901C165.938 73.0783 165.704 73.8489 165.266 74.5043C164.828 75.1597 164.206 75.6705 163.478 75.9722C162.749 76.2738 161.948 76.3527 161.175 76.1989C160.402 76.0452 159.692 75.6656 159.134 75.1082C158.577 74.5509 158.197 73.8407 158.044 73.0676C157.89 72.2945 157.969 71.4932 158.27 70.765C158.572 70.0367 159.083 69.4143 159.738 68.9764C160.394 68.5384 161.164 68.3047 161.952 68.3047C163.009 68.3047 164.023 68.7246 164.771 69.472C165.518 70.2194 165.938 71.2331 165.938 72.2901Z" fill="#263238"/>
<path d="M158.749 72.8633C158.71 72.8644 158.672 72.8544 158.638 72.8347C158.605 72.8149 158.578 72.7861 158.56 72.7516C158.297 72.2677 158.131 71.7367 158.073 71.1889C158.015 70.641 158.065 70.0871 158.221 69.5587C158.377 69.0303 158.636 68.5377 158.982 68.1092C159.328 67.6807 159.755 67.3246 160.239 67.0612C160.723 66.7979 161.254 66.6324 161.802 66.5742C162.35 66.5161 162.904 66.5664 163.432 66.7223C163.961 66.8782 164.453 67.1367 164.882 67.483C165.31 67.8293 165.666 68.2565 165.93 68.7404C165.955 68.7909 165.96 68.8492 165.944 68.9034C165.928 68.9575 165.892 69.0037 165.844 69.0325C165.819 69.0461 165.792 69.0547 165.764 69.0577C165.735 69.0607 165.707 69.0582 165.68 69.0502C165.653 69.0422 165.627 69.029 165.605 69.0112C165.583 68.9934 165.565 68.9714 165.552 68.9466C165.074 68.0695 164.268 67.418 163.311 67.1353C162.353 66.8526 161.322 66.9619 160.445 67.4392C159.568 67.9164 158.917 68.7225 158.634 69.6801C158.351 70.6377 158.461 71.6684 158.938 72.5455C158.952 72.5703 158.96 72.5975 158.963 72.6256C158.966 72.6538 158.964 72.6822 158.956 72.7094C158.948 72.7365 158.934 72.7618 158.917 72.7838C158.899 72.8058 158.877 72.824 158.852 72.8375C158.82 72.854 158.785 72.8628 158.749 72.8633Z" fill="#263238"/>
<path d="M154.875 90.4995C154.099 90.4964 153.339 90.2781 152.679 89.8689C152.019 89.4597 151.485 88.8757 151.137 88.1816C150.79 87.4876 150.641 86.7106 150.708 85.9371C150.775 85.1636 151.055 84.4238 151.517 83.7999C151.846 83.3588 152.259 82.9869 152.732 82.7054C153.205 82.4239 153.729 82.2384 154.274 82.1593C154.302 82.1545 154.33 82.1554 154.358 82.1619C154.385 82.1685 154.411 82.1806 154.433 82.1975C154.456 82.2144 154.475 82.2357 154.489 82.2602C154.503 82.2847 154.511 82.3117 154.514 82.3397C154.522 82.3954 154.507 82.4518 154.473 82.4968C154.44 82.5418 154.39 82.5717 154.334 82.5802C153.347 82.7249 152.457 83.2559 151.861 84.0565C151.265 84.857 151.011 85.8616 151.156 86.8491C151.301 87.8366 151.832 88.7262 152.632 89.3222C153.433 89.9182 154.437 90.1718 155.425 90.0271C155.482 90.018 155.54 90.0319 155.587 90.0657C155.634 90.0995 155.665 90.1505 155.674 90.2075C155.683 90.2645 155.669 90.3227 155.635 90.3694C155.602 90.4161 155.551 90.4475 155.494 90.4566C155.289 90.4837 155.082 90.498 154.875 90.4995Z" fill="#263238"/>
<path d="M176.529 96.9972C175.723 96.996 174.935 96.7602 174.261 96.3186C174.213 96.287 174.179 96.2381 174.167 96.1821C174.154 96.1261 174.163 96.0673 174.192 96.018C174.225 95.9715 174.275 95.9394 174.331 95.9282C174.387 95.917 174.445 95.9276 174.493 95.9579C175.33 96.5012 176.349 96.6897 177.325 96.4819C178.301 96.2741 179.155 95.687 179.698 94.8499C180.241 94.0127 180.43 92.994 180.222 92.0178C180.014 91.0417 179.427 90.1881 178.59 89.6448C178.542 89.6131 178.508 89.5642 178.496 89.5082C178.483 89.4522 178.492 89.3935 178.521 89.3441C178.554 89.2976 178.604 89.2655 178.66 89.2543C178.716 89.2432 178.774 89.2538 178.822 89.284C179.753 89.8903 180.406 90.8408 180.638 91.9274C180.87 93.0141 180.661 94.1483 180.059 95.0818C179.761 95.5462 179.374 95.9465 178.92 96.2592C178.466 96.5719 177.953 96.7907 177.413 96.9027C177.122 96.9638 176.826 96.9955 176.529 96.9972Z" fill="#263238"/>
<path d="M159.72 84.7223C162.831 84.7223 165.354 82.1996 165.354 79.0877C165.354 75.9758 162.831 73.4531 159.72 73.4531C156.608 73.4531 154.085 75.9758 154.085 79.0877C154.085 82.1996 156.608 84.7223 159.72 84.7223Z" fill="#263238"/>
<path d="M165.008 91.9559C167.926 89.0376 167.926 84.3062 165.008 81.3879C162.09 78.4696 157.358 78.4696 154.44 81.3879C151.522 84.3062 151.522 89.0376 154.44 91.9558C157.358 94.8741 162.09 94.8741 165.008 91.9559Z" fill="#263238"/>
<path d="M160.51 104.436C165.073 104.436 168.773 100.737 168.773 96.173C168.773 91.6096 165.073 87.9102 160.51 87.9102C155.946 87.9102 152.247 91.6096 152.247 96.173C152.247 100.737 155.946 104.436 160.51 104.436Z" fill="#263238"/>
<path d="M176.818 98.6253C177.866 94.1839 175.116 89.7336 170.674 88.6853C166.233 87.6371 161.783 90.3877 160.734 94.8292C159.686 99.2706 162.437 103.721 166.878 104.769C171.32 105.817 175.77 103.067 176.818 98.6253Z" fill="#263238"/>
<path d="M196.181 113.776C196.181 114.446 196.181 115.297 196.241 116.07C196.301 116.843 196.301 117.667 196.353 118.466C196.464 120.064 196.576 121.679 196.748 123.285C197.057 126.509 197.489 129.718 198.045 132.913C198.191 133.704 198.32 134.511 198.483 135.301L198.861 137.251C198.955 137.56 198.861 137.5 198.741 137.491C198.62 137.483 198.74 137.646 199.247 137.646C200.544 137.516 201.807 137.152 202.975 136.572C203.662 136.263 204.366 135.928 205.071 135.567C205.775 135.207 206.488 134.794 207.132 134.434L209.64 137.328C209.042 138.014 208.405 138.665 207.733 139.278C207.072 139.908 206.372 140.496 205.638 141.039C204.868 141.618 204.055 142.138 203.207 142.593C202.241 143.12 201.206 143.508 200.132 143.744C199.469 143.889 198.791 143.947 198.113 143.916C197.287 143.868 196.477 143.664 195.726 143.315C194.927 142.94 194.216 142.402 193.638 141.735C193.142 141.155 192.737 140.503 192.436 139.802C192.203 139.266 192.013 138.711 191.869 138.144L191.534 136.89C191.294 136.031 191.096 135.215 190.89 134.374C190.086 130.997 189.467 127.579 189.035 124.135C188.82 122.417 188.648 120.699 188.545 118.939C188.493 118.08 188.451 117.221 188.425 116.31C188.399 115.4 188.425 114.592 188.425 113.57L196.181 113.776Z" fill="#FFB573"/>
<path d="M192.015 104.515C199.342 110.123 199.05 120.697 199.05 120.697L185.942 123.832C185.942 123.832 181.923 113.198 183.555 109.307C185.255 105.253 187.892 101.354 192.015 104.515Z" fill="#01966B"/>
<path opacity="0.7" d="M192.015 104.515C199.342 110.123 199.05 120.697 199.05 120.697L185.942 123.832C185.942 123.832 181.923 113.198 183.555 109.307C185.255 105.253 187.892 101.354 192.015 104.515Z" fill="white"/>
<path d="M206.643 135.415L208.807 131.773L214.236 137.58C214.236 137.58 210.345 140.071 206.308 138.293L206.643 135.415Z" fill="#FFB573"/>
<path d="M211.478 130.031L218.444 134.137L214.236 137.581L208.807 131.775L211.478 130.031Z" fill="#FFB573"/>
<path d="M151.001 303.938L158.491 304.66L163.146 287.112L155.648 286.391L151.001 303.938Z" fill="#FFB573"/>
<path d="M112.607 289.192L119.333 292.713L127.329 276.858L120.604 273.336L112.607 289.192Z" fill="#FFB573"/>
<path d="M121.128 289.639L115.115 283.532C115.015 283.425 114.879 283.359 114.733 283.346C114.588 283.333 114.442 283.375 114.325 283.463L108.802 287.526C108.668 287.634 108.559 287.768 108.48 287.921C108.401 288.074 108.356 288.242 108.346 288.414C108.336 288.585 108.363 288.757 108.424 288.918C108.484 289.079 108.578 289.225 108.699 289.347C110.829 291.443 111.963 292.345 114.609 295.033C116.241 296.682 119.59 300.573 121.841 302.858C124.091 305.143 126.462 303.038 125.732 301.887C122.451 296.734 121.901 293.496 121.695 290.876C121.657 290.41 121.457 289.972 121.128 289.639Z" fill="#263238"/>
<path d="M159.659 302.391H150.581C150.418 302.393 150.261 302.448 150.132 302.547C150.003 302.646 149.911 302.784 149.868 302.941L147.926 310.079C147.878 310.248 147.87 310.427 147.903 310.6C147.936 310.774 148.01 310.937 148.118 311.076C148.226 311.216 148.365 311.328 148.524 311.404C148.683 311.48 148.858 311.517 149.034 311.513C152.221 311.513 153.733 311.513 157.71 311.513H169.881C173.188 311.513 173.883 308.172 172.509 307.863C166.376 306.506 162.837 304.633 160.948 302.847C160.59 302.54 160.13 302.378 159.659 302.391Z" fill="#263238"/>
<path opacity="0.2" d="M163.138 287.124L160.742 296.168H153.054L155.64 286.402L163.138 287.124Z" fill="black"/>
<path opacity="0.2" d="M120.595 273.336L127.329 276.866L123.206 285.035L116.472 281.504L120.595 273.336Z" fill="black"/>
<path d="M189.799 103.429C189.799 103.429 193.115 104.88 182 148.858L151.13 146.186C152.736 133.672 153.415 125.924 149.644 99.6153C154.045 99.0999 158.477 98.9018 162.906 99.0226C167.601 99.0936 172.286 99.4984 176.924 100.234C181.267 101.081 185.564 102.147 189.799 103.429Z" fill="#01966B"/>
<path opacity="0.7" d="M189.799 103.429C189.799 103.429 193.115 104.88 182 148.858L151.13 146.186C152.736 133.672 153.415 125.924 149.644 99.6153C154.045 99.0999 158.477 98.9018 162.906 99.0226C167.601 99.0936 172.286 99.4984 176.924 100.234C181.267 101.081 185.564 102.147 189.799 103.429Z" fill="white"/>
<path d="M162.906 98.7773C162.906 98.7773 161.188 98.7773 159.084 98.7773C157.839 100.693 163.095 106.284 169.778 111.781C171.392 106.774 173.935 106.791 173.935 106.791L162.906 98.7773Z" fill="white"/>
<path d="M176.915 100.129C176.915 100.129 177.697 100.241 179.569 100.67C180.806 102.585 181.502 107.378 177.851 111.553C176.417 106.399 173.943 106.863 173.943 106.863L176.915 100.129Z" fill="white"/>
<path d="M165.655 83.3633C166.153 87.95 166.316 96.2472 162.906 99.0301C162.906 99.0301 166.548 102.758 173.935 106.864C179.295 103.153 176.924 100.241 176.924 100.241C171.994 98.6092 172.449 94.8901 173.626 91.4544L165.655 83.3633Z" fill="#FFB573"/>
<path opacity="0.2" d="M168.91 86.6719L173.626 91.4561C173.336 92.2512 173.118 93.0704 172.973 93.9041C171.083 93.466 168.335 91.4905 168.3 89.4634C168.333 88.5037 168.54 87.5579 168.91 86.6719Z" fill="black"/>
<path d="M183.366 68.3984C186.526 71.1985 187.454 78.0184 184.448 82.648C183.545 77.9549 183.182 73.174 183.366 68.3984Z" fill="#263238"/>
<path d="M164.693 73.7278C164.143 81.2778 163.756 84.4644 167.02 88.8191C171.933 95.3728 181.33 94.385 184.122 87.1528C186.638 80.6336 187.111 69.3816 180.179 65.4134C178.656 64.5243 176.93 64.0409 175.167 64.0095C173.403 63.978 171.661 64.3996 170.108 65.2338C168.554 66.0681 167.24 67.2871 166.292 68.7743C165.344 70.2614 164.793 71.967 164.693 73.7278Z" fill="#FFB573"/>
<path d="M163.688 79.8141C169.271 79.5993 172.363 72.2985 170.963 69.2149C177.293 72.5132 186.879 75.1072 185.814 70.8641C184.379 65.135 177.448 60.9349 168.919 63.9926C163.98 66.14 159.754 70.8641 163.688 79.8141Z" fill="#263238"/>
<path d="M161.987 79.8062C162.226 81.2498 163.022 82.5422 164.203 83.4051C165.784 84.5303 167.227 83.2762 167.338 81.4467C167.441 79.789 166.746 77.2122 164.89 76.8171C164.484 76.7364 164.064 76.7587 163.669 76.8818C163.273 77.005 162.915 77.2252 162.626 77.5224C162.338 77.8195 162.128 78.1841 162.016 78.583C161.905 78.9819 161.895 79.4024 161.987 79.8062Z" fill="#FFB573"/>
<path d="M182 148.865C182 148.865 188.983 194.431 185.092 223.704C182.146 245.821 163.138 293.543 163.138 293.543L150.795 293.208C150.795 293.208 163.542 246.955 166.179 228.789C170.688 197.678 159.393 146.941 159.393 146.941L182 148.865Z" fill="#263238"/>
<path opacity="0.2" d="M169.958 158.203L163.37 168.588C165.354 180.9 166.613 193.319 167.141 205.779C176.4 189.202 172.054 166.973 169.958 158.203Z" fill="black"/>
<path d="M165.062 294.228L149.55 293.807L150.495 288.816L166.522 288.911L165.062 294.228Z" fill="#01966B"/>
<path d="M175.249 148.378C175.249 148.378 170.095 198.831 158.319 226.282C148.794 248.443 126.084 283.891 126.084 283.891L117.013 278.582C117.013 278.582 131.615 239.166 138.822 224.393C156.404 188.172 140.05 159.114 151.13 146.23L175.249 148.378Z" fill="#263238"/>
<path d="M127.072 284.658L115.502 278.311L117.383 273.363L129.709 280.321L127.072 284.658Z" fill="#01966B"/>
<path d="M150.821 144.348L149.189 146.993C149.069 147.191 149.301 147.44 149.661 147.466L182.034 150.266C182.309 150.266 182.558 150.171 182.584 150L183.108 147.26C183.108 147.071 182.91 146.89 182.61 146.865L151.345 144.159C151.249 144.144 151.15 144.154 151.059 144.187C150.967 144.22 150.886 144.275 150.821 144.348Z" fill="#01966B"/>
<path d="M154.721 148.204L153.862 148.136C153.698 148.136 153.578 148.024 153.595 147.921L154.3 144.365C154.3 144.253 154.48 144.185 154.643 144.202L155.502 144.271C155.674 144.271 155.794 144.382 155.768 144.485L155.073 148.041C155.038 148.144 154.875 148.222 154.721 148.204Z" fill="#263238"/>
<path d="M179.655 150.36L178.796 150.292C178.625 150.292 178.504 150.18 178.53 150.077L179.234 146.521C179.234 146.418 179.406 146.341 179.569 146.358L180.428 146.427C180.592 146.427 180.712 146.538 180.695 146.641L179.99 150.197C179.973 150.318 179.784 150.378 179.655 150.36Z" fill="#263238"/>
<path d="M167.183 149.287L166.325 149.21C166.161 149.21 166.041 149.098 166.058 148.995L166.763 145.439C166.763 145.336 166.934 145.259 167.106 145.276L167.965 145.353C168.128 145.353 168.249 145.465 168.231 145.568L167.527 149.124C167.51 149.227 167.355 149.296 167.183 149.287Z" fill="#263238"/>
<path d="M176.52 77.4895C176.434 78.0993 176.692 78.6404 177.087 78.692C177.482 78.7435 177.877 78.2969 177.946 77.687C178.015 77.0772 177.766 76.5361 177.371 76.4845C176.975 76.433 176.597 76.8796 176.52 77.4895Z" fill="#263238"/>
<path d="M183.409 78.4113C183.331 79.0212 183.589 79.5623 183.984 79.6138C184.379 79.6654 184.774 79.2187 184.843 78.6089C184.912 77.9991 184.671 77.4579 184.276 77.4064C183.881 77.3549 183.495 77.8015 183.409 78.4113Z" fill="#263238"/>
<path d="M184.079 77.4147L185.608 77.1914C185.608 77.1914 184.714 78.2307 184.079 77.4147Z" fill="#263238"/>
<path d="M180.703 79.0898C181.061 80.5523 181.616 81.9595 182.352 83.2728C182.012 83.4534 181.637 83.5578 181.253 83.5785C180.869 83.5993 180.485 83.536 180.127 83.3931L180.703 79.0898Z" fill="#ED893E"/>
<path d="M176.554 85.2028C175.346 84.8091 174.333 83.9709 173.72 82.858C173.704 82.8224 173.703 82.7824 173.716 82.7458C173.728 82.7092 173.754 82.6788 173.788 82.6604C173.825 82.6425 173.867 82.6396 173.906 82.6525C173.944 82.6653 173.976 82.6929 173.995 82.7291C174.376 83.3983 174.91 83.968 175.554 84.3919C176.197 84.8157 176.931 85.0818 177.697 85.1685C177.735 85.1685 177.772 85.1839 177.8 85.2113C177.827 85.2386 177.843 85.2758 177.843 85.3145C177.843 85.3532 177.827 85.3904 177.8 85.4178C177.772 85.4451 177.735 85.4605 177.697 85.4605C177.307 85.4176 176.924 85.3312 176.554 85.2028Z" fill="#263238"/>
<path d="M173.385 73.9539C173.335 73.9333 173.291 73.9009 173.256 73.8594C173.228 73.8322 173.205 73.7995 173.19 73.7633C173.175 73.7272 173.167 73.6883 173.167 73.649C173.167 73.6097 173.175 73.5708 173.19 73.5347C173.205 73.4985 173.228 73.4658 173.256 73.4386C173.677 73.0622 174.183 72.7936 174.731 72.656C175.278 72.5183 175.851 72.5157 176.4 72.6483C176.437 72.6591 176.472 72.6773 176.503 72.7019C176.533 72.7264 176.558 72.7568 176.577 72.7913C176.595 72.8257 176.607 72.8635 176.61 72.9024C176.614 72.9413 176.609 72.9805 176.598 73.0177C176.576 73.0938 176.524 73.1581 176.455 73.1967C176.386 73.2353 176.304 73.245 176.228 73.2238C175.776 73.1233 175.307 73.1316 174.859 73.2481C174.411 73.3646 173.997 73.5859 173.651 73.8938C173.614 73.9224 173.571 73.9426 173.525 73.953C173.479 73.9634 173.431 73.9637 173.385 73.9539Z" fill="#263238"/>
<path d="M186.303 75.7813C186.258 75.7638 186.217 75.7375 186.183 75.704C185.882 75.3506 185.502 75.0731 185.074 74.8941C184.645 74.715 184.181 74.6394 183.718 74.6733C183.679 74.682 183.638 74.6823 183.599 74.6741C183.56 74.666 183.522 74.6496 183.49 74.6261C183.458 74.6025 183.43 74.5723 183.41 74.5375C183.391 74.5027 183.378 74.4641 183.374 74.4242C183.362 74.3456 183.381 74.2653 183.428 74.2009C183.475 74.1365 183.545 74.0933 183.623 74.0806C184.184 74.0302 184.749 74.1145 185.27 74.3267C185.792 74.5389 186.255 74.8727 186.621 75.3003C186.663 75.3499 186.687 75.4117 186.691 75.4764C186.695 75.5412 186.677 75.6054 186.642 75.6595C186.606 75.7136 186.554 75.7546 186.493 75.7766C186.432 75.7986 186.365 75.8002 186.303 75.7813Z" fill="#263238"/>
<path d="M193.097 140.59C193.653 138.858 194.545 137.252 195.722 135.864C196.899 134.476 198.338 133.333 199.956 132.502C201.574 131.67 203.34 131.165 205.154 131.015C206.967 130.866 208.792 131.076 210.525 131.632C212.258 132.188 213.864 133.08 215.251 134.256C216.639 135.433 217.782 136.872 218.614 138.49C219.446 140.108 219.951 141.875 220.1 143.688C220.249 145.502 220.04 147.327 219.484 149.059L214.141 165.774L187.755 157.296L193.097 140.59Z" fill="#01966B"/>
<path opacity="0.3" d="M193.097 140.59C193.653 138.858 194.545 137.252 195.722 135.864C196.899 134.476 198.338 133.333 199.956 132.502C201.574 131.67 203.34 131.165 205.154 131.015C206.967 130.866 208.792 131.076 210.525 131.632C212.258 132.188 213.864 133.08 215.251 134.256C216.639 135.433 217.782 136.872 218.614 138.49C219.446 140.108 219.951 141.875 220.1 143.688C220.249 145.502 220.04 147.327 219.484 149.059L214.141 165.774L187.755 157.296L193.097 140.59Z" fill="black"/>
<path d="M167.063 132.227L162.236 147.258C162.165 147.474 162.138 147.702 162.156 147.928C162.174 148.155 162.237 148.376 162.341 148.578C162.445 148.78 162.588 148.959 162.761 149.106C162.935 149.252 163.136 149.363 163.353 149.431L187.746 157.265L193.106 140.584C194.231 137.089 196.697 134.182 199.963 132.504C203.229 130.826 207.028 130.513 210.525 131.634L184.491 123.268C180.992 122.15 177.192 122.464 173.925 124.144C170.658 125.823 168.19 128.73 167.063 132.227Z" fill="#01966B"/>
<path d="M180.153 143.623L186.879 122.691C186.902 122.615 186.908 122.536 186.898 122.458C186.888 122.38 186.861 122.305 186.82 122.239C186.778 122.172 186.723 122.115 186.658 122.071C186.592 122.028 186.518 121.999 186.441 121.986L179.569 120.973L178.71 123.687L183.718 125.293L178.049 142.935L180.153 143.623Z" fill="#263238"/>
<path d="M176.58 142.471C176.425 142.956 176.417 143.476 176.557 143.966C176.697 144.456 176.979 144.893 177.368 145.222C177.756 145.551 178.234 145.758 178.74 145.816C179.246 145.875 179.758 145.782 180.211 145.549C180.664 145.316 181.038 144.955 181.286 144.51C181.533 144.065 181.644 143.556 181.603 143.049C181.562 142.541 181.371 142.057 181.055 141.657C180.739 141.258 180.312 140.961 179.827 140.805C179.504 140.7 179.164 140.661 178.826 140.688C178.489 140.715 178.159 140.809 177.858 140.964C177.556 141.119 177.288 141.332 177.069 141.59C176.85 141.849 176.684 142.148 176.58 142.471Z" fill="#263238"/>
<path d="M189.017 159.767L222.859 170.632C222.982 170.672 223.112 170.687 223.241 170.677C223.369 170.667 223.495 170.631 223.61 170.572C223.725 170.513 223.827 170.432 223.911 170.333C223.994 170.234 224.057 170.12 224.096 169.997C224.137 169.874 224.153 169.744 224.144 169.614C224.134 169.485 224.098 169.359 224.039 169.244C223.98 169.129 223.898 169.026 223.799 168.943C223.699 168.86 223.584 168.798 223.46 168.76L187.746 157.293C187.587 157.79 187.631 158.329 187.87 158.793C188.108 159.257 188.521 159.607 189.017 159.767Z" fill="#01966B"/>
<path opacity="0.2" d="M189.017 159.767L202.846 164.207C202.97 164.248 203.1 164.263 203.229 164.253C203.359 164.243 203.485 164.207 203.601 164.148C203.716 164.089 203.819 164.008 203.903 163.909C203.988 163.81 204.052 163.695 204.092 163.572C204.17 163.323 204.147 163.054 204.028 162.822C203.909 162.591 203.704 162.416 203.456 162.335L187.746 157.293C187.587 157.79 187.631 158.329 187.87 158.793C188.108 159.257 188.521 159.607 189.017 159.767Z" fill="black"/>
<path d="M153.277 111.755L152.805 112.279L152.272 112.889C151.912 113.301 151.551 113.748 151.207 114.169C150.503 115.027 149.833 115.947 149.206 116.874C146.611 120.548 144.568 124.582 143.142 128.848C142.798 129.913 142.481 130.978 142.232 132.069C142.146 132.386 142.137 132.515 142.094 132.661C142.088 132.787 142.088 132.913 142.094 133.039C142.08 133.173 142.08 133.309 142.094 133.443C142.094 133.597 142.386 133.958 143.09 134.302C143.937 134.683 144.829 134.954 145.745 135.109C147.954 135.46 150.191 135.607 152.427 135.547C154.763 135.547 157.134 135.341 159.505 135.092C161.875 134.843 164.28 134.534 166.608 134.182L167.544 137.901C162.75 139.461 157.817 140.557 152.814 141.173C150.179 141.516 147.515 141.574 144.868 141.345C143.355 141.203 141.869 140.85 140.454 140.297C139.604 139.957 138.807 139.5 138.083 138.94C137.231 138.272 136.528 137.432 136.021 136.475C135.149 134.68 134.916 132.64 135.36 130.694C135.566 129.38 135.867 128.118 136.219 126.795C136.893 124.256 137.79 121.781 138.899 119.399C140.011 117.012 141.306 114.715 142.773 112.528C143.511 111.437 144.302 110.381 145.126 109.341C145.547 108.826 145.985 108.319 146.415 107.812L147.11 107.065C147.359 106.799 147.557 106.584 147.9 106.258L153.277 111.755Z" fill="#FFB573"/>
<path d="M164.736 134.96L170.748 131.773L171.014 138.233C171.014 138.233 166.72 140.011 164.263 138.052L164.736 134.96Z" fill="#FFB573"/>
<path d="M175.704 131.285L174.802 137.238L171.023 138.234L170.757 131.775L175.704 131.285Z" fill="#FFB573"/>
<path d="M149.644 99.6357C145.856 100.306 140.557 111.162 140.557 111.162L150.099 119.752C150.099 119.752 157.684 111.472 157.28 106.541C156.936 102.376 154.463 98.7767 149.644 99.6357Z" fill="#01966B"/>
<path opacity="0.7" d="M149.644 99.6357C145.856 100.306 140.557 111.162 140.557 111.162L150.099 119.752C150.099 119.752 157.684 111.472 157.28 106.541C156.936 102.376 154.463 98.7767 149.644 99.6357Z" fill="white"/>
<path d="M124.083 292.951C123.983 292.964 123.882 292.964 123.782 292.951C122.829 292.899 121.815 291.439 121.291 290.58C121.275 290.556 121.266 290.528 121.266 290.499C121.266 290.469 121.275 290.441 121.291 290.417C121.307 290.391 121.331 290.372 121.358 290.361C121.386 290.35 121.417 290.349 121.446 290.357C121.755 290.417 124.426 291.018 124.761 291.92C124.796 292.018 124.805 292.123 124.787 292.226C124.769 292.328 124.724 292.424 124.658 292.504C124.521 292.712 124.319 292.869 124.083 292.951ZM121.738 290.769C122.502 291.946 123.258 292.65 123.799 292.684C123.923 292.687 124.044 292.657 124.153 292.599C124.261 292.54 124.352 292.454 124.418 292.349C124.455 292.312 124.48 292.264 124.491 292.212C124.502 292.161 124.497 292.107 124.478 292.057C124.272 291.508 122.666 290.992 121.738 290.769Z" fill="#01966B"/>
<path d="M123.808 290.583C123.016 290.801 122.184 290.836 121.377 290.686C121.351 290.678 121.329 290.664 121.311 290.644C121.293 290.624 121.28 290.601 121.274 290.575C121.262 290.552 121.255 290.527 121.255 290.502C121.255 290.476 121.262 290.451 121.274 290.429C121.342 290.368 122.906 288.84 123.996 288.917C124.131 288.919 124.264 288.953 124.383 289.015C124.502 289.078 124.605 289.168 124.684 289.278C124.777 289.378 124.835 289.507 124.848 289.644C124.86 289.781 124.827 289.918 124.752 290.034C124.506 290.315 124.174 290.508 123.808 290.583ZM121.738 290.446C122.596 290.566 124.203 290.351 124.538 289.862C124.589 289.784 124.632 289.664 124.477 289.467C124.426 289.391 124.356 289.329 124.276 289.286C124.195 289.243 124.105 289.219 124.014 289.218C123.266 289.166 122.184 290.042 121.738 290.446Z" fill="#01966B"/>
<path d="M162.863 303.538C162.033 303.518 161.207 303.411 160.398 303.22C160.37 303.21 160.345 303.191 160.328 303.167C160.311 303.142 160.302 303.113 160.302 303.083C160.302 303.052 160.311 303.023 160.328 302.999C160.345 302.974 160.37 302.955 160.398 302.945C160.768 302.765 164.057 301.227 164.882 301.811C164.956 301.862 165.015 301.932 165.053 302.014C165.091 302.095 165.106 302.186 165.097 302.275C165.093 302.443 165.05 302.608 164.973 302.756C164.895 302.905 164.785 303.035 164.65 303.134C164.111 303.452 163.486 303.593 162.863 303.538ZM160.914 303.022C161.884 303.203 163.688 303.443 164.435 302.885C164.531 302.81 164.61 302.715 164.666 302.607C164.722 302.499 164.755 302.38 164.762 302.258C164.769 302.22 164.765 302.181 164.75 302.146C164.734 302.11 164.708 302.081 164.676 302.06C164.212 301.743 162.271 302.421 160.888 303.022H160.914Z" fill="#01966B"/>
<path d="M160.424 303.205C160.393 303.213 160.36 303.213 160.329 303.205C160.309 303.185 160.293 303.161 160.284 303.134C160.275 303.107 160.273 303.078 160.278 303.05C160.278 302.913 161.06 299.674 162.855 299.881C163.301 299.941 163.422 300.155 163.447 300.336C163.559 301.195 161.489 302.818 160.501 303.23L160.424 303.205ZM162.674 300.138C161.541 300.138 160.879 302.028 160.656 302.784C161.73 302.217 163.233 300.868 163.138 300.344C163.138 300.301 163.138 300.181 162.803 300.147L162.674 300.138Z" fill="#01966B"/>
<path d="M177.207 76.4929L178.728 76.2695C178.728 76.2695 177.826 77.3088 177.207 76.4929Z" fill="#263238"/>
<path d="M230.057 148.341L196.799 155.213C196.231 155.32 195.643 155.2 195.161 154.879C194.68 154.558 194.343 154.061 194.223 153.495L192.668 146.28L192.11 143.617L193.089 140.577C193.225 140.14 193.389 139.713 193.578 139.297C193.6 139.231 193.629 139.168 193.664 139.108C194.213 137.857 194.952 136.698 195.855 135.672L197.572 135.312L226.089 129.394C226.658 129.287 227.246 129.407 227.727 129.728C228.209 130.049 228.545 130.545 228.666 131.111L231.698 145.713C231.822 146.279 231.72 146.87 231.413 147.362C231.106 147.853 230.62 148.205 230.057 148.341Z" fill="#01966B"/>
<path opacity="0.3" d="M228.408 130.342L212.363 146.661L208.927 145.27L195.562 139.85L193.681 139.086C194.23 137.834 194.969 136.675 195.872 135.65L197.59 135.289L226.106 129.371C226.543 129.284 226.996 129.33 227.406 129.503C227.816 129.676 228.165 129.968 228.408 130.342Z" fill="black"/>
<path d="M228.408 130.34L208.927 145.294L207.656 146.273L195.416 140.201L193.595 139.342C193.617 139.276 193.646 139.212 193.681 139.153C194.23 137.901 194.969 136.743 195.872 135.717L197.589 135.356L226.106 129.438C226.536 129.344 226.984 129.379 227.394 129.54C227.803 129.701 228.156 129.979 228.408 130.34Z" fill="#01966B"/>
<path opacity="0.2" d="M228.408 130.34L208.927 145.294L207.656 146.273L195.416 140.201L193.595 139.342C193.617 139.276 193.646 139.212 193.681 139.153C194.23 137.901 194.969 136.743 195.872 135.717L197.589 135.356L226.106 129.438C226.536 129.344 226.984 129.379 227.394 129.54C227.803 129.701 228.156 129.979 228.408 130.34Z" fill="white"/>
<path d="M270.658 178.47L260.523 189.396C260.123 189.822 259.571 190.072 258.987 190.093C258.403 190.114 257.835 189.904 257.405 189.507L232.548 166.359C232.12 165.96 231.868 165.408 231.847 164.823C231.826 164.239 232.038 163.67 232.436 163.241L242.606 152.316C242.803 152.102 243.04 151.929 243.305 151.807C243.569 151.685 243.855 151.617 244.146 151.607C244.437 151.596 244.727 151.644 244.999 151.746C245.271 151.849 245.521 152.005 245.732 152.204L270.581 175.352C270.903 175.652 271.129 176.041 271.228 176.469C271.327 176.898 271.297 177.346 271.139 177.757C271.032 178.027 270.868 178.27 270.658 178.47Z" fill="#01966B"/>
<path opacity="0.3" d="M271.105 177.8L248.498 174.115L243.25 151.783C243.651 151.598 244.097 151.537 244.532 151.605C244.968 151.674 245.374 151.87 245.698 152.169L270.547 175.317C270.884 175.623 271.119 176.026 271.219 176.47C271.319 176.915 271.279 177.379 271.105 177.8Z" fill="black"/>
<path d="M271.105 177.797L249.091 171.235L243.25 151.857C243.651 151.673 244.097 151.611 244.532 151.68C244.968 151.748 245.374 151.945 245.698 152.244L270.547 175.392C270.869 175.691 271.094 176.08 271.194 176.509C271.293 176.937 271.262 177.386 271.105 177.797Z" fill="#01966B"/>
<path opacity="0.2" d="M271.105 177.797L249.091 171.235L243.25 151.857C243.651 151.673 244.097 151.611 244.532 151.68C244.968 151.748 245.374 151.945 245.698 152.244L270.547 175.392C270.869 175.691 271.094 176.08 271.194 176.509C271.293 176.937 271.262 177.386 271.105 177.797Z" fill="white"/>
<path d="M279.497 196.462L290.663 209.501C290.876 209.75 291.036 210.041 291.134 210.354C291.231 210.668 291.264 210.998 291.229 211.324C291.194 211.65 291.094 211.966 290.933 212.252C290.772 212.539 290.554 212.789 290.294 212.988L266.037 231.884C265.63 232.13 265.145 232.215 264.679 232.123C264.212 232.031 263.796 231.768 263.512 231.386L254.777 221.423C254.613 221.231 254.477 221.017 254.373 220.787C254.211 220.471 254.143 220.115 254.178 219.762C254.213 219.408 254.35 219.072 254.571 218.794L276.044 196.368C276.379 196.005 276.822 195.759 277.308 195.666C277.793 195.573 278.295 195.639 278.741 195.852C279.029 196.006 279.286 196.213 279.497 196.462Z" fill="#01966B"/>
<path opacity="0.3" d="M278.741 195.88L273.407 219.604L254.408 220.815C254.245 220.499 254.178 220.143 254.213 219.789C254.248 219.436 254.384 219.1 254.605 218.822L276.078 196.396C276.411 196.04 276.848 195.799 277.326 195.706C277.804 195.614 278.3 195.675 278.741 195.88Z" fill="black"/>
<path d="M278.741 195.878L269.799 221.053L254.39 220.813C254.228 220.497 254.16 220.141 254.196 219.787C254.231 219.434 254.367 219.098 254.588 218.82L276.061 196.393C276.395 196.034 276.835 195.79 277.317 195.698C277.799 195.605 278.297 195.668 278.741 195.878Z" fill="#01966B"/>
<path opacity="0.2" d="M278.741 195.878L269.799 221.053L254.39 220.813C254.228 220.497 254.16 220.141 254.196 219.787C254.231 219.434 254.367 219.098 254.588 218.82L276.061 196.393C276.395 196.034 276.835 195.79 277.317 195.698C277.799 195.605 278.297 195.668 278.741 195.878Z" fill="white"/>
</svg>
