<svg width="24" height="24" viewBox="0 0 24 24" fill="none" xmlns="http://www.w3.org/2000/svg">
<path d="M7.39992 23.08L10.1999 20.2C9.19992 20 8.27992 19.6 7.43992 19.04L7.39992 23.08ZM16.5999 0.920044L13.7999 3.80004C14.7999 4.00004 15.7199 4.40004 16.5599 4.96004L16.5999 0.920044ZM0.919922 16.6L4.95992 16.56C4.39992 15.72 3.99992 14.8 3.79992 13.8L0.919922 16.6ZM23.0799 7.40004L19.0399 7.44004C19.5599 8.28004 19.9599 9.20004 20.1999 10.2L23.0799 7.40004ZM0.919922 7.40004L3.79992 10.2C3.99992 9.20004 4.39992 8.28004 4.95992 7.44004L0.919922 7.40004ZM23.0799 16.6L20.1999 13.8C19.9999 14.8 19.5999 15.72 19.0399 16.56L23.0799 16.6ZM7.39992 0.920044L7.43992 4.96004C8.27992 4.44004 9.19992 4.04004 10.1999 3.80004L7.39992 0.920044M16.5999 23.08L16.5599 19.04C15.7199 19.6 14.7999 20 13.7999 20.2L16.5999 23.08" fill="#FFE62E"/>
<path d="M5.12 16.8L3.52 20.52L7.24 18.92C6.4 18.32 5.68 17.6 5.12 16.8ZM18.88 7.2L20.48 3.48L16.8 5.08C17.6 5.68 18.32 6.4 18.88 7.2ZM3.76 10.52L0 12L3.76 13.48C3.64 13 3.6 12.52 3.6 12C3.6 11.48 3.64 11 3.76 10.52M20.24 13.48L24 12L20.24 10.52C20.32 11 20.4 11.52 20.4 12C20.4 12.52 20.36 13 20.24 13.48ZM7.2 5.12L3.48 3.52L5.08 7.24C5.68 6.4 6.4 5.68 7.2 5.12ZM16.8 18.88L20.52 20.48L18.92 16.76C18.32 17.6 17.6 18.32 16.8 18.88ZM13.48 3.76L12 0L10.52 3.76C11 3.68 11.52 3.6 12 3.6C12.48 3.6 13 3.64 13.48 3.76M10.52 20.24L12 24L13.48 20.24C13 20.36 12.52 20.4 12 20.4C11.48 20.4 11 20.36 10.52 20.24" fill="#FFCE31"/>
<path d="M11.9999 19.6C16.1973 19.6 19.5999 16.1974 19.5999 12C19.5999 7.80266 16.1973 4.40002 11.9999 4.40002C7.80254 4.40002 4.3999 7.80266 4.3999 12C4.3999 16.1974 7.80254 19.6 11.9999 19.6Z" fill="#FFCE31"/>
</svg>
