<svg width="1779" height="619" viewBox="0 0 1779 619" fill="none" xmlns="http://www.w3.org/2000/svg">
<g clip-path="url(#clip0_2905_12887)">
<path d="M2064.8 -3.41406C2458.97 51.8017 2118.64 314.77 2070.07 355.183C2021.48 395.596 1871.66 237.926 1773.34 239.063C1675.01 240.202 1588.85 568.323 1490.52 569.462C1392.2 570.599 1281.72 244.752 1183.4 245.89C1085.07 247.027 992.737 450.815 894.413 451.952C796.089 453.09 691.778 251.577 593.455 252.715C495.131 253.853 398.428 405.264 300.105 406.402C201.781 407.54 136.659 208.816 38.3356 209.953C-59.988 211.09 -239.953 421.762 -289.7 382.486C-339.448 343.211 -687.386 88.2054 -294.97 23.8887" fill="url(#paint0_linear_2905_12887)"/>
<path d="M2070.07 355.184C2020.61 335.83 1871.66 237.926 1773.34 239.064C1675.01 240.201 1593.17 567.695 1494.84 568.832C1396.52 569.97 1281.72 244.752 1183.4 245.89C1085.07 247.027 998.076 462.077 899.754 463.215C801.43 464.352 691.778 251.578 593.454 252.715C495.131 253.853 394.62 411.845 296.296 412.982C197.973 414.12 136.914 211.793 38.5911 212.931C-59.7324 214.068 -240.832 361.996 -289.7 382.487" stroke="#F6F7FB" stroke-linecap="round" stroke-linejoin="round"/>
</g>
<defs>
<linearGradient id="paint0_linear_2905_12887" x1="2256.4" y1="359.42" x2="2251.66" y2="-50.4121" gradientUnits="userSpaceOnUse">
<stop stop-color="#F6F7FB" stop-opacity="0.55"/>
<stop offset="1" stop-color="#F6F7FB" stop-opacity="0.46"/>
</linearGradient>
<clipPath id="clip0_2905_12887">
<rect width="1779" height="619" fill="white"/>
</clipPath>
</defs>
</svg>
