<svg width="30" height="28" viewBox="0 0 30 28" fill="none" xmlns="http://www.w3.org/2000/svg">
<path d="M18.4667 10.6672H27C27.7073 10.6672 28.3856 10.9481 28.8857 11.4482C29.3858 11.9483 29.6667 12.6266 29.6667 13.3339V16.1392C29.6671 16.4877 29.5991 16.8328 29.4667 17.1552L25.34 27.1752C25.2394 27.4195 25.0684 27.6284 24.8488 27.7753C24.6292 27.9222 24.3709 28.0006 24.1067 28.0005H1.66671C1.31309 28.0005 0.973947 27.8601 0.723898 27.61C0.47385 27.36 0.333374 27.0208 0.333374 26.6672V13.3339C0.333374 12.9802 0.47385 12.6411 0.723898 12.391C0.973947 12.141 1.31309 12.0005 1.66671 12.0005H6.30937C6.52284 12.0006 6.73319 11.9494 6.92275 11.8512C7.11231 11.7531 7.27554 11.6109 7.39871 11.4365L14.6694 1.13386C14.7613 1.00361 14.8968 0.910603 15.0514 0.87171C15.206 0.832816 15.3694 0.850607 15.512 0.921856L17.9307 2.13119C18.6114 2.47141 19.1552 3.03427 19.4717 3.72628C19.7882 4.41828 19.8584 5.19775 19.6707 5.93519L18.4667 10.6672ZM8.33337 14.1179V25.3339H23.2134L27 16.1392V13.3339H18.4667C18.0606 13.3338 17.6598 13.241 17.295 13.0625C16.9302 12.884 16.611 12.6245 16.3617 12.3038C16.1125 11.9832 15.9397 11.6098 15.8567 11.2123C15.7737 10.8147 15.7826 10.4035 15.8827 10.0099L17.0867 5.27919C17.1244 5.13163 17.1104 4.97561 17.0471 4.83709C16.9838 4.69858 16.875 4.58592 16.7387 4.51786L15.8574 4.07786L9.57737 12.9739C9.24404 13.4459 8.81737 13.8325 8.33337 14.1179ZM5.66671 14.6672H3.00004V25.3339H5.66671V14.6672Z" fill="#D69A00"/>
</svg>
