<svg width="28" height="27" viewBox="0 0 28 27" fill="none" xmlns="http://www.w3.org/2000/svg">
<path d="M20.6666 2.9987H26C26.3536 2.9987 26.6927 3.13917 26.9428 3.38922C27.1928 3.63927 27.3333 3.97841 27.3333 4.33203V25.6654C27.3333 26.019 27.1928 26.3581 26.9428 26.6082C26.6927 26.8582 26.3536 26.9987 26 26.9987H1.99996C1.64634 26.9987 1.3072 26.8582 1.05715 26.6082C0.807102 26.3581 0.666626 26.019 0.666626 25.6654V4.33203C0.666626 3.97841 0.807102 3.63927 1.05715 3.38922C1.3072 3.13917 1.64634 2.9987 1.99996 2.9987H7.33329V0.332031H9.99996V2.9987H18V0.332031H20.6666V2.9987ZM18 5.66536H9.99996V8.33203H7.33329V5.66536H3.33329V10.9987H24.6666V5.66536H20.6666V8.33203H18V5.66536ZM24.6666 13.6654H3.33329V24.332H24.6666V13.6654Z" fill="#9BAAD3"/>
</svg>
