<svg width="20" height="24" viewBox="0 0 20 24" fill="none" xmlns="http://www.w3.org/2000/svg">
<path d="M14 11.9954C14 12.2606 13.8946 12.515 13.7071 12.7025C13.5196 12.89 13.2652 12.9954 13 12.9954C12.7348 12.9954 12.4804 12.89 12.2929 12.7025C12.1054 12.515 12 12.2606 12 11.9954C12 11.7302 12.1054 11.4758 12.2929 11.2883C12.4804 11.1008 12.7348 10.9954 13 10.9954C13.2652 10.9954 13.5196 11.1008 13.7071 11.2883C13.8946 11.4758 14 11.7302 14 11.9954ZM9.196 0.0193961C9.05098 -0.00959064 8.90133 -0.00604968 8.75784 0.0297635C8.61435 0.0655766 8.48059 0.13277 8.3662 0.226504C8.25181 0.320238 8.15963 0.438177 8.0963 0.571826C8.03298 0.705474 8.00009 0.851505 8 0.999396V22.9934C8.00009 23.1413 8.03298 23.2873 8.0963 23.421C8.15963 23.5546 8.25181 23.6726 8.3662 23.7663C8.48059 23.86 8.61435 23.9272 8.75784 23.963C8.90133 23.9988 9.05098 24.0024 9.196 23.9734L19.196 21.9734C19.4226 21.9281 19.6265 21.8057 19.7731 21.6271C19.9197 21.4484 19.9999 21.2245 20 20.9934V2.9994C19.9999 2.7683 19.9197 2.54439 19.7731 2.36573C19.6265 2.18707 19.4226 2.06469 19.196 2.0194L9.196 0.0193961ZM10 21.7734V2.2194L18 3.8194V20.1734L10 21.7734ZM6 21.9934V19.9934H2V3.9994H6V1.9994H1C0.734784 1.9994 0.48043 2.10475 0.292893 2.29229C0.105357 2.47983 0 2.73418 0 2.9994V20.9934C0 21.2586 0.105357 21.513 0.292893 21.7005C0.48043 21.888 0.734784 21.9934 1 21.9934H6Z" fill="#A18F00"/>
</svg>
