<svg width="27" height="28" viewBox="0 0 27 28" fill="none" xmlns="http://www.w3.org/2000/svg">
<path d="M22.6667 0.667969C23.4027 0.667969 24 1.2653 24 2.0013V7.01063L21.3333 9.6773V3.33464H2.66667V24.668H21.3333V20.9906L24 18.324V26.0013C24 26.7373 23.4027 27.3346 22.6667 27.3346H1.33333C0.597333 27.3346 0 26.7373 0 26.0013V2.0013C0 1.2653 0.597333 0.667969 1.33333 0.667969H22.6667ZM25.0373 9.7453L26.9227 11.6306L16.552 22.0013L14.664 21.9986L14.6667 20.116L25.0373 9.7453ZM13.3333 14.0013V16.668H6.66667V14.0013H13.3333ZM17.3333 8.66797V11.3346H6.66667V8.66797H17.3333Z" fill="#01966B"/>
</svg>
