<svg width="24" height="27" viewBox="0 0 24 27" fill="none" xmlns="http://www.w3.org/2000/svg">
<path d="M12 20.332L13.8667 18.4654L11.7667 16.332H17.3333V13.6654H11.7667L13.8667 11.532L12 9.66536L6.66667 14.9987L12 20.332ZM2.66667 26.9987C1.93333 26.9987 1.30533 26.7378 0.782667 26.216C0.260889 25.6934 0 25.0654 0 24.332V5.66536C0 4.93203 0.260889 4.30403 0.782667 3.78136C1.30533 3.25959 1.93333 2.9987 2.66667 2.9987H8.26667C8.55556 2.1987 9.03911 1.55425 9.71733 1.06536C10.3947 0.576476 11.1556 0.332031 12 0.332031C12.8444 0.332031 13.6058 0.576476 14.284 1.06536C14.9613 1.55425 15.4444 2.1987 15.7333 2.9987H21.3333C22.0667 2.9987 22.6947 3.25959 23.2173 3.78136C23.7391 4.30403 24 4.93203 24 5.66536V24.332C24 25.0654 23.7391 25.6934 23.2173 26.216C22.6947 26.7378 22.0667 26.9987 21.3333 26.9987H2.66667ZM2.66667 24.332H21.3333V5.66536H2.66667V24.332ZM12 4.66536C12.2889 4.66536 12.528 4.5707 12.7173 4.38136C12.9058 4.19292 13 3.95425 13 3.66536C13 3.37648 12.9058 3.13736 12.7173 2.94803C12.528 2.75959 12.2889 2.66536 12 2.66536C11.7111 2.66536 11.4724 2.75959 11.284 2.94803C11.0947 3.13736 11 3.37648 11 3.66536C11 3.95425 11.0947 4.19292 11.284 4.38136C11.4724 4.5707 11.7111 4.66536 12 4.66536ZM2.66667 24.332V5.66536V24.332Z" fill="#FF6647"/>
</svg>
