<svg width="30" height="30" viewBox="0 0 30 30" fill="none" xmlns="http://www.w3.org/2000/svg">
<path d="M20.3333 3.0013C20.3333 2.64768 20.1928 2.30854 19.9428 2.05849C19.6927 1.80844 19.3536 1.66797 19 1.66797H11C10.6463 1.66797 10.3072 1.80844 10.0572 2.05849C9.8071 2.30854 9.66663 2.64768 9.66663 3.0013V9.66797H2.99996C2.64634 9.66797 2.3072 9.80844 2.05715 10.0585C1.8071 10.3085 1.66663 10.6477 1.66663 11.0013V19.0013C1.66663 19.3549 1.8071 19.6941 2.05715 19.9441C2.3072 20.1942 2.64634 20.3346 2.99996 20.3346H9.66663V27.0013C9.66663 27.3549 9.8071 27.6941 10.0572 27.9441C10.3072 28.1942 10.6463 28.3346 11 28.3346H19C19.3536 28.3346 19.6927 28.1942 19.9428 27.9441C20.1928 27.6941 20.3333 27.3549 20.3333 27.0013V20.3346H27C27.3536 20.3346 27.6927 20.1942 27.9428 19.9441C28.1928 19.6941 28.3333 19.3549 28.3333 19.0013V11.0013C28.3333 10.6477 28.1928 10.3085 27.9428 10.0585C27.6927 9.80844 27.3536 9.66797 27 9.66797H20.3333V3.0013Z" stroke="#AD6359" stroke-width="2" stroke-linecap="round" stroke-linejoin="round"/>
</svg>
