<svg width="28" height="26" viewBox="0 0 28 26" fill="none" xmlns="http://www.w3.org/2000/svg">
<path fill-rule="evenodd" clip-rule="evenodd" d="M16.6666 6.0013V3.33464H11.3333V6.0013H16.6666ZM3.33329 8.66797V23.3346H24.6666V8.66797H3.33329ZM24.6666 6.0013C26.1466 6.0013 27.3333 7.18797 27.3333 8.66797V23.3346C27.3333 24.8146 26.1466 26.0013 24.6666 26.0013H3.33329C1.85329 26.0013 0.666626 24.8146 0.666626 23.3346L0.679959 8.66797C0.679959 7.18797 1.85329 6.0013 3.33329 6.0013H8.66663V3.33464C8.66663 1.85464 9.85329 0.667969 11.3333 0.667969H16.6666C18.1466 0.667969 19.3333 1.85464 19.3333 3.33464V6.0013H24.6666Z" fill="#01966B"/>
</svg>
