<svg width="28" height="28" viewBox="0 0 28 28" fill="none" xmlns="http://www.w3.org/2000/svg">
<path d="M19.3334 24.668V3.33464H3.33341V23.3346C3.33341 23.6883 3.47389 24.0274 3.72394 24.2774C3.97399 24.5275 4.31313 24.668 4.66675 24.668H19.3334ZM23.3334 27.3346H4.66675C3.60588 27.3346 2.58847 26.9132 1.83832 26.1631C1.08818 25.4129 0.666748 24.3955 0.666748 23.3346V2.0013C0.666748 1.64768 0.807224 1.30854 1.05727 1.05849C1.30732 0.808444 1.64646 0.667969 2.00008 0.667969H20.6667C21.0204 0.667969 21.3595 0.808444 21.6096 1.05849C21.8596 1.30854 22.0001 1.64768 22.0001 2.0013V11.3346H27.3334V23.3346C27.3334 24.3955 26.912 25.4129 26.1618 26.1631C25.4117 26.9132 24.3943 27.3346 23.3334 27.3346ZM22.0001 14.0013V23.3346C22.0001 23.6883 22.1406 24.0274 22.3906 24.2774C22.6407 24.5275 22.9798 24.668 23.3334 24.668C23.687 24.668 24.0262 24.5275 24.2762 24.2774C24.5263 24.0274 24.6667 23.6883 24.6667 23.3346V14.0013H22.0001ZM6.00008 6.0013H14.0001V14.0013H6.00008V6.0013ZM8.66675 8.66797V11.3346H11.3334V8.66797H8.66675ZM6.00008 15.3346H16.6667V18.0013H6.00008V15.3346ZM6.00008 19.3346H16.6667V22.0013H6.00008V19.3346Z" fill="#7987A5"/>
</svg>
