<svg width="28" height="25" viewBox="0 0 28 25" fill="none" xmlns="http://www.w3.org/2000/svg">
<path d="M23.3333 21.6654H4.66663V22.9987C4.66663 23.3523 4.52615 23.6915 4.2761 23.9415C4.02605 24.1916 3.68691 24.332 3.33329 24.332H1.99996C1.64634 24.332 1.3072 24.1916 1.05715 23.9415C0.807102 23.6915 0.666626 23.3523 0.666626 22.9987V9.66537L3.97329 1.94803C4.17906 1.46803 4.52123 1.05902 4.95737 0.771738C5.3935 0.484461 5.90438 0.331568 6.42663 0.332032H21.5733C22.0951 0.33209 22.6054 0.485227 23.041 0.772473C23.4766 1.05972 23.8184 1.46845 24.024 1.94803L27.3333 9.66537V22.9987C27.3333 23.3523 27.1928 23.6915 26.9428 23.9415C26.6927 24.1916 26.3536 24.332 26 24.332H24.6666C24.313 24.332 23.9739 24.1916 23.7238 23.9415C23.4738 23.6915 23.3333 23.3523 23.3333 22.9987V21.6654ZM24.6666 12.332H3.33329V18.9987H24.6666V12.332ZM3.56796 9.66537H24.432L21.5746 2.9987H6.42663L3.56929 9.66537H3.56796ZM6.66663 17.6654C6.13619 17.6654 5.62748 17.4547 5.25241 17.0796C4.87734 16.7045 4.66663 16.1958 4.66663 15.6654C4.66663 15.1349 4.87734 14.6262 5.25241 14.2512C5.62748 13.8761 6.13619 13.6654 6.66663 13.6654C7.19706 13.6654 7.70577 13.8761 8.08084 14.2512C8.45591 14.6262 8.66663 15.1349 8.66663 15.6654C8.66663 16.1958 8.45591 16.7045 8.08084 17.0796C7.70577 17.4547 7.19706 17.6654 6.66663 17.6654ZM21.3333 17.6654C20.8029 17.6654 20.2942 17.4547 19.9191 17.0796C19.544 16.7045 19.3333 16.1958 19.3333 15.6654C19.3333 15.1349 19.544 14.6262 19.9191 14.2512C20.2942 13.8761 20.8029 13.6654 21.3333 13.6654C21.8637 13.6654 22.3724 13.8761 22.7475 14.2512C23.1226 14.6262 23.3333 15.1349 23.3333 15.6654C23.3333 16.1958 23.1226 16.7045 22.7475 17.0796C22.3724 17.4547 21.8637 17.6654 21.3333 17.6654Z" fill="#FF6647"/>
</svg>
