<svg width="537" height="401" viewBox="0 0 537 401" fill="none" xmlns="http://www.w3.org/2000/svg">
<path d="M158.579 273.78C165.655 275.796 173.129 275.967 180.29 274.275C187.451 272.584 194.059 269.086 199.485 264.117C210.511 254.111 225.671 249.752 239.876 250.482C265.192 251.695 287.879 265.191 308.965 274.854C318.757 279.363 328.881 283.711 339.994 285.816C366.835 290.937 391.271 277.688 411.069 258.556C451.868 219.163 462.658 154.239 450.311 109.318C442.216 79.8998 400.805 21.9548 346.951 27.6666C295.856 33.0993 326.627 107.171 278.302 114.375C224.909 122.341 223.019 38.9292 157.602 50.267C98.5507 60.5096 69.1433 112.925 87.5887 155.914C96.5966 176.904 113.839 193.428 123.019 214.203C132.875 236.503 128.506 264.729 158.579 273.78Z" fill="#01966B"/>
<path opacity="0.8" d="M158.579 273.78C165.655 275.796 173.129 275.967 180.29 274.275C187.451 272.584 194.059 269.086 199.485 264.117C210.511 254.111 225.671 249.752 239.876 250.482C265.192 251.695 287.879 265.191 308.965 274.854C318.757 279.363 328.881 283.711 339.994 285.816C366.835 290.937 391.271 277.688 411.069 258.556C451.868 219.163 462.658 154.239 450.311 109.318C442.216 79.8998 400.805 21.9548 346.951 27.6666C295.856 33.0993 326.627 107.171 278.302 114.375C224.909 122.341 223.019 38.9292 157.602 50.267C98.5507 60.5096 69.1433 112.925 87.5887 155.914C96.5966 176.904 113.839 193.428 123.019 214.203C132.875 236.503 128.506 264.729 158.579 273.78Z" fill="white"/>
<path d="M268.412 400.003C383.382 400.003 476.583 394.561 476.583 387.849C476.583 381.137 383.382 375.695 268.412 375.695C153.443 375.695 60.2418 381.137 60.2418 387.849C60.2418 394.561 153.443 400.003 268.412 400.003Z" fill="#F5F5F5"/>
<path d="M392.045 114.882C393.548 119.918 401.3 129.345 401.912 136.205C402.524 143.066 389.307 154.039 389.307 154.039C389.307 154.039 379.429 121.013 385.613 117.159C391.798 113.304 392.045 114.882 392.045 114.882Z" fill="#263238"/>
<path d="M364.903 150.563C362.563 152.517 360.265 154.16 357.871 155.845C355.477 157.531 353.007 159.066 350.495 160.505C347.973 161.997 345.375 163.355 342.711 164.574C341.358 165.186 340.016 165.787 338.62 166.313C337.933 166.593 337.235 166.861 336.527 167.097L334.379 167.849C332.543 168.362 330.623 168.501 328.732 168.257C327.151 168.072 325.587 167.77 324.051 167.355C321.188 166.563 318.385 165.565 315.666 164.37C310.386 162.065 305.292 159.355 300.43 156.264L302.438 152.528C304.972 153.601 307.57 154.675 310.147 155.609C312.724 156.543 315.322 157.531 317.92 158.336C320.453 159.166 323.035 159.84 325.651 160.355C326.851 160.589 328.068 160.737 329.29 160.795C330.202 160.865 331.118 160.771 331.996 160.516C334.445 159.578 336.84 158.503 339.168 157.295C340.36 156.672 341.541 156.039 342.7 155.351C343.86 154.664 345.041 153.999 346.189 153.29C348.498 151.862 350.752 150.348 352.986 148.791C355.219 147.235 357.441 145.57 359.428 143.992L364.903 150.563Z" fill="#E58A7B"/>
<path d="M370.573 139.128C367.91 137.045 356.894 143.862 353.555 146.708L355.992 161.449C355.992 161.449 371.829 154.814 372.774 150.283C373.772 145.548 372.559 140.717 370.573 139.128Z" fill="#01966B"/>
<path opacity="0.2" d="M370.573 139.128C367.91 137.045 356.894 143.862 353.555 146.708L355.992 161.449C355.992 161.449 371.829 154.814 372.774 150.283C373.772 145.548 372.559 140.717 370.573 139.128Z" fill="black"/>
<path d="M407.623 183.735L374.189 190.252C356.914 143.473 360.672 141.938 360.672 141.938C363.101 140.603 365.611 139.42 368.187 138.395L368.638 138.223C370.786 137.439 371.215 137.321 374.071 136.484C378.988 135.314 383.573 134.337 389.252 133.531L390.326 133.381C391.4 133.252 392.377 133.145 393.364 133.048C394.03 132.973 394.696 132.93 395.329 132.887L397.477 132.769C401.148 132.587 403.779 132.64 403.779 132.64C402.759 161.854 404.412 170.239 407.623 183.735Z" fill="#01966B"/>
<path opacity="0.2" d="M407.623 183.735L374.189 190.252C356.914 143.473 360.672 141.938 360.672 141.938C363.101 140.603 365.611 139.42 368.187 138.395L368.638 138.223C370.786 137.439 371.215 137.321 374.071 136.484C378.988 135.314 383.573 134.337 389.252 133.531L390.326 133.381C391.4 133.252 392.377 133.145 393.364 133.048C394.03 132.973 394.696 132.93 395.329 132.887L397.477 132.769C401.148 132.587 403.779 132.64 403.779 132.64C402.759 161.854 404.412 170.239 407.623 183.735Z" fill="black"/>
<path d="M381.437 118.245C379.289 121.799 387.073 123.442 391.679 119.802C395.362 116.882 394.492 110.139 391.336 108.572C388.179 107.004 381.437 118.245 381.437 118.245Z" fill="#01966B"/>
<path opacity="0.4" d="M381.437 118.245C379.289 121.799 387.073 123.442 391.679 119.802C395.362 116.882 394.492 110.139 391.336 108.572C388.179 107.004 381.437 118.245 381.437 118.245Z" fill="black"/>
<path d="M413.979 377.36L405.615 377.983L402.555 358.732L410.919 358.109L413.979 377.36Z" fill="#E58A7B"/>
<path d="M473.139 350.452L466.042 354.918L453.405 339.93L460.502 335.453L473.139 350.452Z" fill="#E58A7B"/>
<path d="M402.555 358.729L404.252 369.423L412.497 368.038L410.93 358.117L402.555 358.729Z" fill="#CF6F64"/>
<path d="M460.513 335.465L453.405 339.931L458.644 346.137L465.902 341.853L460.513 335.465Z" fill="#CF6F64"/>
<path d="M374.706 190.255C374.706 190.255 374.587 256.628 380.009 281.623C385.657 307.627 402.266 366.785 402.266 366.785L414.313 365.228C414.313 365.228 404.897 305.469 400.881 279.626C396.511 251.464 399.196 185.488 399.196 185.488L374.706 190.255Z" fill="#01966B"/>
<path opacity="0.7" d="M374.706 190.255C374.706 190.255 374.587 256.628 380.009 281.623C385.657 307.627 402.266 366.785 402.266 366.785L414.313 365.228C414.313 365.228 404.897 305.469 400.881 279.626C396.511 251.464 399.196 185.488 399.196 185.488L374.706 190.255Z" fill="black"/>
<path opacity="0.5" d="M398.443 214.907L392.538 209.023C392.764 234.523 394.191 247.117 399.098 260.838C398.325 246.333 398.261 229.176 398.443 214.907Z" fill="black"/>
<path d="M383.016 188.538C383.016 188.538 401.021 243.39 409.954 274.988C419.38 308.325 455.519 345.194 455.519 345.194L465.891 339.203C465.891 339.203 441.197 304.202 432.114 273.098C413.647 209.957 421.238 196.579 407.613 183.738L383.016 188.538Z" fill="#01966B"/>
<path opacity="0.7" d="M383.016 188.538C383.016 188.538 401.021 243.39 409.954 274.988C419.38 308.325 455.519 345.194 455.519 345.194L465.891 339.203C465.891 339.203 441.197 304.202 432.114 273.098C413.647 209.957 421.238 196.579 407.613 183.738L383.016 188.538Z" fill="black"/>
<path d="M368.865 98.8789C373.654 100.479 378.002 112.364 378.185 117.045C378.367 121.726 364.313 128.179 364.313 128.179C364.313 128.179 358.118 113.148 359.847 103.485C360.598 99.2869 368.865 98.8789 368.865 98.8789Z" fill="#263238"/>
<path d="M303.147 152.923L297.467 146.738L295.609 154.49C295.609 154.49 299.646 158.055 302.91 156.831L303.147 152.923Z" fill="#E58A7B"/>
<path d="M291.712 144.969L287.74 148.125L295.609 154.492L297.467 146.74L291.712 144.969Z" fill="#E58A7B"/>
<path d="M463.819 353.32L470.454 346.631C470.569 346.517 470.721 346.447 470.883 346.435C471.044 346.424 471.205 346.47 471.335 346.567L477.38 351.054C477.529 351.172 477.652 351.32 477.74 351.488C477.829 351.657 477.88 351.842 477.891 352.032C477.902 352.222 477.873 352.412 477.805 352.589C477.737 352.767 477.632 352.928 477.498 353.062C475.136 355.349 473.89 356.337 470.97 359.279C469.177 361.093 466.74 363.917 464.259 366.418C461.779 368.92 459.17 366.59 459.965 365.345C463.583 359.687 462.939 357.572 463.186 354.694C463.223 354.174 463.448 353.686 463.819 353.32Z" fill="#263238"/>
<path d="M405.057 376.781H414.484C414.65 376.781 414.81 376.839 414.938 376.945C415.065 377.051 415.152 377.198 415.182 377.361L416.663 384.812C416.697 384.995 416.689 385.184 416.641 385.364C416.593 385.544 416.506 385.711 416.386 385.854C416.266 385.996 416.116 386.11 415.947 386.188C415.778 386.266 415.594 386.306 415.407 386.305C412.111 386.251 410.522 386.058 406.378 386.058C403.833 386.058 398.572 386.315 395.051 386.315C391.529 386.315 391.153 382.837 392.603 382.525C399.045 381.108 401.568 379.165 403.683 377.297C404.066 376.969 404.553 376.786 405.057 376.781Z" fill="#263238"/>
<g style="mix-blend-mode:multiply" opacity="0.27">
<path d="M404.863 149.574L399.71 152.645L405.658 175.009C404.359 168.234 404.938 160.794 404.863 149.574Z" fill="#01966B"/>
</g>
<path d="M375.576 114.659C379.237 117.719 384.551 122.175 390.811 116.967C396.179 112.48 399.937 100.702 390.306 100.272C385.271 100.047 375.576 114.659 375.576 114.659Z" fill="#263238"/>
<path d="M384.422 116.754C384.422 121.822 385.206 130.958 389.254 133.557C389.254 133.557 388.889 138.775 379.806 140.535C369.831 142.479 374.072 136.509 374.072 136.509C379.269 134.147 378.367 130.132 376.649 126.524L384.422 116.754Z" fill="#E58A7B"/>
<path d="M381.255 120.734L376.66 126.521C377.062 127.358 377.393 128.227 377.647 129.12C379.666 128.411 382.082 125.577 381.878 123.354C381.834 122.45 381.622 121.562 381.255 120.734Z" fill="#CF6F64"/>
<path d="M384.906 105.112C385.979 113.368 386.634 116.836 383.327 121.829C378.356 129.344 367.985 128.861 364.453 121.098C361.232 114.109 360.029 101.773 367.373 96.995C368.988 95.926 370.849 95.288 372.78 95.1418C374.711 94.9955 376.647 95.3459 378.405 96.1594C380.162 96.973 381.682 98.2228 382.82 99.7898C383.958 101.357 384.676 103.189 384.906 105.112Z" fill="#E58A7B"/>
<path d="M370.561 90.6517C364.978 94.6135 376.177 95.7838 376.187 101.528C376.187 103.901 380.085 111.427 385.625 110.997L390.993 101.463C396.64 92.3374 383.295 81.6009 370.561 90.6517Z" fill="#263238"/>
<path d="M370.562 90.6531C360.738 90.1377 356.454 97.9539 357.581 104.976C364.435 103.267 371.523 102.705 378.56 103.311C392.024 104.686 370.562 90.6531 370.562 90.6531Z" fill="#263238"/>
<path d="M387.589 112.23C387.725 113.833 387.219 115.424 386.182 116.654C384.797 118.275 382.961 117.319 382.317 115.397C381.769 113.658 381.834 110.727 383.702 109.804C384.115 109.613 384.568 109.528 385.022 109.556C385.476 109.584 385.916 109.725 386.301 109.966C386.687 110.207 387.007 110.54 387.231 110.935C387.456 111.331 387.579 111.776 387.589 112.23Z" fill="#E58A7B"/>
<path d="M372.977 109.805C373.106 110.471 372.859 111.072 372.43 111.158C372 111.244 371.538 110.771 371.41 110.084C371.281 109.397 371.528 108.806 371.957 108.72C372.387 108.635 372.848 109.139 372.977 109.805Z" fill="#263238"/>
<path d="M365.472 111.266C365.601 111.932 365.354 112.544 364.924 112.63C364.495 112.716 364.033 112.243 363.904 111.556C363.776 110.869 364.023 110.278 364.452 110.203C364.881 110.128 365.343 110.59 365.472 111.266Z" fill="#263238"/>
<path d="M364.656 110.214L362.971 110.074C362.971 110.074 364.034 111.159 364.656 110.214Z" fill="#263238"/>
<path d="M367.683 112.031C367.382 113.658 366.861 115.236 366.137 116.723C366.522 116.903 366.942 116.996 367.366 116.996C367.791 116.996 368.211 116.903 368.596 116.723L367.683 112.031Z" fill="#DF5753"/>
<path d="M371.398 118.869C371.352 118.869 371.307 118.853 371.271 118.824C371.236 118.794 371.212 118.753 371.204 118.708C371.2 118.682 371.2 118.656 371.206 118.631C371.212 118.606 371.222 118.582 371.237 118.561C371.252 118.54 371.271 118.522 371.293 118.508C371.315 118.495 371.34 118.486 371.365 118.482C372.195 118.338 372.979 118 373.655 117.496C374.33 116.993 374.877 116.337 375.252 115.583C375.262 115.559 375.276 115.537 375.295 115.519C375.313 115.501 375.335 115.486 375.359 115.476C375.383 115.466 375.408 115.461 375.434 115.461C375.46 115.461 375.486 115.466 375.51 115.476C375.534 115.486 375.556 115.5 375.574 115.518C375.592 115.537 375.607 115.558 375.617 115.582C375.627 115.606 375.632 115.632 375.632 115.658C375.632 115.684 375.627 115.71 375.617 115.733C375.224 116.553 374.639 117.266 373.912 117.812C373.185 118.357 372.337 118.72 371.441 118.869H371.398Z" fill="#263238"/>
<path d="M374.705 106.952C374.607 106.953 374.512 106.919 374.437 106.855C374.076 106.512 373.638 106.259 373.16 106.117C372.683 105.975 372.178 105.949 371.688 106.039C371.58 106.066 371.465 106.049 371.37 105.992C371.274 105.935 371.205 105.842 371.178 105.733C371.151 105.625 371.168 105.511 371.226 105.415C371.283 105.319 371.376 105.25 371.484 105.223C372.103 105.102 372.743 105.129 373.349 105.302C373.956 105.476 374.513 105.791 374.974 106.222C375.047 106.296 375.088 106.397 375.088 106.501C375.088 106.606 375.047 106.706 374.974 106.78C374.944 106.826 374.904 106.865 374.858 106.895C374.812 106.925 374.76 106.944 374.705 106.952Z" fill="#263238"/>
<path d="M361.318 108.44C361.268 108.451 361.217 108.451 361.167 108.44C361.118 108.42 361.074 108.391 361.036 108.353C360.999 108.316 360.969 108.271 360.949 108.222C360.929 108.173 360.919 108.121 360.92 108.068C360.92 108.015 360.932 107.963 360.953 107.914C361.181 107.327 361.547 106.803 362.02 106.387C362.492 105.97 363.058 105.673 363.669 105.52C363.721 105.509 363.774 105.509 363.826 105.52C363.877 105.53 363.926 105.551 363.969 105.581C364.013 105.611 364.049 105.65 364.077 105.695C364.105 105.74 364.123 105.79 364.131 105.842C364.142 105.893 364.142 105.945 364.132 105.996C364.122 106.047 364.102 106.096 364.073 106.139C364.044 106.182 364.007 106.219 363.963 106.247C363.919 106.276 363.87 106.295 363.819 106.304C363.337 106.435 362.891 106.678 362.519 107.011C362.146 107.345 361.856 107.76 361.672 108.226C361.637 108.29 361.586 108.343 361.524 108.381C361.462 108.419 361.391 108.439 361.318 108.44Z" fill="#263238"/>
<path d="M461.327 357.217C461.143 357.213 460.963 357.163 460.802 357.073C460.641 356.984 460.505 356.856 460.404 356.702C460.328 356.611 460.276 356.502 460.256 356.385C460.235 356.268 460.245 356.148 460.286 356.036C460.662 355.027 463.625 354.383 463.958 354.308C463.996 354.301 464.036 354.305 464.072 354.321C464.108 354.336 464.14 354.361 464.162 354.394C464.184 354.425 464.197 354.462 464.197 354.501C464.197 354.54 464.184 354.577 464.162 354.608C463.582 355.564 462.444 357.164 461.381 357.217H461.327ZM463.571 354.802C462.401 355.102 460.855 355.639 460.662 356.176C460.643 356.225 460.639 356.279 460.65 356.331C460.661 356.382 460.688 356.429 460.726 356.466C460.792 356.577 460.887 356.668 461 356.73C461.113 356.792 461.241 356.823 461.37 356.82C461.939 356.788 462.744 356.047 463.571 354.802Z" fill="#01966B"/>
<path d="M463.088 354.802C462.014 354.802 460.672 354.533 460.275 353.953C460.187 353.822 460.146 353.663 460.16 353.505C460.173 353.347 460.241 353.199 460.35 353.084C460.444 352.964 460.563 352.866 460.698 352.795C460.833 352.725 460.982 352.684 461.134 352.676H461.22C462.422 352.676 464.076 354.297 464.14 354.361C464.166 354.386 464.185 354.416 464.194 354.451C464.203 354.485 464.203 354.521 464.194 354.555C464.184 354.588 464.166 354.618 464.142 354.642C464.118 354.667 464.087 354.685 464.054 354.694C463.738 354.77 463.413 354.807 463.088 354.802ZM461.22 353.073H461.155C461.059 353.076 460.965 353.101 460.879 353.146C460.794 353.19 460.719 353.254 460.661 353.331C460.511 353.535 460.554 353.653 460.608 353.728C460.93 354.222 462.573 354.501 463.582 354.383C462.938 353.727 462.117 353.272 461.22 353.073Z" fill="#01966B"/>
<path d="M401.977 378.248C401.255 378.312 400.532 378.13 399.926 377.732C399.783 377.621 399.67 377.474 399.599 377.307C399.528 377.14 399.5 376.958 399.518 376.777C399.517 376.669 399.545 376.563 399.598 376.469C399.65 376.375 399.726 376.296 399.819 376.24C400.807 375.66 404.264 377.378 404.65 377.571C404.687 377.591 404.716 377.62 404.735 377.657C404.755 377.693 404.762 377.734 404.758 377.775C404.752 377.816 404.735 377.854 404.709 377.884C404.682 377.915 404.647 377.937 404.607 377.947C403.742 378.128 402.861 378.229 401.977 378.248ZM400.388 376.508C400.262 376.5 400.136 376.526 400.023 376.584C399.986 376.603 399.957 376.633 399.937 376.669C399.918 376.705 399.911 376.747 399.915 376.788C399.905 376.909 399.924 377.031 399.97 377.143C400.017 377.255 400.09 377.354 400.184 377.432C400.721 377.893 402.106 377.969 403.931 377.668C402.823 377.087 401.625 376.695 400.388 376.508Z" fill="#01966B"/>
<path d="M404.564 377.929H404.489C403.415 377.467 401.343 375.642 401.494 374.708C401.494 374.493 401.687 374.214 402.224 374.16H402.385C404.253 374.16 404.736 377.574 404.757 377.725C404.762 377.761 404.758 377.797 404.745 377.831C404.732 377.865 404.71 377.895 404.682 377.918C404.645 377.933 404.604 377.936 404.564 377.929ZM402.417 374.536H402.299C401.955 374.536 401.934 374.697 401.934 374.74C401.848 375.309 403.265 376.737 404.339 377.37C404.124 376.533 403.576 374.557 402.374 374.557L402.417 374.536Z" fill="#01966B"/>
<path d="M372.161 108.752L370.476 108.602C370.476 108.602 371.539 109.697 372.161 108.752Z" fill="#263238"/>
<path d="M379.537 147.673C361.575 151.678 367.126 140.812 368.2 138.418L368.651 138.246C370.798 137.462 371.227 137.344 374.083 136.507C379.067 135.162 384.14 134.175 389.265 133.554L390.338 133.404C391.412 133.264 392.389 133.157 393.377 133.071C394.043 132.996 394.708 132.953 395.342 132.91L397.489 132.781C397.854 134.456 398.745 143.41 379.537 147.673Z" fill="#E58A7B"/>
<path d="M407.732 181.676L409.826 184.382C409.987 184.586 409.761 184.876 409.375 184.951L374.309 191.779C374.009 191.844 373.729 191.779 373.676 191.554L372.785 188.623C372.785 188.419 372.956 188.193 373.278 188.129L407.141 181.537C407.243 181.507 407.352 181.504 407.455 181.528C407.559 181.553 407.654 181.604 407.732 181.676Z" fill="#26395A"/>
<path d="M403.918 186.347L404.831 186.175C405.014 186.175 405.132 186.025 405.099 185.907L403.918 182.106C403.918 181.988 403.704 181.934 403.521 181.966L402.619 182.138C402.437 182.138 402.319 182.299 402.351 182.406L403.532 186.218C403.564 186.325 403.747 186.39 403.918 186.347Z" fill="#01966B"/>
<path d="M383.381 199.016L376.391 196.418L377.465 203.064C377.465 203.064 382.533 204.889 385.12 202.549L383.381 199.016Z" fill="#E58A7B"/>
<path d="M369.735 198.179L368.071 202.538L377.465 203.064L376.391 196.418L369.735 198.179Z" fill="#E58A7B"/>
<path d="M376.917 191.608L377.83 191.437C378.001 191.437 378.13 191.286 378.087 191.168L376.906 187.368C376.906 187.249 376.702 187.196 376.52 187.228L375.607 187.4C375.425 187.4 375.307 187.561 375.35 187.668L376.531 191.48C376.563 191.587 376.735 191.651 376.917 191.608Z" fill="#01966B"/>
<path d="M390.425 188.968L391.327 188.796C391.509 188.796 391.627 188.646 391.595 188.528L390.414 184.727C390.414 184.609 390.199 184.555 390.017 184.587L389.115 184.759C388.932 184.759 388.814 184.92 388.846 185.028L390.027 188.839C390.07 188.901 390.132 188.947 390.204 188.971C390.276 188.994 390.353 188.993 390.425 188.968Z" fill="#01966B"/>
<path d="M386.6 129.291C387.363 129.001 388.318 131.686 388.082 132.029C387.534 132.813 377.507 135.551 377.056 134.015C377.028 133.183 377.155 132.353 377.431 131.568C377.721 131.052 379.944 131.997 386.6 129.291Z" fill="#01966B"/>
<path d="M384.905 129.355C385.291 128.464 386.397 127.036 387.363 127.852C388.33 128.668 388.738 130.429 388.104 130.719C387.471 131.009 384.239 130.848 384.905 129.355Z" fill="#01966B"/>
<path d="M386.957 129.82C387.622 129.112 389.104 128.135 389.78 129.23C390.457 130.325 390.21 132.118 389.523 132.172C388.836 132.225 385.829 130.991 386.957 129.82Z" fill="#01966B"/>
<path d="M387.321 129.658C387.267 129.088 387.379 128.513 387.644 128.005C387.909 127.496 388.315 127.075 388.814 126.792C390.038 125.997 391.23 125.482 391.702 124.645C391.905 125.43 391.946 126.248 391.82 127.05C391.573 128.198 387.762 129.079 388.019 130.077L387.321 129.658Z" fill="#01966B"/>
<path d="M387.159 129.606C386.804 129.155 386.586 128.611 386.533 128.04C386.479 127.468 386.592 126.894 386.859 126.385C387.438 125.054 388.168 123.98 388.125 123.035C388.722 123.584 389.2 124.249 389.532 124.989C389.94 126.063 387.224 128.887 387.986 129.595L387.159 129.606Z" fill="#01966B"/>
<path d="M461.833 339.343C461.811 339.342 461.789 339.336 461.771 339.325C461.752 339.314 461.736 339.298 461.725 339.279C461.478 338.935 436.935 303.913 427.937 273.142C422.066 253.404 417.553 233.286 414.431 212.931C412.573 201.465 411.446 194.54 407.753 188.86C407.728 188.834 407.714 188.799 407.714 188.763C407.714 188.727 407.728 188.693 407.753 188.667C407.778 188.645 407.81 188.633 407.844 188.633C407.878 188.633 407.91 188.645 407.935 188.667C411.672 194.4 412.799 201.347 414.656 212.845C417.793 233.171 422.313 253.259 428.184 272.97C437.171 303.698 461.693 338.678 461.94 339.032C461.96 339.058 461.971 339.09 461.971 339.123C461.971 339.156 461.96 339.188 461.94 339.214C461.938 339.245 461.927 339.273 461.908 339.297C461.888 339.32 461.862 339.336 461.833 339.343Z" fill="#01966B"/>
<path opacity="0.4" d="M461.833 339.343C461.811 339.342 461.789 339.336 461.771 339.325C461.752 339.314 461.736 339.298 461.725 339.279C461.478 338.935 436.935 303.913 427.937 273.142C422.066 253.404 417.553 233.286 414.431 212.931C412.573 201.465 411.446 194.54 407.753 188.86C407.728 188.834 407.714 188.799 407.714 188.763C407.714 188.727 407.728 188.693 407.753 188.667C407.778 188.645 407.81 188.633 407.844 188.633C407.878 188.633 407.91 188.645 407.935 188.667C411.672 194.4 412.799 201.347 414.656 212.845C417.793 233.171 422.313 253.259 428.184 272.97C437.171 303.698 461.693 338.678 461.94 339.032C461.96 339.058 461.971 339.09 461.971 339.123C461.971 339.156 461.96 339.188 461.94 339.214C461.938 339.245 461.927 339.273 461.908 339.297C461.888 339.32 461.862 339.336 461.833 339.343Z" fill="black"/>
<path d="M416.47 365.183L400.064 367.309L398.99 362.735L416.072 359.117L416.47 365.183Z" fill="#01966B"/>
<path d="M466.76 338.837L454.66 345.826L450.58 342.337L463.818 333.383L466.76 338.837Z" fill="#01966B"/>
<path d="M409.974 144.012C410.554 146.996 410.887 149.809 411.209 152.719C411.531 155.629 411.649 158.506 411.735 161.416C411.82 164.348 411.756 167.283 411.541 170.209C411.423 171.68 411.295 173.151 411.091 174.632C411.005 175.362 410.908 176.103 410.768 176.844L410.371 179.12C409.931 180.975 409.124 182.724 407.998 184.263C407.075 185.558 406.056 186.782 404.949 187.924C402.877 190.052 400.653 192.026 398.293 193.829C393.727 197.344 388.895 200.5 383.841 203.267L381.544 199.702C383.691 197.995 385.838 196.234 387.986 194.441C390.133 192.648 392.173 190.834 394.138 188.944C396.079 187.125 397.911 185.193 399.624 183.157C400.411 182.215 401.128 181.218 401.771 180.172C402.278 179.411 402.642 178.563 402.845 177.671C403.194 175.064 403.398 172.441 403.457 169.812C403.457 168.47 403.457 167.127 403.457 165.785C403.457 164.443 403.403 163.08 403.339 161.727C403.21 159.021 402.963 156.359 402.673 153.61C402.383 150.862 402.007 148.145 401.599 145.601L409.974 144.012Z" fill="#E58A7B"/>
<path d="M408.676 134.884C413.26 138.598 412.165 149.636 412.165 149.636L396.705 154.725C396.705 154.725 397.413 142.002 398.186 137.428C399.088 131.985 404.156 131.222 408.676 134.884Z" fill="#01966B"/>
<path opacity="0.2" d="M408.676 134.884C413.26 138.598 412.165 149.636 412.165 149.636L396.705 154.725C396.705 154.725 397.413 142.002 398.186 137.428C399.088 131.985 404.156 131.222 408.676 134.884Z" fill="black"/>
<path d="M204.435 180.94C203.835 178.336 202.37 176.013 200.28 174.35C198.19 172.687 195.597 171.781 192.926 171.781H107.033C103.901 171.781 100.897 173.026 98.6823 175.24C96.4674 177.455 95.2231 180.459 95.2231 183.591V374.508C95.2231 377.641 96.4674 380.645 98.6823 382.859C100.897 385.074 103.901 386.318 107.033 386.318H379.741C382.873 386.318 385.877 385.074 388.092 382.859C390.307 380.645 391.551 377.641 391.551 374.508V214.137C391.551 211.005 390.307 208.001 388.092 205.786C385.877 203.571 382.873 202.327 379.741 202.327H231.309C225.07 202.328 219.016 200.213 214.135 196.329C209.254 192.444 205.834 187.019 204.435 180.94Z" fill="#01966B"/>
<path opacity="0.6" d="M204.435 180.94C203.835 178.336 202.37 176.013 200.28 174.35C198.19 172.687 195.597 171.781 192.926 171.781H107.033C103.901 171.781 100.897 173.026 98.6823 175.24C96.4674 177.455 95.2231 180.459 95.2231 183.591V374.508C95.2231 377.641 96.4674 380.645 98.6823 382.859C100.897 385.074 103.901 386.318 107.033 386.318H379.741C382.873 386.318 385.877 385.074 388.092 382.859C390.307 380.645 391.551 377.641 391.551 374.508V214.137C391.551 211.005 390.307 208.001 388.092 205.786C385.877 203.571 382.873 202.327 379.741 202.327H231.309C225.07 202.328 219.016 200.213 214.135 196.329C209.254 192.444 205.834 187.019 204.435 180.94Z" fill="black"/>
<path opacity="0.22" d="M174.114 121.477L181.769 146.267C182.746 149.422 184.935 152.061 187.856 153.603C190.777 155.145 194.191 155.464 197.347 154.491L222.127 146.836L174.114 121.477Z" fill="#01966B"/>
<path d="M174.114 121.477L85.5381 148.844C83.9745 149.324 82.5209 150.108 81.2605 151.151C80.0001 152.194 78.9577 153.475 78.1929 154.921C77.428 156.366 76.9557 157.949 76.8031 159.578C76.6504 161.206 76.8204 162.849 77.3032 164.412L127.872 328.122C128.355 329.686 129.141 331.138 130.185 332.398C131.229 333.657 132.511 334.698 133.958 335.462C135.405 336.226 136.988 336.697 138.616 336.849C140.245 337 141.888 336.83 143.451 336.347L256.818 301.324C258.381 300.843 259.833 300.058 261.092 299.015C262.351 297.972 263.393 296.69 264.157 295.245C264.92 293.799 265.392 292.217 265.544 290.589C265.696 288.96 265.525 287.318 265.042 285.756L222.096 146.836L174.114 121.477Z" fill="#01966B"/>
<path opacity="0.8" d="M174.114 121.477L85.5381 148.844C83.9745 149.324 82.5209 150.108 81.2605 151.151C80.0001 152.194 78.9577 153.475 78.1929 154.921C77.428 156.366 76.9557 157.949 76.8031 159.578C76.6504 161.206 76.8204 162.849 77.3032 164.412L127.872 328.122C128.355 329.686 129.141 331.138 130.185 332.398C131.229 333.657 132.511 334.698 133.958 335.462C135.405 336.226 136.988 336.697 138.616 336.849C140.245 337 141.888 336.83 143.451 336.347L256.818 301.324C258.381 300.843 259.833 300.058 261.092 299.015C262.351 297.972 263.393 296.69 264.157 295.245C264.92 293.799 265.392 292.217 265.544 290.589C265.696 288.96 265.525 287.318 265.042 285.756L222.096 146.836L174.114 121.477Z" fill="white"/>
<g opacity="0.28">
<path d="M221.776 294.171L148.081 316.933C146.702 317.356 145.213 317.217 143.937 316.545C142.661 315.873 141.704 314.723 141.274 313.347C140.854 311.969 140.997 310.48 141.671 309.207C142.344 307.934 143.495 306.979 144.87 306.551L218.566 283.779C219.945 283.356 221.436 283.497 222.712 284.171C223.988 284.845 224.945 285.997 225.373 287.375C225.792 288.753 225.65 290.242 224.976 291.515C224.302 292.788 223.152 293.743 221.776 294.171Z" fill="#01966B"/>
</g>
<g opacity="0.28">
<path d="M142.464 160.589L103.49 172.625C102.112 173.045 100.624 172.904 99.349 172.233C98.0742 171.561 97.1162 170.413 96.6835 169.039C96.2636 167.659 96.406 166.17 97.0797 164.894C97.7534 163.619 98.9039 162.662 100.28 162.232L139.254 150.196C140.632 149.77 142.123 149.908 143.399 150.581C144.676 151.253 145.633 152.404 146.061 153.782C146.481 155.162 146.338 156.651 145.664 157.927C144.991 159.202 143.84 160.159 142.464 160.589Z" fill="#01966B"/>
</g>
<g opacity="0.28">
<path d="M174.264 173.36L109.845 193.255C108.47 193.668 106.987 193.522 105.719 192.848C104.451 192.175 103.499 191.029 103.071 189.658C102.648 188.281 102.788 186.793 103.46 185.519C104.132 184.245 105.281 183.29 106.657 182.862L171.076 162.967C172.454 162.544 173.944 162.683 175.219 163.355C176.495 164.027 177.452 165.177 177.883 166.553C178.299 167.935 178.152 169.426 177.474 170.701C176.797 171.976 175.643 172.931 174.264 173.36Z" fill="#01966B"/>
</g>
<g opacity="0.28">
<path d="M210.23 184.833L116.221 213.822C114.844 214.245 113.356 214.105 112.082 213.433C110.808 212.761 109.853 211.611 109.425 210.236C109.005 208.858 109.146 207.369 109.817 206.095C110.489 204.82 111.637 203.862 113.011 203.429L207.02 174.441C208.397 174.02 209.884 174.162 211.157 174.833C212.43 175.505 213.386 176.653 213.816 178.027C214.24 179.405 214.1 180.894 213.428 182.17C212.756 183.446 211.606 184.403 210.23 184.833Z" fill="#01966B"/>
</g>
<g opacity="0.28">
<path d="M216.597 205.447L161.948 222.336C160.569 222.756 159.081 222.613 157.808 221.939C156.535 221.265 155.58 220.115 155.151 218.739C154.731 217.362 154.873 215.876 155.544 214.602C156.216 213.329 157.364 212.373 158.737 211.943L213.386 195.054C214.766 194.638 216.254 194.781 217.529 195.455C218.803 196.128 219.76 197.277 220.193 198.651C220.613 200.029 220.47 201.518 219.796 202.791C219.122 204.064 217.972 205.019 216.597 205.447Z" fill="#01966B"/>
</g>
<g opacity="0.28">
<path d="M136.889 230.08L122.599 234.493C121.221 234.916 119.731 234.776 118.456 234.104C117.18 233.432 116.222 232.283 115.792 230.907C115.369 229.527 115.51 228.036 116.184 226.76C116.859 225.484 118.011 224.528 119.389 224.1L133.679 219.687C135.057 219.267 136.546 219.408 137.821 220.079C139.095 220.751 140.053 221.899 140.486 223.273C140.903 224.653 140.759 226.141 140.086 227.415C139.413 228.69 138.264 229.647 136.889 230.08Z" fill="#01966B"/>
</g>
<g opacity="0.28">
<path d="M222.977 226.076L128.968 255.118C127.59 255.538 126.101 255.395 124.828 254.721C123.555 254.047 122.6 252.897 122.171 251.521C121.748 250.144 121.888 248.656 122.561 247.382C123.233 246.109 124.382 245.153 125.757 244.725L219.767 215.683C221.143 215.263 222.63 215.404 223.903 216.076C225.176 216.747 226.132 217.895 226.563 219.269C226.986 220.647 226.846 222.137 226.174 223.412C225.502 224.688 224.353 225.645 222.977 226.076Z" fill="#01966B"/>
</g>
<g opacity="0.28">
<path d="M193.066 257.895L135.336 275.729C133.959 276.149 132.472 276.008 131.199 275.336C129.926 274.664 128.97 273.516 128.539 272.143C128.119 270.765 128.26 269.276 128.931 268.001C129.603 266.726 130.751 265.769 132.125 265.336L189.856 247.502C191.235 247.083 192.725 247.225 194 247.899C195.275 248.572 196.232 249.723 196.663 251.099C197.085 252.477 196.944 253.967 196.269 255.241C195.595 256.515 194.443 257.47 193.066 257.895Z" fill="#01966B"/>
</g>
<g opacity="0.28">
<path d="M229.343 246.696L213.936 251.452C212.557 251.872 211.067 251.729 209.792 251.056C208.517 250.382 207.56 249.231 207.13 247.855C206.71 246.477 206.853 244.989 207.527 243.715C208.2 242.442 209.351 241.487 210.726 241.059L226.133 236.303C227.51 235.88 228.998 236.019 230.272 236.692C231.546 237.364 232.501 238.513 232.929 239.889C233.353 241.267 233.213 242.756 232.541 244.032C231.869 245.308 230.719 246.265 229.343 246.696Z" fill="#01966B"/>
</g>
<g opacity="0.28">
<path d="M235.71 267.333L141.722 296.322C140.343 296.745 138.852 296.604 137.576 295.929C136.3 295.255 135.343 294.103 134.915 292.725C134.493 291.347 134.634 289.857 135.308 288.583C135.983 287.309 137.135 286.355 138.512 285.929L232.51 256.887C233.89 256.47 235.378 256.613 236.653 257.287C237.927 257.96 238.884 259.109 239.317 260.483C239.533 261.17 239.611 261.892 239.546 262.609C239.481 263.326 239.275 264.023 238.94 264.659C238.604 265.296 238.146 265.86 237.592 266.319C237.038 266.778 236.398 267.123 235.71 267.333Z" fill="#01966B"/>
</g>
<path d="M237.729 59.9161L265.837 122.553C266.567 124.188 266.619 126.046 265.984 127.719C265.348 129.393 264.075 130.747 262.444 131.486L143.204 185.007C141.57 185.74 139.711 185.794 138.036 185.158C136.362 184.522 135.008 183.248 134.272 181.615L106.153 118.978C105.417 117.342 105.361 115.481 105.997 113.803C106.633 112.126 107.91 110.77 109.545 110.034L228.785 56.5127C230.423 55.7832 232.283 55.7317 233.959 56.3695C235.635 57.0072 236.99 58.2823 237.729 59.9161Z" fill="#01966B"/>
<path opacity="0.3" d="M237.729 59.9161L265.837 122.553C266.567 124.188 266.619 126.046 265.984 127.719C265.348 129.393 264.075 130.747 262.444 131.486L143.204 185.007C141.57 185.74 139.711 185.794 138.036 185.158C136.362 184.522 135.008 183.248 134.272 181.615L106.153 118.978C105.417 117.342 105.361 115.481 105.997 113.803C106.633 112.126 107.91 110.77 109.545 110.034L228.785 56.5127C230.423 55.7832 232.283 55.7317 233.959 56.3695C235.635 57.0072 236.99 58.2823 237.729 59.9161Z" fill="black"/>
<path d="M218.935 56.8219L215.124 58.5312L215.564 59.5109L219.374 57.8015L218.935 56.8219Z" fill="#01966B"/>
<path d="M209.788 60.9158L197.906 66.2461L198.345 67.2257L210.228 61.8954L209.788 60.9158Z" fill="#01966B"/>
<path d="M106.046 125.291L105.066 125.73L108.321 132.978L109.3 132.539L106.046 125.291Z" fill="#01966B"/>
<path opacity="0.6" d="M233.734 56.2857L202.985 116.518C200.131 122.1 195.459 126.542 189.739 129.109C184.019 131.677 177.594 132.215 171.527 130.636L106.088 113.576C106.759 112.006 107.992 110.742 109.545 110.033L228.785 56.5111C230.347 55.8127 232.115 55.7321 233.734 56.2857Z" fill="#01966B"/>
<path d="M276.004 133.375L183.476 139.087C181.842 139.184 180.242 139.603 178.769 140.319C177.297 141.035 175.98 142.034 174.894 143.26C173.808 144.485 172.974 145.913 172.44 147.461C171.907 149.009 171.684 150.648 171.784 152.282L182.338 323.293C182.437 324.929 182.857 326.529 183.575 328.002C184.293 329.475 185.294 330.792 186.522 331.877C187.75 332.962 189.18 333.794 190.73 334.326C192.28 334.858 193.919 335.078 195.555 334.975L313.979 327.663C315.612 327.565 317.209 327.145 318.679 326.428C320.15 325.711 321.464 324.711 322.547 323.485C323.63 322.26 324.461 320.832 324.991 319.285C325.522 317.737 325.742 316.1 325.639 314.468L316.727 169.342L276.004 133.375Z" fill="#01966B"/>
<path opacity="0.8" d="M276.004 133.375L183.476 139.087C181.842 139.184 180.242 139.603 178.769 140.319C177.297 141.035 175.98 142.034 174.894 143.26C173.808 144.485 172.974 145.913 172.44 147.461C171.907 149.009 171.684 150.648 171.784 152.282L182.338 323.293C182.437 324.929 182.857 326.529 183.575 328.002C184.293 329.475 185.294 330.792 186.522 331.877C187.75 332.962 189.18 333.794 190.73 334.326C192.28 334.858 193.919 335.078 195.555 334.975L313.979 327.663C315.612 327.565 317.209 327.145 318.679 326.428C320.15 325.711 321.464 324.711 322.547 323.485C323.63 322.26 324.461 320.832 324.991 319.285C325.522 317.737 325.742 316.1 325.639 314.468L316.727 169.342L276.004 133.375Z" fill="white"/>
<g opacity="0.22">
<path d="M281.599 312.431L204.607 317.187C203.169 317.269 201.756 316.779 200.678 315.824C199.6 314.868 198.943 313.525 198.852 312.087C198.77 310.649 199.258 309.237 200.211 308.158C201.164 307.078 202.505 306.418 203.941 306.322L280.933 301.576C282.371 301.491 283.785 301.978 284.865 302.931C285.946 303.885 286.605 305.227 286.698 306.665C286.784 308.105 286.295 309.52 285.339 310.601C284.383 311.682 283.038 312.339 281.599 312.431Z" fill="#01966B"/>
</g>
<g opacity="0.22">
<path d="M236.033 163.917L195.309 166.408C193.872 166.49 192.46 166.002 191.38 165.049C190.3 164.096 189.64 162.755 189.544 161.319C189.461 159.879 189.951 158.466 190.906 157.386C191.862 156.306 193.205 155.647 194.644 155.553L235.367 153.041C236.805 152.956 238.217 153.443 239.296 154.397C240.374 155.351 241.031 156.693 241.122 158.13C241.213 159.572 240.729 160.991 239.775 162.076C238.82 163.161 237.475 163.823 236.033 163.917Z" fill="#01966B"/>
</g>
<g opacity="0.22">
<path d="M263.927 183.826L196.641 187.97C195.202 188.058 193.786 187.572 192.706 186.618C191.625 185.664 190.966 184.32 190.875 182.881C190.79 181.441 191.279 180.026 192.235 178.945C193.19 177.865 194.535 177.207 195.975 177.115L263.25 172.971C264.689 172.883 266.105 173.369 267.185 174.323C268.266 175.277 268.925 176.621 269.016 178.06C269.101 179.499 268.614 180.912 267.66 181.993C266.707 183.073 265.364 183.732 263.927 183.826Z" fill="#01966B"/>
</g>
<g opacity="0.22">
<path d="M296.167 203.456L197.971 209.512C196.528 209.6 195.109 209.113 194.024 208.157C192.94 207.201 192.278 205.854 192.184 204.412C192.099 202.975 192.586 201.562 193.54 200.484C194.494 199.405 195.836 198.748 197.273 198.657L295.48 192.591C296.918 192.509 298.331 192.999 299.409 193.954C300.487 194.91 301.144 196.253 301.235 197.691C301.32 199.126 300.836 200.536 299.887 201.616C298.938 202.696 297.601 203.357 296.167 203.456Z" fill="#01966B"/>
</g>
<g opacity="0.22">
<path d="M297.499 224.998L240.413 228.519C238.974 228.605 237.561 228.117 236.48 227.164C235.4 226.21 234.741 224.868 234.647 223.43C234.559 221.991 235.045 220.576 235.999 219.495C236.953 218.414 238.297 217.756 239.736 217.665L296.822 214.143C298.261 214.055 299.677 214.541 300.758 215.495C301.838 216.449 302.497 217.793 302.588 219.232C302.673 220.67 302.186 222.084 301.232 223.164C300.279 224.245 298.937 224.904 297.499 224.998Z" fill="#01966B"/>
</g>
<g opacity="0.22">
<path d="M214.227 230.129L199.292 231.053C197.855 231.138 196.443 230.65 195.364 229.696C194.286 228.743 193.629 227.4 193.538 225.963C193.452 224.525 193.94 223.111 194.893 222.031C195.847 220.951 197.189 220.292 198.627 220.198L213.561 219.275C215.001 219.192 216.414 219.682 217.494 220.637C218.574 221.592 219.233 222.936 219.327 224.374C219.409 225.813 218.919 227.225 217.963 228.303C217.008 229.382 215.665 230.038 214.227 230.129Z" fill="#01966B"/>
</g>
<g opacity="0.22">
<path d="M298.831 246.54L200.624 252.595C199.186 252.681 197.772 252.193 196.692 251.24C195.612 250.286 194.953 248.944 194.859 247.506C194.776 246.067 195.266 244.653 196.221 243.573C197.177 242.493 198.52 241.835 199.959 241.741L298.155 235.685C299.595 235.6 301.01 236.089 302.091 237.045C303.171 238 303.829 239.345 303.92 240.785C304.006 242.222 303.518 243.635 302.564 244.713C301.61 245.792 300.268 246.449 298.831 246.54Z" fill="#01966B"/>
</g>
<g opacity="0.22">
<path d="M262.263 270.414L201.955 274.14C200.516 274.222 199.102 273.732 198.022 272.777C196.943 271.822 196.284 270.479 196.19 269.04C196.108 267.602 196.598 266.189 197.553 265.111C198.509 264.033 199.852 263.377 201.29 263.285L261.597 259.56C263.035 259.477 264.448 259.967 265.526 260.923C266.604 261.878 267.26 263.222 267.352 264.66C267.44 266.098 266.953 267.512 265.999 268.591C265.044 269.67 263.7 270.326 262.263 270.414Z" fill="#01966B"/>
</g>
<g opacity="0.22">
<path d="M300.151 268.08L284.046 269.067C282.609 269.153 281.196 268.665 280.118 267.711C279.039 266.757 278.383 265.415 278.291 263.978C278.203 262.539 278.689 261.124 279.644 260.043C280.598 258.962 281.942 258.304 283.38 258.213L299.485 257.225C300.924 257.137 302.34 257.623 303.42 258.577C304.501 259.531 305.16 260.875 305.251 262.314C305.333 263.754 304.843 265.167 303.888 266.247C302.933 267.327 301.59 267.986 300.151 268.08Z" fill="#01966B"/>
</g>
<g opacity="0.22">
<path d="M301.479 289.622L203.283 295.677C201.845 295.763 200.431 295.275 199.351 294.322C198.27 293.368 197.611 292.026 197.518 290.588C197.432 289.15 197.92 287.736 198.873 286.656C199.827 285.576 201.169 284.917 202.607 284.823L300.814 278.767C302.251 278.682 303.663 279.17 304.742 280.124C305.82 281.077 306.477 282.42 306.568 283.857C306.657 285.296 306.17 286.711 305.216 287.792C304.262 288.873 302.918 289.531 301.479 289.622Z" fill="#01966B"/>
</g>
<path opacity="0.22" d="M276.004 133.375L277.603 159.272C277.703 160.904 278.124 162.501 278.841 163.972C279.558 165.442 280.558 166.756 281.783 167.84C283.009 168.924 284.436 169.756 285.982 170.288C287.529 170.82 289.166 171.042 290.799 170.942L316.727 169.342L276.004 133.375Z" fill="#01966B"/>
<path opacity="0.5" d="M245.706 197.978C245.69 196.737 245.425 195.512 244.927 194.375C244.429 193.238 243.709 192.213 242.808 191.359C241.907 190.505 240.845 189.841 239.683 189.405C238.521 188.969 237.283 188.77 236.043 188.82H150.043C143.526 188.82 137.16 194.113 135.936 200.63L101.997 374.508C100.731 381.025 104.982 386.319 111.499 386.319H384.207C390.724 386.319 397.037 381.036 398.315 374.508L426.305 231.176C427.572 224.648 423.32 219.366 416.803 219.366H268.414C255.53 219.366 246.146 210.497 245.706 197.978Z" fill="#01966B"/>
</svg>
