<svg width="24" height="24" viewBox="0 0 24 24" fill="none" xmlns="http://www.w3.org/2000/svg">
<path fill-rule="evenodd" clip-rule="evenodd" d="M18.7117 17.5624C19.5086 16.7654 19.9563 15.6845 19.9563 14.5574C19.9563 13.4303 19.5086 12.3494 18.7117 11.5524L12.1717 5.01239C11.9841 4.82488 11.8786 4.57051 11.8785 4.30524C11.8784 4.03997 11.9837 3.78553 12.1712 3.59789C12.3587 3.41025 12.6131 3.30478 12.8784 3.30469C13.1436 3.30459 13.3981 3.40988 13.5857 3.59739L20.1257 10.1374C21.298 11.3094 21.9566 12.899 21.9568 14.5567C21.957 16.2143 21.2987 17.8041 20.1267 18.9764C18.9547 20.1486 17.3651 20.8073 15.7074 20.8075C14.0498 20.8077 12.46 20.1494 11.2877 18.9774L3.33371 11.0224C2.48966 10.1782 2.01553 9.0333 2.01563 7.83954C2.01572 6.64577 2.49003 5.50094 3.33421 4.65689C4.1784 3.81284 5.3233 3.33871 6.51707 3.3388C7.71083 3.3389 8.85566 3.81321 9.69971 4.65739L17.6527 12.6104C18.1563 13.129 18.4356 13.825 18.4302 14.5479C18.4248 15.2708 18.1352 15.9625 17.624 16.4737C17.1127 16.9848 16.4209 17.2742 15.698 17.2794C14.9751 17.2846 14.2792 17.0051 13.7607 16.5014L6.51471 9.25439C6.32707 9.06688 6.2216 8.81251 6.22151 8.54724C6.22142 8.28197 6.3267 8.02753 6.51421 7.83989C6.70172 7.65225 6.95609 7.54678 7.22136 7.54669C7.48663 7.54659 7.74107 7.65188 7.92871 7.83939L15.1757 15.0864C15.3165 15.2274 15.5076 15.3066 15.7069 15.3067C15.9061 15.3068 16.0972 15.2277 16.2382 15.0869C16.3792 14.9461 16.4584 14.755 16.4585 14.5557C16.4586 14.3565 16.3795 14.1654 16.2387 14.0244L8.28571 6.07139C8.05354 5.83908 7.77788 5.65478 7.47447 5.529C7.17107 5.40323 6.84586 5.33845 6.51742 5.33835C6.18898 5.33826 5.86374 5.40286 5.56026 5.52846C5.25679 5.65407 4.98102 5.83821 4.74871 6.07039C4.27955 6.53929 4.01586 7.17537 4.01568 7.83868C4.01549 8.502 4.27881 9.13822 4.74771 9.60739L12.7017 17.5614C13.4987 18.3583 14.5796 18.806 15.7067 18.806C16.8338 18.806 17.9147 18.3583 18.7117 17.5614V17.5624Z" fill="#01966B"/>
</svg>
