<svg width="20" height="20" viewBox="0 0 20 20" fill="none" xmlns="http://www.w3.org/2000/svg">
<path d="M10 20C8.60153 20 7.29406 19.7414 6.07758 19.2241C4.86111 18.7069 3.80268 17.9981 2.9023 17.0977C2.00192 16.1973 1.2931 15.1389 0.775862 13.9224C0.258621 12.7059 0 11.3985 0 10C0 8.60153 0.258621 7.29406 0.775862 6.07758C1.2931 4.86111 2.00192 3.80268 2.9023 2.9023C3.80268 2.00192 4.86111 1.2931 6.07758 0.775862C7.29406 0.258621 8.60153 0 10 0C11.3793 0 12.6772 0.258621 13.8937 0.775862C15.1102 1.2931 16.1734 2.00192 17.0833 2.9023C17.9933 3.80268 18.7069 4.86111 19.2241 6.07758C19.7414 7.29406 20 8.60153 20 10C20 11.3985 19.7414 12.7059 19.2241 13.9224C18.7069 15.1389 17.9933 16.1973 17.0833 17.0977C16.1734 17.9981 15.1102 18.7069 13.8937 19.2241C12.6772 19.7414 11.3793 20 10 20ZM9.65517 12.1264H10.3448C10.364 11.705 10.455 11.3362 10.6178 11.0201C10.7807 10.704 11.0824 10.3448 11.523 9.94253C12.0594 9.42529 12.4425 8.96552 12.6724 8.56322C12.9023 8.16092 13.0172 7.72031 13.0172 7.24138C13.0172 6.39847 12.7395 5.70881 12.1839 5.17241C11.6284 4.63601 10.9483 4.36782 10.1437 4.36782C9.43486 4.36782 8.80268 4.55939 8.24713 4.94253C7.69157 5.32567 7.27011 5.77586 6.98276 6.2931L7.67241 6.58046C7.9023 6.10153 8.20402 5.72797 8.57758 5.45977C8.95115 5.19157 9.44444 5.05747 10.0575 5.05747C10.8429 5.05747 11.4272 5.27299 11.8103 5.70402C12.1935 6.13506 12.3851 6.63793 12.3851 7.21264C12.3851 7.61494 12.2797 7.97893 12.069 8.3046C11.8582 8.63027 11.5613 8.96552 11.1782 9.31034C10.6418 9.80843 10.2538 10.2969 10.0144 10.7759C9.7749 11.2548 9.65517 11.705 9.65517 12.1264ZM10.1149 15.6897C10.2874 15.6897 10.4358 15.6226 10.5603 15.4885C10.6849 15.3544 10.7471 15.2011 10.7471 15.0287C10.7471 14.8755 10.6849 14.7318 10.5603 14.5977C10.4358 14.4636 10.2874 14.3965 10.1149 14.3965C9.94253 14.3965 9.78927 14.4636 9.65517 14.5977C9.52107 14.7318 9.45402 14.8755 9.45402 15.0287C9.45402 15.2011 9.52107 15.3544 9.65517 15.4885C9.78927 15.6226 9.94253 15.6897 10.1149 15.6897Z" fill="#B1B1B1"/>
</svg>
