<svg width="20" height="20" viewBox="0 0 20 20" fill="none" xmlns="http://www.w3.org/2000/svg">
<path d="M9.71264 15H10.3448V8.85057H9.71264V15ZM10 7.47126C10.1533 7.47126 10.2778 7.42337 10.3736 7.32759C10.4693 7.2318 10.5172 7.10728 10.5172 6.95402C10.5172 6.80077 10.4693 6.67624 10.3736 6.58046C10.2778 6.48467 10.1533 6.43678 10 6.43678C9.84674 6.43678 9.72222 6.48467 9.62644 6.58046C9.53065 6.67624 9.48276 6.80077 9.48276 6.95402C9.48276 7.10728 9.53065 7.2318 9.62644 7.32759C9.72222 7.42337 9.84674 7.47126 10 7.47126ZM10 20C8.60153 20 7.29406 19.7414 6.07758 19.2241C4.86111 18.7069 3.80268 17.9981 2.9023 17.0977C2.00192 16.1973 1.2931 15.1389 0.775862 13.9224C0.258621 12.7059 0 11.3985 0 10C0 8.60153 0.258621 7.29406 0.775862 6.07758C1.2931 4.86111 2.00192 3.80268 2.9023 2.9023C3.80268 2.00192 4.86111 1.2931 6.07758 0.775862C7.29406 0.258621 8.60153 0 10 0C11.3985 0 12.7059 0.258621 13.9224 0.775862C15.1389 1.2931 16.1973 2.00192 17.0977 2.9023C17.9981 3.80268 18.7069 4.86111 19.2241 6.07758C19.7414 7.29406 20 8.60153 20 10C20 11.3985 19.7414 12.7059 19.2241 13.9224C18.7069 15.1389 17.9981 16.1973 17.0977 17.0977C16.1973 17.9981 15.1389 18.7069 13.9224 19.2241C12.7059 19.7414 11.3985 20 10 20ZM10 19.3678C12.5862 19.3678 14.7941 18.4531 16.6236 16.6236C18.4531 14.7941 19.3678 12.5862 19.3678 10C19.3678 7.41379 18.4531 5.20594 16.6236 3.37644C14.7941 1.54693 12.5862 0.632184 10 0.632184C7.41379 0.632184 5.20594 1.54693 3.37644 3.37644C1.54693 5.20594 0.632184 7.41379 0.632184 10C0.632184 12.5862 1.54693 14.7941 3.37644 16.6236C5.20594 18.4531 7.41379 19.3678 10 19.3678Z" fill="#7987A5"/>
</svg>
