<svg width="12" height="16" viewBox="0 0 12 16" fill="none" xmlns="http://www.w3.org/2000/svg">
<path d="M12 14V4.5L7.5 0H2C1.46957 0 0.960859 0.210714 0.585786 0.585786C0.210714 0.960859 0 1.46957 0 2V14C0 14.5304 0.210714 15.0391 0.585786 15.4142C0.960859 15.7893 1.46957 16 2 16H10C10.5304 16 11.0391 15.7893 11.4142 15.4142C11.7893 15.0391 12 14.5304 12 14ZM7.5 3C7.5 3.39782 7.65804 3.77936 7.93934 4.06066C8.22064 4.34196 8.60218 4.5 9 4.5H11V14C11 14.2652 10.8946 14.5196 10.7071 14.7071C10.5196 14.8946 10.2652 15 10 15H2C1.73478 15 1.48043 14.8946 1.29289 14.7071C1.10536 14.5196 1 14.2652 1 14V2C1 1.73478 1.10536 1.48043 1.29289 1.29289C1.48043 1.10536 1.73478 1 2 1H7.5V3Z" fill="white"/>
<path d="M2.60349 14.0867C2.40858 14.0087 2.25155 13.8581 2.16549 13.6667C1.97049 13.2787 2.03549 12.8907 2.24549 12.5647C2.44349 12.2577 2.77149 11.9967 3.14249 11.7777C3.61243 11.5111 4.10918 11.2949 4.62449 11.1327C5.02468 10.4133 5.37938 9.66946 5.68649 8.90566C5.50287 8.48844 5.3589 8.05486 5.25649 7.61066C5.17049 7.21066 5.13749 6.81466 5.21049 6.47466C5.28549 6.12066 5.48449 5.80266 5.86049 5.65166C6.05249 5.57466 6.26049 5.53166 6.46249 5.57466C6.5641 5.59629 6.65962 5.64027 6.74213 5.7034C6.82463 5.76654 6.89205 5.84724 6.93949 5.93966C7.02749 6.10366 7.05949 6.29566 7.06649 6.47766C7.07349 6.66566 7.05449 6.87366 7.01949 7.09166C6.93549 7.60166 6.74949 8.22566 6.49949 8.88566C6.77538 9.47568 7.10335 10.0399 7.47949 10.5717C7.92459 10.5365 8.37227 10.5533 8.81349 10.6217C9.17749 10.6877 9.54749 10.8167 9.77349 11.0867C9.89349 11.2307 9.96649 11.4067 9.97349 11.6047C9.98049 11.7967 9.92649 11.9867 9.83549 12.1677C9.75666 12.3354 9.63445 12.479 9.48149 12.5837C9.33029 12.6823 9.15179 12.7306 8.97149 12.7217C8.64049 12.7077 8.31749 12.5257 8.03849 12.3047C7.69923 12.0242 7.39354 11.7054 7.12749 11.3547C6.45124 11.4314 5.78302 11.5673 5.13049 11.7607C4.83167 12.2906 4.49056 12.7956 4.11049 13.2707C3.81849 13.6207 3.50149 13.9267 3.18349 14.0577C3.00078 14.1403 2.79354 14.1507 2.60349 14.0867ZM3.98249 12.1857C3.81649 12.2617 3.66249 12.3417 3.52349 12.4237C3.19549 12.6177 2.98249 12.8067 2.87649 12.9707C2.78249 13.1157 2.78049 13.2207 2.83649 13.3317C2.84649 13.3537 2.85649 13.3677 2.86249 13.3757C2.87442 13.3725 2.88612 13.3685 2.89749 13.3637C3.03449 13.3077 3.25249 13.1287 3.53249 12.7917C3.69174 12.5967 3.8419 12.3945 3.98249 12.1857ZM5.62249 10.8557C5.95642 10.7777 6.29336 10.7133 6.63249 10.6627C6.45041 10.384 6.28025 10.0978 6.12249 9.80466C5.96564 10.1593 5.79891 10.5094 5.62249 10.8547V10.8557ZM8.06849 11.3057C8.21849 11.4687 8.36449 11.6057 8.50349 11.7157C8.74349 11.9057 8.91049 11.9687 9.00149 11.9717C9.02585 11.9748 9.05057 11.9696 9.07149 11.9567C9.11309 11.9238 9.14547 11.8807 9.16549 11.8317C9.20104 11.7708 9.22129 11.7021 9.22449 11.6317C9.22391 11.6082 9.21465 11.5857 9.19849 11.5687C9.14649 11.5067 8.99849 11.4167 8.68049 11.3597C8.47821 11.3258 8.27357 11.3081 8.06849 11.3067V11.3057ZM6.07849 7.79966C6.16265 7.52819 6.22945 7.25163 6.27849 6.97166C6.30949 6.78366 6.32149 6.62866 6.31649 6.50666C6.31677 6.43935 6.30596 6.37246 6.28449 6.30866C6.23447 6.31486 6.18562 6.32833 6.13949 6.34866C6.05249 6.38366 5.98149 6.45466 5.94349 6.63166C5.90349 6.82366 5.91349 7.10066 5.98949 7.45366C6.01349 7.56466 6.04349 7.68066 6.07949 7.79966H6.07849Z" fill="white"/>
</svg>
