<svg width="8" height="8" viewBox="0 0 8 8" fill="none" xmlns="http://www.w3.org/2000/svg">
<path d="M0.0875001 8V7.25H1.7125L1.525 7.1C0.991667 6.675 0.604167 6.2125 0.3625 5.7125C0.120833 5.2125 0 4.65417 0 4.0375C0 3.15417 0.260417 2.36042 0.78125 1.65625C1.30208 0.952083 1.9875 0.466667 2.8375 0.2V0.975C2.2125 1.21667 1.70833 1.61875 1.325 2.18125C0.941667 2.74375 0.75 3.3625 0.75 4.0375C0.75 4.5625 0.847917 5.01875 1.04375 5.40625C1.23958 5.79375 1.50417 6.12917 1.8375 6.4125L2.2125 6.675V5.125H2.9625V8H0.0875001ZM5.175 7.8125V7.025C5.80833 6.78333 6.3125 6.38125 6.6875 5.81875C7.0625 5.25625 7.25 4.6375 7.25 3.9625C7.25 3.5625 7.15208 3.15625 6.95625 2.74375C6.76042 2.33125 6.50417 1.96667 6.1875 1.65L5.825 1.325V2.875H5.075V0H7.95V0.75H6.3125L6.5 0.925C7 1.39167 7.375 1.89167 7.625 2.425C7.875 2.95833 8 3.47083 8 3.9625C8 4.84583 7.74167 5.64167 7.225 6.35C6.70833 7.05833 6.025 7.54583 5.175 7.8125Z" fill="#3A3A3A"/>
</svg>
