<svg width="18" height="17" viewBox="0 0 18 17" fill="none" xmlns="http://www.w3.org/2000/svg">
<path d="M4.5 13.5C4.5 12.4391 4.92143 11.4217 5.67157 10.6716C6.42172 9.92143 7.43913 9.5 8.5 9.5C9.56087 9.5 10.5783 9.92143 11.3284 10.6716C12.0786 11.4217 12.5 12.4391 12.5 13.5H11.5C11.5 12.7044 11.1839 11.9413 10.6213 11.3787C10.0587 10.8161 9.29565 10.5 8.5 10.5C7.70435 10.5 6.94129 10.8161 6.37868 11.3787C5.81607 11.9413 5.5 12.7044 5.5 13.5H4.5ZM8.5 9C6.8425 9 5.5 7.6575 5.5 6C5.5 4.3425 6.8425 3 8.5 3C10.1575 3 11.5 4.3425 11.5 6C11.5 7.6575 10.1575 9 8.5 9ZM8.5 8C9.605 8 10.5 7.105 10.5 6C10.5 4.895 9.605 4 8.5 4C7.395 4 6.5 4.895 6.5 6C6.5 7.105 7.395 8 8.5 8Z" fill="black"/>
<path fill-rule="evenodd" clip-rule="evenodd" d="M16 8.5C16 12.6421 12.6421 16 8.5 16C4.35786 16 1 12.6421 1 8.5C1 4.35786 4.35786 1 8.5 1C9.93685 1 11.3085 1.52369 12.486 2.37665L13.265 1.71027C11.9059 0.672102 10.2658 0 8.5 0C3.80558 0 0 3.80558 0 8.5C0 13.1944 3.80558 17 8.5 17C13.1944 17 17 13.1944 17 8.5C17 7.6591 16.8086 6.76791 16.4588 5.89128L15.5976 6.43789C15.8608 7.14811 16 7.85206 16 8.5Z" fill="black"/>
<path d="M15.75 7.25L16.25 6L17.75 6.25" stroke="black" stroke-width="0.8" stroke-linejoin="round"/>
</svg>
