<svg width="32" height="32" viewBox="0 0 32 32" fill="none" xmlns="http://www.w3.org/2000/svg">
<path d="M2.6665 29.332C2.6665 26.5031 3.79031 23.7899 5.7907 21.7896C7.79109 19.7892 10.5042 18.6654 13.3332 18.6654C16.1621 18.6654 18.8753 19.7892 20.8756 21.7896C22.876 23.7899 23.9998 26.5031 23.9998 29.332H21.3332C21.3332 27.2103 20.4903 25.1755 18.99 23.6752C17.4897 22.1749 15.4549 21.332 13.3332 21.332C11.2114 21.332 9.17661 22.1749 7.67632 23.6752C6.17603 25.1755 5.33317 27.2103 5.33317 29.332H2.6665ZM13.3332 17.332C8.91317 17.332 5.33317 13.752 5.33317 9.33203C5.33317 4.91203 8.91317 1.33203 13.3332 1.33203C17.7532 1.33203 21.3332 4.91203 21.3332 9.33203C21.3332 13.752 17.7532 17.332 13.3332 17.332ZM13.3332 14.6654C16.2798 14.6654 18.6665 12.2787 18.6665 9.33203C18.6665 6.38536 16.2798 3.9987 13.3332 3.9987C10.3865 3.9987 7.99984 6.38536 7.99984 9.33203C7.99984 12.2787 10.3865 14.6654 13.3332 14.6654ZM24.3785 19.6027C26.2523 20.4466 27.8425 21.8137 28.958 23.5396C30.0734 25.2656 30.6667 27.277 30.6665 29.332H27.9998C28.0001 27.7907 27.5552 26.282 26.7186 24.9875C25.882 23.6929 24.6893 22.6676 23.2838 22.0347L24.3772 19.6027H24.3785ZM23.4612 4.54936C24.8045 5.10309 25.9531 6.04342 26.7612 7.25101C27.5693 8.4586 28.0004 9.87902 27.9998 11.332C28.0004 13.1618 27.3168 14.9257 26.0832 16.2771C24.8497 17.6286 23.1554 18.47 21.3332 18.636V15.952C22.3211 15.8105 23.2376 15.3561 23.9482 14.6553C24.6589 13.9546 25.1261 13.0445 25.2814 12.0586C25.4367 11.0728 25.2718 10.0631 24.811 9.17784C24.3502 8.29258 23.6178 7.57836 22.7212 7.14003L23.4612 4.54936Z" fill="white"/>
</svg>
