<svg width="35" height="32" viewBox="0 0 35 32" fill="none" xmlns="http://www.w3.org/2000/svg">
<path d="M17.7685 29.332C16.1889 29.332 14.8966 28.132 14.8966 26.6654H20.6403C20.6403 28.132 19.3623 29.332 17.7685 29.332ZM9.1529 21.332V14.6654C9.1529 10.572 11.5078 7.14536 15.6146 6.2387V5.33203C15.6146 4.22536 16.5766 3.33203 17.7685 3.33203C18.9603 3.33203 19.9223 4.22536 19.9223 5.33203V6.2387C24.0434 7.14536 26.384 10.5587 26.384 14.6654V21.332L29.2559 23.9987V25.332H6.28104V23.9987L9.1529 21.332Z" fill="white"/>
<circle r="5" transform="matrix(-1 0 0 1 24 5)" fill="#D20000"/>
<path d="M24.6 1.92H23.87L21.97 3.46L22.47 4.07L23.74 3H23.76V9H24.6V1.92Z" fill="white"/>
</svg>
