<svg width="350" height="338" viewBox="0 0 350 338" fill="none" xmlns="http://www.w3.org/2000/svg">
<path d="M292.633 137.952C282.863 123.737 260.074 120.967 247.202 132.465C247.069 126.652 245.234 121.006 241.924 116.226C238.614 111.445 233.975 107.741 228.58 105.57C223.186 103.4 217.273 102.86 211.575 104.016C205.877 105.173 200.643 107.975 196.521 112.076C198.36 105.615 191.581 99.3156 184.875 98.9685C178.17 98.6215 171.96 102.225 166.207 105.689C160.454 109.152 154.207 112.719 147.502 112.268C140.242 111.781 134.209 106.715 127.43 104.094C110.829 97.6762 89.8198 109.063 86.1423 126.476C67.7692 119.092 44.1973 131.203 39.5745 150.469L308.584 153.608C307.624 149.783 305.627 146.297 302.812 143.534C299.998 140.772 296.475 138.84 292.633 137.952Z" fill="#F5F5F5"/>
<path d="M281.807 51.3809C282.272 47.9987 277.501 45.2147 273.912 44.9267C272.207 44.7938 270.427 45.0522 268.81 44.491C265.302 43.2652 263.899 38.731 260.48 37.291C257.917 36.2054 254.971 37.1728 252.49 38.4208C250.008 39.6688 247.557 41.2418 244.78 41.419C242.373 41.5741 239.751 40.6805 237.646 41.8547C236.073 42.7335 235.246 44.5427 233.799 45.6135C232.352 46.6843 230.535 46.8763 228.77 46.9723C227.005 47.0683 225.196 47.0904 223.601 47.8215C222.006 48.5526 220.647 50.2511 221.009 51.9791L281.807 51.3809Z" fill="#FAFAFA"/>
<path d="M47.6311 23.5771C47.8896 21.6866 45.2311 20.1358 43.2003 19.9807C42.2655 20.0114 41.3305 19.927 40.4163 19.7296C38.4594 19.0502 37.6766 16.5173 35.764 15.7124C34.3387 15.1142 32.6919 15.6459 31.3332 16.3474C29.9744 17.049 28.5196 17.8908 26.9762 18.0164C25.6248 18.105 24.17 17.6028 22.9885 18.2601C22.1097 18.7549 21.6518 19.737 20.8469 20.3573C20.0027 20.8699 19.0279 21.1264 18.0407 21.0958C17.0548 21.0723 16.0732 21.2326 15.1459 21.5684C14.6819 21.7429 14.287 22.0633 14.0206 22.4814C13.7543 22.8996 13.6309 23.3929 13.669 23.8872L47.6311 23.5771Z" fill="#FAFAFA"/>
<path d="M324.919 85.8659C325.45 81.9816 319.971 78.784 315.85 78.4812C313.878 78.3188 311.84 78.6216 309.942 77.9717C305.91 76.5686 304.3 71.3255 300.342 69.6935C297.388 68.4529 294.014 69.5606 291.156 70.9932C288.298 72.4258 285.484 74.2351 282.294 74.4418C279.517 74.6191 276.512 73.5926 274.082 74.944C272.281 75.9557 271.335 78.0382 269.652 79.264C267.968 80.4899 265.893 80.741 263.877 80.8296C261.861 80.9182 259.756 80.9625 257.917 81.8044C256.079 82.6462 254.55 84.5958 254.963 86.5822L324.919 85.8659Z" fill="#EBEBEB"/>
<path d="M317.394 19.1938C317.77 16.4541 313.908 14.2091 311.006 13.9728C309.625 13.862 308.185 14.0762 306.878 13.6183C304.035 12.6288 302.905 8.95861 300.136 7.79183C298.06 6.92044 295.705 7.69583 293.674 8.70753C291.643 9.71923 289.679 10.9894 287.434 11.1297C285.484 11.2552 283.365 10.5315 281.659 11.4842C280.389 12.2226 279.724 13.6996 278.55 14.5267C277.338 15.2754 275.935 15.6576 274.511 15.627C273.082 15.5958 271.66 15.8286 270.316 16.3137C269.024 16.9045 267.953 18.2781 268.219 19.6812L317.394 19.1938Z" fill="#EBEBEB"/>
<path d="M58.7451 84.5002C59.0257 82.462 56.1531 80.8079 53.9968 80.6159C52.9632 80.6584 51.9284 80.5691 50.9173 80.35C48.8053 79.6116 47.9635 76.8866 45.9032 76.0152C44.3598 75.3654 42.5874 75.9487 41.0957 76.6946C39.604 77.4405 38.1419 78.3931 36.4581 78.5038C34.9812 78.5925 33.4304 78.0608 32.1603 78.7697C31.2076 79.294 30.6833 80.3869 29.8415 81.0294C28.9323 81.5887 27.8809 81.8733 26.8138 81.8491C25.7523 81.8233 24.6954 81.9962 23.6974 82.3587C23.2013 82.5512 22.7808 82.899 22.4987 83.3502C22.2165 83.8014 22.0878 84.3317 22.1319 84.8621L58.7451 84.5002Z" fill="#EBEBEB"/>
<path d="M134.66 53.2847C135.25 48.9869 129.18 45.4496 124.624 45.0804C122.445 44.9031 120.193 45.2354 118.125 44.5191C113.695 42.961 111.878 37.1935 107.528 35.3621C104.272 33.9886 100.52 35.207 97.367 36.7947C94.2137 38.3825 91.09 40.3837 87.5601 40.6126C84.4955 40.8046 81.165 39.6674 78.477 41.1665C76.4757 42.2816 75.4345 44.5856 73.5883 45.9517C71.7422 47.3179 69.4308 47.5616 67.1932 47.6798C64.9556 47.7979 62.6442 47.8275 60.6061 48.7579C58.5679 49.6884 56.8842 51.8595 57.3051 54.0749L134.66 53.2847Z" fill="#F5F5F5"/>
<path d="M10.7669 207.604C10.7669 207.604 4.47513 208.497 8.0567 222.27C11.6383 236.042 14.6512 243.117 14.6512 243.117C14.6512 243.117 15.1312 246.24 12.613 246.152C10.0949 246.063 4.9699 244.062 3.22712 246.809C1.48434 249.556 3.01296 253.02 6.97854 256.564C10.9441 260.109 19.3257 268.18 20.079 268.919C20.8322 269.657 21.386 271.134 19.6654 271.378C17.9448 271.622 5.70837 270.167 5.36129 276.023C5.01421 281.879 17.7011 289.936 19.0673 290.844C20.4334 291.752 20.6476 292.461 20.3448 293.259C20.042 294.056 15.9657 293.192 12.458 292.934C8.95025 292.675 4.85175 292.993 4.95514 296.39C5.05852 299.787 11.7121 308.346 31.0747 314.667L40.2391 317.008L46.9813 310.317C60.5544 295.127 62.0166 284.39 60.3993 281.399C58.7821 278.408 55.0676 280.203 52.1654 282.182C49.2632 284.161 46.169 286.952 45.5192 286.42C44.8693 285.889 44.6921 285.158 45.4158 283.688C46.1395 282.219 53.0368 268.919 49.8466 263.993C46.6564 259.068 36.724 266.46 35.1068 267.139C33.4895 267.818 33.2237 266.216 33.5043 265.219C33.7849 264.222 36.9899 253.005 38.6736 247.954C40.3573 242.902 39.9881 239.173 37.0194 237.615C34.0508 236.057 30.7277 240.466 28.5935 241.81C26.4593 243.154 25.3147 240.207 25.3147 240.207C25.3147 240.207 24.3251 232.571 20.4777 218.865C16.6303 205.159 10.6192 207.626 10.6192 207.626" fill="#EBEBEB"/>
<path d="M40.2318 319.284C37.4625 309.204 32.8471 291.222 28.7929 275.773C24.7387 260.325 21.0685 246.382 18.3436 236.288C16.9848 231.251 15.8845 227.168 15.1165 224.339L14.2377 221.083L14.0162 220.241L13.9497 219.945C13.9497 219.945 13.9866 220.041 14.0457 220.233L14.2968 221.068C14.5109 221.806 14.8211 222.907 15.2273 224.302C16.0322 227.116 17.162 231.192 18.5504 236.229C21.3196 246.309 25.0267 260.266 29.0735 275.7C33.1203 291.134 37.7136 309.137 40.4164 319.232" fill="#E0E0E0"/>
<path d="M10.3016 249.914C10.5104 250.004 10.7106 250.113 10.8998 250.239C11.2838 250.461 11.8229 250.8 12.4875 251.221C13.8094 252.07 15.6038 253.281 17.5682 254.662L22.575 258.207L24.0962 259.278C24.2934 259.395 24.4768 259.533 24.6427 259.691C24.4292 259.609 24.226 259.503 24.0371 259.374C23.6531 259.152 23.1141 258.813 22.4568 258.384C21.1423 257.52 19.3553 256.28 17.3983 254.906L12.3546 251.391L10.8776 250.335C10.6654 250.225 10.4712 250.083 10.3016 249.914Z" fill="#E0E0E0"/>
<path d="M25.4033 259.243C25.3295 259.199 27.6778 255.381 30.639 250.714C33.6003 246.047 36.0594 242.303 36.1259 242.384C36.1923 242.465 33.8514 246.239 30.8901 250.906C27.9289 255.573 25.4698 259.288 25.4033 259.243Z" fill="#E0E0E0"/>
<path d="M30.5504 283.213C30.6989 283.032 30.8674 282.869 31.0526 282.726L32.4778 281.478C33.6741 280.414 35.3283 278.945 37.0932 277.254C38.8582 275.562 40.409 273.982 41.524 272.823L42.8459 271.457C42.9952 271.276 43.1664 271.115 43.3555 270.977C43.2316 271.175 43.0881 271.361 42.9271 271.53C42.6391 271.877 42.1887 272.365 41.6791 272.963C40.6083 274.159 39.0797 275.769 37.3 277.46C35.5203 279.151 33.8588 280.606 32.6181 281.625C31.9978 282.135 31.4883 282.541 31.1412 282.807C30.9626 282.967 30.7641 283.104 30.5504 283.213Z" fill="#E0E0E0"/>
<path d="M15.0353 277.828C15.2497 277.852 15.4604 277.902 15.663 277.976L17.3393 278.493C18.7498 278.936 20.6993 279.571 22.8409 280.287C24.9824 281.004 26.9172 281.676 28.3203 282.17L29.9671 282.776C30.1741 282.837 30.3725 282.924 30.5579 283.034C30.3438 283.005 30.1334 282.953 29.9302 282.879L28.2539 282.37C26.836 281.919 24.8938 281.284 22.7449 280.568C20.5959 279.852 18.6685 279.187 17.2728 278.685L15.6261 278.087C15.4206 278.022 15.2225 277.935 15.0353 277.828Z" fill="#E0E0E0"/>
<path d="M16.8888 299.531C17.1623 299.574 17.4317 299.641 17.6937 299.731L19.8427 300.38C21.6593 300.942 24.1553 301.739 26.9172 302.596C29.6791 303.453 32.1603 304.317 33.9548 304.929L36.0816 305.668C36.3367 305.749 36.5839 305.852 36.82 305.978C36.5456 305.939 36.2758 305.873 36.0151 305.779L33.8957 305.151C32.0791 304.59 29.5831 303.792 26.8212 302.936C24.0593 302.079 21.5781 301.215 19.7836 300.602L17.6568 299.864C17.3892 299.782 17.1316 299.67 16.8888 299.531Z" fill="#E0E0E0"/>
<path d="M36.4138 305.723C36.6 305.493 36.8077 305.28 37.0341 305.088L38.7843 303.434C40.2612 302.031 42.2846 300.096 44.4705 297.888C46.6564 295.68 48.5764 293.642 49.9573 292.15L51.5967 290.378C51.7872 290.153 51.9973 289.946 52.2244 289.758C52.0629 290.003 51.8827 290.235 51.6853 290.452C51.3235 290.895 50.7844 291.523 50.1124 292.283C48.7684 293.812 46.8631 295.88 44.6773 298.088C42.4914 300.296 40.4163 302.194 38.9394 303.589C38.2009 304.261 37.5584 304.808 37.1227 305.177C36.9013 305.378 36.6642 305.56 36.4138 305.723Z" fill="#E0E0E0"/>
<path d="M301.945 320.03C286.636 311.56 280.884 292.707 279.104 275.301C278.809 272.392 278.1 269.394 279.045 266.669C279.99 263.944 282.737 261.802 285.344 262.688C287.493 263.427 288.704 265.797 290.107 267.71C291.934 270.225 294.439 272.169 297.329 273.315C299.183 274.053 301.391 274.327 302.956 273.093C305.105 271.387 304.913 267.924 304.515 265.029L302.255 248.953C301.849 246.073 301.443 243.134 301.915 240.291C302.388 237.447 303.894 234.649 306.346 233.534C308.798 232.418 312.187 233.534 313.103 236.295C313.366 237.474 313.553 238.668 313.664 239.87C313.901 241.051 314.595 242.299 315.702 242.491C316.81 242.683 317.792 241.753 318.479 240.763C320.872 237.47 322.253 233.467 323.508 229.502C324.763 225.536 325.967 221.489 328.064 217.974C330.162 214.459 333.308 211.461 337.125 210.7C340.943 209.94 345.404 211.911 346.917 215.796C348.431 219.68 346.785 224.14 344.813 227.759C341.93 233.076 338.296 237.951 334.024 242.233C333.165 242.923 332.545 243.866 332.252 244.928C331.927 246.922 333.884 248.62 335.744 248.982C337.842 249.418 339.991 248.894 342.125 248.872C344.259 248.849 346.666 249.521 347.745 251.537C349.222 254.321 347.361 257.726 345.367 260.059C341.42 264.699 336.682 268.602 331.373 271.587C329.497 272.635 327.503 273.603 326.107 275.279C324.712 276.955 324.091 279.71 325.332 281.6C326.573 283.491 329.135 283.816 331.151 283.077C333.167 282.339 334.844 280.921 336.734 279.85C340.227 277.849 345.042 277.465 347.87 280.552C349.731 282.583 350.292 285.721 349.864 288.483C349.329 291.218 348.268 293.824 346.74 296.156C341.815 304.412 335.028 311.449 326.875 315.814C318.723 320.178 310.888 322.135 301.915 319.971" fill="#F5F5F5"/>
<path d="M304.67 308.592C306.083 298.797 308.03 289.086 310.504 279.504C311.146 276.964 311.781 274.445 312.401 271.971C313.022 269.498 313.649 267.046 314.403 264.69C315.842 260.185 317.521 255.761 319.432 251.435C321.226 247.307 323.072 243.459 324.822 239.878C326.573 236.296 328.271 232.988 329.94 230.049C332.541 225.416 335.504 220.996 338.802 216.83C339.954 215.353 340.884 214.26 341.527 213.522L342.265 212.687C342.345 212.588 342.434 212.497 342.531 212.414C342.465 212.523 342.391 212.627 342.309 212.724L341.608 213.596C340.995 214.334 340.087 215.486 338.957 216.97C335.737 221.18 332.834 225.623 330.272 230.263C328.626 233.217 326.957 236.518 325.214 240.099C323.471 243.681 321.625 247.55 319.853 251.656C317.959 255.969 316.295 260.379 314.868 264.867C314.129 267.216 313.509 269.645 312.881 272.119C312.254 274.593 311.626 277.111 310.984 279.652C308.519 289.213 306.562 298.898 305.12 308.666" fill="#E0E0E0"/>
<path d="M314.543 264.649C314.358 264.27 314.214 263.871 314.115 263.46C313.864 262.685 313.539 261.548 313.155 260.137C312.416 257.324 311.456 253.403 310.445 249.06C309.433 244.718 308.443 240.834 307.638 238.042C307.24 236.647 306.9 235.517 306.671 234.741C306.525 234.344 306.416 233.933 306.346 233.516C306.559 233.881 306.728 234.27 306.848 234.675C307.144 235.413 307.535 236.543 307.971 237.932C308.864 240.708 309.913 244.578 310.925 248.942C311.936 253.307 312.815 257.065 313.494 260.019C313.812 261.356 314.085 262.478 314.299 263.379C314.42 263.794 314.502 264.219 314.543 264.649Z" fill="#E0E0E0"/>
<path d="M348.217 252.961C347.778 253.13 347.323 253.253 346.858 253.33C345.98 253.537 344.709 253.832 343.166 254.246C340.05 255.051 335.781 256.321 331.122 257.938C326.462 259.555 322.327 261.239 319.358 262.546C317.881 263.181 316.685 263.735 315.858 264.112C315.441 264.33 315.006 264.51 314.558 264.651C314.936 264.361 315.344 264.113 315.776 263.912C316.574 263.477 317.748 262.871 319.218 262.184C323.05 260.396 326.971 258.807 330.967 257.421C334.937 256.012 338.983 254.824 343.085 253.862C344.658 253.5 345.943 253.264 346.836 253.123C347.29 253.023 347.753 252.968 348.217 252.961Z" fill="#E0E0E0"/>
<path d="M305.002 307.847C305.002 307.847 304.884 307.714 304.699 307.433L303.961 306.17C303.296 305.077 302.366 303.468 301.251 301.466C299.035 297.456 296.081 291.815 292.921 285.552C289.76 279.29 286.88 273.619 284.724 269.565L282.154 264.779L281.46 263.465C281.366 263.318 281.294 263.159 281.246 262.992C281.365 263.119 281.466 263.26 281.548 263.413L282.287 264.669C282.951 265.761 283.882 267.371 284.997 269.38C287.212 273.39 290.166 279.024 293.327 285.294C296.488 291.563 299.368 297.22 301.524 301.274L304.094 306.067L304.788 307.367C304.879 307.517 304.951 307.678 305.002 307.847Z" fill="#E0E0E0"/>
<path d="M348.852 285.664C348.723 285.772 348.579 285.862 348.424 285.93L347.154 286.587L342.45 288.972C338.484 290.988 333.042 293.839 327.031 297C321.019 300.16 315.547 302.959 311.523 304.886C309.522 305.854 307.897 306.614 306.76 307.102L305.453 307.67C305.15 307.796 304.987 307.855 304.98 307.833C305.111 307.729 305.255 307.642 305.408 307.574L306.678 306.91L311.375 304.525C315.333 302.509 320.783 299.658 326.794 296.497C332.805 293.337 338.277 290.538 342.302 288.611C344.303 287.651 345.935 286.883 347.073 286.395L348.38 285.827C348.529 285.75 348.688 285.695 348.852 285.664Z" fill="#E0E0E0"/>
<path d="M348.158 337.161C348.158 337.272 270.213 337.36 174.086 337.36C77.9601 337.36 0 337.272 0 337.161C0 337.05 77.9305 336.969 174.086 336.969C270.242 336.969 348.158 337.057 348.158 337.161Z" fill="#263238"/>
<path d="M302.831 146.672H42.4693C36.527 146.672 31.7098 151.489 31.7098 157.431V322.316C31.7098 328.259 36.527 333.076 42.4693 333.076H302.831C308.773 333.076 313.59 328.259 313.59 322.316V157.431C313.59 151.489 308.773 146.672 302.831 146.672Z" fill="#455A64"/>
<path d="M20.6919 321.039H326.093V324.48C326.093 327.892 324.737 331.164 322.325 333.577C319.912 335.989 316.64 337.344 313.229 337.344H33.556C30.1442 337.344 26.8722 335.989 24.4597 333.577C22.0472 331.164 20.6919 327.892 20.6919 324.48V321.039Z" fill="#455A64"/>
<path d="M305.231 154.078H39.2717V311.497H305.231V154.078Z" fill="#263238"/>
<path d="M144.858 319.297L148.654 325.323H201.978L205.494 319.297H144.858Z" fill="#263238"/>
<path d="M297.891 159.414H47.166C45.8324 159.414 44.7512 160.495 44.7512 161.829V308.585C44.7512 309.918 45.8324 310.999 47.166 310.999H297.891C299.224 310.999 300.305 309.918 300.305 308.585V161.829C300.305 160.495 299.224 159.414 297.891 159.414Z" fill="#EBEBEB"/>
<path d="M300.032 311.221H44.4779L44.7511 170.742H300.032V311.221Z" fill="#FAFAFA"/>
<path d="M65.7089 165.264C65.7074 165.667 65.5867 166.06 65.3618 166.395C65.137 166.729 64.8182 166.989 64.4456 167.142C64.073 167.295 63.6635 167.335 63.2686 167.255C62.8737 167.176 62.5112 166.981 62.2269 166.696C61.9426 166.41 61.7492 166.047 61.6712 165.652C61.5931 165.257 61.6339 164.847 61.7884 164.475C61.9429 164.103 62.2041 163.785 62.5392 163.562C62.8742 163.338 63.2679 163.219 63.6707 163.219C63.939 163.219 64.2046 163.272 64.4524 163.375C64.7002 163.477 64.9252 163.628 65.1145 163.818C65.3039 164.008 65.4539 164.234 65.5559 164.482C65.6579 164.73 65.7099 164.996 65.7089 165.264Z" fill="#263238"/>
<path d="M53.3395 165.264C53.3395 165.669 53.2194 166.065 52.9943 166.402C52.7692 166.738 52.4493 167 52.0751 167.155C51.7009 167.309 51.2892 167.35 50.8922 167.27C50.4952 167.19 50.1307 166.995 49.8449 166.708C49.5592 166.421 49.3649 166.056 49.2868 165.659C49.2087 165.262 49.2503 164.85 49.4063 164.476C49.5622 164.103 49.8255 163.784 50.1629 163.56C50.5003 163.336 50.8965 163.217 51.3014 163.219C51.5696 163.219 51.8353 163.272 52.083 163.375C52.3308 163.478 52.5558 163.628 52.7452 163.818C52.9345 164.008 53.0845 164.234 53.1865 164.482C53.2885 164.73 53.3405 164.996 53.3395 165.264Z" fill="#263238"/>
<path d="M59.2769 165.264C59.2754 165.667 59.1547 166.06 58.9298 166.395C58.705 166.729 58.3861 166.989 58.0136 167.142C57.641 167.295 57.2315 167.335 56.8366 167.255C56.4417 167.176 56.0792 166.981 55.7949 166.696C55.5106 166.41 55.3172 166.047 55.2392 165.652C55.1611 165.257 55.2019 164.847 55.3564 164.475C55.5109 164.103 55.7721 163.785 56.1071 163.562C56.4422 163.338 56.8359 163.219 57.2387 163.219C57.507 163.219 57.7726 163.272 58.0204 163.375C58.2682 163.477 58.4932 163.628 58.6825 163.818C58.8719 164.008 59.0219 164.234 59.1239 164.482C59.2259 164.73 59.2779 164.996 59.2769 165.264Z" fill="#263238"/>
<path d="M311.168 319.294C311.168 319.39 248.605 319.471 171.443 319.471C94.2802 319.471 31.7098 319.39 31.7098 319.294C31.7098 319.198 94.2581 319.109 171.443 319.109C248.627 319.109 311.168 319.183 311.168 319.294Z" fill="#263238"/>
<path d="M273.115 231.217C269.554 234.287 266.911 238.281 265.477 242.759C264.044 247.236 263.876 252.023 264.992 256.59C261.662 255.933 258.221 256.104 254.972 257.088C251.724 258.072 248.766 259.838 246.36 262.232C243.954 264.626 242.172 267.574 241.172 270.818C240.171 274.061 239.983 277.501 240.622 280.834C233.304 275.798 222.116 277.681 216.851 284.844C216.74 280.118 216.556 275.133 214.074 271.109C211.593 267.084 205.951 264.603 201.971 267.158C203.48 265.439 204.396 263.281 204.585 261.002C204.774 258.723 204.226 256.443 203.022 254.499C201.817 252.555 200.02 251.049 197.895 250.204C195.77 249.359 193.43 249.218 191.219 249.804C191.108 244.133 187.527 203.975 184.573 170.094H159.347C156.393 203.384 153.018 241.622 152.907 247.153C150.691 246.555 148.34 246.688 146.205 247.533C144.071 248.377 142.265 249.889 141.058 251.842C139.851 253.794 139.307 256.085 139.506 258.372C139.705 260.659 140.636 262.821 142.162 264.536C138.182 261.981 132.562 264.47 130.059 268.487C127.556 272.504 127.386 277.497 127.275 282.223C122.01 275.067 110.829 273.176 103.504 278.213C104.143 274.879 103.955 271.44 102.954 268.196C101.954 264.953 100.172 262.004 97.766 259.61C95.3596 257.217 92.4022 255.45 89.1536 254.466C85.9049 253.483 82.4644 253.312 79.1342 253.969C80.3175 249.402 80.18 244.592 78.7379 240.1C77.2957 235.608 74.6081 231.617 70.9875 228.592C67.3668 225.567 62.9619 223.632 58.2848 223.011C53.6077 222.391 48.8506 223.111 44.5665 225.087V311.141H299.56V227.694C295.256 225.782 290.508 225.1 285.84 225.721C281.172 226.343 276.768 228.245 273.115 231.217Z" fill="#01966B"/>
<g opacity="0.8">
<path d="M273.115 231.217C269.554 234.287 266.911 238.281 265.477 242.759C264.044 247.236 263.876 252.023 264.992 256.59C261.662 255.933 258.221 256.104 254.972 257.088C251.724 258.072 248.766 259.838 246.36 262.232C243.954 264.626 242.172 267.574 241.172 270.818C240.171 274.061 239.983 277.501 240.622 280.834C233.304 275.798 222.116 277.681 216.851 284.844C216.74 280.118 216.556 275.133 214.074 271.109C211.593 267.084 205.951 264.603 201.971 267.158C203.48 265.439 204.396 263.281 204.585 261.002C204.774 258.723 204.226 256.443 203.022 254.499C201.817 252.555 200.02 251.049 197.895 250.204C195.77 249.359 193.43 249.218 191.219 249.804C191.108 244.133 187.527 203.975 184.573 170.094H159.347C156.393 203.384 153.018 241.622 152.907 247.153C150.691 246.555 148.34 246.688 146.205 247.533C144.071 248.377 142.265 249.889 141.058 251.842C139.851 253.794 139.307 256.085 139.506 258.372C139.705 260.659 140.636 262.821 142.162 264.536C138.182 261.981 132.562 264.47 130.059 268.487C127.556 272.504 127.386 277.497 127.275 282.223C122.01 275.067 110.829 273.176 103.504 278.213C104.143 274.879 103.955 271.44 102.954 268.196C101.954 264.953 100.172 262.004 97.766 259.61C95.3596 257.217 92.4022 255.45 89.1536 254.466C85.9049 253.483 82.4644 253.312 79.1342 253.969C80.3175 249.402 80.18 244.592 78.7379 240.1C77.2957 235.608 74.6081 231.617 70.9875 228.592C67.3668 225.567 62.9619 223.632 58.2848 223.011C53.6077 222.391 48.8506 223.111 44.5665 225.087V311.141H299.56V227.694C295.256 225.782 290.508 225.1 285.84 225.721C281.172 226.343 276.768 228.245 273.115 231.217Z" fill="white"/>
</g>
<path d="M271.557 293.957C266.981 290.883 261.822 288.781 256.401 287.78C250.98 286.779 245.411 286.902 240.039 288.139C234.667 289.377 229.606 291.703 225.169 294.975C220.733 298.247 217.014 302.394 214.244 307.161C212.001 304.13 209.07 301.675 205.693 299.998C205.932 299.361 206.132 298.71 206.291 298.048C206.944 295.219 206.865 292.27 206.06 289.48C205.255 286.69 203.751 284.152 201.691 282.106C199.631 280.059 197.082 278.573 194.287 277.787C191.492 277.001 188.542 276.942 185.717 277.615L178.17 170.094H168.275V268.967C162.145 269.905 157.87 277.164 160.033 282.998C157.898 283.33 155.875 284.176 154.139 285.462C152.402 286.748 151.004 288.437 150.064 290.383C149.473 291.653 149.385 294.341 149.894 297.383C146.158 297.452 142.487 298.371 139.16 300.072C135.833 301.772 132.937 304.209 130.694 307.198C127.924 302.431 124.206 298.284 119.769 295.012C115.332 291.74 110.271 289.414 104.899 288.176C99.527 286.939 93.9582 286.816 88.537 287.817C83.1159 288.818 77.9577 290.92 73.3815 293.994C70.7895 281.44 56.7512 272.519 44.2859 275.532V311.37L159.332 311.222C160.122 311.448 160.94 311.562 161.761 311.562L189.882 311.23L300.704 311.37V275.466C288.209 272.482 274.171 281.403 271.557 293.957Z" fill="#01966B"/>
<g opacity="0.6">
<path d="M271.557 293.957C266.981 290.883 261.822 288.781 256.401 287.78C250.98 286.779 245.411 286.902 240.039 288.139C234.667 289.377 229.606 291.703 225.169 294.975C220.733 298.247 217.014 302.394 214.244 307.161C212.001 304.13 209.07 301.675 205.693 299.998C205.932 299.361 206.132 298.71 206.291 298.048C206.944 295.219 206.865 292.27 206.06 289.48C205.255 286.69 203.751 284.152 201.691 282.106C199.631 280.059 197.082 278.573 194.287 277.787C191.492 277.001 188.542 276.942 185.717 277.615L178.17 170.094H168.275V268.967C162.145 269.905 157.87 277.164 160.033 282.998C157.898 283.33 155.875 284.176 154.139 285.462C152.402 286.748 151.004 288.437 150.064 290.383C149.473 291.653 149.385 294.341 149.894 297.383C146.158 297.452 142.487 298.371 139.16 300.072C135.833 301.772 132.937 304.209 130.694 307.198C127.924 302.431 124.206 298.284 119.769 295.012C115.332 291.74 110.271 289.414 104.899 288.176C99.527 286.939 93.9582 286.816 88.537 287.817C83.1159 288.818 77.9577 290.92 73.3815 293.994C70.7895 281.44 56.7512 272.519 44.2859 275.532V311.37L159.332 311.222C160.122 311.448 160.94 311.562 161.761 311.562L189.882 311.23L300.704 311.37V275.466C288.209 272.482 274.171 281.403 271.557 293.957Z" fill="white"/>
</g>
<path d="M162.448 136.43C156.777 139.125 154.207 146.894 157.161 152.44C158.328 154.655 160.233 156.553 160.484 159.019C160.868 162.8 157.294 165.754 156.186 169.358C155.624 171.518 155.919 173.811 157.009 175.759C158.099 177.706 159.9 179.157 162.035 179.807C163.977 180.317 166.303 180.228 167.603 181.757C169.264 183.706 168.061 186.926 169.486 189.075C170.763 191.002 173.754 191.098 175.682 189.814C177.609 188.529 178.672 186.306 179.433 184.12C180.194 181.934 180.762 179.637 182.077 177.732C183.554 175.642 185.732 174.21 187.49 172.371C191.714 167.94 193.006 161.294 192.053 155.231C191.101 149.168 188.169 143.622 184.853 138.475" fill="#01966B"/>
<g opacity="0.3">
<path d="M162.448 136.43C156.777 139.125 154.207 146.894 157.161 152.44C158.328 154.655 160.233 156.553 160.484 159.019C160.868 162.8 157.294 165.754 156.186 169.358C155.624 171.518 155.919 173.811 157.009 175.759C158.099 177.706 159.9 179.157 162.035 179.807C163.977 180.317 166.303 180.228 167.603 181.757C169.264 183.706 168.061 186.926 169.486 189.075C170.763 191.002 173.754 191.098 175.682 189.814C177.609 188.529 178.672 186.306 179.433 184.12C180.194 181.934 180.762 179.637 182.077 177.732C183.554 175.642 185.732 174.21 187.49 172.371C191.714 167.94 193.006 161.294 192.053 155.231C191.101 149.168 188.169 143.622 184.853 138.475" fill="white"/>
</g>
<path d="M167.433 139.617C162.625 141.737 160.521 148.405 163.238 152.91C164.9 155.657 168.12 158.138 167.337 161.247C166.805 163.359 164.546 164.651 163.896 166.726C163.032 169.488 165.646 172.42 168.526 172.767C171.406 173.114 174.183 171.578 176.361 169.665C183.901 163.019 185.74 150.022 181.036 141.153" fill="#01966B"/>
<path d="M192.216 97.3516C192.216 97.3516 216.91 113.686 214.215 141.948L191.514 131.757L192.216 97.3516Z" fill="#01966B"/>
<path d="M151.187 131.188L156.799 140.485H185.902L191.514 131.719L151.187 131.188Z" fill="#263238"/>
<path d="M169.84 37.3765C164.302 37.7476 159.12 40.2384 155.371 44.3312C151.622 48.4241 149.595 53.8041 149.71 59.3533L151.187 131.723H191.514L192.858 59.3164C192.915 56.3271 192.35 53.3586 191.199 50.5991C190.048 47.8397 188.336 45.3496 186.172 43.2868C184.008 41.2239 181.439 39.6333 178.627 38.6159C175.816 37.5985 172.823 37.1764 169.84 37.3765Z" fill="#01966B"/>
<g opacity="0.8">
<path d="M169.84 37.3765C164.302 37.7476 159.12 40.2384 155.371 44.3312C151.622 48.4241 149.595 53.8041 149.71 59.3533L151.187 131.723H191.514L192.858 59.3164C192.915 56.3271 192.35 53.3586 191.199 50.5991C190.048 47.8397 188.336 45.3496 186.172 43.2868C184.008 41.2239 181.439 39.6333 178.627 38.6159C175.816 37.5985 172.823 37.1764 169.84 37.3765Z" fill="white"/>
</g>
<path d="M150.448 97.3516C150.448 97.3516 125.783 113.686 128.486 141.948L151.187 131.742L150.448 97.3516Z" fill="#01966B"/>
<path d="M149.931 56.9539C158.46 49.488 185.23 49.6505 192.415 55.7281C190.569 28.8626 170.054 18.8047 170.054 18.8047C149.067 33.3377 149.931 56.9539 149.931 56.9539Z" fill="#01966B"/>
<path d="M170.054 18.8125L170.298 19.034C170.453 19.1817 170.69 19.3959 170.985 19.6839L172.107 20.7473L172.846 21.4267L173.584 22.2538C174.116 22.8372 174.722 23.4796 175.364 24.2033L177.328 26.655C177.661 27.1055 177.993 27.5929 178.34 28.0803C178.687 28.5677 179.079 29.0698 179.389 29.6237C180.046 30.7166 180.777 31.8391 181.405 33.1314C182.845 35.8781 183.963 38.7824 184.735 41.7862C185.171 43.4563 185.494 45.1537 185.703 46.8669C185.828 47.7531 185.895 48.654 186.02 49.5475C186.1 50.4757 186.132 51.4074 186.116 52.3389C186.116 59.8344 186.02 68.0757 185.924 76.7084C185.717 94.0181 185.474 109.681 185.289 121.016C185.193 126.681 185.112 131.266 185.053 134.442C185.053 136.022 184.994 137.255 184.979 138.134C184.979 138.548 184.979 138.873 184.979 139.079C184.979 139.286 184.979 139.404 184.979 139.404C184.979 139.404 184.979 139.294 184.979 139.079C184.979 138.865 184.979 138.548 184.979 138.134C184.979 137.292 184.979 136.059 185.016 134.442C185.053 131.266 185.112 126.681 185.178 121.016C185.326 109.666 185.525 94.0033 185.754 76.7084C185.85 68.0535 185.961 59.8122 185.961 52.3389C185.981 51.4173 185.949 50.4951 185.865 49.5771C185.747 48.6688 185.68 47.7752 185.562 46.8964C185.356 45.1882 185.035 43.4958 184.602 41.8305C183.84 38.8394 182.737 35.9455 181.316 33.2052C180.651 31.9129 179.92 30.7905 179.248 29.6975C178.923 29.1437 178.51 28.6563 178.207 28.1541C177.904 27.652 177.543 27.1793 177.21 26.7289L175.261 24.2698C174.626 23.5313 174.027 22.9036 173.496 22.3128L172.757 21.4784L172.056 20.7916L170.948 19.7134L170.276 19.0488L170.054 18.8125Z" fill="#263238"/>
<path d="M179.486 75.2512C180.754 69.5084 177.455 63.8978 172.119 62.7196C166.782 61.5413 161.428 65.2417 160.16 70.9845C158.892 76.7273 162.191 82.3379 167.527 83.5162C172.864 84.6944 178.218 80.994 179.486 75.2512Z" fill="#FAFAFA"/>
<path d="M172.115 62.7246C172.058 62.7328 172.001 62.7328 171.945 62.7246L171.465 62.6582L171.11 62.5991H170.675H170.173C169.988 62.5991 169.796 62.5991 169.597 62.5991C169.147 62.6271 168.701 62.6863 168.26 62.7763C167.736 62.8875 167.222 63.0432 166.724 63.2416C165.508 63.7268 164.395 64.4385 163.445 65.3388C162.293 66.4257 161.394 67.7515 160.809 69.2232C160.646 69.6247 160.51 70.0367 160.403 70.4564C160.351 70.6706 160.285 70.8847 160.233 71.0989L160.122 71.7635L160.063 72.1032V72.4429C160.063 72.6718 160.026 72.9081 160.011 73.137C159.997 73.366 160.011 73.6023 160.011 73.8386V74.1931L160.048 74.5549C160.243 76.5613 161.012 78.4689 162.264 80.0491C163.582 81.7665 165.463 82.9642 167.577 83.4315C169.691 83.8989 171.901 83.6059 173.821 82.6042C175.612 81.686 177.104 80.274 178.119 78.5353L178.303 78.2325L178.458 77.9075L178.768 77.2799L179.012 76.63L179.13 76.3051L179.226 75.9728L179.403 75.3229C179.455 75.1088 179.477 74.8872 179.522 74.6731C179.596 74.2455 179.645 73.814 179.669 73.3807C179.768 71.7994 179.515 70.2158 178.931 68.7432C178.255 67.0196 177.118 65.5149 175.645 64.3936C175.282 64.1234 174.902 63.8767 174.507 63.6551C174.323 63.5665 174.16 63.4631 173.998 63.3893L173.533 63.1973L173.126 63.0348L172.787 62.9314L172.314 62.7911C172.26 62.7773 172.208 62.7575 172.159 62.732H172.322L172.794 62.8502L173.149 62.9462L173.555 63.1013L174.027 63.2859L174.544 63.5443C174.949 63.765 175.339 64.0117 175.711 64.2828C176.143 64.6095 176.55 64.9674 176.93 65.3536C177.848 66.3067 178.575 67.4273 179.071 68.6545C179.681 70.1442 179.951 71.7513 179.861 73.3586C179.843 73.7993 179.797 74.2385 179.721 74.6731C179.677 74.8946 179.655 75.1161 179.603 75.3377C179.551 75.5592 179.485 75.7808 179.418 76.0023L179.33 76.3346L179.211 76.6595L178.96 77.3242L178.65 77.9666L178.495 78.2989L178.303 78.6091C177.278 80.3863 175.759 81.8279 173.931 82.7593C171.971 83.7882 169.71 84.0909 167.548 83.6139C165.385 83.1369 163.462 81.9108 162.116 80.1525C160.852 78.5342 160.083 76.5853 159.901 74.5401V74.1783V73.8164C159.901 73.5801 159.901 73.3364 159.901 73.078C159.901 72.8195 159.901 72.6053 159.96 72.3395V71.9924L160.011 71.6453C160.056 71.4238 160.093 71.1949 160.129 70.9733C160.166 70.7518 160.248 70.5376 160.307 70.3161C160.416 69.8902 160.557 69.4731 160.728 69.0681C161.322 67.5721 162.243 66.2275 163.423 65.1321C164.391 64.228 165.525 63.5185 166.761 63.0422C167.266 62.8458 167.788 62.6927 168.319 62.5843C168.765 62.499 169.217 62.4447 169.67 62.4219C169.877 62.4219 170.069 62.4219 170.254 62.4219H170.763H171.199L171.554 62.4883L172.034 62.577L172.115 62.7246Z" fill="#263238"/>
<path d="M159.62 71.5243C159.62 71.6499 157.345 71.5908 154.606 72.0856C151.866 72.5803 149.754 73.4074 149.71 73.2893C150.116 72.9937 150.571 72.7713 151.054 72.632C153.315 71.7835 155.713 71.3579 158.128 71.3766C158.63 71.3445 159.134 71.3944 159.62 71.5243Z" fill="#263238"/>
<path d="M192.223 71.5081C191.614 71.5121 191.005 71.4552 190.407 71.3382C189.299 71.2053 187.763 71.0281 186.064 70.9025C184.366 70.777 182.823 70.7474 181.7 70.7253C181.093 70.7577 180.485 70.7305 179.883 70.644C180.474 70.4907 181.083 70.4211 181.693 70.4373C183.169 70.3703 184.649 70.39 186.123 70.4964C187.585 70.598 189.04 70.7829 190.48 71.0502C191.078 71.1301 191.664 71.2839 192.223 71.5081Z" fill="#263238"/>
<path d="M192.445 112.921C192.303 112.94 192.159 112.94 192.016 112.921L190.798 112.825L186.315 112.485C182.535 112.219 177.299 111.961 171.546 111.968C165.793 111.975 160.528 112.241 156.74 112.514L152.265 112.869L151.046 112.957C150.904 112.978 150.76 112.978 150.618 112.957C150.754 112.91 150.895 112.88 151.039 112.869L152.25 112.699C153.299 112.559 154.827 112.389 156.681 112.219C160.462 111.865 165.712 111.554 171.509 111.547C177.306 111.54 182.586 111.842 186.33 112.189C188.228 112.359 189.749 112.522 190.805 112.662L192.016 112.825C192.163 112.837 192.307 112.869 192.445 112.921Z" fill="#263238"/>
<path d="M160.691 81.8986C160.691 81.9577 160.44 81.9798 160.27 82.2678C160.22 82.342 160.188 82.4258 160.174 82.5137C160.16 82.6017 160.165 82.6916 160.189 82.7774C160.226 82.8682 160.29 82.946 160.371 83.0011C160.452 83.0563 160.548 83.0863 160.646 83.0875C160.745 83.1024 160.846 83.0879 160.937 83.0459C161.027 83.0039 161.103 82.9362 161.156 82.8512C161.193 82.77 161.212 82.6819 161.212 82.5928C161.212 82.5036 161.193 82.4155 161.156 82.3343C161.03 82.0241 160.787 81.965 160.801 81.906C160.816 81.8469 161.141 81.7952 161.414 82.194C161.492 82.313 161.54 82.4485 161.555 82.5896C161.571 82.7307 161.553 82.8734 161.503 83.0063C161.429 83.1718 161.303 83.3092 161.145 83.3982C160.987 83.4873 160.804 83.5233 160.624 83.5011C160.469 83.4928 160.319 83.441 160.192 83.3515C160.065 83.262 159.965 83.1384 159.905 82.995C159.845 82.8516 159.827 82.6941 159.852 82.5407C159.877 82.3873 159.945 82.244 160.048 82.1275C160.373 81.7361 160.72 81.8469 160.691 81.8986Z" fill="#263238"/>
<path d="M169.478 86.6345C169.478 86.7009 169.227 86.7231 169.058 87.0111C169.01 87.0845 168.978 87.1671 168.964 87.2536C168.95 87.34 168.954 87.4285 168.976 87.5132C169.012 87.606 169.075 87.6859 169.156 87.7426C169.238 87.7992 169.335 87.8299 169.434 87.8308C169.534 87.844 169.635 87.8279 169.725 87.7847C169.816 87.7414 169.892 87.6727 169.944 87.5871C169.978 87.5066 169.996 87.4199 169.996 87.3323C169.996 87.2447 169.978 87.158 169.944 87.0775C169.811 86.7674 169.567 86.7083 169.582 86.6492C169.597 86.5901 169.922 86.5384 170.195 86.9372C170.272 87.0549 170.32 87.1892 170.336 87.3291C170.351 87.4689 170.333 87.6105 170.283 87.7422C170.209 87.9084 170.084 88.0466 169.926 88.1369C169.768 88.2272 169.585 88.2648 169.405 88.2443C169.242 88.2423 169.084 88.1925 168.949 88.101C168.815 88.0095 168.711 87.8805 168.649 87.73C168.588 87.5795 168.572 87.4143 168.604 87.2549C168.636 87.0955 168.714 86.949 168.829 86.8338C169.161 86.4794 169.508 86.5606 169.478 86.6345Z" fill="#263238"/>
<path d="M179.174 82.5909C179.174 82.6573 178.931 82.6795 178.754 82.9675C178.706 83.0409 178.674 83.1235 178.66 83.21C178.646 83.2964 178.65 83.3849 178.672 83.4696C178.711 83.5619 178.775 83.641 178.858 83.6973C178.94 83.7537 179.038 83.7849 179.138 83.7872C179.236 83.8018 179.337 83.7864 179.426 83.7429C179.516 83.6994 179.59 83.6299 179.64 83.5435C179.674 83.463 179.692 83.3763 179.692 83.2887C179.692 83.2011 179.674 83.1144 179.64 83.0339C179.514 82.7238 179.263 82.6647 179.278 82.5982C179.293 82.5318 179.618 82.4949 179.891 82.8936C179.971 83.01 180.021 83.144 180.038 83.2843C180.055 83.4245 180.037 83.5667 179.987 83.6986C179.91 83.8639 179.783 84.0011 179.624 84.0911C179.465 84.1811 179.282 84.2194 179.101 84.2007C178.919 84.1932 178.745 84.1284 178.603 84.0156C178.461 83.9028 178.359 83.7478 178.31 83.573C178.281 83.4349 178.285 83.2918 178.323 83.1557C178.36 83.0195 178.429 82.8942 178.525 82.7902C178.857 82.4358 179.204 82.5466 179.174 82.5909Z" fill="#263238"/>
<path d="M182.328 75.3493C182.328 75.4084 182.077 75.4305 181.9 75.7185C181.853 75.7938 181.822 75.8779 181.809 75.9656C181.797 76.0533 181.802 76.1427 181.826 76.2281C181.861 76.3209 181.924 76.4008 182.006 76.4574C182.087 76.5141 182.184 76.5448 182.284 76.5456C182.382 76.5583 182.482 76.5419 182.571 76.4986C182.66 76.4554 182.735 76.387 182.786 76.3019C182.82 76.2215 182.838 76.1348 182.838 76.0472C182.838 75.9595 182.82 75.8728 182.786 75.7924C182.66 75.4822 182.416 75.4158 182.424 75.3567C182.431 75.2976 182.764 75.2533 183.044 75.6521C183.122 75.7696 183.17 75.9038 183.186 76.0438C183.201 76.1838 183.183 76.3255 183.133 76.457C183.057 76.6218 182.932 76.7585 182.774 76.8474C182.616 76.9363 182.434 76.9729 182.254 76.9518C182.072 76.9447 181.897 76.8801 181.753 76.7674C181.61 76.6546 181.506 76.4995 181.456 76.3241C181.428 76.186 181.432 76.043 181.47 75.907C181.507 75.7709 181.576 75.6456 181.671 75.5413C182.003 75.1942 182.35 75.305 182.328 75.3493Z" fill="#263238"/>
<path d="M157.486 74.6462C157.486 74.7053 157.235 74.7274 157.065 75.0154C157.017 75.0903 156.985 75.1741 156.971 75.2618C156.958 75.3494 156.962 75.439 156.984 75.525C157.02 75.6172 157.083 75.6965 157.164 75.7531C157.246 75.8096 157.342 75.8407 157.441 75.8425C157.541 75.8538 157.641 75.837 157.731 75.7939C157.821 75.7508 157.898 75.6832 157.951 75.5988C157.988 75.5188 158.006 75.432 158.006 75.344C158.006 75.2561 157.988 75.1692 157.951 75.0893C157.825 74.7791 157.582 74.7126 157.597 74.6536C157.611 74.5945 157.936 74.5502 158.209 74.949C158.287 75.0664 158.336 75.2007 158.351 75.3407C158.366 75.4807 158.348 75.6223 158.298 75.7539C158.224 75.9194 158.098 76.0568 157.94 76.1458C157.782 76.2349 157.599 76.2709 157.419 76.2487C157.237 76.2415 157.062 76.177 156.919 76.0643C156.775 75.9515 156.671 75.7963 156.622 75.621C156.593 75.4823 156.598 75.3387 156.636 75.2024C156.675 75.0661 156.746 74.9411 156.843 74.8382C157.168 74.4911 157.515 74.6019 157.486 74.6462Z" fill="#263238"/>
<path d="M179.16 64.7105C179.16 64.6514 179.411 64.6292 179.581 64.3412C179.63 64.2671 179.663 64.1832 179.677 64.0953C179.691 64.0074 179.686 63.9175 179.662 63.8317C179.624 63.7405 179.561 63.6622 179.479 63.6059C179.398 63.5497 179.303 63.5178 179.204 63.5141C179.106 63.5015 179.006 63.5178 178.917 63.5611C178.827 63.6044 178.753 63.6728 178.702 63.7578C178.663 63.8372 178.643 63.9243 178.643 64.0126C178.643 64.1009 178.663 64.188 178.702 64.2674C178.827 64.5775 179.071 64.644 179.056 64.7031C179.042 64.7621 178.717 64.8065 178.443 64.4077C178.366 64.2902 178.317 64.1559 178.302 64.0159C178.286 63.8759 178.305 63.7343 178.355 63.6028C178.429 63.4372 178.555 63.2998 178.713 63.2108C178.871 63.1218 179.053 63.0857 179.234 63.108C179.396 63.11 179.554 63.1598 179.689 63.2513C179.823 63.3428 179.928 63.4718 179.989 63.6223C180.051 63.7728 180.066 63.938 180.034 64.0974C180.002 64.2568 179.924 64.4032 179.81 64.5184C179.477 64.8729 179.13 64.7548 179.16 64.7105Z" fill="#263238"/>
<path d="M169.464 60.4103C169.464 60.3513 169.715 60.3291 169.885 60.0411C169.932 59.9662 169.964 59.8824 169.978 59.7947C169.992 59.7071 169.988 59.6175 169.966 59.5316C169.926 59.4399 169.862 59.3613 169.779 59.305C169.697 59.2488 169.6 59.2172 169.501 59.214C169.402 59.2014 169.302 59.2177 169.213 59.261C169.124 59.3043 169.049 59.3727 168.998 59.4577C168.964 59.5382 168.946 59.6249 168.946 59.7125C168.946 59.8001 168.964 59.8868 168.998 59.9673C169.124 60.2848 169.375 60.3439 169.36 60.403C169.345 60.462 169.021 60.5137 168.747 60.1076C168.649 59.9766 168.593 59.8193 168.585 59.6559C168.577 59.4925 168.618 59.3305 168.703 59.1908C168.788 59.051 168.913 58.9398 169.062 58.8716C169.21 58.8034 169.376 58.7812 169.537 58.8079C169.719 58.8154 169.893 58.8802 170.035 58.993C170.177 59.1058 170.279 59.2608 170.328 59.4356C170.356 59.5737 170.352 59.7166 170.315 59.8527C170.277 59.9887 170.208 60.114 170.113 60.2183C169.781 60.5728 169.434 60.462 169.464 60.4103Z" fill="#263238"/>
<path d="M159.878 64.7072C159.878 64.6481 160.129 64.626 160.299 64.338C160.347 64.2631 160.379 64.1793 160.393 64.0916C160.407 64.004 160.403 63.9144 160.381 63.8284C160.341 63.7367 160.277 63.6581 160.194 63.6019C160.112 63.5456 160.015 63.5141 159.915 63.5109C159.817 63.4983 159.717 63.5146 159.628 63.5579C159.539 63.6012 159.464 63.6695 159.413 63.7546C159.378 63.835 159.361 63.9217 159.361 64.0094C159.361 64.097 159.378 64.1837 159.413 64.2641C159.539 64.5743 159.79 64.6408 159.775 64.6998C159.76 64.7589 159.435 64.8032 159.162 64.4044C159.064 64.2735 159.008 64.1162 159 63.9528C158.992 63.7894 159.033 63.6274 159.118 63.4876C159.203 63.3479 159.328 63.2367 159.477 63.1685C159.625 63.1002 159.791 63.078 159.952 63.1047C160.133 63.1123 160.308 63.1771 160.45 63.2899C160.592 63.4027 160.694 63.5576 160.742 63.7324C160.771 63.8706 160.767 64.0135 160.729 64.1495C160.692 64.2856 160.623 64.4109 160.528 64.5152C160.196 64.8697 159.849 64.7515 159.878 64.7072Z" fill="#263238"/>
<path d="M168.238 100.317L169.102 143.524C169.115 144.124 169.366 144.695 169.8 145.11C170.233 145.525 170.813 145.752 171.413 145.74C171.997 145.727 172.553 145.489 172.965 145.076C173.378 144.664 173.615 144.108 173.629 143.524C173.717 135.741 174.005 109.555 174.05 100.272C174.051 99.8534 173.962 99.4392 173.788 99.0581C173.615 98.6769 173.36 98.3379 173.043 98.0642C172.726 97.7906 172.354 97.5889 171.951 97.4729C171.549 97.3569 171.126 97.3294 170.712 97.3923C170.015 97.4977 169.381 97.8521 168.926 98.3899C168.471 98.9277 168.226 99.6123 168.238 100.317Z" fill="#01966B"/>
<g opacity="0.3">
<path d="M168.238 100.317L169.102 143.524C169.115 144.124 169.366 144.695 169.8 145.11C170.233 145.525 170.813 145.752 171.413 145.74C171.997 145.727 172.553 145.489 172.965 145.076C173.378 144.664 173.615 144.108 173.629 143.524C173.717 135.741 174.005 109.555 174.05 100.272C174.051 99.8534 173.962 99.4392 173.788 99.0581C173.615 98.6769 173.36 98.3379 173.043 98.0642C172.726 97.7906 172.354 97.5889 171.951 97.4729C171.549 97.3569 171.126 97.3294 170.712 97.3923C170.015 97.4977 169.381 97.8521 168.926 98.3899C168.471 98.9277 168.226 99.6123 168.238 100.317Z" fill="black"/>
</g>
<path d="M169.574 21.2808C169.7 21.4285 168.267 22.8168 166.177 25.2537C165.129 26.4648 163.962 27.9713 162.729 29.6845C161.418 31.5645 160.21 33.5145 159.11 35.5258C158.039 37.5491 157.08 39.6298 156.238 41.7585C155.499 43.7302 154.872 45.5394 154.436 47.0828C153.557 50.1696 153.188 52.134 152.959 52.1044C152.73 52.0749 152.878 50.0663 153.557 46.8687C153.964 45.0001 154.492 43.1599 155.137 41.3597C155.937 39.1545 156.89 37.0077 157.988 34.935C159.116 32.8844 160.379 30.9108 161.769 29.0273C162.916 27.4958 164.162 26.0404 165.498 24.6703C167.824 22.3146 169.478 21.17 169.574 21.2808Z" fill="white"/>
<path d="M149.54 101.645C149.658 101.829 147.612 103.122 144.762 105.795L143.662 106.844C143.278 107.213 142.923 107.634 142.524 108.04C141.719 108.852 140.966 109.812 140.146 110.794C138.435 112.978 136.916 115.306 135.605 117.751C134.327 120.216 133.26 122.785 132.415 125.431C132.068 126.657 131.676 127.823 131.484 128.938C131.366 129.5 131.226 130.031 131.137 130.556C131.049 131.08 130.967 131.575 130.893 132.033C130.317 135.88 130.369 138.31 130.155 138.317C130.066 138.317 129.985 137.719 129.911 136.611C129.911 136.331 129.874 136.02 129.86 135.688C129.845 135.356 129.86 134.987 129.86 134.595C129.865 133.704 129.917 132.815 130.015 131.929C130.066 131.435 130.125 130.918 130.185 130.378C130.244 129.839 130.369 129.286 130.465 128.717C130.65 127.558 130.982 126.354 131.314 125.084C132.882 119.575 135.586 114.456 139.253 110.056C140.048 109.099 140.891 108.182 141.778 107.309C142.192 106.903 142.583 106.489 142.99 106.135L144.171 105.123C144.848 104.542 145.556 103.997 146.291 103.491C146.608 103.262 146.903 103.04 147.184 102.856L147.974 102.383C148.971 101.844 149.488 101.571 149.54 101.645Z" fill="white"/>
<path d="M117.756 242.531C116.763 241.968 115.966 241.113 115.473 240.083C114.981 239.053 114.816 237.896 115.001 236.769C115.186 235.643 115.712 234.6 116.509 233.781C117.305 232.963 118.333 232.408 119.455 232.192C121.478 231.794 124.011 232.37 125.281 230.715C126.441 229.238 125.569 227.289 126.079 224.926C126.588 222.563 128.619 221.448 130.857 221.477C131.978 221.542 133.065 221.891 134.016 222.49C134.966 223.089 135.749 223.92 136.292 224.904C137.49 227.092 138.031 229.579 137.85 232.067C137.252 237.17 134.527 239.784 131.137 241.947C127.748 244.111 121.33 244.606 117.756 242.487" fill="#01966B"/>
<g opacity="0.8">
<path d="M117.756 242.531C116.763 241.968 115.966 241.113 115.473 240.083C114.981 239.053 114.816 237.896 115.001 236.769C115.186 235.643 115.712 234.6 116.509 233.781C117.305 232.963 118.333 232.408 119.455 232.192C121.478 231.794 124.011 232.37 125.281 230.715C126.441 229.238 125.569 227.289 126.079 224.926C126.588 222.563 128.619 221.448 130.857 221.477C131.978 221.542 133.065 221.891 134.016 222.49C134.966 223.089 135.749 223.92 136.292 224.904C137.49 227.092 138.031 229.579 137.85 232.067C137.252 237.17 134.527 239.784 131.137 241.947C127.748 244.111 121.33 244.606 117.756 242.487" fill="white"/>
</g>
<path d="M200.605 201.63C201.428 200.056 202.712 198.77 204.286 197.947C205.86 197.123 207.648 196.8 209.411 197.021C211.173 197.242 212.826 197.996 214.148 199.183C215.47 200.369 216.398 201.932 216.807 203.661C217.545 206.799 216.807 210.772 219.414 212.67C221.784 214.39 224.782 212.906 228.504 213.556C232.226 214.206 234.087 217.307 234.168 220.808C234.249 224.308 232.108 227.631 229.147 229.492C225.806 231.491 221.96 232.486 218.07 232.357C210.072 231.73 205.826 227.631 202.244 222.477C198.663 217.322 197.511 207.331 200.605 201.63Z" fill="#01966B"/>
<g opacity="0.8">
<path d="M200.605 201.63C201.428 200.056 202.712 198.77 204.286 197.947C205.86 197.123 207.648 196.8 209.411 197.021C211.173 197.242 212.826 197.996 214.148 199.183C215.47 200.369 216.398 201.932 216.807 203.661C217.545 206.799 216.807 210.772 219.414 212.67C221.784 214.39 224.782 212.906 228.504 213.556C232.226 214.206 234.087 217.307 234.168 220.808C234.249 224.308 232.108 227.631 229.147 229.492C225.806 231.491 221.96 232.486 218.07 232.357C210.072 231.73 205.826 227.631 202.244 222.477C198.663 217.322 197.511 207.331 200.605 201.63Z" fill="white"/>
</g>
<path d="M140.929 191.154C140.039 191.611 139.292 192.306 138.771 193.16C138.25 194.015 137.975 194.997 137.975 195.998C138.013 197.11 138.407 198.18 139.101 199.05C139.795 199.92 140.751 200.542 141.827 200.825C142.903 201.108 144.042 201.036 145.074 200.62C146.106 200.204 146.976 199.467 147.555 198.517C148.135 197.567 148.392 196.455 148.289 195.348C148.186 194.24 147.729 193.195 146.984 192.368C146.24 191.541 145.249 190.976 144.158 190.757C143.067 190.538 141.935 190.677 140.929 191.154Z" fill="#01966B"/>
<g opacity="0.8">
<path d="M140.929 191.154C140.039 191.611 139.292 192.306 138.771 193.16C138.25 194.015 137.975 194.997 137.975 195.998C138.013 197.11 138.407 198.18 139.101 199.05C139.795 199.92 140.751 200.542 141.827 200.825C142.903 201.108 144.042 201.036 145.074 200.62C146.106 200.204 146.976 199.467 147.555 198.517C148.135 197.567 148.392 196.455 148.289 195.348C148.186 194.24 147.729 193.195 146.984 192.368C146.24 191.541 145.249 190.976 144.158 190.757C143.067 190.538 141.935 190.677 140.929 191.154Z" fill="white"/>
</g>
<path d="M219.443 253.087C218.999 253.318 218.627 253.665 218.367 254.092C218.106 254.519 217.968 255.01 217.966 255.51C217.984 256.068 218.181 256.605 218.529 257.042C218.876 257.479 219.356 257.792 219.896 257.934C220.435 258.077 221.007 258.041 221.525 257.833C222.043 257.624 222.479 257.254 222.77 256.777C223.061 256.301 223.19 255.743 223.138 255.187C223.086 254.631 222.856 254.107 222.482 253.692C222.108 253.278 221.61 252.995 221.063 252.886C220.515 252.777 219.947 252.848 219.443 253.087Z" fill="#01966B"/>
<g opacity="0.8">
<path d="M219.443 253.087C218.999 253.318 218.627 253.665 218.367 254.092C218.106 254.519 217.968 255.01 217.966 255.51C217.984 256.068 218.181 256.605 218.529 257.042C218.876 257.479 219.356 257.792 219.896 257.934C220.435 258.077 221.007 258.041 221.525 257.833C222.043 257.624 222.479 257.254 222.77 256.777C223.061 256.301 223.19 255.743 223.138 255.187C223.086 254.631 222.856 254.107 222.482 253.692C222.108 253.278 221.61 252.995 221.063 252.886C220.515 252.777 219.947 252.848 219.443 253.087Z" fill="white"/>
</g>
<path d="M198.877 232.875H152.974C144.923 232.875 138.396 239.401 138.396 247.452V249.498C138.396 257.549 144.923 264.075 152.974 264.075H198.877C206.928 264.075 213.454 257.549 213.454 249.498V247.452C213.454 239.401 206.928 232.875 198.877 232.875Z" fill="#01966B"/>
<path d="M160.838 250.539L161.348 249.409C161.975 249.845 162.719 250.081 163.482 250.088C164.368 250.088 164.73 249.793 164.73 249.394C164.73 248.183 160.964 249.01 160.964 246.61C160.964 245.51 161.857 244.594 163.696 244.594C164.472 244.583 165.237 244.779 165.912 245.163L165.454 246.3C164.908 245.982 164.29 245.809 163.659 245.798C162.766 245.798 162.426 246.13 162.426 246.536C162.426 247.725 166.192 246.906 166.192 249.284C166.192 250.362 165.291 251.292 163.445 251.292C162.52 251.308 161.612 251.046 160.838 250.539Z" fill="white"/>
<path d="M168.496 245.922H166.421V244.703H172.063V245.922H169.995V251.18H168.518L168.496 245.922Z" fill="white"/>
<path d="M176.804 249.768H173.798L173.23 251.156H171.694L174.574 244.68H176.051L178.945 251.156H177.373L176.804 249.768ZM176.331 248.63L175.305 246.149L174.278 248.63H176.331Z" fill="white"/>
<path d="M183.753 251.18L182.498 249.37H181.124V251.18H179.647V244.703H182.453C184.181 244.703 185.259 245.597 185.259 247.051C185.277 247.488 185.158 247.919 184.92 248.286C184.682 248.652 184.336 248.935 183.93 249.097L185.407 251.18H183.753ZM182.342 245.922H181.124V248.181H182.342C183.258 248.181 183.723 247.753 183.723 247.051C183.723 246.35 183.258 245.922 182.342 245.922Z" fill="white"/>
<path d="M187.667 245.922H185.599V244.703H191.241V245.922H189.166V251.18H187.689L187.667 245.922Z" fill="white"/>
<path d="M289.413 322.685L298.142 325.749L298.046 334.138C293.866 335.32 293.283 337.432 293.283 337.432L302.019 337.233L309.617 321.777L303.606 317.848L292.367 312.93" fill="#01966B"/>
<g opacity="0.6">
<path d="M309.618 321.78L302.019 337.236L293.283 337.435L294.235 336.099L301.332 335.545L308.34 320.945L309.618 321.78Z" fill="white"/>
</g>
<path d="M298.016 330.302C298.083 330.391 298.577 330.088 299.257 330.095C299.936 330.103 300.431 330.368 300.497 330.28C300.564 330.191 300.076 329.696 299.257 329.711C298.437 329.726 297.935 330.258 298.016 330.302Z" fill="#263238"/>
<path d="M298.142 328.219C298.23 328.278 298.607 327.754 299.301 327.599C299.995 327.444 300.556 327.754 300.608 327.665C300.66 327.577 300.534 327.481 300.291 327.348C299.956 327.189 299.577 327.146 299.216 327.228C298.854 327.31 298.531 327.511 298.297 327.798C298.097 328.042 298.068 328.19 298.142 328.219Z" fill="#263238"/>
<path d="M297.994 325.548C298.09 325.592 298.378 325.083 298.983 324.861C299.589 324.64 300.135 324.824 300.18 324.721C300.224 324.617 300.084 324.558 299.84 324.477C299.516 324.367 299.163 324.373 298.842 324.494C298.521 324.615 298.253 324.844 298.083 325.142C297.957 325.363 297.95 325.533 297.994 325.548Z" fill="#263238"/>
<path d="M297.351 325.533C297.462 325.533 297.396 324.957 297.654 324.367C297.913 323.776 298.341 323.436 298.289 323.34C298.238 323.244 297.61 323.488 297.3 324.219C296.99 324.95 297.255 325.585 297.351 325.533Z" fill="#263238"/>
<path d="M296.318 324.554C296.447 324.176 296.517 323.78 296.524 323.38C296.561 322.959 296.598 322.538 296.643 322.103C296.68 321.833 296.68 321.56 296.643 321.29C296.597 321.112 296.487 320.956 296.332 320.855C296.243 320.797 296.14 320.766 296.033 320.766C295.927 320.766 295.823 320.797 295.734 320.855C295.498 321.06 295.326 321.329 295.239 321.63C295.15 321.885 295.098 322.151 295.084 322.42C295.058 322.873 295.137 323.325 295.313 323.742C295.623 324.481 296.052 324.71 296.052 324.68C295.859 324.346 295.687 324.001 295.535 323.646C295.411 323.26 295.366 322.853 295.402 322.45C295.428 322.215 295.482 321.984 295.564 321.763C295.63 321.539 295.752 321.335 295.919 321.172C295.946 321.153 295.978 321.142 296.011 321.142C296.044 321.142 296.077 321.153 296.103 321.172C296.176 321.218 296.228 321.289 296.251 321.372C296.277 321.602 296.277 321.835 296.251 322.066C296.251 322.502 296.251 322.93 296.214 323.351C296.184 323.755 296.219 324.161 296.318 324.554Z" fill="#263238"/>
<path d="M296.177 324.941C296.214 324.941 295.956 324.535 295.284 324.314C294.83 324.176 294.344 324.188 293.897 324.348C293.45 324.507 293.067 324.806 292.802 325.2C292.783 325.256 292.776 325.315 292.783 325.374C292.789 325.433 292.808 325.489 292.839 325.54C292.894 325.624 292.974 325.689 293.068 325.724C293.201 325.772 293.341 325.799 293.482 325.805C293.727 325.829 293.975 325.829 294.22 325.805C294.618 325.77 295.007 325.67 295.372 325.51C296 325.237 296.288 324.919 296.259 324.89C296.229 324.86 295.889 325.067 295.284 325.259C294.93 325.372 294.562 325.437 294.191 325.451C293.977 325.469 293.762 325.469 293.548 325.451C293.448 325.444 293.349 325.424 293.253 325.392C293.179 325.348 293.201 325.355 293.201 325.333C293.242 325.252 293.3 325.181 293.371 325.126C293.45 325.049 293.537 324.979 293.63 324.919C293.801 324.799 293.99 324.707 294.191 324.646C294.533 324.542 294.896 324.524 295.247 324.594C295.565 324.687 295.876 324.803 296.177 324.941Z" fill="#263238"/>
<g opacity="0.6">
<path d="M302.646 321.681C302.649 321.817 302.679 321.951 302.733 322.075C302.788 322.2 302.867 322.312 302.965 322.406C303.063 322.5 303.178 322.573 303.305 322.623C303.431 322.672 303.566 322.696 303.702 322.693C303.838 322.69 303.972 322.66 304.096 322.606C304.221 322.551 304.333 322.473 304.427 322.374C304.521 322.276 304.594 322.161 304.644 322.034C304.693 321.908 304.717 321.773 304.714 321.637C304.711 321.501 304.681 321.367 304.627 321.243C304.572 321.119 304.494 321.006 304.395 320.912C304.297 320.818 304.182 320.745 304.055 320.695C303.929 320.646 303.794 320.622 303.658 320.625C303.522 320.628 303.388 320.658 303.264 320.712C303.14 320.767 303.027 320.846 302.933 320.944C302.839 321.042 302.766 321.157 302.716 321.284C302.667 321.41 302.643 321.545 302.646 321.681Z" fill="white"/>
</g>
<path d="M244.632 319.18L244.75 330.611C244.75 330.611 233.164 334.577 232.979 336.689L255.133 337.257L255.68 319.431L244.632 319.18Z" fill="#01966B"/>
<g opacity="0.6">
<path d="M251.618 329.83C251.829 329.901 252.006 330.047 252.117 330.241C252.227 330.434 252.262 330.661 252.216 330.879C252.153 331.092 252.01 331.273 251.819 331.385C251.627 331.497 251.399 331.533 251.182 331.484C250.959 331.408 250.77 331.253 250.653 331.047C250.536 330.842 250.499 330.601 250.547 330.369C250.636 330.152 250.806 329.977 251.021 329.882C251.235 329.787 251.479 329.779 251.699 329.86" fill="white"/>
</g>
<g opacity="0.6">
<path d="M255.163 337.263V335.461L233.902 335.594C233.902 335.594 232.898 335.993 232.994 336.694L255.163 337.263Z" fill="white"/>
</g>
<path d="M244.389 330.495C244.389 330.598 244.935 330.665 245.459 331.027C245.984 331.389 246.249 331.854 246.353 331.81C246.456 331.765 246.309 331.137 245.666 330.717C245.024 330.296 244.374 330.392 244.389 330.495Z" fill="#263238"/>
<path d="M242.018 331.398C242.018 331.501 242.454 331.701 242.808 332.137C243.163 332.572 243.259 333.089 243.369 333.089C243.48 333.089 243.561 332.476 243.111 331.9C242.661 331.324 242.018 331.295 242.018 331.398Z" fill="#263238"/>
<path d="M240.645 334.137C240.748 334.137 240.91 333.628 240.645 333.03C240.379 332.431 239.906 332.18 239.832 332.291C239.758 332.402 240.091 332.705 240.305 333.199C240.519 333.694 240.541 334.13 240.645 334.137Z" fill="#263238"/>
<path d="M244.654 327.875C244.699 327.979 245.193 327.875 245.806 327.875C246.419 327.875 246.892 328.141 246.951 328.045C247.01 327.949 246.56 327.558 245.836 327.499C245.112 327.44 244.603 327.794 244.654 327.875Z" fill="#263238"/>
<g opacity="0.3">
<path d="M244.654 321.438L244.677 323.476L255.576 323.66L255.635 321.821L244.654 321.438Z" fill="black"/>
</g>
<path d="M244.669 325.572C245.034 325.673 245.42 325.673 245.784 325.572C246.185 325.512 246.577 325.403 246.951 325.247C247.175 325.153 247.392 325.045 247.601 324.922C247.728 324.859 247.843 324.774 247.941 324.671C248.014 324.596 248.061 324.498 248.073 324.394C248.085 324.29 248.062 324.184 248.007 324.095C247.954 324.019 247.885 323.956 247.804 323.912C247.724 323.867 247.634 323.841 247.542 323.836C247.4 323.834 247.259 323.848 247.121 323.881C246.883 323.932 246.651 324.006 246.427 324.102C246.048 324.261 245.697 324.477 245.386 324.745C244.854 325.21 244.647 325.609 244.706 325.631C244.765 325.653 245.016 325.335 245.548 324.959C245.857 324.737 246.195 324.558 246.552 324.427C246.761 324.348 246.976 324.286 247.195 324.242C247.431 324.191 247.63 324.191 247.69 324.301C247.749 324.412 247.69 324.353 247.69 324.42C247.617 324.496 247.532 324.558 247.438 324.604C247.239 324.73 247.04 324.833 246.848 324.929C246.497 325.087 246.134 325.215 245.762 325.313C245.391 325.37 245.026 325.456 244.669 325.572Z" fill="#263238"/>
<path d="M244.81 325.74C245.024 325.424 245.135 325.05 245.127 324.669C245.16 324.259 245.12 323.846 245.009 323.45C244.946 323.215 244.857 322.987 244.743 322.771C244.687 322.622 244.594 322.49 244.473 322.388C244.351 322.286 244.205 322.217 244.049 322.188C243.949 322.187 243.852 322.215 243.768 322.269C243.684 322.323 243.618 322.4 243.576 322.49C243.518 322.617 243.475 322.751 243.451 322.889C243.416 323.134 243.416 323.383 243.451 323.628C243.497 324.045 243.65 324.445 243.894 324.787C244.315 325.37 244.758 325.525 244.773 325.474C244.787 325.422 244.433 325.2 244.115 324.639C243.934 324.317 243.824 323.959 243.79 323.591C243.774 323.376 243.786 323.16 243.827 322.948C243.872 322.712 243.96 322.527 244.049 322.549C244.138 322.572 244.344 322.734 244.433 322.926C244.535 323.121 244.621 323.323 244.691 323.532C244.804 323.893 244.866 324.268 244.876 324.647C244.876 325.319 244.75 325.717 244.81 325.74Z" fill="#263238"/>
<path d="M296.192 313.356L270.648 303.86L297.499 300.086L298.851 287.008L248.642 291.387L241.553 301.6L243.414 314.405L292.337 326.841L296.192 313.356Z" fill="#263238"/>
<path d="M242.018 322.507L239.574 275.762C239.64 273.523 240.277 271.339 241.425 269.415C242.573 267.492 244.193 265.894 246.131 264.773C247.742 263.839 249.533 263.258 251.385 263.068C253.238 262.879 255.109 263.085 256.876 263.673L289.45 274.536L307.328 279.136C307.328 279.136 310.378 286.647 308.584 292.48C306.833 298.196 300.571 301.999 295.062 300.367C288.217 298.336 256.802 284.859 256.802 284.859V322.876L242.018 322.507Z" fill="#263238"/>
<path d="M294.604 300.478L294.412 300.419L293.851 300.205L291.717 299.348L283.882 296.151L258.072 285.502L256.758 284.956L256.972 284.815C256.972 295.398 256.935 304.902 256.92 311.792C256.92 315.211 256.92 317.98 256.876 319.915C256.876 320.853 256.876 321.591 256.876 322.13C256.876 322.366 256.876 322.558 256.876 322.699C256.887 322.765 256.887 322.832 256.876 322.898C256.87 322.832 256.87 322.765 256.876 322.699V322.13C256.876 321.606 256.876 320.867 256.876 319.915C256.876 317.98 256.876 315.211 256.832 311.792C256.832 304.902 256.832 295.398 256.787 284.815V284.594L256.994 284.675L258.309 285.221L284.081 295.951L291.761 299.238L293.873 300.146L294.42 300.39L294.604 300.478Z" fill="#455A64"/>
<path d="M264.519 300.539C266.882 300.953 269.037 302.146 270.641 303.929C270.575 303.995 269.415 302.917 267.687 301.979C265.959 301.041 264.49 300.628 264.519 300.539Z" fill="#455A64"/>
<path d="M253.981 278.5C254.683 279.48 255.263 280.541 255.709 281.661C256.243 282.74 256.649 283.877 256.92 285.05C256.839 285.05 256.241 283.573 255.443 281.786C254.646 279.999 253.907 278.566 253.981 278.5Z" fill="#455A64"/>
<path d="M254.055 257.898L248.295 256.82L242.247 262.994L243.362 266.93L250.415 264.331L254.055 257.898Z" fill="#FFBE9D"/>
<path d="M200.834 243.813L207.384 242.336L217.929 243.983L217.523 250.71C217.523 250.71 214.252 251.183 213.092 250.799C212.394 250.57 211.643 250.554 210.936 250.754C210.936 250.754 211.578 252.076 210.471 252.29C209.363 252.505 207.554 252.97 207.214 251.404C206.936 251.421 206.66 251.341 206.435 251.176C206.21 251.012 206.049 250.774 205.981 250.503C205.981 250.503 205.124 250.814 204.74 249.314C204.356 247.815 204.578 245.563 207.539 244.847C207.694 244.81 207.768 244.455 207.473 244.47L202.791 245.349C202.791 245.349 199.645 245.489 200.834 243.813Z" fill="#FFBE9D"/>
<path d="M206.409 248.498C206.771 248.386 207.146 248.319 207.524 248.298C207.935 248.236 208.349 248.199 208.765 248.188C208.905 248.19 209.044 248.222 209.171 248.282C209.298 248.342 209.412 248.428 209.503 248.535C209.595 248.665 209.647 248.819 209.655 248.979C209.663 249.138 209.626 249.296 209.548 249.436C209.393 249.657 209.195 249.844 208.965 249.985C208.735 250.126 208.478 250.218 208.211 250.255C207.813 250.368 207.409 250.457 207 250.521C206.624 250.595 206.238 250.595 205.863 250.521C206.225 250.423 206.592 250.346 206.963 250.292C207.303 250.218 207.701 250.115 208.137 249.975C208.359 249.919 208.576 249.848 208.787 249.76C208.999 249.659 209.176 249.497 209.297 249.295C209.351 249.205 209.38 249.102 209.38 248.996C209.38 248.891 209.351 248.787 209.297 248.697C209.158 248.543 208.964 248.45 208.757 248.439C208.337 248.439 207.901 248.483 207.554 248.49C207.174 248.541 206.789 248.543 206.409 248.498Z" fill="#EB996E"/>
<path d="M207.532 247.055C207.532 247.136 207.207 247.306 206.956 247.698C206.705 248.089 206.668 248.473 206.586 248.48C206.505 248.488 206.402 248.008 206.719 247.535C207.037 247.062 207.532 246.981 207.532 247.055Z" fill="#EB996E"/>
<path d="M209.333 249.453C209.333 249.453 209.4 249.453 209.503 249.453C209.607 249.453 209.725 249.667 209.813 249.808C209.883 249.916 209.929 250.038 209.948 250.165C209.967 250.292 209.959 250.422 209.924 250.546C209.872 250.694 209.781 250.824 209.662 250.926C209.543 251.027 209.399 251.095 209.245 251.122C208.774 251.269 208.293 251.377 207.805 251.447C207.428 251.484 207.192 251.447 207.192 251.41C207.192 251.373 207.421 251.336 207.775 251.248C208.13 251.159 208.617 251.004 209.164 250.856C209.275 250.839 209.381 250.794 209.471 250.725C209.561 250.657 209.633 250.568 209.681 250.465C209.752 250.287 209.752 250.089 209.681 249.911C209.592 249.726 209.562 249.608 209.489 249.549C209.415 249.49 209.319 249.468 209.333 249.453Z" fill="#EB996E"/>
<path d="M209.769 250.595C209.769 250.595 209.843 250.462 210.05 250.432C210.31 250.415 210.569 250.482 210.788 250.624C210.9 250.703 210.993 250.807 211.058 250.927C211.124 251.048 211.16 251.182 211.165 251.318C211.165 251.51 211.165 251.629 211.098 251.629C211.032 251.629 211.025 251.518 210.966 251.355C210.914 251.162 210.8 250.99 210.641 250.868C210.463 250.752 210.265 250.672 210.057 250.632C209.895 250.602 209.791 250.632 209.769 250.595Z" fill="#EB996E"/>
<path d="M213.033 245.367L210.079 246.541L207.31 248.506C207.31 248.506 207.31 249.185 208.883 248.934C209.873 248.768 210.818 248.401 211.66 247.856C211.66 247.856 213.72 249.156 215.544 248.853" fill="#FFBE9D"/>
<path d="M215.514 248.853C215.514 248.853 215.418 248.89 215.226 248.927C214.947 248.958 214.664 248.958 214.385 248.927C213.386 248.804 212.425 248.471 211.564 247.952H211.697C210.664 248.649 209.462 249.052 208.218 249.119C208.008 249.126 207.798 249.096 207.598 249.03C207.479 248.994 207.372 248.926 207.291 248.831C207.21 248.737 207.158 248.621 207.14 248.498V248.432L207.199 248.388L210.006 246.438C210.914 246.091 211.66 245.81 212.184 245.626C212.45 245.512 212.727 245.425 213.011 245.367C212.763 245.519 212.501 245.648 212.228 245.751C211.719 245.973 210.988 246.283 210.087 246.652L207.31 248.639L207.369 248.52C207.369 248.609 207.495 248.735 207.642 248.786C207.811 248.842 207.989 248.867 208.167 248.86C209.356 248.793 210.506 248.416 211.505 247.767L211.578 247.723H211.645C212.471 248.239 213.389 248.592 214.348 248.764C214.734 248.821 215.124 248.851 215.514 248.853Z" fill="#EB996E"/>
<path d="M208.735 245.225C208.735 245.306 208.388 245.299 208.049 245.092C207.709 244.885 207.539 244.582 207.598 244.538C207.657 244.494 207.893 244.671 208.189 244.848C208.484 245.026 208.787 245.151 208.735 245.225Z" fill="#EB996E"/>
<path d="M217.361 252.489L242.365 256.122C244.849 256.907 247.542 256.681 249.861 255.494L272.133 244.07L265.487 229.367C264.627 229.662 263.788 230.014 262.976 230.423L244.654 243.627L218.07 242.697L217.361 252.489Z" fill="#01966B"/>
<path d="M306.848 279.02L305.253 276.221L288.209 271.953L290.218 275.424L306.848 279.02Z" fill="#FFBE9D"/>
<path d="M265.464 229.366C265.464 229.957 262.961 248.463 262.961 252.258C262.961 256.054 270.198 260.138 270.198 260.138L278.122 276.968H306.353L296.702 258.846L292.337 244.327C290.683 238.833 290.86 235.99 286.762 231.965L278.868 226.648L265.464 229.366Z" fill="#01966B"/>
<path d="M273.661 243.971L278.402 263.865L254.491 257.145L250.414 264.352L281.526 278.516C283.386 279.362 285.484 279.53 287.455 278.99C289.426 278.451 291.145 277.238 292.315 275.562C293.038 274.528 293.529 273.35 293.755 272.109C293.981 270.867 293.935 269.592 293.622 268.37L286.658 241.157C286.433 240.27 286.026 239.439 285.464 238.716C284.902 237.993 284.197 237.394 283.393 236.956C282.589 236.519 281.703 236.252 280.791 236.173C279.878 236.094 278.96 236.205 278.092 236.497C276.58 237.004 275.3 238.038 274.487 239.41C273.673 240.782 273.38 242.401 273.661 243.971Z" fill="#01966B"/>
<path d="M270.641 261.059C270.435 260.681 270.187 260.327 269.903 260.003C269.725 259.914 269.474 259.782 269.164 259.597C268.25 259.082 267.374 258.502 266.543 257.861C265.268 256.933 264.215 255.736 263.456 254.354C262.717 252.7 262.717 250.661 263.02 248.668C263.323 246.674 263.759 244.783 263.965 243.048C264.172 241.312 264.416 239.754 264.512 238.44C264.608 237.125 264.63 236.055 264.63 235.316C264.63 234.578 264.63 234.164 264.63 234.164C264.66 234.26 264.677 234.359 264.682 234.459C264.682 234.651 264.726 234.939 264.748 235.309C264.802 236.357 264.802 237.407 264.748 238.455C264.682 239.776 264.519 241.357 264.268 243.092C264.017 244.828 263.633 246.718 263.345 248.712C263.057 250.706 263.02 252.663 263.729 254.236C264.457 255.584 265.464 256.763 266.683 257.692C267.498 258.342 268.348 258.946 269.231 259.501C269.788 259.935 270.265 260.462 270.641 261.059Z" fill="#263238"/>
<path d="M280.153 227.961C280.029 228.142 279.883 228.306 279.717 228.448C279.429 228.744 278.978 229.187 278.454 229.667C277.369 230.678 275.825 232.037 274.023 233.455C272.221 234.873 270.597 236.084 269.371 236.926C268.758 237.347 268.256 237.664 267.894 237.893C267.718 238.022 267.527 238.128 267.325 238.211C267.479 238.057 267.647 237.918 267.828 237.797L269.238 236.749C270.427 235.87 272.066 234.637 273.831 233.219C275.596 231.801 277.154 230.479 278.262 229.526L279.591 228.374C279.762 228.215 279.95 228.076 280.153 227.961Z" fill="#263238"/>
<path d="M273.661 243.977C273.713 244.1 273.753 244.229 273.78 244.361C273.853 244.636 273.949 245.005 274.068 245.468C274.319 246.465 274.666 247.868 275.101 249.618C275.965 253.178 277.169 258.14 278.543 263.834L278.602 264.078L278.365 264.011L272.295 262.32L254.491 257.262L254.616 257.21L251.596 262.453L250.754 263.871L250.533 264.233C250.481 264.321 250.451 264.358 250.444 264.358C250.458 264.309 250.478 264.262 250.503 264.218L250.702 263.841L251.485 262.364L254.439 257.07L254.483 256.996H254.565L272.391 261.973L278.491 263.701L278.306 263.871C276.97 258.17 275.803 253.2 274.961 249.633C274.562 247.876 274.223 246.458 274.016 245.461C273.912 244.988 273.831 244.619 273.772 244.338C273.726 244.221 273.689 244.1 273.661 243.977Z" fill="#263238"/>
<path d="M286.762 242.734C286.816 242.844 286.856 242.961 286.88 243.081C286.954 243.34 287.042 243.665 287.161 244.071L288.121 247.763C288.911 250.894 289.996 255.148 291.185 259.882C291.769 262.252 292.345 264.504 292.832 266.572C293.317 268.401 293.469 270.302 293.283 272.184C293.132 273.458 292.676 274.677 291.953 275.737C291.694 276.126 291.369 276.469 290.993 276.748C291.302 276.408 291.588 276.048 291.85 275.67C292.527 274.61 292.947 273.406 293.076 272.155C293.225 270.298 293.05 268.429 292.559 266.631C292.042 264.578 291.481 262.326 290.89 259.985L287.936 247.845L287.065 244.152L286.843 243.148C286.804 243.013 286.777 242.874 286.762 242.734Z" fill="#263238"/>
<g opacity="0.3">
<path d="M291.104 276.955C294.604 277.272 296.635 275.278 297.012 272.524C297.094 271.006 296.826 269.49 296.229 268.093C294.08 261.801 291.909 255.458 288.505 249.742C289.79 255.458 291.459 260.945 292.721 266.66C293.129 268.249 293.311 269.888 293.26 271.527C293.18 273.527 292.42 275.439 291.104 276.947" fill="black"/>
</g>
<path d="M262.4 248.289C261.862 247.833 261.386 247.309 260.982 246.731C259.951 245.384 259.072 243.928 258.36 242.389C257.647 240.846 257.11 239.229 256.758 237.566C256.581 236.884 256.492 236.182 256.492 235.477C256.706 236.141 256.883 236.816 257.024 237.5C257.447 239.121 258.01 240.702 258.707 242.226C259.409 243.745 260.244 245.198 261.203 246.568C261.957 247.654 262.444 248.289 262.4 248.289Z" fill="#FAFAFA"/>
<path d="M255.547 252.37C255.118 251.876 254.742 251.339 254.424 250.768C253.775 249.748 252.947 248.316 252.047 246.699C251.146 245.081 250.422 243.59 249.92 242.497C249.611 241.921 249.363 241.315 249.181 240.688C249.554 241.22 249.875 241.786 250.141 242.379L252.357 246.514C253.206 248.065 253.981 249.468 254.624 250.627C254.982 251.18 255.291 251.763 255.547 252.37Z" fill="#FAFAFA"/>
<path d="M246.117 256.046C245.609 254.103 245.224 252.13 244.965 250.138C244.581 248.165 244.322 246.17 244.189 244.164C244.697 246.107 245.082 248.08 245.341 250.072C245.729 252.044 245.988 254.04 246.117 256.046Z" fill="#FAFAFA"/>
<path d="M237.728 255.48C237.594 254.929 237.529 254.363 237.536 253.796C237.469 252.747 237.432 251.3 237.469 249.698C237.506 248.095 237.617 246.655 237.728 245.614C237.749 245.046 237.841 244.483 238.001 243.938C238.062 244.5 238.062 245.067 238.001 245.629C237.956 246.677 237.897 248.117 237.853 249.705C237.809 251.293 237.809 252.74 237.809 253.789C237.846 254.354 237.819 254.921 237.728 255.48Z" fill="#FAFAFA"/>
<path d="M229.331 243.266C229.463 243.777 229.532 244.303 229.538 244.831C229.612 245.806 229.656 247.157 229.634 248.649C229.612 250.141 229.508 251.492 229.398 252.46C229.379 252.991 229.29 253.517 229.132 254.025C229.021 254.025 229.198 251.61 229.243 248.642C229.287 245.673 229.213 243.273 229.331 243.266Z" fill="#FAFAFA"/>
<path d="M222.434 244.148C222.487 245.653 222.416 247.16 222.22 248.653C222.152 250.157 221.951 251.652 221.622 253.121C221.636 250.112 221.908 247.111 222.434 244.148Z" fill="#FAFAFA"/>
<path d="M264.002 237.32C263.891 237.32 263.448 236.124 262.695 234.72C261.942 233.317 261.218 232.254 261.277 232.188C262.691 233.578 263.643 235.37 264.002 237.32Z" fill="#FAFAFA"/>
<path d="M276.999 257.412C276.813 257.47 276.618 257.493 276.423 257.478C275.894 257.5 275.364 257.488 274.836 257.441C273.089 257.307 271.371 256.924 269.733 256.304C268.09 255.694 266.541 254.856 265.132 253.815C264.706 253.5 264.299 253.16 263.914 252.796C263.64 252.538 263.5 252.39 263.522 252.368C263.544 252.346 264.194 252.855 265.287 253.594C268.161 255.527 271.45 256.754 274.887 257.175C276.172 257.338 276.999 257.345 276.999 257.412Z" fill="#FAFAFA"/>
<path d="M274.304 247.981C273.786 248.003 273.268 247.946 272.768 247.811C271.542 247.579 270.335 247.259 269.157 246.851C267.976 246.448 266.827 245.955 265.723 245.374C265.246 245.167 264.801 244.894 264.401 244.562C264.46 244.458 266.543 245.544 269.282 246.482C272.022 247.419 274.326 247.87 274.304 247.981Z" fill="#FAFAFA"/>
<path d="M272.738 241.209C271.404 241.292 270.067 241.078 268.826 240.581C267.584 240.084 266.469 239.317 265.56 238.336C267.674 239.882 270.142 240.87 272.738 241.209Z" fill="#FAFAFA"/>
<path d="M283.793 236.373C283.756 236.432 283.18 236.04 282.132 235.745C280.766 235.366 279.316 235.42 277.982 235.9C276.656 236.407 275.524 237.319 274.747 238.507C274.142 239.415 273.964 240.087 273.898 240.065C273.962 239.455 274.172 238.87 274.511 238.359C275.262 237.061 276.441 236.064 277.846 235.54C279.251 235.016 280.795 234.997 282.213 235.487C282.803 235.653 283.344 235.956 283.793 236.373Z" fill="#FAFAFA"/>
<path d="M285.1 245.446C284.725 245.759 284.301 246.008 283.845 246.185C281.712 247.11 279.405 247.569 277.081 247.529C276.6 247.557 276.117 247.502 275.655 247.366C275.655 247.248 277.871 247.366 280.455 246.842C283.04 246.318 285.049 245.335 285.1 245.446Z" fill="#FAFAFA"/>
<path d="M288.881 256.823C287.178 257.182 285.45 257.417 283.712 257.524C281.979 257.756 280.232 257.862 278.484 257.842C280.187 257.479 281.915 257.245 283.653 257.14C285.386 256.908 287.133 256.802 288.881 256.823Z" fill="#FAFAFA"/>
<path d="M292.234 272.591C292.032 272.584 291.832 272.545 291.643 272.473C291.119 272.328 290.604 272.153 290.1 271.949C288.429 271.277 286.833 270.433 285.337 269.431C283.848 268.431 282.414 267.354 281.039 266.203C280.443 265.764 279.889 265.269 279.385 264.727C280.01 265.105 280.603 265.534 281.157 266.011C282.257 266.831 283.771 267.976 285.507 269.128C286.987 270.112 288.543 270.979 290.159 271.72C291.422 272.259 292.234 272.532 292.234 272.591Z" fill="#FAFAFA"/>
<path d="M274.311 274.991C274.188 274.441 274.148 273.876 274.193 273.315C274.251 270.595 274.901 267.922 276.098 265.48C276.314 264.96 276.608 264.477 276.97 264.047C276.228 265.783 275.601 267.567 275.094 269.386C274.714 271.236 274.452 273.108 274.311 274.991Z" fill="#FAFAFA"/>
<path d="M265.309 270.167C265.023 267.068 265.97 263.982 267.946 261.578C267.253 262.922 266.651 264.311 266.144 265.736C265.763 267.191 265.484 268.672 265.309 270.167Z" fill="#FAFAFA"/>
<path d="M260.288 258.383C259.249 259.618 258.329 260.948 257.541 262.356C256.867 263.823 256.335 265.351 255.953 266.92C255.902 266.425 255.94 265.924 256.064 265.443C256.285 264.295 256.665 263.184 257.194 262.142C257.722 261.099 258.396 260.137 259.195 259.284C259.506 258.924 259.876 258.62 260.288 258.383Z" fill="#FAFAFA"/>
<path d="M293.46 248.069C292.907 248.759 292.184 249.294 291.362 249.62C290.539 249.946 289.646 250.053 288.771 249.93C288.771 249.811 289.923 249.782 291.215 249.258C292.507 248.733 293.379 247.987 293.46 248.069Z" fill="#FAFAFA"/>
<path d="M290.078 237.707C289.823 238.449 289.34 239.09 288.697 239.538C288.131 240.085 287.402 240.432 286.622 240.528C286.622 240.424 287.508 240.018 288.453 239.236C289.398 238.453 290.019 237.64 290.078 237.707Z" fill="#FAFAFA"/>
<path d="M278.018 230.805C278.673 231.193 279.19 231.776 279.495 232.474C279.913 233.114 280.127 233.866 280.108 234.63C279.998 234.63 279.732 233.707 279.156 232.658C278.58 231.61 277.945 230.879 278.018 230.805Z" fill="#FAFAFA"/>
<path d="M295.926 257.817C295.283 258.393 294.494 258.781 293.644 258.939C292.828 259.214 291.951 259.258 291.111 259.065C291.111 258.954 292.234 258.91 293.548 258.563C294.863 258.216 295.882 257.721 295.926 257.817Z" fill="#FAFAFA"/>
<path d="M301.095 266.907C298.433 267.389 295.73 267.617 293.024 267.586C294.343 267.283 295.688 267.105 297.041 267.055C298.385 266.872 299.743 266.823 301.095 266.907Z" fill="#FAFAFA"/>
<path d="M304.684 274.22C300.722 274.377 296.753 274.279 292.802 273.924C296.765 273.767 300.734 273.865 304.684 274.22Z" fill="#FAFAFA"/>
<path d="M278.55 200.938C279.045 203.441 282.641 204.438 282.981 206.963C283.129 208.042 282.612 209.12 282.656 210.213C282.7 211.69 283.727 212.923 284.244 214.296C285.322 217.132 284.111 220.492 281.829 222.493C279.547 224.495 276.431 225.307 273.403 225.366" fill="#263238"/>
<path d="M258.183 203.523C258.501 204.86 257.799 206.204 257.061 207.363C256.322 208.523 255.488 209.734 255.503 211.1C255.503 213.537 258.205 215.376 258.102 217.805C258.043 219.105 257.171 220.279 257.186 221.586C257.249 222.215 257.446 222.823 257.763 223.369C258.08 223.916 258.51 224.388 259.025 224.754C259.985 225.567 260.915 225.279 261.802 226.18C262.823 227.185 264.043 227.967 265.383 228.476C268.212 229.488 271.018 226.925 272.221 226.357" fill="#263238"/>
<path d="M279.289 202.302C279.126 201.069 277.812 200.301 276.63 200.035C275.448 199.769 274.127 199.799 272.997 199.297C272.058 198.729 271.178 198.071 270.368 197.332C269.277 196.526 267.99 196.024 266.641 195.88C265.292 195.735 263.929 195.952 262.691 196.508C261.454 197.064 260.387 197.94 259.6 199.045C258.812 200.151 258.334 201.446 258.213 202.797C258.05 204.614 258.678 206.63 260.236 207.575C262.045 208.668 264.371 207.996 266.351 207.25C268.33 206.504 270.582 205.729 272.48 206.659C273.566 207.337 274.494 208.238 275.205 209.303C276.002 210.292 276.97 211.282 278.225 211.518C279.481 211.755 280.987 210.78 280.839 209.51" fill="#263238"/>
<path d="M279.717 228.449L276.763 204.53C276.692 204.015 276.43 203.545 276.03 203.213C275.629 202.881 275.119 202.71 274.599 202.736L263.286 201.68C259.741 201.857 258.117 206.509 258.412 210.047C258.774 213.968 259.365 218.753 260.28 221.581C262.112 227.268 266.698 227.312 266.698 227.312C266.698 227.312 267.525 235.73 267.865 237.798" fill="#FFBE9D"/>
<path d="M259.933 214.415C259.945 214.513 259.976 214.608 260.025 214.693C260.074 214.779 260.14 214.854 260.219 214.914C260.297 214.974 260.387 215.017 260.482 215.042C260.578 215.067 260.678 215.072 260.775 215.057C260.969 215.039 261.147 214.944 261.271 214.795C261.396 214.646 261.456 214.454 261.44 214.26C261.428 214.162 261.397 214.067 261.348 213.981C261.299 213.896 261.233 213.821 261.155 213.761C261.076 213.701 260.986 213.657 260.891 213.633C260.795 213.608 260.696 213.603 260.598 213.617C260.404 213.636 260.226 213.73 260.102 213.88C259.977 214.029 259.917 214.221 259.933 214.415Z" fill="#263238"/>
<path d="M259.741 212.937C259.852 213.026 260.354 212.516 261.159 212.391C261.964 212.265 262.636 212.583 262.688 212.464C262.739 212.346 262.599 212.258 262.319 212.11C261.932 211.921 261.496 211.856 261.071 211.925C260.651 211.989 260.263 212.186 259.963 212.487C259.741 212.715 259.667 212.9 259.741 212.937Z" fill="#263238"/>
<path d="M268.049 213.227C268.061 213.324 268.092 213.418 268.14 213.503C268.189 213.589 268.254 213.663 268.332 213.723C268.409 213.783 268.498 213.826 268.593 213.852C268.688 213.877 268.786 213.883 268.884 213.869C269.076 213.851 269.253 213.757 269.377 213.61C269.501 213.462 269.563 213.272 269.548 213.079C269.536 212.982 269.505 212.888 269.457 212.803C269.408 212.717 269.343 212.643 269.266 212.583C269.188 212.523 269.099 212.479 269.004 212.454C268.91 212.429 268.811 212.423 268.714 212.437C268.522 212.455 268.345 212.549 268.22 212.696C268.096 212.844 268.035 213.034 268.049 213.227Z" fill="#263238"/>
<path d="M267.658 211.861C267.768 211.942 268.271 211.433 269.076 211.315C269.881 211.196 270.552 211.499 270.604 211.388C270.656 211.278 270.516 211.174 270.228 211.027C269.843 210.84 269.409 210.778 268.987 210.849C268.569 210.914 268.182 211.108 267.879 211.403C267.665 211.632 267.606 211.824 267.658 211.861Z" fill="#263238"/>
<path d="M265.649 218.282C265.203 218.228 264.751 218.228 264.305 218.282C264.098 218.282 263.899 218.282 263.84 218.141C263.787 217.933 263.802 217.713 263.884 217.514C263.995 216.989 264.12 216.436 264.246 215.852C264.606 214.439 264.853 212.999 264.984 211.547C264.512 212.929 264.151 214.346 263.906 215.786C263.788 216.372 263.677 216.925 263.574 217.447C263.478 217.715 263.478 218.007 263.574 218.274C263.615 218.343 263.67 218.401 263.737 218.444C263.804 218.488 263.879 218.515 263.958 218.525C264.078 218.537 264.199 218.537 264.32 218.525C264.772 218.503 265.219 218.421 265.649 218.282Z" fill="#263238"/>
<path d="M266.668 227.314C269.402 226.988 271.983 225.874 274.097 224.109C273.477 225.522 272.461 226.725 271.171 227.572C269.881 228.418 268.373 228.873 266.831 228.88L266.668 227.314Z" fill="#EB996E"/>
<path d="M266.306 220.171C266.431 219.955 266.608 219.774 266.821 219.645C267.034 219.516 267.276 219.443 267.525 219.432C267.705 219.421 267.885 219.446 268.055 219.506C268.224 219.565 268.381 219.658 268.514 219.779C268.643 219.897 268.732 220.052 268.77 220.222C268.809 220.392 268.794 220.57 268.728 220.732C268.622 220.897 268.469 221.026 268.289 221.102C268.108 221.179 267.909 221.199 267.717 221.16C267.314 221.087 266.929 220.934 266.587 220.71C266.489 220.656 266.4 220.589 266.321 220.51C266.286 220.469 266.263 220.419 266.255 220.365C266.248 220.312 266.255 220.257 266.277 220.208" fill="#EB996E"/>
<path d="M268.123 218.477C267.99 218.477 268.123 219.363 267.473 220.095C266.823 220.826 265.878 220.885 265.885 221.003C265.893 221.121 266.122 221.143 266.52 221.092C267.037 221.01 267.508 220.748 267.85 220.353C268.178 219.981 268.352 219.498 268.337 219.002C268.315 218.662 268.182 218.463 268.123 218.477Z" fill="#263238"/>
<path d="M266.934 209.663C267.052 209.869 267.842 209.663 268.802 209.604C269.762 209.545 270.567 209.707 270.663 209.493C270.759 209.279 270.538 209.205 270.198 209.042C269.747 208.846 269.257 208.755 268.766 208.777C268.274 208.798 267.794 208.932 267.362 209.168C267.037 209.36 266.89 209.559 266.934 209.663Z" fill="#263238"/>
<path d="M259.653 210.565C259.823 210.72 260.347 210.447 261.012 210.336C261.676 210.225 262.267 210.262 262.363 210.055C262.459 209.848 262.289 209.782 262.016 209.649C261.655 209.487 261.251 209.443 260.864 209.524C260.472 209.589 260.111 209.775 259.83 210.055C259.623 210.284 259.579 210.484 259.653 210.565Z" fill="#263238"/>
<path d="M280.042 222.439C278.491 223.015 278.218 222.225 276.844 221.295C276.16 220.825 275.594 220.202 275.193 219.475C274.791 218.748 274.565 217.937 274.533 217.107C274.489 215.63 275.028 214.065 274.319 212.787C273.373 211.104 270.774 210.949 269.829 209.265C269.275 208.283 269.43 207.013 268.832 206.067C268.505 205.653 268.098 205.308 267.635 205.054C267.171 204.801 266.662 204.643 266.136 204.59C265.083 204.487 264.051 204.221 263.079 203.8C262.156 203.291 261.455 202.161 261.846 201.179C266.285 201.015 270.727 201.38 275.079 202.264C276.108 202.376 277.077 202.808 277.849 203.497C278.497 204.38 278.851 205.445 278.86 206.54C279.446 211.813 280.027 217.088 280.603 222.365" fill="#263238"/>
<path d="M281.829 209.957C281.771 208.974 282.035 207.998 282.581 207.178C283.126 206.358 283.924 205.738 284.854 205.412C285.783 205.086 286.793 205.071 287.732 205.37C288.671 205.669 289.486 206.266 290.055 207.07C290.541 207.865 290.847 208.757 290.953 209.683C291.059 210.609 290.962 211.547 290.668 212.431C290.085 214.565 288.534 216.67 286.334 216.914C284.273 217.143 282.338 215.607 281.438 213.731C280.537 211.855 280.441 209.714 280.359 207.638" fill="#263238"/>
<path d="M284.236 217.772C284.345 217.66 284.431 217.527 284.487 217.381C284.659 216.993 284.744 216.572 284.738 216.148C284.727 215.52 284.609 214.898 284.391 214.309C284.17 213.644 283.823 212.965 283.535 212.227C283.237 211.551 283.076 210.823 283.062 210.085C283.062 209.42 283.298 208.822 283.358 208.283C283.422 207.86 283.366 207.428 283.195 207.035C283.055 206.762 282.907 206.658 282.9 206.673C282.892 206.688 282.996 206.806 283.099 207.072C283.224 207.456 283.25 207.865 283.173 208.261C283.02 208.859 282.904 209.465 282.826 210.078C282.827 210.84 282.985 211.594 283.291 212.293C283.586 213.031 283.941 213.718 284.17 214.361C284.386 214.924 284.515 215.516 284.554 216.118C284.574 216.687 284.466 217.252 284.236 217.772Z" fill="#455A64"/>
<path d="M283.217 210.751C283.496 211.075 283.848 211.328 284.244 211.489C285.177 211.952 286.229 212.123 287.261 211.978C288.292 211.833 289.256 211.379 290.026 210.677C290.361 210.411 290.631 210.073 290.816 209.688C290.779 209.688 290.506 210.057 289.908 210.537C289.136 211.162 288.21 211.57 287.227 211.718C286.242 211.85 285.239 211.712 284.325 211.32C283.616 211.024 283.239 210.714 283.217 210.751Z" fill="#455A64"/>
<path d="M283.646 211.625C283.805 211.941 284.023 212.225 284.288 212.459C284.892 213.069 285.616 213.547 286.415 213.863C287.206 214.187 288.055 214.348 288.911 214.335C289.265 214.355 289.619 214.302 289.952 214.18C289.608 214.159 289.262 214.159 288.918 214.18C287.252 214.106 285.662 213.462 284.414 212.356C284.173 212.097 283.917 211.852 283.646 211.625Z" fill="#455A64"/>
<path d="M283.446 219.894C283.446 219.894 283.446 219.894 283.505 219.813C283.55 219.729 283.589 219.643 283.623 219.554C283.765 219.212 283.843 218.846 283.852 218.476C283.869 217.886 283.743 217.3 283.483 216.77C283.144 216.052 282.56 215.479 281.836 215.153C280.967 214.872 280.151 214.447 279.422 213.897C279.246 213.726 279.109 213.52 279.017 213.292C278.925 213.065 278.882 212.821 278.89 212.576C278.92 212.036 279.009 211.501 279.156 210.98C279.297 210.39 279.314 209.777 279.206 209.179C279.098 208.582 278.867 208.013 278.528 207.51C278.17 206.972 277.686 206.531 277.117 206.225C276.519 205.941 275.867 205.785 275.205 205.767C274.555 205.723 273.913 205.767 273.3 205.656C272.698 205.598 272.12 205.392 271.616 205.058C271.16 204.7 270.84 204.197 270.708 203.633C270.563 203.07 270.381 202.517 270.161 201.979C269.737 200.972 269.041 200.103 268.153 199.468C267.368 198.923 266.435 198.631 265.479 198.633C264.685 198.62 263.908 198.864 263.264 199.327C262.783 199.672 262.397 200.131 262.141 200.664C261.979 200.998 261.876 201.358 261.839 201.727C261.821 201.855 261.821 201.984 261.839 202.111C261.871 201.623 262.001 201.145 262.223 200.708C262.533 200.123 263 199.636 263.571 199.301C264.142 198.966 264.795 198.796 265.457 198.811C266.371 198.823 267.26 199.114 268.005 199.645C268.856 200.263 269.52 201.104 269.925 202.075C270.13 202.608 270.305 203.153 270.449 203.707C270.597 204.321 270.948 204.868 271.446 205.257C271.98 205.622 272.597 205.848 273.241 205.915C273.883 206.003 274.525 205.981 275.168 206.025C275.793 206.042 276.407 206.19 276.97 206.461C277.505 206.74 277.962 207.149 278.299 207.65C278.619 208.127 278.838 208.665 278.941 209.231C279.044 209.796 279.029 210.377 278.897 210.936C278.752 211.472 278.665 212.021 278.639 212.576C278.631 212.85 278.68 213.124 278.785 213.378C278.889 213.633 279.046 213.862 279.244 214.053C279.996 214.62 280.841 215.052 281.74 215.33C282.427 215.62 282.989 216.143 283.328 216.807C283.589 217.317 283.725 217.881 283.727 218.454C283.729 218.948 283.634 219.437 283.446 219.894Z" fill="#455A64"/>
<path d="M280.485 203.678C280.507 203.586 280.507 203.49 280.485 203.398C280.463 203.125 280.355 202.866 280.175 202.659C279.887 202.327 279.497 202.099 279.067 202.009C278.498 201.918 277.914 201.99 277.383 202.216C276.793 202.43 276.194 202.77 275.522 203.014C275.184 203.169 274.816 203.249 274.444 203.249C274.072 203.249 273.704 203.169 273.366 203.014C272.677 202.531 272.129 201.873 271.778 201.109C271.33 200.281 270.748 199.533 270.058 198.893C268.72 197.653 267.008 196.892 265.191 196.729C264.394 196.676 263.596 196.826 262.872 197.165C262.241 197.466 261.709 197.94 261.336 198.531C261.033 199.027 260.894 199.606 260.938 200.185C260.966 200.618 261.1 201.036 261.329 201.404C261.469 201.636 261.652 201.839 261.868 202.002C261.945 202.056 262.027 202.103 262.112 202.142C261.836 201.92 261.599 201.653 261.41 201.352C261.211 200.989 261.098 200.585 261.078 200.171C261.055 199.626 261.199 199.087 261.491 198.627C261.854 198.073 262.366 197.633 262.968 197.357C263.662 197.041 264.425 196.909 265.184 196.973C266.942 197.14 268.595 197.882 269.888 199.085C270.559 199.7 271.127 200.418 271.572 201.212C271.942 202.013 272.524 202.697 273.255 203.191C273.629 203.389 274.052 203.477 274.474 203.442C274.861 203.412 275.242 203.325 275.604 203.184C276.305 202.918 276.889 202.571 277.457 202.349C277.954 202.125 278.504 202.044 279.045 202.113C279.45 202.186 279.82 202.388 280.101 202.689C280.284 202.876 280.403 203.116 280.441 203.376C280.492 203.575 280.47 203.678 280.485 203.678Z" fill="#455A64"/>
</svg>
