<svg width="337" height="250" viewBox="0 0 337 250" fill="none" xmlns="http://www.w3.org/2000/svg">
<path d="M336.258 219.696H0.741821V219.864H336.258V219.696Z" fill="#EBEBEB"/>
<path d="M58.1666 226.084H35.942V226.252H58.1666V226.084Z" fill="#EBEBEB"/>
<path d="M121.412 224.266H98.2614V224.434H121.412V224.266Z" fill="#EBEBEB"/>
<path d="M88.9803 229.325H51.7916V229.493H88.9803V229.325Z" fill="#EBEBEB"/>
<path d="M301.921 229.943H272.939V230.111H301.921V229.943Z" fill="#EBEBEB"/>
<path d="M264.678 225.749H249.311V225.917H264.678V225.749Z" fill="#EBEBEB"/>
<path d="M194.879 228.44H132.016V228.607H194.879V228.44Z" fill="#EBEBEB"/>
<path d="M159.776 189.768H30.2064C29.1913 189.766 28.2185 189.362 27.5013 188.643C26.7842 187.925 26.3815 186.952 26.3815 185.936V3.79805C26.3903 2.78883 26.797 1.82385 27.5131 1.11272C28.2293 0.401585 29.1971 0.00172884 30.2064 0H159.776C160.792 0 161.767 0.403685 162.485 1.12225C163.204 1.84081 163.608 2.81539 163.608 3.8316V185.936C163.608 186.953 163.204 187.927 162.485 188.646C161.767 189.364 160.792 189.768 159.776 189.768ZM30.2064 0.134207C29.2358 0.135985 28.3056 0.522778 27.62 1.20969C26.9343 1.8966 26.5492 2.8275 26.5492 3.79805V185.936C26.5492 186.907 26.9343 187.838 27.62 188.525C28.3056 189.212 29.2358 189.599 30.2064 189.6H159.776C160.747 189.599 161.678 189.212 162.365 188.525C163.052 187.839 163.438 186.908 163.44 185.936V3.79805C163.438 2.82688 163.052 1.896 162.365 1.20928C161.678 0.52256 160.747 0.135981 159.776 0.134207H30.2064Z" fill="#EBEBEB"/>
<path d="M304.926 189.768H175.35C174.334 189.766 173.361 189.362 172.642 188.644C171.924 187.926 171.52 186.952 171.518 185.936V3.79805C171.529 2.78822 171.937 1.82325 172.654 1.1123C173.371 0.401351 174.34 0.00170999 175.35 0H304.926C305.934 0.00349239 306.9 0.404129 307.615 1.11507C308.33 1.82602 308.736 2.78999 308.744 3.79805V185.936C308.744 186.95 308.343 187.923 307.627 188.641C306.911 189.359 305.94 189.765 304.926 189.768ZM175.35 0.134207C174.379 0.135981 173.448 0.52256 172.761 1.20928C172.074 1.896 171.688 2.82688 171.686 3.79805V185.936C171.688 186.908 172.074 187.839 172.761 188.525C173.448 189.212 174.379 189.599 175.35 189.6H304.926C305.897 189.599 306.828 189.212 307.515 188.525C308.202 187.839 308.588 186.908 308.59 185.936V3.79805C308.588 2.82688 308.202 1.896 307.515 1.20928C306.828 0.52256 305.897 0.135981 304.926 0.134207H175.35Z" fill="#EBEBEB"/>
<path d="M89.5003 175.046H99.7067V135.502H89.5003V175.046Z" fill="#E6E6E6"/>
<path d="M61.8405 175.039H95.7075L100.821 128.758H66.9537L61.8405 175.039Z" fill="#F0F0F0"/>
<path d="M58.1686 175.039H93.1495L98.2628 128.758H63.2818L58.1686 175.039Z" fill="#F5F5F5"/>
<path d="M90.6264 171.395L94.9344 132.401H65.8116L61.5035 171.395H90.6264Z" fill="white"/>
<path d="M84.6195 161.94L84.8007 160.357C85.8811 150.573 79.768 141.856 71.8364 141.856L71.6619 143.447C70.5815 153.224 76.6879 161.94 84.6195 161.94Z" fill="#F5F5F5"/>
<path d="M73.0333 97.877L273.706 97.877V25.0967L73.0333 25.0967V97.877Z" fill="#E6E6E6"/>
<path d="M69.3832 97.877L272.002 97.877V25.0967L69.3832 25.0967V97.877Z" fill="#F0F0F0"/>
<path d="M73.0333 104.661L273.706 104.661V97.8767L73.0333 97.8767V104.661Z" fill="#E6E6E6"/>
<path d="M63.2943 104.661L265.913 104.661V97.8767L63.2943 97.8767V104.661Z" fill="#F0F0F0"/>
<path d="M266.884 92.7704V30.21L74.4859 30.21V92.7704L266.884 92.7704Z" fill="#FAFAFA"/>
<path d="M246.314 92.7704L221.305 30.21H199.355L224.364 92.7704H246.314Z" fill="white"/>
<path d="M137.927 92.7704L112.918 30.21H90.9615L115.971 92.7704H137.927Z" fill="white"/>
<path d="M219.646 92.7704L194.636 30.21H186.074L211.083 92.7704H219.646Z" fill="white"/>
<path d="M75.1412 92.7704V30.21H74.4903V92.7704H75.1412Z" fill="#E6E6E6"/>
<path d="M39.2465 219.696H69.3356V175.039H39.2465L39.2465 219.696Z" fill="#E6E6E6"/>
<path d="M42.274 219.696H39.2477V211.087H45.448L42.274 219.696Z" fill="#F0F0F0"/>
<path d="M123.573 219.696H153.662V175.039H123.573V219.696Z" fill="#E6E6E6"/>
<path d="M39.2478 214.415H126.22V175.046H39.2478V214.415Z" fill="#F0F0F0"/>
<path d="M123.193 219.696H126.22V211.087H120.019L123.193 219.696Z" fill="#F0F0F0"/>
<path d="M41.5964 193.392H123.872V177.502H41.5964V193.392Z" fill="#E6E6E6"/>
<path d="M77.2385 187.889H88.2099C90.5686 187.889 92.9025 187.408 95.0692 186.476C97.2359 185.544 99.1898 184.18 100.812 182.467H64.6432C66.2637 184.18 68.2164 185.544 70.3821 186.476C72.5477 187.408 74.8807 187.889 77.2385 187.889Z" fill="#F0F0F0"/>
<path d="M41.5964 211.845H123.872V195.955H41.5964V211.845Z" fill="#E6E6E6"/>
<path d="M77.2385 206.316H88.2099C90.5686 206.316 92.9025 205.835 95.0692 204.902C97.2359 203.97 99.1898 202.606 100.812 200.894H64.6432C66.2637 202.606 68.2164 203.971 70.3821 204.903C72.5477 205.835 74.8807 206.316 77.2385 206.316Z" fill="#F0F0F0"/>
<path d="M232.194 156.431C232.164 156.288 232.086 156.16 231.972 156.068C231.858 155.976 231.716 155.927 231.57 155.928H207.419C207.274 155.927 207.132 155.976 207.02 156.068C206.907 156.16 206.83 156.289 206.802 156.431L198.213 219.696H199.508L207.922 157.196H231.046L239.461 219.696H240.763L232.194 156.431Z" fill="#F0F0F0"/>
<path d="M278.981 156.431C278.951 156.288 278.873 156.16 278.759 156.068C278.645 155.976 278.503 155.927 278.357 155.928H254.199C254.053 155.927 253.911 155.976 253.797 156.068C253.683 156.16 253.605 156.288 253.575 156.431L245 219.696H246.295L254.709 157.196H277.84L286.255 219.696H287.55L278.981 156.431Z" fill="#F0F0F0"/>
<path d="M279.672 151.096H203.67C200.04 151.096 197.094 152.841 197.094 155.002V155.136C197.094 155.921 198.168 156.559 199.49 156.559H283.845C285.188 156.559 286.248 155.921 286.248 155.136V155.009C286.248 152.841 283.302 151.096 279.672 151.096Z" fill="#E0E0E0"/>
<path d="M284.321 119.779H234.067L226.787 149.459H277.04L284.321 119.779Z" fill="#E6E6E6"/>
<path d="M277.038 149.459L276.83 151.097H226.577L226.778 149.459H277.038Z" fill="#E6E6E6"/>
<path d="M282.775 119.779H232.521L225.234 149.459H275.488L282.775 119.779Z" fill="#F0F0F0"/>
<path d="M274.43 148.097L281.046 121.135H233.584L226.967 148.097H274.43Z" fill="white"/>
<path d="M262.396 149.459L262.195 151.097H206.855L207.056 149.459H262.396Z" fill="#F0F0F0"/>
<path d="M120.711 173.22H121.482C121.482 171.617 121.482 167.557 121.569 158.25C121.704 141.373 121.972 140.346 121.972 140.346L120.12 148.137C118.952 156.76 120.462 165.43 120.711 173.22Z" fill="#E6E6E6"/>
<path d="M119.171 146.956C116.487 143.782 110.817 142.856 104.985 142.064C102.697 141.756 111.025 146.983 115.051 150.694C118.198 153.579 120.211 154.378 121.09 157.25C121.526 153.666 121.466 149.707 119.171 146.956Z" fill="#E6E6E6"/>
<path d="M122.703 152.647C125.387 149.473 131.057 148.553 136.889 147.762C139.177 147.453 130.849 152.68 126.823 156.391C123.676 159.277 121.656 160.075 120.784 162.947C120.334 159.364 120.408 155.385 122.703 152.647Z" fill="#E6E6E6"/>
<path d="M121.56 139.575C123.573 135.777 128.586 132.194 134.223 130.851C136.437 130.321 129.096 137.857 126.304 142.722C124.137 146.493 121.258 150.935 120.815 154.13C120.138 147.835 119.567 143.393 121.56 139.575Z" fill="#E6E6E6"/>
<path d="M121.328 175.039C118.953 175.039 116.98 173.851 116.846 172.321L116.45 169.718H126.227L125.831 172.321C125.677 173.851 123.71 175.039 121.328 175.039Z" fill="#F0F0F0"/>
<path d="M126.836 170.718H115.818L115.503 167.812H127.152L126.836 170.718Z" fill="#F0F0F0"/>
<path d="M168.5 250C240.356 250 298.606 246.599 298.606 242.404C298.606 238.208 240.356 234.808 168.5 234.808C96.6439 234.808 38.3932 238.208 38.3932 242.404C38.3932 246.599 96.6439 250 168.5 250Z" fill="#F5F5F5"/>
<path d="M209.616 231.493L204.516 230.245L206.039 218.099L211.146 219.347L209.616 231.493Z" fill="#FFB573"/>
<path d="M254.067 237.042H248.813L244.726 224.876H249.974L254.067 237.042Z" fill="#FFB573"/>
<path d="M248.114 236.431H254.515C254.619 236.432 254.72 236.467 254.802 236.531C254.883 236.596 254.941 236.686 254.965 236.787L256.005 241.484C256.029 241.598 256.027 241.716 256 241.829C255.972 241.942 255.919 242.048 255.845 242.137C255.771 242.227 255.677 242.299 255.571 242.347C255.465 242.396 255.35 242.42 255.233 242.417C253.173 242.383 251.67 242.263 249.073 242.263C247.476 242.263 242.665 242.43 240.457 242.43C238.249 242.43 237.967 240.25 238.867 240.048C242.893 239.169 245.966 237.948 247.261 236.78C247.492 236.562 247.796 236.438 248.114 236.431Z" fill="#263238"/>
<path d="M204.731 229.668L210.301 231.01C210.402 231.035 210.491 231.094 210.555 231.177C210.618 231.26 210.651 231.362 210.65 231.466L210.549 236.25C210.548 236.366 210.52 236.48 210.468 236.583C210.417 236.686 210.342 236.776 210.25 236.846C210.158 236.916 210.051 236.964 209.938 236.986C209.825 237.009 209.708 237.005 209.596 236.975C207.583 236.452 204.718 235.633 202.215 235.009C199.262 234.284 196.672 233.821 193.21 232.996C191.116 232.486 191.049 230.225 191.975 230.251C196.176 230.352 199.464 231.057 203.429 229.768C203.846 229.616 204.296 229.581 204.731 229.668Z" fill="#263238"/>
<path d="M230.156 79.1415C229.794 80.2285 229.445 81.1545 229.049 82.1544C228.653 83.1542 228.257 84.0937 227.835 85.0533C226.996 86.9724 226.063 88.8513 225.043 90.7168C224.011 92.6031 222.868 94.427 221.621 96.179C220.317 98.0354 218.819 99.7473 217.152 101.286C216.702 101.681 216.253 102.077 215.749 102.446C215.481 102.641 215.286 102.802 214.957 103.01C214.646 103.22 214.323 103.412 213.991 103.587C212.598 104.328 211.04 104.704 209.462 104.681C208.014 104.649 206.587 104.325 205.268 103.728C204.129 103.209 203.057 102.556 202.074 101.782C200.329 100.374 198.773 98.7483 197.444 96.944C196.773 96.085 196.209 95.1858 195.645 94.2598C195.073 93.3494 194.551 92.4085 194.082 91.4415L197.437 89.3613C198.014 90.0323 198.678 90.7839 199.322 91.4683C199.967 92.1528 200.664 92.8104 201.336 93.4814C202.623 94.718 204.043 95.8094 205.57 96.7359C206.986 97.5747 208.428 97.9908 209.321 97.8499C209.755 97.784 210.169 97.6187 210.529 97.3667C210.634 97.2971 210.735 97.2209 210.831 97.1385C210.918 97.0714 211.106 96.9037 211.233 96.7896C211.542 96.5288 211.835 96.251 212.112 95.9575C214.394 93.5687 216.36 90.3141 218.071 86.9724C218.937 85.2881 219.735 83.5501 220.514 81.8055C220.896 80.9264 221.272 80.0406 221.628 79.1549C221.983 78.2691 222.346 77.3431 222.648 76.5378L230.156 79.1415Z" fill="#FFB573"/>
<path d="M232.291 76.5581C233.411 81.45 222.681 93.9714 222.681 93.9714L213.032 86.9122C215.167 82.8459 217.734 79.0213 220.688 75.5046C225.11 70.5457 231.049 71.1899 232.291 76.5581Z" fill="#01966B"/>
<path opacity="0.2" d="M221.507 84.7649C220.467 86.8304 219.571 88.9648 218.823 91.1531L222.681 93.9714C222.681 93.9714 229.056 86.5431 231.458 80.8863C228.56 78.3968 224.03 79.8126 221.507 84.7649Z" fill="black"/>
<path d="M197.955 90.1063L195.506 86.825L191.352 91.7235C191.352 91.7235 193.869 94.2466 196.982 93.2602L197.955 90.1063Z" fill="#FFB573"/>
<path d="M190.037 85.0198L188.662 90.643L191.353 91.7234L195.506 86.8249L190.037 85.0198Z" fill="#FFB573"/>
<path opacity="0.2" d="M206.044 218.099L205.258 224.366L210.365 225.608L211.15 219.347L206.044 218.099Z" fill="black"/>
<path opacity="0.2" d="M249.98 224.876H244.726L246.833 231.15H252.087L249.98 224.876Z" fill="black"/>
<path d="M255.792 75.8266C253.89 81.385 252.405 87.0778 251.35 92.8574C250.592 96.8836 250.008 100.742 249.632 104.265C248.666 112.478 248.445 118.773 248.062 120.886L220.221 117.135C218.335 87.0731 226.596 72.1762 226.596 72.1762C228.833 71.9028 231.086 71.7705 233.34 71.7803C233.816 71.7803 234.299 71.7803 234.789 71.8138C238.762 72.1164 242.714 72.6473 246.626 73.4042C247.371 73.5451 248.122 73.6994 248.847 73.8672C252.551 74.706 255.792 75.8266 255.792 75.8266Z" fill="#01966B"/>
<path opacity="0.2" d="M235.207 79.6649C230.107 78.9939 227.825 80.4701 227.416 82.349C225.779 89.6767 231.442 96.5011 231.442 96.5011C231.442 96.5011 239.756 91.4617 241.394 84.134C241.816 82.2551 240.3 80.3158 235.207 79.6649Z" fill="black"/>
<path d="M232.01 93.9445C230.614 91.7905 228.185 87.2342 229.218 82.537C229.413 81.6847 231.386 81.0473 234.788 81.4834C238.19 81.9196 239.774 83.0134 239.586 83.8656C238.546 88.5763 234.258 92.2736 232.01 93.9445Z" fill="white"/>
<path opacity="0.2" d="M251.351 92.8574C250.593 96.8836 250.009 100.742 249.633 104.265L245.869 95.555L251.351 92.8574Z" fill="black"/>
<path d="M247.249 59.9097C245.987 63.6138 244.303 70.4919 246.625 73.3907C245.29 74.4627 243.741 75.2351 242.082 75.6554C240.423 76.0757 238.693 76.134 237.009 75.8266C233.741 75.3166 233.889 73.0015 234.788 71.8339C239.17 71.391 239.485 68.2238 239.149 65.1639L247.249 59.9097Z" fill="#FFB573"/>
<path opacity="0.2" d="M243.948 62.0435L239.15 65.1302C239.24 65.8422 239.267 66.5608 239.231 67.2775C240.888 67.2775 243.357 65.7811 243.753 64.1102C243.941 63.4384 244.006 62.7385 243.948 62.0435Z" fill="black"/>
<path d="M237.612 45.0262C233.545 44.6973 232.136 54.4944 234.672 56.3733C237.209 58.2522 245.228 45.6301 237.612 45.0262Z" fill="#263238"/>
<path d="M248.48 54.2395C247.467 59.3527 247.138 62.3992 244.172 64.6941C239.716 68.1433 233.67 64.929 233.133 59.6144C232.65 54.83 234.388 47.2741 239.71 45.8985C240.882 45.59 242.115 45.5865 243.289 45.8884C244.464 46.1903 245.542 46.7875 246.421 47.6233C247.3 48.4591 247.95 49.5057 248.31 50.6637C248.671 51.8216 248.729 53.0526 248.48 54.2395Z" fill="#FFB573"/>
<path d="M247.429 59.2453C244.912 60.8155 242.785 45.1134 249.475 47.1667C260.34 50.5286 250.428 57.3798 247.429 59.2453Z" fill="#263238"/>
<path d="M247.443 50.0791C245.92 48.2002 236.66 49.3342 232.392 46.536C228.124 43.7378 230.828 37.5844 238.639 38.5775C235.002 39.0003 235.667 42.0334 238.163 42.0065C240.659 41.9797 246.403 38.8862 248.899 41.5234C252.382 45.1872 254.127 43.0131 255.865 45.0933C258.415 48.0861 250.745 54.1656 247.443 50.0791Z" fill="#263238"/>
<path d="M250.035 60.2385C249.618 60.737 249.107 61.1483 248.532 61.4488C247.956 61.7494 247.326 61.9333 246.679 61.9899C244.948 62.1375 244.405 60.5069 245.163 59.0441C245.834 57.702 247.565 56.0647 249.189 56.6082C250.813 57.1517 251.034 58.9904 250.035 60.2385Z" fill="#FFB573"/>
<path d="M203.632 222.716L212.275 224.796C212.275 224.796 217.844 195.358 220.428 179.166C221.213 174.247 222.964 167.443 225.085 160.175C227.769 151.023 231.01 141.145 233.647 133.421C236.432 125.282 238.519 119.524 238.519 119.524L220.22 117.062C220.22 117.062 206.275 159.867 204.732 175.81C203.068 192.405 203.632 222.716 203.632 222.716Z" fill="#263238"/>
<path opacity="0.2" d="M225.083 160.229C227.768 151.076 231.009 141.199 233.646 133.475L232.002 129.241C227.09 134.367 224.788 151.063 225.083 160.229Z" fill="black"/>
<path d="M230.091 118.444C230.091 118.444 229.185 163.45 230.419 178.79C231.761 195.566 244.363 229.936 244.363 229.936H253.986C253.986 229.936 247.564 198.498 245.598 182.185C243.357 163.598 248.054 120.866 248.054 120.866L230.091 118.444Z" fill="#263238"/>
<path d="M243.215 230.144H254.542V226.762L241.88 226.541L243.215 230.144Z" fill="#01966B"/>
<path d="M202.499 222.655L212.792 225.172L213.604 221.843L202.143 218.857L202.499 222.655Z" fill="#01966B"/>
<path d="M240.458 54.6287C240.404 55.0447 240.135 55.3534 239.86 55.2997C239.585 55.2461 239.404 54.8904 239.464 54.4744C239.525 54.0583 239.786 53.7429 240.062 53.8033C240.337 53.8637 240.511 54.206 240.458 54.6287Z" fill="#263238"/>
<path d="M235.717 53.9847C235.656 54.4074 235.388 54.7161 235.113 54.6557C234.838 54.5953 234.663 54.2464 234.723 53.8236C234.784 53.4009 235.046 53.0922 235.321 53.1526C235.596 53.213 235.77 53.5686 235.717 53.9847Z" fill="#263238"/>
<path d="M237.191 54.4006C236.521 55.629 235.683 56.7582 234.702 57.7558C234.96 58.004 235.269 58.1927 235.607 58.3086C235.946 58.4245 236.305 58.4649 236.661 58.4268L237.191 54.4006Z" fill="#ED893E"/>
<path d="M238.286 59.7216C238.102 59.7211 237.918 59.7076 237.736 59.6814C237.719 59.6797 237.703 59.6747 237.689 59.6666C237.674 59.6586 237.661 59.6476 237.651 59.6343C237.641 59.6211 237.634 59.6059 237.63 59.5898C237.626 59.5736 237.626 59.5568 237.628 59.5404C237.631 59.5245 237.636 59.5092 237.645 59.4954C237.653 59.4817 237.664 59.4697 237.678 59.4603C237.691 59.451 237.706 59.4443 237.721 59.4408C237.737 59.4372 237.753 59.4369 237.769 59.4398C238.29 59.5209 238.823 59.4781 239.324 59.3149C239.826 59.1517 240.281 58.8726 240.655 58.5003C240.678 58.4782 240.71 58.4658 240.742 58.4658C240.774 58.4658 240.806 58.4782 240.829 58.5003C240.841 58.5116 240.85 58.5251 240.857 58.5401C240.863 58.5551 240.866 58.5713 240.866 58.5876C240.866 58.6039 240.863 58.62 240.857 58.635C240.85 58.65 240.841 58.6635 240.829 58.6748C240.498 59.0125 240.102 59.2794 239.665 59.4593C239.228 59.6393 238.759 59.7285 238.286 59.7216Z" fill="#263238"/>
<path d="M242.129 53.2934C242.085 53.2937 242.042 53.282 242.004 53.2596C241.966 53.2371 241.935 53.2047 241.914 53.1659C241.767 52.8904 241.557 52.653 241.302 52.4724C241.047 52.2919 240.754 52.1732 240.445 52.1258C240.412 52.1241 240.38 52.116 240.351 52.1019C240.321 52.0878 240.295 52.068 240.273 52.0437C240.251 52.0194 240.234 51.991 240.224 51.9602C240.213 51.9294 240.208 51.8967 240.21 51.8641C240.215 51.7989 240.245 51.7381 240.294 51.6944C240.343 51.6506 240.406 51.6273 240.472 51.6293C240.864 51.68 241.238 51.8233 241.563 52.0473C241.889 52.2714 242.156 52.5697 242.344 52.9176C242.361 52.9462 242.371 52.9778 242.376 53.0106C242.38 53.0433 242.378 53.0766 242.369 53.1085C242.36 53.1404 242.345 53.1702 242.325 53.1962C242.304 53.2222 242.279 53.2438 242.25 53.2599C242.213 53.2802 242.171 53.2917 242.129 53.2934Z" fill="#263238"/>
<path d="M233.887 52.0787C233.837 52.0779 233.789 52.064 233.746 52.0384C233.692 52.0004 233.654 51.9427 233.642 51.8775C233.629 51.8124 233.643 51.7449 233.679 51.6895C233.891 51.3561 234.179 51.0782 234.52 50.8786C234.861 50.679 235.244 50.5636 235.639 50.542C235.704 50.542 235.768 50.5681 235.814 50.6147C235.861 50.6613 235.887 50.7244 235.887 50.7903C235.887 50.8561 235.861 50.9193 235.814 50.9658C235.768 51.0124 235.704 51.0385 235.639 51.0385C235.326 51.0567 235.022 51.1504 234.753 51.3117C234.484 51.4729 234.258 51.697 234.095 51.9646C234.073 51.9994 234.042 52.0281 234.006 52.0481C233.969 52.068 233.929 52.0785 233.887 52.0787Z" fill="#263238"/>
<path d="M246.377 237.351C246.019 237.378 245.662 237.283 245.364 237.083C245.269 237.001 245.196 236.897 245.151 236.78C245.107 236.662 245.092 236.536 245.109 236.412C245.108 236.338 245.128 236.266 245.166 236.203C245.204 236.141 245.258 236.09 245.324 236.056C245.901 235.761 247.599 236.801 247.786 236.922C247.809 236.934 247.826 236.953 247.837 236.976C247.848 236.998 247.851 237.024 247.847 237.049C247.842 237.073 247.831 237.095 247.815 237.113C247.798 237.131 247.776 237.144 247.753 237.15C247.303 237.268 246.842 237.336 246.377 237.351ZM245.599 236.264C245.546 236.252 245.491 236.252 245.438 236.264C245.412 236.279 245.391 236.3 245.377 236.326C245.363 236.353 245.356 236.382 245.357 236.412C245.344 236.495 245.353 236.58 245.382 236.658C245.412 236.737 245.461 236.807 245.525 236.861C246.112 237.13 246.78 237.164 247.39 236.955C246.844 236.611 246.235 236.376 245.599 236.264Z" fill="#01966B"/>
<path d="M247.728 237.163H247.668C247.124 236.868 246.071 235.714 246.185 235.15C246.202 235.057 246.251 234.974 246.324 234.914C246.396 234.854 246.487 234.821 246.581 234.821C246.676 234.811 246.771 234.82 246.862 234.847C246.954 234.875 247.038 234.921 247.111 234.982C247.722 235.485 247.842 236.995 247.849 237.062C247.851 237.084 247.847 237.106 247.837 237.126C247.828 237.146 247.814 237.164 247.795 237.176C247.772 237.178 247.749 237.173 247.728 237.163ZM246.668 235.036H246.608C246.447 235.036 246.433 235.13 246.427 235.163C246.359 235.512 247.03 236.378 247.574 236.787C247.537 236.189 247.32 235.615 246.95 235.143C246.872 235.074 246.772 235.036 246.668 235.036Z" fill="#01966B"/>
<path d="M204.02 230.245C203.154 230.211 201.644 230.057 201.201 229.419C201.138 229.327 201.098 229.221 201.084 229.11C201.07 229 201.083 228.887 201.121 228.782C201.14 228.716 201.177 228.656 201.226 228.608C201.275 228.559 201.336 228.525 201.403 228.507C202.107 228.306 203.899 229.849 204.087 230.03C204.104 230.049 204.116 230.071 204.122 230.096C204.128 230.121 204.127 230.147 204.12 230.171C204.111 230.191 204.097 230.208 204.08 230.221C204.062 230.234 204.041 230.242 204.02 230.245ZM201.503 228.735H201.45C201.424 228.741 201.4 228.755 201.381 228.774C201.362 228.793 201.349 228.816 201.342 228.842C201.317 228.912 201.308 228.987 201.318 229.06C201.327 229.134 201.354 229.204 201.396 229.265C201.644 229.621 202.47 229.876 203.644 229.936C202.926 229.393 201.919 228.701 201.503 228.735Z" fill="#01966B"/>
<path d="M204.022 230.245C203.994 230.255 203.963 230.255 203.935 230.245C203.384 229.815 202.438 228.413 202.666 227.862C202.727 227.728 202.861 227.587 203.203 227.634C203.326 227.648 203.445 227.689 203.552 227.752C203.658 227.816 203.75 227.901 203.82 228.003C204.344 228.674 204.143 230.104 204.136 230.164C204.132 230.185 204.122 230.205 204.108 230.221C204.094 230.238 204.076 230.25 204.055 230.258L204.022 230.245ZM203.035 227.856C202.928 227.856 202.908 227.916 202.901 227.936C202.76 228.272 203.378 229.339 203.914 229.869C203.994 229.274 203.893 228.668 203.626 228.131C203.573 228.056 203.505 227.993 203.426 227.946C203.348 227.899 203.26 227.868 203.17 227.856H203.035Z" fill="#01966B"/>
<path d="M258.696 81.9397C258.609 82.9328 258.515 83.785 258.388 84.6909C258.26 85.5968 258.126 86.4758 257.978 87.375C257.676 89.1533 257.307 90.9181 256.878 92.6762C256.448 94.4343 255.958 96.1924 255.361 97.9371C254.779 99.7133 254.089 101.452 253.294 103.144L252.67 104.426L252.63 104.506L252.543 104.668L252.362 104.99C252.232 105.199 252.091 105.4 251.939 105.594C251.649 105.963 251.32 106.3 250.959 106.6C250.344 107.106 249.651 107.507 248.906 107.788C248.3 108.013 247.676 108.184 247.04 108.298C244.998 108.598 242.921 108.57 240.887 108.217C237.273 107.618 233.746 106.577 230.385 105.117L231.506 101.326C233.137 101.541 234.861 101.755 236.498 101.889C238.136 102.024 239.8 102.144 241.377 102.131C242.788 102.169 244.197 102.011 245.564 101.661C246.088 101.507 246.416 101.239 246.329 101.245C246.294 101.255 246.262 101.274 246.235 101.299L246.175 101.366L246.141 101.406V101.339L246.564 100.252C247.658 97.2088 248.517 94.0861 249.134 90.9114C249.483 89.2942 249.758 87.6568 250.04 86.0262C250.179 85.2076 250.306 84.3889 250.422 83.5703L250.751 81.168L258.696 81.9397Z" fill="#FFB573"/>
<path d="M259.664 78.8059C262.596 82.879 259.207 95.434 259.207 95.434L245.424 95.8769C245.424 95.8769 246.545 87.6031 248.585 81.4363C250.799 74.726 256.101 73.8738 259.664 78.8059Z" fill="#01966B"/>
<path d="M232.152 101.48L227.314 99.239V105.949C227.314 105.949 231.857 106.949 232.649 104.607L232.152 101.48Z" fill="#FFB573"/>
<path d="M223.032 100.205L223.273 105.755L227.286 105.943L227.313 99.239L223.032 100.205Z" fill="#FFB573"/>
<path d="M204.414 144.225H76.166C74.4939 144.196 72.8919 143.548 71.6697 142.407C70.4476 141.265 69.6922 139.711 69.5496 138.045L63.819 56.2592C63.7516 55.4675 63.8505 54.6704 64.1094 53.9192C64.3684 53.168 64.7816 52.4792 65.3225 51.8972C65.8635 51.3152 66.5202 50.8527 67.2505 50.5396C67.9808 50.2265 68.7685 50.0696 69.5631 50.079H197.784C199.456 50.1093 201.057 50.7576 202.279 51.8989C203.501 53.0402 204.256 54.5935 204.4 56.2592L210.158 138.045C210.225 138.836 210.126 139.634 209.867 140.385C209.609 141.136 209.195 141.825 208.654 142.407C208.113 142.989 207.457 143.451 206.726 143.764C205.996 144.077 205.208 144.234 204.414 144.225Z" fill="#263238"/>
<path d="M241.101 210.973H96.594C92.7624 210.973 88.8973 208.497 88.0182 205.497L71.2827 148.62C70.5646 146.191 72.7723 144.225 76.1678 144.225H204.416C207.818 144.225 211.703 146.191 213.065 148.62L245 205.497C246.677 208.497 244.933 210.973 241.101 210.973Z" fill="#263238"/>
<path d="M205.959 144.225H77.7175C76.045 144.198 74.4421 143.55 73.2197 142.409C71.9972 141.267 71.2423 139.712 71.1011 138.045L65.337 56.2594C65.2706 55.4679 65.3702 54.6712 65.6296 53.9205C65.8889 53.1697 66.3021 52.4814 66.8429 51.8996C67.3836 51.3178 68.0399 50.8553 68.7697 50.5419C69.4995 50.2284 70.2868 50.0708 71.081 50.0792H199.329C201.001 50.108 202.603 50.7558 203.825 51.8973C205.047 53.0389 205.803 54.5931 205.945 56.2594L211.709 138.045C211.776 138.837 211.676 139.634 211.416 140.385C211.157 141.137 210.743 141.825 210.201 142.407C209.66 142.989 209.003 143.451 208.272 143.764C207.541 144.078 206.753 144.234 205.959 144.225Z" fill="#01966B"/>
<path d="M78.7636 139.078C78.1033 139.064 77.4712 138.807 76.9884 138.357C76.5056 137.906 76.2058 137.293 76.1465 136.636L70.5837 57.6684C70.5575 57.3561 70.5968 57.0418 70.6993 56.7456C70.8017 56.4494 70.965 56.1779 71.1786 55.9485C71.3922 55.7191 71.6513 55.5369 71.9395 55.4137C72.2276 55.2904 72.5384 55.2287 72.8518 55.2326H198.281C198.939 55.2479 199.569 55.5045 200.05 55.9536C200.531 56.4027 200.831 57.013 200.892 57.6684L206.454 136.636C206.481 136.948 206.441 137.263 206.339 137.559C206.236 137.856 206.073 138.128 205.86 138.358C205.646 138.588 205.387 138.77 205.099 138.895C204.811 139.019 204.5 139.081 204.186 139.078H78.7636Z" fill="white"/>
<path opacity="0.2" d="M136.105 53.491C136.458 53.1258 136.426 52.523 136.034 52.1445C135.643 51.766 135.039 51.7551 134.686 52.1203C134.333 52.4855 134.365 53.0883 134.757 53.4668C135.149 53.8453 135.752 53.8562 136.105 53.491Z" fill="black"/>
<path d="M242.649 210.973H98.135C94.3034 210.973 90.445 208.497 89.5592 205.497L72.8237 148.62C72.1124 146.191 74.3133 144.225 77.7155 144.225H205.957C209.359 144.225 213.244 146.191 214.606 148.62L246.534 205.497C248.218 208.497 246.48 210.973 242.649 210.973Z" fill="#01966B"/>
<path opacity="0.2" d="M90.3538 180.595C88.9178 180.595 87.4751 179.709 87.1463 178.636L78.3289 149.64C78.0336 148.681 78.8993 147.896 80.2548 147.896H206.55C207.218 147.895 207.876 148.053 208.471 148.356C209.066 148.659 209.58 149.099 209.972 149.64L225.976 178.649C226.567 179.723 225.882 180.608 224.446 180.608L90.3538 180.595Z" fill="black"/>
<path opacity="0.2" d="M148.208 205.913C147.78 205.914 147.361 205.798 146.994 205.578C146.628 205.358 146.328 205.043 146.128 204.665L138.746 185.769C138.498 185.131 138.981 184.608 139.827 184.608H178.411C178.827 184.607 179.236 184.714 179.6 184.917C179.963 185.121 180.267 185.414 180.485 185.769L189.255 204.665C189.577 205.336 189.121 205.913 188.249 205.913H148.208Z" fill="black"/>
<path d="M75.4994 127.449L78.6667 121.168H89.1281L92.074 125.705L95.0198 130.234L92.7316 134.763L90.5574 139.078H90.7923L92.9195 134.864L95.2077 130.335H105.669L108.615 134.871L111.346 139.078H111.601L108.776 134.757L105.83 130.221L108.118 125.698L110.407 121.168H120.855L123.8 125.705L126.746 130.234L124.465 134.763L122.284 139.078H122.519L124.653 134.864L126.934 130.335H137.396L140.341 134.871L143.072 139.078H143.327L140.523 134.757L137.63 130.221L139.912 125.698L142.2 121.168H152.655L155.601 125.705L158.546 130.234L156.265 134.763L154.084 139.078H154.319L156.419 134.878L158.701 130.348H169.169L172.115 134.884L174.846 139.092H175.101L172.296 134.77L169.35 130.234L171.632 125.711L173.92 121.182H184.381L187.327 125.718L190.273 130.247L187.958 134.763L185.777 139.078H186.019L188.146 134.864L190.427 130.335H200.909L203.855 134.871L206.002 138.172L206.136 137.991L204.063 134.757L201.117 130.221L203.398 125.698L205.411 121.672V121.262L203.231 125.584L200.942 130.113H190.441L187.495 125.577L184.549 121.048L186.837 116.518L189.119 111.995H199.58L205.344 120.86L205.311 120.424L199.761 111.881L204.103 103.279V102.863L199.6 111.781H189.112L186.166 107.251L183.22 102.715L185.509 98.1922L187.797 93.6627H198.251L204.063 102.608L204.029 102.171L198.439 93.5621L202.815 84.899V84.4897L198.278 93.4681H187.79L184.844 88.9319L181.919 84.4025L184.2 79.873L186.488 75.3502H196.95L202.788 84.3354V83.8992L197.151 75.2362L201.56 66.5127V66.1034L196.916 75.1556H186.461L183.516 70.6195L180.576 66.0699L182.858 61.5404L185.139 57.0377H195.601L198.547 61.5672L201.479 66.09V65.6538L198.694 61.4397L195.749 56.9035L196.594 55.2327H196.359L195.567 56.8029H185.133L184.106 55.2327H183.858L184.952 56.917L182.663 61.4464L180.382 65.9692H169.92L166.975 61.4397L164.029 56.9035L164.874 55.2327H164.639L163.841 56.8029H153.386L152.393 55.2327H152.145L153.239 56.917L150.95 61.4464L148.669 65.9692H138.174L135.228 61.4397L132.262 56.9035L133.108 55.2327H132.873L132.074 56.8029H121.633L120.613 55.2327H120.358L121.458 56.917L119.17 61.4464L116.889 65.9692H106.427L103.482 61.4397L100.536 56.9035L101.381 55.2327H101.146L100.348 56.8029H89.8864L88.8664 55.2327H88.645L89.7455 56.917L87.4572 61.4464L85.169 65.9692H74.6808L70.7418 59.9299V60.3661L74.4728 66.1034L71.5538 71.881L71.5873 72.2903L74.6607 66.2041H85.1221L88.0612 70.7335L91.007 75.2697L88.7255 79.7925L86.4373 84.3219H76.0027L73.0636 79.7858L72.0302 78.1954V78.6316L72.8556 79.8998L75.8014 84.4293L73.5132 88.9588L72.8422 90.3008V90.7102L73.6608 89.0863L75.949 84.5568H86.4037L89.3496 89.093L92.2954 93.6225L90.0139 98.1519L87.7257 102.675H77.3314L74.3855 98.1452L73.3119 96.4945V96.9239L74.1775 98.266L77.1233 102.795L74.8351 107.318L74.1641 108.701V109.11L75.0163 107.419L77.3045 102.896H87.7592L90.7051 107.426L93.6509 111.962L91.3694 116.485L89.0811 121.014H78.66L74.6003 114.747L74.6338 115.183L78.4855 121.108L75.4726 127.073L75.4994 127.449ZM120.855 120.96H110.407L107.434 116.424L104.495 111.895L106.776 107.365L109.065 102.842H119.519L122.465 107.372L125.411 111.908L123.129 116.431L120.855 120.96ZM166.485 93.448H156.037L153.064 88.9319L150.118 84.4025L152.407 79.873L154.695 75.3502H165.149L168.095 79.8797L171.041 84.4092L168.76 88.9386L166.485 93.448ZM166.485 93.656L169.431 98.1922L172.376 102.722L170.095 107.244L167.827 111.794H157.365L154.406 107.265L151.46 102.728L153.749 98.2056L156.03 93.6761L166.485 93.656ZM152.896 89.0259L155.842 93.5554L153.554 98.0848L151.266 102.608H140.831L137.885 98.0781L134.946 93.5621L137.228 89.0393L139.516 84.5098H149.977L152.896 89.0259ZM140.65 102.742L138.362 107.265L136.08 111.794H125.619L122.673 107.265L119.727 102.728L122.015 98.2056L124.297 93.6761H134.758L137.704 98.2123L140.65 102.742ZM137.04 88.9386L134.752 93.4681H124.29L121.344 88.9319L118.399 84.4025L120.687 79.873L122.968 75.3502H133.43L136.376 79.8797L139.321 84.4092L137.04 88.9386ZM121.17 89.046L124.109 93.5755L121.828 98.105L119.512 102.628H109.085L106.139 98.0982L103.193 93.5621L105.474 89.0393L107.763 84.5098H118.224L121.17 89.046ZM139.69 125.597L137.409 130.127H126.948L124.002 125.59L121.056 121.061L123.344 116.532L125.626 112.009H136.087L139.033 116.538L141.979 121.074L139.69 125.597ZM152.615 120.96H142.16L139.214 116.424L136.288 111.895L138.57 107.365L140.858 102.842H151.319L154.265 107.372L157.204 111.908L154.923 116.431L152.615 120.96ZM171.403 125.597L169.122 130.127H158.694L155.748 125.59L152.802 121.061L155.091 116.532L157.372 112.009H167.827L170.773 116.538L173.719 121.074L171.403 125.597ZM185.992 107.365L188.938 111.901L186.649 116.424L184.361 120.954H173.906L170.961 116.417L168.015 111.888L170.296 107.359L172.584 102.836H183.046L185.992 107.365ZM184.65 89.0393L187.595 93.5688L185.307 98.0982L183.026 102.621H172.578L169.632 98.0915L166.686 93.5554L168.974 89.0326L171.256 84.5031H181.717L184.65 89.0393ZM169.887 66.1772H180.348L183.294 70.7067L186.24 75.2429L183.952 79.7656L181.67 84.2951H171.249L168.303 79.7589L165.357 75.2294L167.646 70.7L169.887 66.1772ZM151.098 61.5337L153.386 57.0109H163.848L166.787 61.5404L169.733 66.0766L167.451 70.5993L165.143 75.1556H154.708L151.769 70.6195L148.823 66.09L151.098 61.5337ZM138.174 66.1772H148.635L151.581 70.7067L154.527 75.2429L152.239 79.7656L149.957 84.2951H139.503L136.557 79.7589L133.604 75.2362L135.886 70.7067L138.174 66.1772ZM119.385 61.5337L121.673 57.0109H132.128L135.074 61.5404L138.02 66.0766L135.738 70.5993L133.423 75.1556H122.962L120.016 70.6195L117.07 66.09L119.385 61.5337ZM106.461 66.1772H116.895L119.841 70.7067L122.787 75.2429L120.499 79.7656L118.211 84.2951H107.756L104.81 79.7589L101.864 75.2294L104.146 70.7L106.461 66.1772ZM88.296 70.5926L85.3502 66.0631L87.6384 61.5337L89.9199 57.0109H100.381L103.327 61.5404L106.273 66.0766L103.985 70.5993L101.703 75.1288H91.215L88.296 70.5926ZM89.6381 88.9252L86.6319 84.4025L88.9201 79.873L91.2016 75.3502H101.663L104.609 79.8797L107.555 84.4092L105.266 88.9386L102.985 93.4681H92.5437L89.6381 88.9252ZM90.9802 107.258L87.9739 102.728L90.2622 98.2056L92.5437 93.6761H103.005L105.951 98.2123L108.897 102.742L106.609 107.265L104.327 111.794H93.8723L90.9802 107.258ZM91.6512 116.525L93.9394 112.002H104.401L107.347 116.532L110.292 121.068L108.004 125.59L105.723 130.12H95.201L92.2551 125.584L89.316 121.061L91.6512 116.525Z" fill="#E0E0E0"/>
<path d="M79.8541 139.078L75.8883 132.979L75.9151 133.415L79.5991 139.078H79.8541Z" fill="#E0E0E0"/>
<path d="M165.254 130.751H118.845C117.913 130.738 117.019 130.374 116.341 129.733C115.664 129.092 115.252 128.219 115.188 127.288L113.41 95.3604C113.381 94.9144 113.443 94.4672 113.594 94.0467C113.746 93.6261 113.982 93.2413 114.289 92.9163C114.596 92.5913 114.966 92.3331 115.377 92.1578C115.788 91.9826 116.231 91.8941 116.678 91.8978H163.1C164.032 91.9109 164.925 92.2744 165.602 92.916C166.278 93.5575 166.688 94.4302 166.75 95.3604L168.502 127.288C168.531 127.732 168.469 128.178 168.319 128.597C168.169 129.016 167.935 129.4 167.63 129.725C167.325 130.049 166.957 130.308 166.549 130.485C166.14 130.661 165.699 130.752 165.254 130.751Z" fill="#01966B"/>
<path opacity="0.2" d="M116.668 91.9315C116.221 91.9278 115.779 92.0163 115.367 92.1915C114.956 92.3668 114.586 92.625 114.279 92.95C113.972 93.275 113.736 93.6598 113.585 94.0803C113.434 94.5009 113.371 94.9481 113.4 95.394L115.179 127.322C115.242 128.253 115.654 129.125 116.331 129.767C117.009 130.408 117.903 130.771 118.836 130.784H142.04L139.879 91.9315H116.668Z" fill="black"/>
<path opacity="0.2" d="M137.333 121.591L137.87 111.445C137.063 110.94 136.387 110.251 135.897 109.434C135.407 108.618 135.117 107.698 135.051 106.748C135.001 106.016 135.103 105.283 135.351 104.593C135.599 103.903 135.988 103.272 136.493 102.74C136.997 102.208 137.607 101.787 138.283 101.503C138.959 101.22 139.686 101.079 140.419 101.091C141.931 101.112 143.38 101.7 144.479 102.737C145.579 103.774 146.249 105.186 146.358 106.694C146.416 107.608 146.236 108.522 145.835 109.345C145.434 110.169 144.825 110.874 144.07 111.391L145.727 121.537L137.333 121.591Z" fill="black"/>
<path d="M145.484 106.694C145.399 105.408 144.833 104.202 143.897 103.316C142.961 102.43 141.726 101.93 140.438 101.916C139.82 101.909 139.209 102.03 138.64 102.271C138.072 102.512 137.56 102.869 137.137 103.318C136.713 103.766 136.387 104.298 136.179 104.879C135.971 105.46 135.886 106.078 135.928 106.694C135.987 107.59 136.281 108.454 136.78 109.2C137.28 109.946 137.967 110.547 138.773 110.942L138.263 120.685H144.705L143.115 110.942C143.878 110.539 144.509 109.923 144.929 109.169C145.349 108.415 145.542 107.555 145.484 106.694Z" fill="#263238"/>
<path d="M161.889 89.6096H155.749L155.373 82.9462C155.085 78.6457 153.188 74.6115 150.059 71.6469C146.93 68.6823 142.8 67.005 138.49 66.9488C136.424 66.9284 134.376 67.3353 132.475 68.1438C130.574 68.9523 128.86 70.1451 127.442 71.6472C126.024 73.1494 124.931 74.9284 124.233 76.8728C123.535 78.8172 123.246 80.885 123.385 82.9462L123.754 89.6096H117.614L117.245 82.9462C117.05 80.0929 117.448 77.2302 118.413 74.5381C119.379 71.846 120.89 69.3826 122.853 67.3029C124.817 65.2232 127.189 63.572 129.821 62.4533C132.453 61.3345 135.288 60.7724 138.148 60.8021C150.354 60.8021 160.835 70.7334 161.52 82.9462L161.889 89.6096Z" fill="#01966B"/>
</svg>
