<svg width="25" height="24" viewBox="0 0 25 24" fill="none" xmlns="http://www.w3.org/2000/svg">
<g clip-path="url(#clip0_1011_18660)">
<path d="M23.5921 9.91453L13.8027 9.91406C13.3704 9.91406 13.02 10.2644 13.02 10.6967V13.824C13.02 14.2561 13.3704 14.6066 13.8026 14.6066H19.3154C18.7118 16.1732 17.5851 17.4852 16.1476 18.3188L18.4983 22.388C22.269 20.2072 24.4983 16.3808 24.4983 12.0975C24.4983 11.4876 24.4533 11.0516 24.3634 10.5607C24.295 10.1877 23.9712 9.91453 23.5921 9.91453Z" fill="#167EE6"/>
<path d="M12.4983 19.3037C9.80047 19.3037 7.44528 17.8297 6.18036 15.6484L2.11133 17.9938C4.18203 21.5826 8.06112 23.9994 12.4983 23.9994C14.675 23.9994 16.729 23.4133 18.4983 22.3919V22.3863L16.1477 18.3171C15.0725 18.9408 13.8282 19.3037 12.4983 19.3037Z" fill="#12B347"/>
<path d="M18.498 22.3912V22.3856L16.1474 18.3164C15.0722 18.94 13.828 19.303 12.498 19.303V23.9986C14.6748 23.9986 16.7288 23.4126 18.498 22.3912Z" fill="#0F993E"/>
<path d="M5.1937 11.9983C5.1937 10.6685 5.55661 9.42442 6.18009 8.34925L2.11106 6.00391C1.08408 7.76767 0.498047 9.81602 0.498047 11.9983C0.498047 14.1806 1.08408 16.229 2.11106 17.9928L6.18009 15.6474C5.55661 14.5722 5.1937 13.3281 5.1937 11.9983Z" fill="#FFD500"/>
<path d="M12.4983 4.69566C14.2576 4.69566 15.8735 5.32078 17.1357 6.36061C17.4471 6.61711 17.8997 6.59859 18.185 6.31336L20.4007 4.09758C20.7244 3.77395 20.7013 3.24422 20.3556 2.94431C18.2408 1.10967 15.4893 0 12.4983 0C8.06112 0 4.18203 2.41673 2.11133 6.00558L6.18036 8.35092C7.44528 6.16969 9.80047 4.69566 12.4983 4.69566Z" fill="#FF4B26"/>
<path d="M17.1355 6.36061C17.4469 6.61711 17.8995 6.59859 18.1847 6.31336L20.4005 4.09758C20.7241 3.77395 20.701 3.24422 20.3553 2.94431C18.2406 1.10963 15.489 0 12.498 0V4.69566C14.2573 4.69566 15.8733 5.32078 17.1355 6.36061Z" fill="#D93F21"/>
</g>
<defs>
<clipPath id="clip0_1011_18660">
<rect width="24" height="24" fill="white" transform="translate(0.498047)"/>
</clipPath>
</defs>
</svg>
