<svg width="25" height="24" viewBox="0 0 25 24" fill="none" xmlns="http://www.w3.org/2000/svg">
<path d="M24.498 20.6667C24.498 22.508 23.006 24 21.1647 24H3.83138C1.99071 24 0.498047 22.508 0.498047 20.6667V3.33333C0.498047 1.492 1.99071 0 3.83138 0H21.1647C23.006 0 24.498 1.492 24.498 3.33333V20.6667Z" fill="#0078D4"/>
<path opacity="0.05" d="M16.4967 20.6654V13.9327C16.4967 12.8067 15.9507 12.134 15.0354 12.134C14.4921 12.134 14.0927 12.44 13.8494 13.0434C13.8381 13.086 13.8221 13.26 13.8287 13.786L13.8301 20.6654H9.16341V7.9987H13.8301V8.70603C14.5114 8.23603 15.3467 7.9987 16.3221 7.9987C19.3534 7.9987 21.1627 10.0607 21.1627 13.5147L21.1634 20.6654H16.4967ZM3.83008 20.6654V7.9987H6.13474C4.79941 7.9987 3.83008 7.01736 3.83008 5.6647C3.83008 4.31336 4.81541 3.33203 6.17274 3.33203C7.51408 3.33203 8.46941 4.28603 8.49675 5.65136C8.49675 7.01403 7.51074 7.9987 6.15341 7.9987H8.49675V20.6654H3.83008Z" fill="black"/>
<path opacity="0.07" d="M16.8307 20.3307V13.9314C16.8307 12.6161 16.1434 11.7994 15.0361 11.7994C14.1727 11.7994 13.7461 12.4074 13.5407 12.9174C13.4861 13.0501 13.4934 13.5767 13.4961 13.8014L13.4974 20.3307H9.4974V8.33073H13.4974V9.42273C14.0274 8.87406 14.8807 8.33073 16.3227 8.33073C19.1447 8.33073 20.8301 10.2681 20.8301 13.5134L20.8307 20.3307H16.8307ZM4.16406 20.3307V8.33073H8.16406V20.3307H4.16406ZM6.1354 7.66406C4.9934 7.66406 4.16406 6.82273 4.16406 5.6634C4.16406 4.50473 5.0094 3.66406 6.1734 3.66406C7.32273 3.66406 8.14073 4.4834 8.16406 5.65673C8.16406 6.82273 7.31873 7.66406 6.15406 7.66406H6.1354Z" fill="black"/>
<path d="M4.49805 8.66667H7.83138V20H4.49805V8.66667ZM6.15471 7.33333H6.13605C5.14138 7.33333 4.49805 6.592 4.49805 5.666C4.49805 4.72 5.16138 4 6.17405 4C7.18805 4 7.81271 4.72 7.83138 5.666C7.83138 6.59133 7.18805 7.33333 6.15471 7.33333ZM20.498 20H17.1647V13.934C17.1647 12.4687 16.348 11.4687 15.0367 11.4687C14.036 11.4687 13.4947 12.1433 13.232 12.7953C13.136 13.0287 13.1647 13.674 13.1647 14V20H9.83138V8.66667H13.1647V10.4107C13.6454 9.66667 14.398 8.66667 16.3234 8.66667C18.7087 8.66667 20.4974 10.1667 20.4974 13.516L20.498 20Z" fill="white"/>
</svg>
