<svg width="537" height="400" viewBox="0 0 537 400" fill="none" xmlns="http://www.w3.org/2000/svg">
<path d="M158.578 273.78C165.654 275.796 173.128 275.967 180.289 274.275C187.45 272.584 194.058 269.086 199.484 264.117C210.51 254.111 225.67 249.752 239.875 250.482C265.191 251.695 287.878 265.191 308.964 274.854C318.756 279.363 328.88 283.711 339.993 285.816C366.834 290.937 391.27 277.688 411.069 258.556C451.867 219.163 462.658 154.239 450.311 109.318C442.215 79.8998 400.804 21.9548 346.95 27.6666C295.855 33.0993 326.626 107.171 278.301 114.375C224.908 122.341 223.018 38.9292 157.601 50.267C98.5498 60.5096 69.1424 112.925 87.5878 155.914C96.5957 176.904 113.839 193.428 123.018 214.203C132.874 236.503 128.505 264.729 158.578 273.78Z" fill="#01966B"/>
<path opacity="0.8" d="M158.578 273.78C165.654 275.796 173.128 275.967 180.289 274.275C187.45 272.584 194.058 269.086 199.484 264.117C210.51 254.111 225.67 249.752 239.875 250.482C265.191 251.695 287.878 265.191 308.964 274.854C318.756 279.363 328.88 283.711 339.993 285.816C366.834 290.937 391.27 277.688 411.069 258.556C451.867 219.163 462.658 154.239 450.311 109.318C442.215 79.8998 400.804 21.9548 346.95 27.6666C295.855 33.0993 326.626 107.171 278.301 114.375C224.908 122.341 223.018 38.9292 157.601 50.267C98.5498 60.5096 69.1424 112.925 87.5878 155.914C96.5957 176.904 113.839 193.428 123.018 214.203C132.874 236.503 128.505 264.729 158.578 273.78Z" fill="white"/>
<path d="M268.413 400.003C383.382 400.003 476.583 394.561 476.583 387.849C476.583 381.137 383.382 375.695 268.413 375.695C153.443 375.695 60.2422 381.137 60.2422 387.849C60.2422 394.561 153.443 400.003 268.413 400.003Z" fill="#F5F5F5"/>
<path d="M392.045 114.882C393.548 119.918 401.3 129.345 401.912 136.205C402.524 143.066 389.307 154.039 389.307 154.039C389.307 154.039 379.43 121.013 385.614 117.159C391.798 113.304 392.045 114.882 392.045 114.882Z" fill="#263238"/>
<path d="M364.903 150.563C362.562 152.517 360.264 154.16 357.87 155.845C355.476 157.531 353.006 159.066 350.494 160.505C347.973 161.997 345.374 163.355 342.71 164.574C341.357 165.186 340.015 165.787 338.62 166.313C337.932 166.593 337.234 166.861 336.526 167.097L334.379 167.849C332.543 168.362 330.622 168.501 328.731 168.257C327.151 168.072 325.586 167.77 324.05 167.355C321.187 166.563 318.385 165.565 315.665 164.37C310.385 162.065 305.291 159.355 300.43 156.264L302.437 152.528C304.971 153.601 307.569 154.675 310.146 155.609C312.723 156.543 315.321 157.531 317.919 158.336C320.453 159.166 323.034 159.84 325.65 160.355C326.851 160.589 328.067 160.737 329.289 160.795C330.201 160.865 331.117 160.771 331.995 160.516C334.445 159.578 336.839 158.503 339.167 157.295C340.359 156.672 341.54 156.039 342.699 155.351C343.859 154.664 345.04 153.999 346.189 153.29C348.497 151.862 350.752 150.348 352.985 148.791C355.218 147.235 357.441 145.57 359.427 143.992L364.903 150.563Z" fill="#E58A7B"/>
<path d="M370.572 139.124C367.909 137.041 356.894 143.859 353.555 146.704L355.992 161.445C355.992 161.445 371.828 154.81 372.773 150.279C373.772 145.544 372.558 140.713 370.572 139.124Z" fill="#01966B"/>
<path opacity="0.2" d="M370.572 139.124C367.909 137.041 356.894 143.859 353.555 146.704L355.992 161.445C355.992 161.445 371.828 154.81 372.773 150.279C373.772 145.544 372.558 140.713 370.572 139.124Z" fill="black"/>
<path d="M407.62 183.735L374.187 190.252C356.912 143.473 360.67 141.938 360.67 141.938C363.099 140.603 365.609 139.42 368.185 138.395L368.636 138.223C370.783 137.439 371.213 137.321 374.069 136.484C378.986 135.314 383.571 134.337 389.25 133.531L390.324 133.381C391.398 133.252 392.375 133.145 393.362 133.048C394.028 132.973 394.694 132.93 395.327 132.887L397.474 132.769C401.146 132.587 403.777 132.64 403.777 132.64C402.757 161.854 404.41 170.239 407.62 183.735Z" fill="#01966B"/>
<path opacity="0.2" d="M407.62 183.735L374.187 190.252C356.912 143.473 360.67 141.938 360.67 141.938C363.099 140.603 365.609 139.42 368.185 138.395L368.636 138.223C370.783 137.439 371.213 137.321 374.069 136.484C378.986 135.314 383.571 134.337 389.25 133.531L390.324 133.381C391.398 133.252 392.375 133.145 393.362 133.048C394.028 132.973 394.694 132.93 395.327 132.887L397.474 132.769C401.146 132.587 403.777 132.64 403.777 132.64C402.757 161.854 404.41 170.239 407.62 183.735Z" fill="black"/>
<path d="M381.437 118.245C379.29 121.799 387.074 123.442 391.68 119.802C395.362 116.882 394.493 110.139 391.336 108.572C388.18 107.004 381.437 118.245 381.437 118.245Z" fill="#01966B"/>
<path opacity="0.4" d="M381.437 118.245C379.29 121.799 387.074 123.442 391.68 119.802C395.362 116.882 394.493 110.139 391.336 108.572C388.18 107.004 381.437 118.245 381.437 118.245Z" fill="black"/>
<path d="M413.978 377.36L405.615 377.983L402.555 358.732L410.918 358.109L413.978 377.36Z" fill="#E58A7B"/>
<path d="M473.136 350.452L466.039 354.918L453.402 339.93L460.499 335.453L473.136 350.452Z" fill="#E58A7B"/>
<path d="M402.555 358.729L404.251 369.423L412.497 368.038L410.929 358.117L402.555 358.729Z" fill="#CF6F64"/>
<path d="M460.51 335.469L453.402 339.935L458.642 346.141L465.9 341.857L460.51 335.469Z" fill="#CF6F64"/>
<path d="M374.703 190.251C374.703 190.251 374.585 256.625 380.007 281.619C385.655 307.623 402.264 366.781 402.264 366.781L414.31 365.225C414.31 365.225 404.894 305.465 400.879 279.622C396.509 251.46 399.193 185.484 399.193 185.484L374.703 190.251Z" fill="#01966B"/>
<path opacity="0.7" d="M374.703 190.251C374.703 190.251 374.585 256.625 380.007 281.619C385.655 307.623 402.264 366.781 402.264 366.781L414.31 365.225C414.31 365.225 404.894 305.465 400.879 279.622C396.509 251.46 399.193 185.484 399.193 185.484L374.703 190.251Z" fill="black"/>
<path opacity="0.5" d="M398.44 214.907L392.535 209.023C392.761 234.523 394.189 247.117 399.095 260.838C398.322 246.333 398.258 229.176 398.44 214.907Z" fill="black"/>
<path d="M383.016 188.534C383.016 188.534 401.021 243.386 409.954 274.984C419.38 308.321 455.519 345.19 455.519 345.19L465.891 339.199C465.891 339.199 441.197 304.198 432.114 273.094C413.647 209.953 421.238 196.575 407.613 183.734L383.016 188.534Z" fill="#01966B"/>
<path opacity="0.7" d="M383.016 188.534C383.016 188.534 401.021 243.386 409.954 274.984C419.38 308.321 455.519 345.19 455.519 345.19L465.891 339.199C465.891 339.199 441.197 304.198 432.114 273.094C413.647 209.953 421.238 196.575 407.613 183.734L383.016 188.534Z" fill="black"/>
<path d="M368.862 98.875C373.651 100.475 377.999 112.36 378.182 117.041C378.364 121.722 364.31 128.175 364.31 128.175C364.31 128.175 358.115 113.144 359.844 103.481C360.595 99.283 368.862 98.875 368.862 98.875Z" fill="#263238"/>
<path d="M303.146 152.926L297.467 146.742L295.609 154.494C295.609 154.494 299.646 158.058 302.91 156.835L303.146 152.926Z" fill="#E58A7B"/>
<path d="M291.711 144.969L287.738 148.125L295.608 154.492L297.466 146.74L291.711 144.969Z" fill="#E58A7B"/>
<path d="M463.82 353.324L470.455 346.635C470.57 346.521 470.722 346.451 470.883 346.439C471.045 346.427 471.205 346.474 471.336 346.571L477.38 351.058C477.53 351.176 477.653 351.324 477.741 351.492C477.829 351.661 477.881 351.846 477.892 352.036C477.903 352.225 477.874 352.416 477.806 352.593C477.738 352.771 477.633 352.932 477.498 353.066C475.136 355.353 473.891 356.341 470.971 359.283C469.178 361.097 466.74 363.921 464.26 366.422C461.78 368.924 459.171 366.594 459.966 365.349C463.584 359.691 462.94 357.575 463.187 354.698C463.224 354.178 463.449 353.69 463.82 353.324Z" fill="#263238"/>
<path d="M405.057 376.781H414.484C414.65 376.781 414.811 376.839 414.938 376.945C415.066 377.051 415.152 377.198 415.182 377.361L416.664 384.812C416.697 384.995 416.689 385.184 416.641 385.364C416.593 385.544 416.506 385.711 416.386 385.854C416.266 385.996 416.116 386.11 415.947 386.188C415.778 386.266 415.594 386.306 415.408 386.305C412.111 386.251 410.522 386.058 406.378 386.058C403.834 386.058 398.573 386.315 395.051 386.315C391.529 386.315 391.154 382.837 392.603 382.525C399.045 381.108 401.568 379.165 403.683 377.297C404.067 376.969 404.553 376.786 405.057 376.781Z" fill="#263238"/>
<g style="mix-blend-mode:multiply" opacity="0.27">
<path d="M404.861 149.57L399.707 152.641L405.655 175.005C404.356 168.23 404.936 160.79 404.861 149.57Z" fill="#01966B"/>
</g>
<path d="M375.574 114.663C379.235 117.723 384.55 122.179 390.809 116.971C396.178 112.483 399.935 100.705 390.305 100.276C385.269 100.051 375.574 114.663 375.574 114.663Z" fill="#263238"/>
<path d="M384.421 116.75C384.421 121.818 385.205 130.954 389.253 133.553C389.253 133.553 388.888 138.771 379.805 140.531C369.831 142.475 374.071 136.505 374.071 136.505C379.268 134.143 378.366 130.128 376.648 126.52L384.421 116.75Z" fill="#E58A7B"/>
<path d="M381.255 120.734L376.66 126.521C377.063 127.358 377.393 128.227 377.648 129.12C379.666 128.411 382.082 125.577 381.878 123.354C381.834 122.45 381.623 121.562 381.255 120.734Z" fill="#CF6F64"/>
<path d="M384.903 105.112C385.977 113.368 386.632 116.836 383.325 121.829C378.354 129.344 367.982 128.861 364.45 121.098C361.229 114.109 360.027 101.773 367.37 96.995C368.985 95.926 370.847 95.288 372.778 95.1418C374.709 94.9955 376.645 95.3459 378.402 96.1594C380.16 96.973 381.68 98.2228 382.818 99.7898C383.956 101.357 384.673 103.189 384.903 105.112Z" fill="#E58A7B"/>
<path d="M370.56 90.6517C364.977 94.6135 376.175 95.7838 376.186 101.528C376.186 103.901 380.083 111.427 385.623 110.997L390.991 101.463C396.639 92.3374 383.293 81.6009 370.56 90.6517Z" fill="#263238"/>
<path d="M370.559 90.6492C360.735 90.1338 356.451 97.95 357.578 104.972C364.432 103.263 371.521 102.701 378.558 103.308C392.021 104.682 370.559 90.6492 370.559 90.6492Z" fill="#263238"/>
<path d="M387.587 112.234C387.723 113.837 387.217 115.428 386.18 116.658C384.795 118.279 382.959 117.323 382.315 115.401C381.768 113.662 381.832 110.731 383.7 109.808C384.113 109.617 384.567 109.532 385.02 109.56C385.474 109.588 385.914 109.729 386.299 109.97C386.685 110.211 387.005 110.544 387.23 110.939C387.454 111.335 387.577 111.78 387.587 112.234Z" fill="#E58A7B"/>
<path d="M372.977 109.805C373.106 110.471 372.859 111.072 372.429 111.158C372 111.244 371.538 110.771 371.409 110.084C371.28 109.397 371.527 108.806 371.957 108.72C372.386 108.635 372.848 109.139 372.977 109.805Z" fill="#263238"/>
<path d="M365.469 111.266C365.598 111.932 365.351 112.544 364.921 112.63C364.492 112.716 364.03 112.243 363.901 111.556C363.773 110.869 364.019 110.278 364.449 110.203C364.878 110.128 365.34 110.59 365.469 111.266Z" fill="#263238"/>
<path d="M364.654 110.218L362.969 110.078C362.969 110.078 364.032 111.163 364.654 110.218Z" fill="#263238"/>
<path d="M367.683 112.031C367.381 113.658 366.861 115.236 366.137 116.723C366.522 116.903 366.941 116.996 367.366 116.996C367.791 116.996 368.21 116.903 368.595 116.723L367.683 112.031Z" fill="#DF5753"/>
<path d="M371.396 118.869C371.349 118.869 371.305 118.853 371.269 118.824C371.234 118.794 371.21 118.753 371.202 118.708C371.198 118.682 371.198 118.656 371.204 118.631C371.21 118.606 371.22 118.582 371.235 118.561C371.25 118.54 371.269 118.522 371.291 118.508C371.313 118.495 371.338 118.486 371.363 118.482C372.193 118.338 372.977 118 373.653 117.496C374.328 116.993 374.875 116.337 375.25 115.583C375.26 115.559 375.274 115.537 375.293 115.519C375.311 115.501 375.333 115.486 375.357 115.476C375.381 115.466 375.406 115.461 375.432 115.461C375.458 115.461 375.484 115.466 375.508 115.476C375.532 115.486 375.553 115.5 375.572 115.518C375.59 115.537 375.605 115.558 375.615 115.582C375.625 115.606 375.63 115.632 375.63 115.658C375.63 115.684 375.625 115.71 375.615 115.733C375.222 116.553 374.637 117.266 373.91 117.812C373.183 118.357 372.335 118.72 371.439 118.869H371.396Z" fill="#263238"/>
<path d="M374.704 106.952C374.605 106.953 374.51 106.919 374.435 106.855C374.074 106.512 373.637 106.259 373.159 106.117C372.681 105.975 372.177 105.949 371.687 106.039C371.578 106.066 371.464 106.049 371.368 105.992C371.273 105.935 371.204 105.842 371.177 105.733C371.15 105.625 371.167 105.511 371.224 105.415C371.281 105.319 371.374 105.25 371.483 105.223C372.102 105.102 372.741 105.129 373.348 105.302C373.954 105.476 374.511 105.791 374.972 106.222C375.045 106.296 375.087 106.397 375.087 106.501C375.087 106.606 375.045 106.706 374.972 106.78C374.942 106.826 374.903 106.865 374.856 106.895C374.81 106.925 374.758 106.944 374.704 106.952Z" fill="#263238"/>
<path d="M361.316 108.444C361.266 108.455 361.215 108.455 361.166 108.444C361.116 108.424 361.072 108.395 361.034 108.357C360.997 108.32 360.967 108.275 360.947 108.226C360.927 108.177 360.917 108.125 360.918 108.072C360.919 108.019 360.93 107.967 360.951 107.918C361.179 107.331 361.545 106.807 362.018 106.39C362.49 105.974 363.056 105.677 363.667 105.524C363.719 105.513 363.772 105.513 363.824 105.523C363.875 105.534 363.924 105.555 363.968 105.585C364.011 105.615 364.047 105.654 364.075 105.699C364.103 105.744 364.121 105.794 364.129 105.846C364.14 105.897 364.14 105.949 364.13 106C364.12 106.051 364.1 106.1 364.071 106.143C364.042 106.186 364.005 106.223 363.961 106.251C363.918 106.279 363.869 106.299 363.817 106.308C363.335 106.439 362.89 106.681 362.517 107.015C362.144 107.349 361.854 107.764 361.67 108.229C361.636 108.294 361.585 108.347 361.522 108.385C361.46 108.423 361.389 108.443 361.316 108.444Z" fill="#263238"/>
<path d="M461.324 357.217C461.14 357.213 460.96 357.163 460.799 357.073C460.638 356.984 460.502 356.856 460.401 356.702C460.324 356.611 460.273 356.502 460.253 356.385C460.232 356.268 460.242 356.148 460.283 356.036C460.658 355.027 463.622 354.383 463.955 354.308C463.993 354.301 464.033 354.305 464.069 354.321C464.105 354.336 464.136 354.361 464.159 354.394C464.181 354.425 464.193 354.462 464.193 354.501C464.193 354.54 464.181 354.577 464.159 354.608C463.579 355.564 462.441 357.164 461.378 357.217H461.324ZM463.568 354.802C462.398 355.102 460.852 355.639 460.658 356.176C460.639 356.225 460.635 356.279 460.647 356.331C460.658 356.382 460.685 356.429 460.723 356.466C460.789 356.577 460.884 356.668 460.997 356.73C461.11 356.792 461.238 356.823 461.367 356.82C461.936 356.788 462.741 356.047 463.568 354.802Z" fill="#01966B"/>
<path d="M463.087 354.798C462.013 354.798 460.671 354.529 460.274 353.95C460.186 353.818 460.145 353.66 460.159 353.501C460.173 353.343 460.24 353.195 460.349 353.08C460.443 352.96 460.562 352.862 460.697 352.792C460.832 352.721 460.981 352.68 461.133 352.672H461.219C462.421 352.672 464.075 354.293 464.139 354.357C464.165 354.382 464.184 354.413 464.193 354.447C464.203 354.481 464.202 354.517 464.193 354.551C464.183 354.584 464.165 354.614 464.141 354.639C464.117 354.663 464.086 354.681 464.053 354.69C463.737 354.767 463.412 354.803 463.087 354.798ZM461.219 353.069H461.154C461.058 353.072 460.964 353.097 460.878 353.142C460.793 353.186 460.718 353.25 460.661 353.327C460.51 353.531 460.553 353.649 460.607 353.724C460.929 354.218 462.572 354.497 463.581 354.379C462.937 353.723 462.116 353.268 461.219 353.069Z" fill="#01966B"/>
<path d="M401.976 378.252C401.254 378.316 400.531 378.134 399.925 377.736C399.782 377.625 399.669 377.478 399.598 377.311C399.527 377.144 399.499 376.962 399.517 376.781C399.517 376.673 399.544 376.567 399.597 376.473C399.649 376.379 399.726 376.3 399.818 376.244C400.806 375.664 404.263 377.382 404.649 377.575C404.686 377.595 404.715 377.624 404.735 377.661C404.754 377.697 404.761 377.738 404.757 377.779C404.752 377.82 404.735 377.858 404.708 377.888C404.681 377.919 404.646 377.941 404.606 377.951C403.741 378.132 402.86 378.233 401.976 378.252ZM400.387 376.512C400.261 376.504 400.135 376.53 400.022 376.588C399.985 376.607 399.956 376.637 399.937 376.673C399.917 376.709 399.91 376.751 399.915 376.792C399.904 376.913 399.923 377.034 399.969 377.147C400.016 377.259 400.089 377.358 400.183 377.436C400.72 377.897 402.105 377.973 403.93 377.672C402.822 377.091 401.624 376.699 400.387 376.512Z" fill="#01966B"/>
<path d="M404.563 377.933H404.488C403.414 377.471 401.342 375.646 401.492 374.712C401.492 374.497 401.685 374.218 402.222 374.164H402.383C404.251 374.164 404.735 377.578 404.756 377.729C404.761 377.765 404.756 377.801 404.743 377.835C404.73 377.869 404.709 377.899 404.681 377.922C404.643 377.936 404.602 377.94 404.563 377.933ZM402.415 374.54H402.297C401.954 374.54 401.932 374.701 401.932 374.744C401.846 375.313 403.264 376.741 404.337 377.374C404.123 376.537 403.575 374.561 402.372 374.561L402.415 374.54Z" fill="#01966B"/>
<path d="M372.158 108.752L370.473 108.602C370.473 108.602 371.536 109.697 372.158 108.752Z" fill="#263238"/>
<path d="M379.538 147.673C361.576 151.678 367.127 140.812 368.2 138.418L368.651 138.246C370.798 137.462 371.228 137.344 374.084 136.507C379.067 135.162 384.141 134.175 389.265 133.554L390.339 133.404C391.413 133.264 392.39 133.157 393.377 133.071C394.043 132.996 394.709 132.953 395.342 132.91L397.489 132.781C397.855 134.456 398.746 143.41 379.538 147.673Z" fill="#E58A7B"/>
<path d="M407.733 181.672L409.826 184.378C409.987 184.582 409.762 184.872 409.375 184.947L374.31 191.775C374.009 191.84 373.73 191.775 373.676 191.55L372.785 188.619C372.785 188.415 372.957 188.189 373.279 188.125L407.142 181.533C407.244 181.503 407.352 181.5 407.456 181.524C407.559 181.549 407.655 181.6 407.733 181.672Z" fill="#26395A"/>
<path d="M403.917 186.343L404.829 186.171C405.012 186.171 405.13 186.021 405.098 185.903L403.917 182.102C403.917 181.984 403.702 181.93 403.519 181.962L402.617 182.134C402.435 182.134 402.317 182.295 402.349 182.403L403.53 186.214C403.562 186.321 403.745 186.386 403.917 186.343Z" fill="#01966B"/>
<path d="M383.38 199.012L376.391 196.414L377.464 203.06C377.464 203.06 382.532 204.885 385.119 202.545L383.38 199.012Z" fill="#E58A7B"/>
<path d="M369.734 198.175L368.07 202.534L377.465 203.06L376.391 196.414L369.734 198.175Z" fill="#E58A7B"/>
<path d="M376.916 191.608L377.829 191.437C378.001 191.437 378.129 191.286 378.086 191.168L376.905 187.368C376.905 187.249 376.701 187.196 376.519 187.228L375.606 187.4C375.424 187.4 375.306 187.561 375.349 187.668L376.53 191.48C376.562 191.587 376.734 191.651 376.916 191.608Z" fill="#01966B"/>
<path d="M390.423 188.968L391.325 188.796C391.508 188.796 391.626 188.646 391.594 188.528L390.413 184.727C390.413 184.609 390.198 184.555 390.015 184.587L389.114 184.759C388.931 184.759 388.813 184.92 388.845 185.028L390.026 188.839C390.069 188.901 390.131 188.947 390.203 188.971C390.275 188.994 390.352 188.993 390.423 188.968Z" fill="#01966B"/>
<path d="M386.599 129.295C387.362 129.005 388.317 131.69 388.081 132.033C387.533 132.817 377.505 135.555 377.055 134.019C377.027 133.187 377.154 132.357 377.43 131.571C377.72 131.056 379.943 132.001 386.599 129.295Z" fill="#01966B"/>
<path d="M384.902 129.355C385.289 128.464 386.395 127.036 387.361 127.852C388.327 128.668 388.735 130.429 388.102 130.719C387.468 131.009 384.237 130.848 384.902 129.355Z" fill="#01966B"/>
<path d="M386.957 129.824C387.623 129.116 389.105 128.139 389.781 129.234C390.457 130.329 390.21 132.122 389.523 132.175C388.836 132.229 385.83 130.994 386.957 129.824Z" fill="#01966B"/>
<path d="M387.322 129.662C387.268 129.092 387.38 128.517 387.645 128.009C387.909 127.5 388.316 127.079 388.814 126.796C390.038 126.001 391.23 125.486 391.702 124.648C391.906 125.434 391.946 126.252 391.82 127.053C391.574 128.202 387.762 129.083 388.02 130.081L387.322 129.662Z" fill="#01966B"/>
<path d="M387.159 129.602C386.803 129.151 386.586 128.608 386.532 128.036C386.479 127.464 386.592 126.89 386.858 126.381C387.438 125.05 388.168 123.976 388.125 123.031C388.722 123.581 389.2 124.245 389.532 124.985C389.94 126.059 387.223 128.883 387.986 129.591L387.159 129.602Z" fill="#01966B"/>
<path d="M461.83 339.343C461.808 339.342 461.786 339.336 461.768 339.325C461.749 339.314 461.733 339.298 461.722 339.279C461.475 338.935 436.932 303.913 427.934 273.142C422.063 253.404 417.55 233.286 414.428 212.931C412.57 201.465 411.443 194.54 407.75 188.86C407.725 188.834 407.711 188.799 407.711 188.763C407.711 188.727 407.725 188.693 407.75 188.667C407.775 188.645 407.808 188.633 407.841 188.633C407.875 188.633 407.907 188.645 407.932 188.667C411.669 194.4 412.796 201.347 414.653 212.845C417.79 233.171 422.31 253.259 428.181 272.97C437.168 303.698 461.69 338.678 461.937 339.032C461.957 339.058 461.968 339.09 461.968 339.123C461.968 339.156 461.957 339.188 461.937 339.214C461.936 339.245 461.924 339.273 461.905 339.297C461.886 339.32 461.859 339.336 461.83 339.343Z" fill="#01966B"/>
<path opacity="0.4" d="M461.83 339.343C461.808 339.342 461.786 339.336 461.768 339.325C461.749 339.314 461.733 339.298 461.722 339.279C461.475 338.935 436.932 303.913 427.934 273.142C422.063 253.404 417.55 233.286 414.428 212.931C412.57 201.465 411.443 194.54 407.75 188.86C407.725 188.834 407.711 188.799 407.711 188.763C407.711 188.727 407.725 188.693 407.75 188.667C407.775 188.645 407.808 188.633 407.841 188.633C407.875 188.633 407.907 188.645 407.932 188.667C411.669 194.4 412.796 201.347 414.653 212.845C417.79 233.171 422.31 253.259 428.181 272.97C437.168 303.698 461.69 338.678 461.937 339.032C461.957 339.058 461.968 339.09 461.968 339.123C461.968 339.156 461.957 339.188 461.937 339.214C461.936 339.245 461.924 339.273 461.905 339.297C461.886 339.32 461.859 339.336 461.83 339.343Z" fill="black"/>
<path d="M416.467 365.183L400.062 367.309L398.988 362.735L416.07 359.117L416.467 365.183Z" fill="#01966B"/>
<path d="M466.758 338.837L454.658 345.826L450.578 342.337L463.816 333.383L466.758 338.837Z" fill="#01966B"/>
<path d="M409.973 144.016C410.553 147 410.886 149.813 411.208 152.723C411.53 155.633 411.648 158.51 411.734 161.42C411.82 164.352 411.755 167.287 411.541 170.213C411.423 171.684 411.294 173.155 411.09 174.636C411.004 175.366 410.907 176.107 410.768 176.848L410.371 179.124C409.93 180.979 409.124 182.728 407.998 184.267C407.074 185.562 406.055 186.785 404.949 187.928C402.877 190.056 400.652 192.03 398.292 193.833C393.726 197.348 388.895 200.504 383.841 203.271L381.543 199.706C383.69 197.999 385.838 196.238 387.985 194.445C390.132 192.652 392.172 190.838 394.137 188.948C396.079 187.129 397.911 185.197 399.623 183.161C400.41 182.219 401.128 181.222 401.771 180.176C402.278 179.415 402.642 178.567 402.844 177.675C403.193 175.068 403.398 172.445 403.456 169.815C403.456 168.473 403.456 167.131 403.456 165.789C403.456 164.447 403.403 163.084 403.338 161.731C403.209 159.025 402.962 156.363 402.672 153.614C402.383 150.866 402.007 148.149 401.599 145.605L409.973 144.016Z" fill="#E58A7B"/>
<path d="M408.674 134.888C413.259 138.602 412.164 149.64 412.164 149.64L396.703 154.729C396.703 154.729 397.412 142.006 398.185 137.432C399.087 131.989 404.154 131.226 408.674 134.888Z" fill="#01966B"/>
<path opacity="0.2" d="M408.674 134.888C413.259 138.602 412.164 149.64 412.164 149.64L396.703 154.729C396.703 154.729 397.412 142.006 398.185 137.432C399.087 131.989 404.154 131.226 408.674 134.888Z" fill="black"/>
<path d="M204.435 180.94C203.835 178.336 202.37 176.013 200.28 174.35C198.189 172.687 195.597 171.781 192.925 171.781H107.033C103.901 171.781 100.897 173.026 98.6818 175.24C96.4669 177.455 95.2227 180.459 95.2227 183.591V374.508C95.2227 377.641 96.4669 380.645 98.6818 382.859C100.897 385.074 103.901 386.318 107.033 386.318H379.741C382.873 386.318 385.877 385.074 388.092 382.859C390.306 380.645 391.551 377.641 391.551 374.508V214.137C391.551 211.005 390.306 208.001 388.092 205.786C385.877 203.571 382.873 202.327 379.741 202.327H231.308C225.07 202.328 219.016 200.213 214.134 196.329C209.253 192.444 205.834 187.019 204.435 180.94Z" fill="#01966B"/>
<path opacity="0.6" d="M204.435 180.94C203.835 178.336 202.37 176.013 200.28 174.35C198.189 172.687 195.597 171.781 192.925 171.781H107.033C103.901 171.781 100.897 173.026 98.6818 175.24C96.4669 177.455 95.2227 180.459 95.2227 183.591V374.508C95.2227 377.641 96.4669 380.645 98.6818 382.859C100.897 385.074 103.901 386.318 107.033 386.318H379.741C382.873 386.318 385.877 385.074 388.092 382.859C390.306 380.645 391.551 377.641 391.551 374.508V214.137C391.551 211.005 390.306 208.001 388.092 205.786C385.877 203.571 382.873 202.327 379.741 202.327H231.308C225.07 202.328 219.016 200.213 214.134 196.329C209.253 192.444 205.834 187.019 204.435 180.94Z" fill="black"/>
<path opacity="0.22" d="M174.113 121.477L181.768 146.267C182.746 149.422 184.935 152.061 187.856 153.603C190.777 155.145 194.191 155.464 197.347 154.491L222.127 146.836L174.113 121.477Z" fill="#01966B"/>
<path d="M174.116 121.477L85.5393 148.844C83.9757 149.324 82.5221 150.108 81.2617 151.151C80.0014 152.194 78.9589 153.475 78.1941 154.921C77.4292 156.366 76.957 157.949 76.8043 159.578C76.6517 161.206 76.8216 162.849 77.3044 164.412L127.873 328.122C128.356 329.686 129.142 331.138 130.186 332.398C131.23 333.657 132.512 334.698 133.959 335.462C135.406 336.226 136.989 336.697 138.618 336.849C140.246 337 141.889 336.83 143.452 336.347L256.819 301.324C258.382 300.843 259.834 300.058 261.093 299.015C262.353 297.972 263.394 296.69 264.158 295.245C264.922 293.799 265.393 292.217 265.545 290.589C265.697 288.96 265.526 287.318 265.043 285.756L222.097 146.836L174.116 121.477Z" fill="#01966B"/>
<path opacity="0.8" d="M174.116 121.477L85.5393 148.844C83.9757 149.324 82.5221 150.108 81.2617 151.151C80.0014 152.194 78.9589 153.475 78.1941 154.921C77.4292 156.366 76.957 157.949 76.8043 159.578C76.6517 161.206 76.8216 162.849 77.3044 164.412L127.873 328.122C128.356 329.686 129.142 331.138 130.186 332.398C131.23 333.657 132.512 334.698 133.959 335.462C135.406 336.226 136.989 336.697 138.618 336.849C140.246 337 141.889 336.83 143.452 336.347L256.819 301.324C258.382 300.843 259.834 300.058 261.093 299.015C262.353 297.972 263.394 296.69 264.158 295.245C264.922 293.799 265.393 292.217 265.545 290.589C265.697 288.96 265.526 287.318 265.043 285.756L222.097 146.836L174.116 121.477Z" fill="white"/>
<g opacity="0.28">
<path d="M221.778 294.171L148.082 316.933C146.704 317.356 145.215 317.217 143.939 316.545C142.663 315.873 141.706 314.723 141.276 313.347C140.856 311.969 140.999 310.48 141.673 309.207C142.346 307.934 143.497 306.979 144.872 306.551L218.568 283.779C219.947 283.356 221.438 283.497 222.714 284.171C223.99 284.845 224.947 285.997 225.375 287.375C225.794 288.753 225.652 290.242 224.978 291.515C224.304 292.788 223.154 293.743 221.778 294.171Z" fill="#01966B"/>
</g>
<g opacity="0.28">
<path d="M142.467 160.589L103.493 172.625C102.115 173.045 100.626 172.904 99.3515 172.233C98.0767 171.561 97.1187 170.413 96.686 169.039C96.2661 167.659 96.4085 166.17 97.0823 164.894C97.756 163.619 98.9064 162.662 100.283 162.232L139.256 150.196C140.635 149.77 142.126 149.908 143.402 150.581C144.678 151.253 145.635 152.404 146.063 153.782C146.483 155.162 146.341 156.651 145.667 157.927C144.993 159.202 143.843 160.159 142.467 160.589Z" fill="#01966B"/>
</g>
<g opacity="0.28">
<path d="M174.266 173.36L109.847 193.255C108.471 193.668 106.989 193.522 105.72 192.848C104.452 192.175 103.5 191.029 103.072 189.658C102.649 188.281 102.789 186.793 103.461 185.519C104.133 184.245 105.283 183.29 106.658 182.862L171.077 162.967C172.455 162.544 173.945 162.683 175.221 163.355C176.496 164.027 177.454 165.177 177.884 166.553C178.3 167.935 178.154 169.426 177.476 170.701C176.798 171.976 175.645 172.931 174.266 173.36Z" fill="#01966B"/>
</g>
<g opacity="0.28">
<path d="M210.23 184.833L116.221 213.822C114.845 214.245 113.356 214.105 112.083 213.433C110.809 212.761 109.853 211.611 109.425 210.236C109.005 208.858 109.146 207.369 109.817 206.095C110.489 204.82 111.637 203.862 113.011 203.429L207.02 174.441C208.397 174.02 209.884 174.162 211.157 174.833C212.43 175.505 213.386 176.653 213.816 178.027C214.24 179.405 214.1 180.894 213.428 182.17C212.756 183.446 211.607 184.403 210.23 184.833Z" fill="#01966B"/>
</g>
<g opacity="0.28">
<path d="M216.597 205.447L161.948 222.336C160.569 222.756 159.081 222.613 157.808 221.939C156.535 221.265 155.58 220.115 155.151 218.739C154.731 217.362 154.873 215.876 155.544 214.602C156.216 213.329 157.364 212.373 158.737 211.943L213.386 195.054C214.766 194.638 216.254 194.781 217.529 195.455C218.803 196.128 219.76 197.277 220.193 198.651C220.613 200.029 220.47 201.518 219.796 202.791C219.122 204.064 217.972 205.019 216.597 205.447Z" fill="#01966B"/>
</g>
<g opacity="0.28">
<path d="M136.891 230.076L122.601 234.489C121.223 234.912 119.733 234.772 118.458 234.1C117.182 233.428 116.224 232.279 115.794 230.903C115.371 229.523 115.512 228.032 116.187 226.756C116.861 225.481 118.013 224.524 119.391 224.096L133.681 219.683C135.059 219.263 136.548 219.404 137.823 220.075C139.097 220.747 140.055 221.895 140.488 223.269C140.905 224.649 140.761 226.137 140.088 227.411C139.415 228.686 138.266 229.643 136.891 230.076Z" fill="#01966B"/>
</g>
<g opacity="0.28">
<path d="M222.979 226.076L128.97 255.118C127.592 255.538 126.103 255.395 124.83 254.721C123.557 254.047 122.602 252.897 122.174 251.521C121.751 250.144 121.891 248.656 122.563 247.382C123.235 246.109 124.384 245.153 125.76 244.725L219.769 215.683C221.145 215.263 222.632 215.404 223.906 216.076C225.179 216.747 226.135 217.895 226.565 219.269C226.988 220.647 226.849 222.137 226.177 223.412C225.505 224.688 224.355 225.645 222.979 226.076Z" fill="#01966B"/>
</g>
<g opacity="0.28">
<path d="M193.069 257.895L135.339 275.729C133.962 276.149 132.475 276.008 131.202 275.336C129.929 274.664 128.973 273.516 128.542 272.143C128.122 270.765 128.263 269.276 128.935 268.001C129.606 266.726 130.754 265.769 132.128 265.336L189.859 247.502C191.238 247.083 192.728 247.225 194.003 247.899C195.278 248.572 196.235 249.723 196.666 251.099C197.088 252.477 196.947 253.967 196.273 255.241C195.598 256.515 194.446 257.47 193.069 257.895Z" fill="#01966B"/>
</g>
<g opacity="0.28">
<path d="M229.345 246.696L213.938 251.452C212.558 251.872 211.069 251.729 209.794 251.056C208.519 250.382 207.561 249.231 207.131 247.855C206.711 246.477 206.854 244.989 207.528 243.715C208.202 242.442 209.352 241.487 210.728 241.059L226.135 236.303C227.511 235.88 229 236.019 230.274 236.692C231.547 237.364 232.503 238.513 232.931 239.889C233.354 241.267 233.215 242.756 232.543 244.032C231.871 245.308 230.721 246.265 229.345 246.696Z" fill="#01966B"/>
</g>
<g opacity="0.28">
<path d="M235.709 267.337L141.722 296.326C140.342 296.749 138.851 296.607 137.575 295.933C136.3 295.259 135.343 294.107 134.915 292.729C134.492 291.351 134.634 289.861 135.308 288.587C135.982 287.313 137.134 286.358 138.512 285.933L232.51 256.89C233.89 256.473 235.378 256.617 236.652 257.291C237.926 257.964 238.884 259.112 239.317 260.487C239.533 261.174 239.61 261.896 239.545 262.613C239.481 263.33 239.275 264.026 238.939 264.663C238.604 265.3 238.146 265.864 237.592 266.323C237.037 266.782 236.398 267.126 235.709 267.337Z" fill="#01966B"/>
</g>
<path d="M237.73 59.9201L265.839 122.557C266.568 124.192 266.621 126.049 265.985 127.723C265.349 129.397 264.077 130.751 262.446 131.49L143.206 185.011C141.571 185.744 139.713 185.798 138.038 185.162C136.363 184.526 135.009 183.252 134.273 181.619L106.154 118.982C105.418 117.346 105.362 115.485 105.998 113.807C106.635 112.13 107.911 110.774 109.547 110.038L228.787 56.5166C230.425 55.7871 232.285 55.7356 233.961 56.3734C235.636 57.0111 236.992 58.2862 237.73 59.9201Z" fill="#01966B"/>
<path opacity="0.3" d="M237.73 59.9201L265.839 122.557C266.568 124.192 266.621 126.049 265.985 127.723C265.349 129.397 264.077 130.751 262.446 131.49L143.206 185.011C141.571 185.744 139.713 185.798 138.038 185.162C136.363 184.526 135.009 183.252 134.273 181.619L106.154 118.982C105.418 117.346 105.362 115.485 105.998 113.807C106.635 112.13 107.911 110.774 109.547 110.038L228.787 56.5166C230.425 55.7871 232.285 55.7356 233.961 56.3734C235.636 57.0111 236.992 58.2862 237.73 59.9201Z" fill="black"/>
<path d="M218.936 56.8219L215.125 58.5312L215.564 59.5109L219.375 57.8015L218.936 56.8219Z" fill="#01966B"/>
<path d="M209.789 60.9197L197.906 66.25L198.346 67.2296L210.228 61.8993L209.789 60.9197Z" fill="#01966B"/>
<path d="M106.046 125.287L105.066 125.727L108.321 132.975L109.3 132.535L106.046 125.287Z" fill="#01966B"/>
<path opacity="0.6" d="M233.736 56.2857L202.987 116.518C200.134 122.1 195.461 126.542 189.741 129.109C184.021 131.677 177.596 132.215 171.529 130.636L106.09 113.576C106.761 112.006 107.994 110.742 109.547 110.033L228.787 56.5111C230.349 55.8127 232.117 55.7321 233.736 56.2857Z" fill="#01966B"/>
<path d="M276.005 133.375L183.477 139.087C181.843 139.184 180.243 139.603 178.77 140.319C177.298 141.035 175.981 142.034 174.895 143.26C173.809 144.485 172.975 145.913 172.441 147.461C171.908 149.009 171.685 150.648 171.785 152.282L182.339 323.293C182.438 324.929 182.858 326.529 183.576 328.002C184.294 329.475 185.295 330.792 186.523 331.877C187.751 332.962 189.181 333.794 190.731 334.326C192.281 334.858 193.92 335.078 195.556 334.975L313.98 327.663C315.612 327.565 317.21 327.145 318.68 326.428C320.15 325.711 321.465 324.711 322.548 323.485C323.631 322.26 324.462 320.832 324.992 319.285C325.523 317.737 325.743 316.1 325.64 314.468L316.728 169.342L276.005 133.375Z" fill="#01966B"/>
<path opacity="0.8" d="M276.005 133.375L183.477 139.087C181.843 139.184 180.243 139.603 178.77 140.319C177.298 141.035 175.981 142.034 174.895 143.26C173.809 144.485 172.975 145.913 172.441 147.461C171.908 149.009 171.685 150.648 171.785 152.282L182.339 323.293C182.438 324.929 182.858 326.529 183.576 328.002C184.294 329.475 185.295 330.792 186.523 331.877C187.751 332.962 189.181 333.794 190.731 334.326C192.281 334.858 193.92 335.078 195.556 334.975L313.98 327.663C315.612 327.565 317.21 327.145 318.68 326.428C320.15 325.711 321.465 324.711 322.548 323.485C323.631 322.26 324.462 320.832 324.992 319.285C325.523 317.737 325.743 316.1 325.64 314.468L316.728 169.342L276.005 133.375Z" fill="white"/>
<g opacity="0.22">
<path d="M281.599 312.427L204.608 317.183C203.169 317.265 201.757 316.775 200.679 315.82C199.6 314.864 198.944 313.521 198.853 312.083C198.77 310.645 199.259 309.233 200.212 308.154C201.164 307.074 202.505 306.414 203.942 306.318L280.933 301.572C282.372 301.487 283.785 301.974 284.866 302.928C285.946 303.881 286.605 305.223 286.699 306.661C286.784 308.101 286.295 309.516 285.34 310.597C284.384 311.678 283.039 312.335 281.599 312.427Z" fill="#01966B"/>
</g>
<g opacity="0.22">
<path d="M236.033 163.917L195.31 166.408C193.872 166.49 192.46 166.002 191.38 165.049C190.301 164.096 189.641 162.755 189.544 161.319C189.462 159.879 189.952 158.466 190.907 157.386C191.862 156.306 193.205 155.647 194.644 155.553L235.368 153.041C236.805 152.956 238.217 153.443 239.296 154.397C240.374 155.351 241.031 156.693 241.122 158.13C241.214 159.572 240.729 160.991 239.775 162.076C238.821 163.161 237.475 163.823 236.033 163.917Z" fill="#01966B"/>
</g>
<g opacity="0.22">
<path d="M263.928 183.826L196.642 187.97C195.203 188.058 193.788 187.572 192.707 186.618C191.626 185.664 190.968 184.32 190.877 182.881C190.791 181.441 191.28 180.026 192.236 178.945C193.192 177.865 194.537 177.207 195.977 177.115L263.252 172.971C264.691 172.883 266.106 173.369 267.187 174.323C268.268 175.277 268.926 176.621 269.017 178.06C269.102 179.499 268.615 180.912 267.662 181.993C266.708 183.073 265.366 183.732 263.928 183.826Z" fill="#01966B"/>
</g>
<g opacity="0.22">
<path d="M296.169 203.46L197.972 209.516C196.529 209.604 195.11 209.117 194.026 208.161C192.941 207.205 192.279 205.858 192.185 204.416C192.1 202.979 192.588 201.566 193.542 200.487C194.495 199.409 195.838 198.752 197.274 198.661L295.481 192.595C296.92 192.513 298.332 193.003 299.41 193.958C300.489 194.914 301.145 196.257 301.236 197.695C301.322 199.13 300.837 200.54 299.888 201.62C298.939 202.7 297.603 203.361 296.169 203.46Z" fill="#01966B"/>
</g>
<g opacity="0.22">
<path d="M297.499 224.998L240.412 228.519C238.974 228.605 237.56 228.117 236.48 227.164C235.4 226.21 234.741 224.868 234.647 223.43C234.559 221.991 235.045 220.576 235.999 219.495C236.953 218.414 238.297 217.756 239.736 217.665L296.822 214.143C298.261 214.055 299.676 214.541 300.757 215.495C301.838 216.449 302.496 217.793 302.588 219.232C302.673 220.67 302.186 222.084 301.232 223.164C300.279 224.245 298.936 224.904 297.499 224.998Z" fill="#01966B"/>
</g>
<g opacity="0.22">
<path d="M214.226 230.129L199.292 231.053C197.854 231.138 196.442 230.65 195.363 229.696C194.285 228.743 193.628 227.4 193.537 225.963C193.452 224.525 193.939 223.111 194.892 222.031C195.846 220.951 197.188 220.292 198.626 220.198L213.561 219.275C215 219.192 216.414 219.682 217.494 220.637C218.573 221.592 219.232 222.936 219.326 224.374C219.408 225.813 218.918 227.225 217.963 228.303C217.007 229.382 215.664 230.038 214.226 230.129Z" fill="#01966B"/>
</g>
<g opacity="0.22">
<path d="M298.833 246.536L200.626 252.591C199.188 252.677 197.774 252.189 196.694 251.236C195.613 250.282 194.954 248.94 194.86 247.502C194.778 246.063 195.268 244.649 196.223 243.569C197.178 242.489 198.522 241.831 199.96 241.737L298.157 235.681C299.597 235.596 301.012 236.085 302.092 237.041C303.173 237.997 303.831 239.342 303.922 240.781C304.007 242.219 303.52 243.631 302.566 244.71C301.612 245.788 300.27 246.445 298.833 246.536Z" fill="#01966B"/>
</g>
<g opacity="0.22">
<path d="M262.265 270.418L201.958 274.144C200.519 274.226 199.105 273.736 198.025 272.781C196.945 271.826 196.286 270.483 196.193 269.044C196.11 267.606 196.6 266.193 197.556 265.115C198.511 264.037 199.855 263.38 201.292 263.289L261.599 259.564C263.038 259.481 264.45 259.971 265.528 260.927C266.607 261.882 267.263 263.226 267.354 264.663C267.442 266.101 266.956 267.515 266.001 268.595C265.047 269.674 263.703 270.33 262.265 270.418Z" fill="#01966B"/>
</g>
<g opacity="0.22">
<path d="M300.151 268.084L284.046 269.071C282.609 269.157 281.196 268.669 280.118 267.715C279.039 266.761 278.383 265.419 278.291 263.982C278.203 262.543 278.69 261.128 279.644 260.047C280.598 258.966 281.942 258.308 283.381 258.217L299.485 257.229C300.924 257.141 302.34 257.627 303.421 258.581C304.501 259.535 305.16 260.879 305.251 262.318C305.333 263.757 304.843 265.171 303.888 266.251C302.933 267.331 301.59 267.99 300.151 268.084Z" fill="#01966B"/>
</g>
<g opacity="0.22">
<path d="M301.479 289.622L203.283 295.677C201.845 295.763 200.431 295.275 199.351 294.322C198.27 293.368 197.611 292.026 197.517 290.588C197.432 289.15 197.919 287.736 198.873 286.656C199.826 285.576 201.169 284.917 202.607 284.823L300.813 278.767C302.251 278.682 303.663 279.17 304.742 280.124C305.82 281.077 306.477 282.42 306.568 283.857C306.656 285.296 306.17 286.711 305.216 287.792C304.262 288.873 302.918 289.531 301.479 289.622Z" fill="#01966B"/>
</g>
<path opacity="0.22" d="M276.004 133.375L277.604 159.272C277.704 160.904 278.124 162.501 278.841 163.972C279.558 165.442 280.558 166.756 281.784 167.84C283.009 168.924 284.436 169.756 285.983 170.288C287.53 170.82 289.166 171.042 290.799 170.942L316.728 169.342L276.004 133.375Z" fill="#01966B"/>
<path opacity="0.5" d="M245.705 197.978C245.689 196.737 245.424 195.512 244.926 194.375C244.429 193.238 243.708 192.213 242.807 191.359C241.907 190.505 240.844 189.841 239.682 189.405C238.52 188.969 237.282 188.77 236.042 188.82H150.043C143.526 188.82 137.159 194.113 135.935 200.63L101.997 374.508C100.73 381.025 104.982 386.319 111.499 386.319H384.206C390.723 386.319 397.036 381.036 398.314 374.508L426.304 231.176C427.571 224.648 423.32 219.366 416.802 219.366H268.413C255.529 219.366 246.145 210.497 245.705 197.978Z" fill="#01966B"/>
</svg>
