<svg width="350" height="333" viewBox="0 0 350 333" fill="none" xmlns="http://www.w3.org/2000/svg">
<path d="M51.2533 160.114C-17.0857 199.546 -17.0857 263.544 51.2607 302.998C119.607 342.452 230.407 342.46 298.746 302.998C367.085 263.537 367.085 199.568 298.746 160.114C230.407 120.66 119.592 120.66 51.2533 160.114Z" fill="#FAFAFA"/>
<path d="M108.594 310.658C135.022 310.658 156.447 298.29 156.447 283.032C156.447 267.775 135.022 255.406 108.594 255.406C82.1656 255.406 60.7412 267.775 60.7412 283.032C60.7412 298.29 82.1656 310.658 108.594 310.658Z" fill="#E0E0E0"/>
<path d="M189.42 215.624C187.566 215.659 185.737 215.201 184.117 214.299C180.125 211.988 177.925 206.818 177.925 199.723C177.925 183.429 189.42 163.505 203.544 155.351L257.692 124.089C261.396 121.956 264.988 120.83 268.113 120.83C269.968 120.797 271.798 121.257 273.416 122.163C277.408 124.466 279.608 129.643 279.608 136.739C279.608 153.033 268.121 172.949 253.989 181.111L199.841 212.373C196.138 214.499 192.546 215.624 189.42 215.624Z" fill="#E0E0E0"/>
<path d="M275.268 118.956L257.752 108.846C252.782 105.972 245.901 106.387 238.332 110.771L184.176 142.034C169.001 150.796 156.706 172.096 156.706 189.613C156.706 198.367 159.78 204.522 164.749 207.388L182.266 217.498C187.235 220.371 194.116 219.957 201.693 215.572L202.218 215.254L255.308 184.606L255.574 184.458L255.841 184.31C271.017 175.548 283.311 154.247 283.311 136.731C283.311 127.984 280.238 121.829 275.268 118.956ZM253.989 181.11L199.841 212.373C196.138 214.506 192.546 215.631 189.42 215.631C187.566 215.663 185.736 215.203 184.117 214.298C180.125 211.995 177.925 206.818 177.925 199.722C177.925 183.428 189.413 163.512 203.544 155.351L257.692 124.088C261.396 121.963 264.988 120.829 268.113 120.829C269.968 120.798 271.797 121.258 273.416 122.162C277.408 124.473 279.608 129.65 279.608 136.738C279.608 153.047 268.121 172.956 253.989 181.11Z" fill="#E0E0E0"/>
<path d="M275.268 118.958C270.298 116.091 263.418 116.506 255.841 120.883L201.663 152.146C186.517 160.907 174.259 182.208 174.259 199.724C174.259 208.486 177.333 214.641 182.303 217.5C187.272 220.359 194.153 219.959 201.73 215.574L255.611 184.467L255.878 184.319C271.054 175.557 283.348 154.256 283.348 136.74C283.311 127.986 280.238 121.831 275.268 118.958ZM253.989 181.112L199.841 212.375C196.138 214.508 192.546 215.633 189.42 215.633C187.566 215.665 185.736 215.205 184.117 214.3C180.125 211.997 177.925 206.82 177.925 199.724C177.925 183.43 189.413 163.514 203.544 155.353L257.692 124.09C261.396 121.965 264.988 120.831 268.113 120.831C269.968 120.8 271.797 121.26 273.416 122.165C277.408 124.475 279.608 129.652 279.608 136.74C279.608 153.049 268.121 172.958 253.989 181.112Z" fill="#F0F0F0"/>
<path d="M248.568 181.027C252.271 183.16 257.367 182.849 263.01 179.597C274.29 173.08 283.43 157.245 283.43 144.217C283.43 137.707 281.149 133.107 277.453 130.997L272.49 128.13C268.787 125.997 263.692 126.308 258.048 129.567C246.768 136.077 237.621 151.92 237.621 164.94C237.621 171.458 239.91 176.05 243.605 178.161L248.568 181.027Z" fill="#01966B"/>
<path d="M283.43 144.235C283.43 137.725 281.149 133.125 277.453 131.014C273.757 128.904 268.647 129.185 263.01 132.444C251.723 138.954 242.583 154.796 242.583 167.824C242.583 174.334 244.865 178.934 248.56 181.045C252.256 183.155 257.367 182.867 263.01 179.615C274.29 173.098 283.43 157.263 283.43 144.235Z" fill="#01966B"/>
<path opacity="0.4" d="M283.43 144.235C283.43 137.725 281.149 133.125 277.453 131.014C273.757 128.904 268.647 129.185 263.01 132.444C251.723 138.954 242.583 154.796 242.583 167.824C242.583 174.334 244.865 178.934 248.56 181.045C252.256 183.155 257.367 182.867 263.01 179.615C274.29 173.098 283.43 157.263 283.43 144.235Z" fill="white"/>
<path d="M259.766 170.232C259.096 170.232 258.446 170.004 257.922 169.587L251.256 164.314C250.951 164.071 250.697 163.77 250.509 163.429C250.32 163.087 250.201 162.712 250.157 162.325C250.113 161.937 250.146 161.545 250.254 161.17C250.362 160.795 250.543 160.445 250.786 160.14C251.029 159.836 251.33 159.581 251.671 159.393C252.013 159.204 252.388 159.085 252.775 159.041C253.163 158.997 253.555 159.03 253.93 159.138C254.305 159.246 254.655 159.427 254.96 159.67L258.663 162.633L268.787 140.717C268.942 140.351 269.168 140.02 269.453 139.743C269.738 139.466 270.076 139.25 270.447 139.106C270.817 138.963 271.213 138.895 271.61 138.908C272.007 138.92 272.397 139.012 272.758 139.179C273.119 139.345 273.442 139.583 273.71 139.877C273.977 140.171 274.182 140.515 274.313 140.89C274.444 141.265 274.499 141.663 274.473 142.06C274.448 142.456 274.343 142.843 274.164 143.198L262.462 168.543C262.274 168.949 261.997 169.307 261.65 169.591C261.304 169.874 260.898 170.076 260.463 170.18C260.233 170.223 260 170.24 259.766 170.232Z" fill="#FAFAFA"/>
<path d="M189.42 120.069C187.566 120.101 185.736 119.641 184.117 118.736C180.125 116.433 177.925 111.256 177.925 104.16C177.925 87.8662 189.42 67.943 203.544 59.7885L257.692 28.5261C261.396 26.393 264.988 25.2673 268.113 25.2673C269.968 25.2345 271.798 25.6946 273.416 26.6004C277.408 28.9038 279.608 34.0809 279.608 41.1762C279.608 57.4703 268.121 77.3936 253.989 85.548L199.841 116.81C196.138 118.944 192.546 120.069 189.42 120.069Z" fill="#E0E0E0"/>
<path d="M275.268 23.393L257.752 13.2833C252.782 10.4096 245.901 10.8243 238.332 15.2089L184.176 46.4714C169.001 55.2332 156.706 76.534 156.706 94.0501C156.706 102.805 159.78 108.959 164.749 111.826L182.266 121.935C187.235 124.809 194.116 124.394 201.693 120.01L202.218 119.691L255.308 89.0434L255.574 88.8953L255.841 88.7472C271.017 79.9854 283.311 58.6845 283.311 41.1684C283.311 32.4214 280.238 26.2445 275.268 23.393ZM253.989 85.5476L199.841 116.81C196.138 118.943 192.546 120.069 189.42 120.069C187.566 120.1 185.736 119.641 184.117 118.736C180.125 116.432 177.925 111.255 177.925 104.16C177.925 87.8658 189.413 67.95 203.544 59.7881L257.692 28.5256C261.396 26.4 264.988 25.2668 268.113 25.2668C269.968 25.2352 271.797 25.6952 273.416 26.6C277.408 28.9108 279.608 34.0879 279.608 41.1758C279.608 57.4847 268.121 77.3931 253.989 85.5476Z" fill="#E0E0E0"/>
<path d="M275.268 23.395C270.298 20.5288 263.418 20.9435 255.841 25.3207L201.663 56.6128C186.517 65.3449 174.259 86.6458 174.259 104.162C174.259 112.924 177.333 119.078 182.303 121.937C187.272 124.796 194.153 124.396 201.73 120.012L255.611 88.9047L255.878 88.7566C271.054 79.9948 283.348 58.694 283.348 41.1778C283.311 32.4235 280.238 26.2465 275.268 23.395ZM253.989 85.5496L199.841 116.812C196.138 118.945 192.546 120.071 189.42 120.071C187.566 120.103 185.736 119.643 184.117 118.738C180.125 116.434 177.925 111.257 177.925 104.162C177.925 87.8678 189.413 67.952 203.544 59.7901L257.692 28.5277C261.396 26.402 264.988 25.2689 268.113 25.2689C269.968 25.2372 271.797 25.6972 273.416 26.602C277.408 28.9128 279.608 34.0899 279.608 41.1778C279.608 57.4867 268.121 77.3952 253.989 85.5496Z" fill="#F0F0F0"/>
<path d="M193.745 118.14C197.449 120.273 202.544 119.969 208.188 116.71C219.468 110.2 228.607 94.3575 228.607 81.3371C228.607 74.8194 226.326 70.2275 222.63 68.1092L217.668 65.2504C213.965 63.1173 208.869 63.421 203.226 66.6798C191.946 73.1974 182.799 89.0323 182.799 102.06C182.799 108.57 185.087 113.17 188.783 115.281L193.745 118.14Z" fill="#263238"/>
<path d="M228.608 81.3263C228.608 74.816 226.326 70.2167 222.631 68.1058C218.935 65.995 213.824 66.2839 208.188 69.5353C196.901 76.0529 187.761 91.8878 187.761 104.916C187.761 111.426 190.042 116.025 193.738 118.136C197.434 120.247 202.544 119.966 208.188 116.707C219.438 110.196 228.608 94.3838 228.608 81.3263Z" fill="#455A64"/>
<path d="M217.098 96.1487L211.973 92.2751L217.957 80.8841C218.321 80.1877 218.394 79.3752 218.16 78.6251C217.925 77.8751 217.402 77.249 216.705 76.8846C216.009 76.5202 215.196 76.4474 214.446 76.6821C213.696 76.9169 213.07 77.44 212.706 78.1363L207.203 88.6534L202.87 85.3724C202.243 84.898 201.452 84.6924 200.673 84.8007C199.894 84.909 199.19 85.3225 198.715 85.9501C198.241 86.5777 198.035 87.368 198.144 88.1472C198.252 88.9264 198.665 89.6307 199.293 90.1051L204.418 93.9712L198.456 105.362C198.092 106.059 198.019 106.871 198.253 107.621C198.488 108.371 199.011 108.997 199.708 109.362C200.404 109.726 201.217 109.799 201.967 109.564C202.717 109.329 203.343 108.806 203.707 108.11L209.21 97.5929L213.543 100.874C214.057 101.263 214.683 101.473 215.328 101.474C215.949 101.475 216.555 101.281 217.059 100.919C217.564 100.557 217.942 100.045 218.141 99.4564C218.339 98.8677 218.347 98.2316 218.164 97.638C217.981 97.0444 217.615 96.5235 217.12 96.1487H217.098Z" fill="#FAFAFA"/>
<path d="M129.206 247.962C128.651 254.391 128.295 259.16 128.399 260.264C128.762 264.263 131.006 266.744 132.739 268.411C136.361 271.855 138.938 273.225 143.441 276.195C142.842 277.787 133.569 277.943 130.902 276.802C127.041 275.112 123.29 273.177 119.674 271.011C115.971 268.589 115.075 267.1 114.912 263.286C114.912 262.812 114.519 259.708 114.549 259.501C114.497 258.605 113.92 253.776 113.164 247.836L129.206 247.962Z" fill="#FFA8A7"/>
<path d="M74.6435 260.673V245.312L91.1524 246.505L88.0787 261.562C88.0787 261.562 86.242 282.063 85.3754 285.389C82.5832 296.143 73.1771 291.803 72.0439 286.129C71.3106 282.315 74.6435 260.673 74.6435 260.673Z" fill="#FFA8A7"/>
<path d="M150.833 282.229C151.078 282.229 151.263 284.725 149.885 285.696C148.3 286.814 143.745 288.525 137.968 287.466C132.191 286.407 129.14 284.54 126.933 282.585C124.726 280.63 121.637 277.86 119.038 277.156C116.623 276.504 112.727 274.979 111.994 274.193C111.261 273.408 111.587 270.312 111.587 270.312L150.833 282.229Z" fill="#263238"/>
<path d="M114.549 259.484C114.319 259.572 114.11 259.707 113.935 259.881C113.76 260.054 113.624 260.262 113.534 260.492C113.297 261.343 113.209 262.454 112.727 263.847C112.053 265.787 111.409 269.772 111.616 271.431C111.824 273.09 117.052 274.749 119.541 275.808C122.436 277.193 125.109 279 127.473 281.17C130.066 283.437 135.68 285.903 139.479 286.184C145.278 286.614 149.107 285.377 150.433 283.503C152.04 281.193 151.5 278.66 145.034 275.356C143.804 274.734 139.546 272.023 138.094 271.046C136.568 270.02 135.124 268.876 133.776 267.624C133.106 266.992 132.471 266.325 131.873 265.624C131.251 265.005 130.729 264.293 130.325 263.513C130.265 263.343 130.221 263.151 130.169 262.98C130.014 262.497 129.903 262.002 129.836 261.499C129.762 260.973 129.747 260.218 129.243 259.877C128.74 259.536 120.356 260.551 119.704 261.358C119.259 262.018 119.003 262.786 118.963 263.58C118.919 263.943 118.904 264.321 118.874 264.669C118.874 264.824 118.874 265.106 118.682 265.032C118.489 264.958 118.26 264.395 118.186 264.21C118.03 263.795 117.941 263.351 117.771 262.936C117.626 262.433 117.373 261.968 117.03 261.573C115.979 260.64 114.897 260.743 114.601 260.425C114.638 260.455 114.564 259.795 114.549 259.484Z" fill="#37474F"/>
<path d="M145.375 275.555C136.939 275.555 134.154 281.687 133.591 284.65C135.459 285.445 137.433 285.966 139.45 286.198C145.249 286.627 149.345 285.405 150.641 283.539C152.181 281.339 151.196 278.051 145.375 275.555Z" fill="#FAFAFA"/>
<path d="M132.984 276.301C132.891 276.295 132.802 276.258 132.732 276.197C132.695 276.162 132.665 276.12 132.645 276.074C132.625 276.027 132.615 275.977 132.615 275.927C132.615 275.876 132.625 275.826 132.645 275.779C132.665 275.733 132.695 275.691 132.732 275.656C133.998 274.397 137.983 271.76 141.012 272.257C141.064 272.262 141.115 272.278 141.16 272.304C141.205 272.329 141.245 272.364 141.276 272.406C141.308 272.448 141.33 272.495 141.342 272.546C141.354 272.597 141.355 272.65 141.346 272.701C141.335 272.753 141.314 272.802 141.285 272.845C141.255 272.889 141.217 272.926 141.173 272.955C141.129 272.984 141.08 273.004 141.028 273.014C140.976 273.024 140.923 273.023 140.872 273.012C138.042 272.553 134.339 275.182 133.339 276.182C133.293 276.227 133.237 276.262 133.175 276.282C133.114 276.303 133.048 276.309 132.984 276.301Z" fill="#F5F5F5"/>
<path d="M129.503 274.121C129.41 274.118 129.322 274.084 129.251 274.025C129.214 273.99 129.185 273.948 129.164 273.902C129.144 273.855 129.134 273.805 129.134 273.754C129.134 273.704 129.144 273.653 129.164 273.607C129.185 273.56 129.214 273.519 129.251 273.484C130.518 272.217 134.502 269.581 137.531 270.077C137.583 270.083 137.633 270.1 137.678 270.126C137.724 270.152 137.763 270.186 137.795 270.228C137.827 270.269 137.85 270.316 137.863 270.367C137.876 270.417 137.879 270.47 137.872 270.521C137.847 270.625 137.783 270.716 137.694 270.773C137.604 270.831 137.496 270.853 137.391 270.832C134.561 270.373 130.858 273.003 129.858 274.002C129.812 274.048 129.756 274.083 129.694 274.103C129.633 274.124 129.567 274.13 129.503 274.121Z" fill="#F5F5F5"/>
<path d="M126.311 271.676C126.218 271.673 126.129 271.639 126.059 271.579C126.021 271.545 125.99 271.504 125.97 271.457C125.949 271.41 125.938 271.36 125.938 271.309C125.938 271.258 125.949 271.208 125.97 271.161C125.99 271.114 126.021 271.073 126.059 271.039C127.325 269.772 131.325 267.135 134.339 267.632C134.391 267.638 134.44 267.655 134.485 267.681C134.53 267.707 134.569 267.741 134.6 267.783C134.632 267.824 134.654 267.872 134.666 267.922C134.679 267.973 134.681 268.025 134.672 268.076C134.662 268.128 134.641 268.177 134.612 268.22C134.582 268.264 134.544 268.301 134.5 268.33C134.456 268.359 134.407 268.379 134.355 268.389C134.303 268.399 134.25 268.398 134.198 268.387C131.369 267.935 127.666 270.557 126.659 271.557C126.614 271.603 126.559 271.637 126.499 271.658C126.438 271.678 126.374 271.685 126.311 271.676Z" fill="#F5F5F5"/>
<path d="M123.155 269.236C123.062 269.23 122.974 269.193 122.904 269.132C122.866 269.098 122.835 269.057 122.815 269.011C122.794 268.965 122.783 268.916 122.783 268.865C122.783 268.815 122.794 268.765 122.815 268.719C122.835 268.673 122.866 268.632 122.904 268.599C124.644 266.799 128.829 264.703 131.888 265.199C131.939 265.205 131.989 265.222 132.034 265.248C132.079 265.274 132.118 265.309 132.149 265.35C132.18 265.392 132.202 265.439 132.215 265.489C132.227 265.54 132.229 265.592 132.221 265.643C132.198 265.747 132.135 265.837 132.047 265.895C131.958 265.953 131.851 265.974 131.747 265.954C129.021 265.51 125.081 267.517 123.518 269.11C123.471 269.157 123.414 269.193 123.351 269.215C123.289 269.236 123.221 269.244 123.155 269.236Z" fill="#F5F5F5"/>
<path d="M86.7159 286.47C86.4567 290.033 85.8345 292.395 84.4495 294.469C83.0645 296.543 80.4945 297.172 77.9097 296.535C75.3248 295.899 71.9846 294.225 71.3032 291.144C70.6218 288.063 70.1848 285.959 70.8143 282.648L86.7159 286.47Z" fill="#263238"/>
<path d="M74.6436 260.674C73.5771 260.563 73.8067 265.473 73.1623 270.258C72.4217 275.39 71.6218 277.42 70.9849 281.626C70.2442 286.433 71.0885 288.588 72.8661 291.514C74.6436 294.44 81.0131 297.365 84.2275 293.232C86.842 289.862 86.9975 286.093 86.8123 281.286C86.6272 276.316 87.1901 272.991 87.6641 269.236C88.1603 265.362 89.0343 261.97 88.1085 261.562C87.862 262.814 87.5455 264.05 87.1604 265.266C87.0494 265.532 86.6272 266.199 86.4717 265.192C86.4272 264.895 86.5309 264.207 86.4717 263.91C86.405 263.073 85.8643 262.933 85.5162 262.748C84.0881 262.099 82.5371 261.766 80.9687 261.77C78.8801 261.77 77.0729 261.651 75.8953 262.199C75.1547 262.525 75.2065 263.147 75.1547 263.755C75.1028 264.362 75.0362 264.925 74.8436 264.777C74.4436 264.51 74.6436 260.674 74.6436 260.674Z" fill="#37474F"/>
<path d="M70.629 284.409C70.4091 287 71.0863 289.589 72.5473 291.741C74.3248 294.666 81.2202 297.607 84.3975 293.474C85.9899 291.415 86.4417 288.963 86.6861 286.467C84.8567 283.231 73.6434 281.705 70.629 284.409Z" fill="#FAFAFA"/>
<path d="M84.4424 281.211C84.3985 281.221 84.3529 281.221 84.309 281.211C84.309 281.211 79.3393 279.241 74.5104 280.226C74.4105 280.247 74.3063 280.23 74.2185 280.178C74.1307 280.126 74.0657 280.043 74.0363 279.945C74.0267 279.896 74.027 279.845 74.037 279.796C74.0471 279.747 74.0669 279.701 74.0952 279.659C74.1234 279.618 74.1596 279.583 74.2017 279.555C74.2437 279.528 74.2907 279.509 74.34 279.501C79.4504 278.464 84.472 280.463 84.6645 280.552C84.7097 280.572 84.7503 280.601 84.784 280.637C84.8176 280.673 84.8436 280.716 84.8602 280.762C84.8768 280.809 84.8838 280.858 84.8807 280.907C84.8777 280.956 84.8646 281.005 84.8423 281.049C84.7976 281.11 84.7364 281.159 84.6657 281.187C84.595 281.216 84.5176 281.225 84.4424 281.211Z" fill="#F5F5F5"/>
<path d="M74.7916 276.606C74.7182 276.599 74.6482 276.571 74.5894 276.527C74.5306 276.482 74.4852 276.423 74.4583 276.354C74.4435 276.307 74.4384 276.257 74.4431 276.208C74.4478 276.159 74.4624 276.111 74.4858 276.068C74.5093 276.024 74.5412 275.986 74.5797 275.955C74.6183 275.924 74.6626 275.901 74.7101 275.887C79.5243 274.406 84.8198 276.754 85.0198 276.85C85.0644 276.871 85.1044 276.9 85.1371 276.937C85.1698 276.973 85.1946 277.016 85.2099 277.063C85.2252 277.109 85.2307 277.159 85.226 277.207C85.2213 277.256 85.2066 277.304 85.1828 277.346C85.1275 277.434 85.0418 277.499 84.9421 277.527C84.8424 277.556 84.7356 277.547 84.6421 277.502C84.5976 277.502 79.4576 275.221 74.9619 276.591C74.9066 276.607 74.8488 276.612 74.7916 276.606Z" fill="#F5F5F5"/>
<path d="M75.014 273.228C74.9406 273.221 74.8706 273.193 74.8118 273.149C74.753 273.104 74.7076 273.045 74.6807 272.976C74.6647 272.929 74.6584 272.88 74.6622 272.831C74.666 272.782 74.6797 272.734 74.7026 272.69C74.7254 272.646 74.757 272.608 74.7952 272.577C74.8335 272.546 74.8777 272.523 74.9251 272.509C80.2207 270.806 85.2422 273.339 85.4348 273.443C85.4776 273.467 85.5149 273.5 85.5446 273.539C85.5743 273.578 85.5957 273.623 85.6074 273.671C85.6192 273.719 85.6212 273.769 85.6131 273.817C85.6051 273.866 85.5872 273.912 85.5607 273.954C85.5019 274.04 85.4123 274.1 85.3103 274.122C85.2083 274.144 85.1018 274.126 85.0126 274.072C84.9682 274.072 80.117 271.621 75.1917 273.205C75.1343 273.224 75.0741 273.231 75.014 273.228Z" fill="#F5F5F5"/>
<path d="M75.3027 269.904C75.2307 269.899 75.1615 269.874 75.1027 269.832C75.0439 269.79 74.9978 269.733 74.9694 269.667C74.9521 269.62 74.9446 269.571 74.9473 269.521C74.95 269.471 74.9629 269.423 74.9851 269.379C75.0073 269.334 75.0384 269.295 75.0765 269.263C75.1146 269.231 75.1588 269.207 75.2064 269.193C80.1687 267.519 85.5754 270.119 85.7827 270.237C85.8265 270.26 85.8652 270.291 85.8963 270.329C85.9274 270.367 85.9503 270.411 85.9635 270.458C85.9767 270.506 85.98 270.555 85.9731 270.604C85.9662 270.652 85.9493 270.699 85.9235 270.741C85.8658 270.828 85.7767 270.89 85.6746 270.914C85.5726 270.937 85.4654 270.92 85.3754 270.867C85.331 270.867 80.0872 268.334 75.4804 269.889C75.4226 269.905 75.3623 269.91 75.3027 269.904Z" fill="#EBEBEB"/>
<path d="M81.3611 136.047C80.265 146.112 79.8799 148.593 79.1392 170.953C78.3986 192.639 78.3986 195.817 78.2653 198.431C77.969 204.423 74.2732 206.823 73.9769 220.954C73.7103 233.908 74.1917 249.772 74.1917 249.772C74.1917 249.772 76.7395 251.957 82.0499 252.224C84.9182 252.39 87.7842 251.862 90.4044 250.683C90.4044 250.683 97.4997 221.658 99.729 212.733C102.358 202.223 106.617 183.944 106.617 183.944C106.617 183.944 108.757 200.238 109.58 205.512C110.32 210.526 108.491 212.481 109.654 223.709C110.579 232.663 113.357 247.624 113.357 247.624C115.829 248.819 118.544 249.425 121.289 249.395C127.355 249.128 129.273 247.173 129.273 247.173C129.273 247.173 132.673 213.696 132.702 200.89C132.702 187.336 131.962 156.089 131.266 136.128L81.3611 136.047Z" fill="#455A64"/>
<path d="M106.609 183.947L109.72 161.417C109.72 161.417 117.608 159.195 122.533 154.055C122.296 157.758 115.393 162.772 112.105 163.616L108.402 183.614L109.528 205.522L106.609 183.947Z" fill="#37474F"/>
<path d="M95.6553 139.047C94.5143 140.93 93.5877 142.935 92.8928 145.024C92.1846 147.086 91.5985 149.188 91.1374 151.319C90.6852 153.44 90.3465 155.584 90.1228 157.741C89.8735 159.894 89.8016 162.064 89.908 164.229C90.382 162.11 90.819 160 91.2559 157.889C91.6929 155.778 92.1151 153.682 92.5743 151.586C93.0335 149.49 93.5001 147.394 93.9889 145.305C94.4777 143.217 95.011 141.143 95.6553 139.047Z" fill="#37474F"/>
<path d="M92.6483 139.938C91.5314 140.963 90.5192 142.097 89.6265 143.322C88.7294 144.524 87.92 145.789 87.2046 147.107C86.498 148.416 85.901 149.781 85.4197 151.188C84.9251 152.585 84.6212 154.042 84.5161 155.521L86.4862 151.58C87.1528 150.284 87.8194 148.996 88.5156 147.714C89.2118 146.433 89.908 145.159 90.6042 143.87C91.3004 142.582 92.004 141.293 92.6483 139.938Z" fill="#37474F"/>
<path d="M97.4922 164.82C96.7516 171.56 96.0998 178.315 95.4481 185.055C94.7963 191.794 93.315 199.26 92.2411 205.933C91.1672 212.606 86.0123 238.862 85.168 245.587C86.5752 238.921 92.5744 212.851 93.6927 206.133C94.8111 199.416 96.1369 191.906 96.5812 185.136C97.0256 178.367 97.3145 171.597 97.4922 164.82Z" fill="#37474F"/>
<path d="M124.696 164.531L125.436 182.218C125.54 185.18 125.673 188.106 125.748 191.054C125.822 194.001 125.933 196.979 125.814 199.852C125.696 202.726 124.792 230.959 125.074 236.884C125.977 230.33 126.918 205.844 127.295 199.912C127.421 193.942 127.021 188.061 126.599 182.136C126.177 176.211 125.533 170.382 124.696 164.531Z" fill="#37474F"/>
<path d="M112.594 244.179L113.497 250.378C113.497 250.378 116.823 251.896 122.385 251.563C127.947 251.23 129.236 249.467 129.236 249.467L129.777 243.594C129.777 243.594 127.688 245.075 122.6 245.319C116.016 245.586 112.594 244.179 112.594 244.179Z" fill="#37474F"/>
<path d="M73.8882 245.414L74.0956 251.606C74.0956 251.606 76.7248 253.583 82.2426 254.087C87.7604 254.591 90.2415 252.746 90.2415 252.746L91.3895 247.273C91.3895 247.273 88.6047 248.369 83.5313 247.954C80.2053 247.609 76.9526 246.752 73.8882 245.414Z" fill="#37474F"/>
<path d="M181.666 107.639C173.417 111.487 164.85 114.615 156.062 116.986C149.87 118.571 145.952 116.12 141.99 113.283C135.748 108.803 129.88 103.825 124.444 98.3961C121.111 90.1528 121.044 80.9318 122.585 76.6953C129.791 77.3175 132.391 80.717 137.879 85.9385C143.367 91.16 152.492 100.537 152.492 100.537C152.492 100.537 172.771 97.5221 173.97 97.174C175.837 96.6185 176.607 96.3371 177.207 95.1891C177.786 93.9849 178.296 92.7485 178.733 91.4859C179.395 89.738 180.167 88.0337 181.044 86.3829C181.592 85.346 182.132 84.2943 182.762 83.3018C183.273 82.4945 183.962 81.3021 184.888 80.9244C185.412 80.7824 185.971 80.846 186.45 81.1021C186.902 80.5685 187.398 80.073 187.932 79.6208C188.176 79.3823 188.473 79.2047 188.798 79.1024C189.028 79.0469 189.269 79.0578 189.494 79.1339C189.718 79.2099 189.916 79.3479 190.065 79.532C190.56 79.0488 191.211 78.7574 191.901 78.7099C192.24 78.735 192.561 78.8714 192.814 79.0978C193.067 79.3241 193.238 79.6278 193.301 79.9615C193.285 80.4288 193.302 80.8966 193.353 81.3614C193.51 81.7205 193.714 82.0568 193.96 82.3612C194.208 82.8527 194.326 83.3998 194.301 83.9498C194.277 84.4998 194.111 85.0342 193.82 85.5015C193.079 87.0791 192.087 88.5308 191.242 90.0639C190.625 91.1837 190.073 92.3386 189.591 93.5227C189.435 93.9004 188.887 94.8336 188.991 95.241C189.094 95.6483 189.916 95.5298 190.228 95.3669C191.031 94.8648 191.791 94.2975 192.501 93.6708C193.218 93.0422 194.127 92.6765 195.079 92.6339C195.251 92.6287 195.422 92.6751 195.568 92.7672C195.938 93.0264 195.812 93.6041 195.634 94.0189C194.745 96.0557 193.294 97.7221 191.931 99.4626C190.476 101.419 188.756 103.164 186.821 104.647C185.203 105.809 183.477 106.811 181.666 107.639Z" fill="#FFA8A7"/>
<path d="M193.042 81.3981C192.893 81.2965 192.716 81.2422 192.535 81.2422C192.354 81.2422 192.177 81.2965 192.028 81.3981C191.653 81.6763 191.332 82.0201 191.08 82.4127C190.396 83.3201 189.787 84.2811 189.258 85.2864C188.71 86.2937 188.176 87.3158 187.636 88.3231C187.076 89.2515 186.635 90.2469 186.325 91.2856C186.325 91.3301 186.325 91.4115 186.384 91.3449C186.88 90.4413 187.302 89.4933 187.791 88.5823C188.28 87.6713 188.761 86.7825 189.272 85.8789C189.751 85.0035 190.293 84.1644 190.894 83.3682C191.198 82.9682 191.509 82.5609 191.85 82.1831C192.087 81.9239 192.591 81.4425 193.027 81.5017C193.065 81.524 193.079 81.4129 193.042 81.3981Z" fill="#F28F8F"/>
<path d="M189.969 79.5546C188.441 81.0857 187.146 82.8324 186.125 84.739C185.128 86.3849 184.342 88.149 183.784 89.9902C184.533 88.2182 185.409 86.5028 186.406 84.8575C187.473 83.0282 188.813 81.4062 189.998 79.6731C190.05 79.6731 190.035 79.5101 189.969 79.5546Z" fill="#F28F8F"/>
<path d="M186.11 81.3108C185.147 82.4718 184.313 83.7332 183.621 85.0733C183.243 85.8139 182.88 86.4953 182.554 87.2211C182.145 87.9838 181.841 88.7985 181.651 89.643C181.651 89.6874 181.688 89.7615 181.732 89.7023C182.125 89.0212 182.452 88.3045 182.71 87.5618C183.036 86.8212 183.391 86.1176 183.769 85.4065C184.51 84.0289 185.339 82.6958 186.124 81.3478C186.11 81.333 186.11 81.2886 186.11 81.3108Z" fill="#F28F8F"/>
<path d="M122.333 76.375C131.102 78.0266 131.362 79.3376 137.316 85.0849C144.027 91.61 152.514 100.372 152.514 100.372L164.668 98.4239C164.668 98.4239 168.023 101.794 168.749 105.378C169.823 110.704 169.112 112.985 169.112 112.985C165.071 114.66 160.928 116.075 156.706 117.221C151.44 118.458 149.463 118.54 144.604 115.607C134.102 109.267 124.118 98.6609 124.118 98.6609C124.118 98.6609 118.615 86.27 122.333 76.375Z" fill="#455A64"/>
<path d="M130.91 101.072C130.806 85.7483 126.466 78.1567 122.363 76.3644C120.052 75.7719 107.802 74.2758 101.588 75.1349C92.7001 76.3792 86.849 79.4603 80.1684 84.3411C74.9839 94.2064 81.0868 104.146 81.2794 118.411C81.4349 129.668 81.0424 132.394 80.2499 144.822C90.1375 153.154 125.429 152.71 131.591 142.052C131.502 130.016 131.036 118.685 130.91 101.072Z" fill="#01966B"/>
<path d="M97.3067 69.6725C96.566 65.9692 92.7666 62.266 91.0112 59.0443C89.2559 55.8225 88.3005 53.5857 88.3968 50.6454C88.4486 48.9123 89.4781 46.5274 90.752 45.9942C90.4231 44.9539 90.3089 43.8576 90.4163 42.7719C90.5238 41.6862 90.8505 40.6336 91.3768 39.6779C91.9032 38.7222 92.6181 37.8833 93.4782 37.2122C94.3384 36.541 95.3259 36.0515 96.3809 35.7733C97.5797 35.4889 98.7576 35.1227 99.9063 34.6772C101.284 34.055 101.573 32.9218 102.669 31.9294C104.558 30.2333 107.853 30.1 109.142 32.5515C110.386 30.8481 112.105 30.8406 114.171 31.2998C115.029 31.4676 115.791 31.9546 116.304 32.6626C116.817 33.3705 117.042 34.2467 116.934 35.1141C119.593 33.5218 122.118 35.3586 122.422 36.9435C122.644 38.1137 122.422 39.1062 123.214 40.1357C124.118 41.2985 125.747 41.2318 126.221 40.2616C126.547 41.9132 125.932 43.2242 124.125 43.1649C124.445 43.6203 124.66 44.14 124.758 44.6876C124.855 45.2352 124.831 45.7974 124.688 46.3349C124.49 47.0083 124.091 47.6051 123.544 48.0458C122.997 48.4865 122.33 48.75 121.629 48.8012C121.58 49.7028 121.327 50.5815 120.889 51.3712C120.365 52.186 119.654 52.8639 118.815 53.3487C116.119 54.7337 113.105 55.2448 110.172 55.941L106.698 56.7631C106.498 56.8149 105.439 56.9038 105.32 57.089L97.3067 69.6725Z" fill="#263238"/>
<path d="M92.6775 65.0168C95.329 66.4981 97.0399 64.7576 97.0399 64.7576L97.5435 75.9265C99.3877 81.3035 105.772 84.8512 110.342 84.4438C115.66 83.9772 115.978 80.2444 112.305 76.1931L112.356 72.8602C113.801 72.834 115.243 72.7203 116.674 72.5195C119.57 72.0381 121.688 69.6162 122.429 66.4463C123.23 62.3249 123.23 58.0878 122.429 53.9665C122.207 52.9655 122.125 51.9386 122.185 50.915C122.392 48.2043 121.859 46.6489 121.096 44.3974C117.822 41.9162 110.401 41.2497 103.624 45.6417C104.543 49.7226 103.039 53.0481 100.099 54.6701C100.269 55.7736 100.491 58.5732 98.6693 58.5732C97.351 58.5732 97.188 56.929 95.8327 55.5144C94.4773 54.0998 91.2851 53.8109 90.1297 55.981C88.5077 59.0176 89.7742 63.3948 92.6775 65.0168Z" fill="#FFA8A7"/>
<path d="M112.356 72.8865C107.727 72.4717 104.135 72.0569 101.639 68.7907C100.462 67.1068 99.4692 65.3017 98.6768 63.4062C99.038 65.7713 99.773 68.0638 100.854 70.1979C102.076 72.2939 105.054 74.1233 112.297 74.5381L112.356 72.8865Z" fill="#F28F8F"/>
<path d="M109.898 55.114C109.89 55.3695 109.808 55.6172 109.661 55.8263C109.514 56.0354 109.309 56.1967 109.071 56.2902C108.833 56.3836 108.573 56.405 108.323 56.3518C108.073 56.2986 107.844 56.1731 107.665 55.9909C107.486 55.8086 107.364 55.5778 107.315 55.3269C107.266 55.0761 107.292 54.8164 107.389 54.5801C107.487 54.3438 107.652 54.1414 107.863 53.9979C108.075 53.8545 108.324 53.7764 108.579 53.7734C108.931 53.7773 109.268 53.9205 109.515 54.1717C109.762 54.4229 109.9 54.7617 109.898 55.114Z" fill="#263238"/>
<path d="M109.424 50.8621L106.52 52.1508C106.358 51.7528 106.356 51.3079 106.513 50.9081C106.67 50.5083 106.975 50.1842 107.365 50.0029C107.556 49.92 107.761 49.8765 107.97 49.875C108.178 49.8736 108.385 49.9142 108.577 49.9944C108.769 50.0746 108.943 50.1928 109.089 50.3419C109.234 50.491 109.348 50.6679 109.424 50.8621Z" fill="#263238"/>
<path d="M120.548 51.0088L117.445 50.2681C117.484 50.0636 117.564 49.8693 117.681 49.6969C117.798 49.5245 117.949 49.3777 118.124 49.2654C118.299 49.1532 118.496 49.0778 118.701 49.0439C118.906 49.01 119.117 49.0183 119.319 49.0683C119.732 49.1754 120.088 49.4355 120.316 49.7958C120.545 50.1561 120.628 50.5897 120.548 51.0088Z" fill="#263238"/>
<path d="M120.192 54.1144C120.185 54.3684 120.103 54.6147 119.957 54.8226C119.811 55.0305 119.607 55.1908 119.37 55.2837C119.134 55.3766 118.875 55.3979 118.627 55.345C118.378 55.2921 118.151 55.1672 117.973 54.986C117.794 54.8049 117.673 54.5753 117.625 54.3259C117.576 54.0765 117.602 53.8183 117.698 53.5833C117.795 53.3484 117.959 53.1471 118.169 53.0045C118.38 52.8619 118.627 52.7843 118.881 52.7812C119.055 52.7822 119.227 52.8175 119.387 52.8851C119.547 52.9527 119.692 53.0513 119.814 53.1752C119.936 53.2991 120.032 53.4459 120.097 53.6071C120.162 53.7682 120.194 53.9407 120.192 54.1144Z" fill="#263238"/>
<path d="M118.941 59.3765L114.134 61.7391L113.297 52.4219L118.941 59.3765Z" fill="#F28F8F"/>
<path d="M109.49 62.9141L114.742 64.7138C114.638 65.0655 114.465 65.3927 114.232 65.676C113.999 65.9592 113.712 66.1928 113.387 66.3628C113.063 66.5328 112.707 66.6357 112.342 66.6655C111.976 66.6952 111.609 66.6511 111.261 66.5358C110.554 66.2788 109.975 65.7577 109.644 65.0822C109.314 64.4067 109.259 63.6295 109.49 62.9141Z" fill="#B16668"/>
<path d="M110.038 63.8638C109.819 63.8165 109.596 63.7941 109.372 63.7972C109.364 64.3924 109.541 64.9754 109.88 65.4651C110.218 65.9549 110.701 66.3271 111.26 66.5301C111.545 66.6244 111.843 66.6695 112.142 66.6634C112.217 66.016 112.041 65.3644 111.65 64.8433C111.258 64.3222 110.681 63.9715 110.038 63.8638Z" fill="#F28F8F"/>
<path d="M138.271 116.26C140.211 116.07 142.124 115.678 143.982 115.089C145.537 114.725 147.12 114.497 148.715 114.408C150.366 114.245 152.025 114.127 153.684 113.949C154.099 113.904 154.269 114.297 154.292 114.689C154.296 115.038 154.223 115.384 154.078 115.701C153.934 116.019 153.721 116.301 153.455 116.526C152.915 116.972 152.293 117.309 151.625 117.519C151.039 117.726 150.44 117.897 149.833 118.03C149.196 118.163 147.678 118.474 148.026 119.415L138.271 116.26Z" fill="#FFA8A7"/>
<path d="M138.271 116.264C139.574 116.334 140.879 116.168 142.123 115.775C142.752 115.569 143.393 115.399 144.041 115.264C144.694 115.126 145.354 115.024 146.019 114.96C147.278 114.79 148.574 114.686 149.855 114.516C151.136 114.346 152.41 114.183 153.684 113.953C152.388 113.953 151.099 114.027 149.811 114.101C148.522 114.175 147.248 114.272 145.952 114.427C145.299 114.516 144.653 114.65 144.019 114.827C143.382 115.012 142.752 115.146 142.115 115.383C141.478 115.62 141.308 115.657 140.516 115.901C139.777 116.075 139.027 116.196 138.271 116.264Z" fill="#F28F8F"/>
<path d="M80.3835 85.0564C84.7532 84.3158 89.9377 87.0191 94.9 93.6034L109.972 113.193C109.972 113.193 122.348 114.934 128.303 115.637C135.206 116.452 136.228 116.378 138.272 116.26L148.026 119.393C148.271 120.074 149.507 120.622 150.122 120.97C153.374 122.925 158.699 123.288 160.787 123.525C162.876 123.762 163.128 124.518 162.595 125.332C162.197 125.697 161.694 125.925 161.158 125.984C162.321 126.066 163.283 126.303 163.654 126.947C164.12 127.762 162.787 128.206 162.172 128.347L160.602 128.747C160.694 128.911 160.742 129.096 160.742 129.284C160.742 129.472 160.694 129.657 160.602 129.821C160.381 130.086 160.106 130.3 159.795 130.45C158.314 131.191 156.336 131.191 154.988 131.117C156.07 131.435 156.588 131.413 157.04 131.724C157.195 131.809 157.315 131.947 157.378 132.113C157.44 132.279 157.441 132.461 157.38 132.628C157.232 133.057 155.336 133.265 154.877 133.287C151.174 133.494 151.278 133.354 149.174 132.769C147.901 132.414 146.662 131.948 145.471 131.376C144.73 130.976 143.419 130.317 142.308 129.658C139.472 127.969 137.354 127.673 136.057 127.725C126.177 128.117 121.341 128.154 109.58 128.377C103.306 128.495 101.432 126.421 97.7293 122.066C93.8409 117.467 89.8785 113.001 83.5682 105.639C79.0651 100.336 76.3914 93.6256 80.3835 85.0564Z" fill="#FFA8A7"/>
<path d="M160.617 128.749C158.692 129.03 156.745 129.119 154.803 129.016C153.846 128.892 152.91 128.643 152.018 128.275L149.248 127.312C150.109 127.784 150.997 128.205 151.907 128.572C152.813 128.982 153.778 129.249 154.766 129.364C156.736 129.472 158.712 129.265 160.617 128.749Z" fill="#F28F8F"/>
<path d="M160.928 126.109C159.003 126.385 157.056 126.474 155.114 126.375C154.157 126.251 153.221 126.002 152.329 125.635L149.559 124.672C150.42 125.144 151.308 125.564 152.218 125.931C153.124 126.341 154.089 126.609 155.077 126.723C157.047 126.828 159.022 126.621 160.928 126.109Z" fill="#F28F8F"/>
<path d="M155.003 131.12C154 130.961 153.009 130.728 152.04 130.424C151.055 130.142 150.115 129.75 149.115 129.461C149.988 130.024 150.932 130.47 151.922 130.787C152.915 131.106 153.964 131.22 155.003 131.12Z" fill="#F28F8F"/>
<path d="M83.057 82.3125C78.3835 85.1121 77.1318 87.8377 76.5097 90.0078C75.8875 92.1778 75.5987 97.8289 79.8944 103.687C84.1901 109.546 98.1068 123.396 100.632 125.744C103.158 128.092 103.136 128.758 108.379 128.706C113.89 128.625 118.06 128.314 118.06 128.314C116.611 126.081 116.007 123.405 116.356 120.767C116.83 116.049 118.897 114.101 118.897 114.101L110.224 112.76C110.224 112.76 101.269 100.962 96.2626 94.4812C91.2558 88.0006 87.6045 83.9271 83.057 82.3125Z" fill="#455A64"/>
<path d="M170.711 38.0443C167.019 42.1745 161.891 44.7412 156.372 45.2211L153.884 45.2951C148.397 45.1715 143.158 42.9832 139.214 39.1669C135.269 35.3506 132.909 30.1871 132.604 24.7071C132.299 19.2271 134.072 13.8337 137.569 9.60352C141.066 5.37332 146.03 2.61751 151.469 1.88616L153.958 1.6936C158.212 1.593 162.402 2.73914 166.012 4.99078C169.622 7.24241 172.495 10.5011 174.276 14.3654C176.057 18.2296 176.668 22.5305 176.035 26.7379C175.401 30.9454 173.551 34.8756 170.711 38.0443Z" fill="white"/>
<path d="M170.237 5.84999C165.798 1.97288 160.074 -0.111157 154.181 0.00457391C148.288 0.120304 142.65 2.42749 138.367 6.47592C134.083 10.5243 131.462 16.0235 131.014 21.9003C130.567 27.7771 132.325 33.6099 135.945 38.2604L133.353 45.141C133.257 45.4005 133.24 45.683 133.307 45.9519C133.373 46.2207 133.519 46.4632 133.725 46.6479C133.932 46.8326 134.189 46.9509 134.463 46.9872C134.738 47.0236 135.017 46.9764 135.264 46.8519L141.819 43.5116C146.841 46.5901 152.829 47.6881 158.617 46.5917C164.404 45.4953 169.576 42.283 173.124 37.581C176.672 32.879 178.342 27.0242 177.808 21.158C177.275 15.2918 174.575 9.83452 170.237 5.84999ZM170.711 38.0457C167.019 42.1759 161.891 44.7426 156.372 45.2225L153.884 45.2965C148.397 45.1729 143.158 42.9846 139.214 39.1683C135.269 35.352 132.909 30.1885 132.604 24.7085C132.299 19.2285 134.072 13.8351 137.569 9.60492C141.066 5.37472 146.03 2.61891 151.469 1.88756L153.958 1.68759C158.212 1.58901 162.401 2.7367 166.011 4.98932C169.621 7.24193 172.493 10.5011 174.273 14.3655C176.054 18.2298 176.665 22.5306 176.032 26.7381C175.4 30.9456 173.55 34.8762 170.711 38.0457Z" fill="#455A64"/>
<path opacity="0.7" d="M170.711 38.0436C167.019 42.1739 161.891 44.7406 156.372 45.2204L153.884 45.2945C148.397 45.1709 143.158 42.9825 139.214 39.1663C135.269 35.35 132.909 30.1865 132.604 24.7065C132.299 19.2265 134.072 13.8331 137.569 9.60288C141.066 5.37268 146.03 2.61686 151.469 1.88552L153.958 1.68554C158.212 1.58697 162.401 2.73466 166.011 4.98727C169.621 7.23989 172.493 10.4991 174.273 14.3634C176.054 18.2277 176.665 22.5285 176.032 26.736C175.4 30.9436 173.55 34.8741 170.711 38.0436Z" fill="white"/>
<path d="M146.929 14.0269C146.929 14.1603 146.929 14.3454 146.929 14.5602C146.929 14.775 146.929 14.9527 146.929 15.0935C146.912 15.5244 146.809 15.9476 146.625 16.3377C146.446 16.7226 146.194 17.0695 145.885 17.3598C145.543 17.6609 145.145 17.8923 144.714 18.0412C143.72 18.377 142.643 18.377 141.648 18.0412C141.218 17.8907 140.821 17.6594 140.478 17.3598C140.168 17.0695 139.917 16.7226 139.737 16.3377C139.553 15.9476 139.45 15.5244 139.434 15.0935C139.434 14.9527 139.434 14.775 139.434 14.5602C139.434 14.3454 139.434 14.1603 139.434 14.0269C139.441 13.5933 139.542 13.1663 139.73 12.7753C139.904 12.3898 140.157 12.0443 140.47 11.7606C140.82 11.4631 141.219 11.2276 141.648 11.0644C142.643 10.7285 143.72 10.7285 144.714 11.0644C145.145 11.2259 145.543 11.4615 145.892 11.7606C146.204 12.0463 146.456 12.3912 146.633 12.7753C146.81 13.1699 146.911 13.5947 146.929 14.0269ZM141.885 15.0194C141.888 15.1794 141.923 15.3372 141.988 15.4834C142.053 15.6297 142.146 15.7615 142.263 15.8711C142.521 16.067 142.835 16.173 143.159 16.173C143.483 16.173 143.797 16.067 144.055 15.8711C144.285 15.6551 144.421 15.357 144.433 15.0416C144.445 14.8863 144.445 14.7303 144.433 14.575C144.445 14.4172 144.445 14.2588 144.433 14.101C144.42 13.788 144.284 13.4927 144.055 13.2789C143.797 13.0831 143.483 12.977 143.159 12.977C142.835 12.977 142.521 13.0831 142.263 13.2789C142.034 13.4927 141.898 13.788 141.885 14.101C141.873 14.2588 141.873 14.4172 141.885 14.575C141.874 14.7229 141.874 14.8715 141.885 15.0194Z" fill="#01966B"/>
<path d="M155.617 17.783C155.616 17.8314 155.606 17.8793 155.587 17.9238C155.568 17.9683 155.54 18.0086 155.505 18.0422C155.471 18.078 155.43 18.1063 155.384 18.1254C155.338 18.1445 155.288 18.154 155.239 18.1533H153.521C153.471 18.154 153.422 18.1445 153.376 18.1254C153.33 18.1063 153.288 18.078 153.254 18.0422C153.219 18.0086 153.191 17.9683 153.172 17.9238C153.153 17.8793 153.143 17.8314 153.143 17.783V14.2797C153.162 13.9349 153.06 13.5944 152.854 13.3169C152.737 13.1924 152.594 13.0957 152.435 13.0342C152.276 12.9726 152.106 12.9477 151.936 12.9614C151.768 12.9461 151.599 12.9703 151.442 13.032C151.285 13.0937 151.144 13.1913 151.032 13.3169C150.826 13.5944 150.724 13.9349 150.743 14.2797V17.783C150.743 17.8314 150.733 17.8793 150.714 17.9238C150.695 17.9683 150.667 18.0086 150.632 18.0422C150.599 18.0778 150.559 18.106 150.514 18.1252C150.47 18.1443 150.421 18.1539 150.373 18.1533H148.625C148.576 18.1539 148.528 18.1443 148.484 18.1252C148.439 18.106 148.399 18.0778 148.366 18.0422C148.331 18.0086 148.303 17.9683 148.284 17.9238C148.265 17.8793 148.255 17.8314 148.255 17.783V11.3246C148.253 11.2759 148.262 11.2274 148.281 11.1826C148.301 11.1378 148.329 11.0978 148.366 11.0653C148.398 11.0288 148.438 10.9994 148.483 10.979C148.527 10.9586 148.576 10.9476 148.625 10.9468H150.306C150.355 10.9485 150.403 10.9598 150.448 10.9802C150.492 11.0005 150.532 11.0294 150.565 11.0653C150.602 11.0978 150.63 11.1378 150.65 11.1826C150.669 11.2274 150.678 11.2759 150.676 11.3246V11.643C150.762 11.5411 150.853 11.4446 150.95 11.3542C151.072 11.2437 151.21 11.1514 151.358 11.0802C151.534 10.9982 151.717 10.9337 151.906 10.8876C152.149 10.8319 152.398 10.807 152.647 10.8135C153.059 10.8072 153.469 10.8698 153.861 10.9987C154.219 11.1171 154.546 11.3146 154.817 11.5764C155.089 11.8545 155.299 12.1879 155.431 12.554C155.588 13.0088 155.663 13.4877 155.654 13.9687L155.617 17.783Z" fill="#01966B"/>
<path d="M158.083 31.9959C158.083 32.1367 158.083 32.3144 158.083 32.5292C158.083 32.744 158.083 32.9218 158.083 33.0625C158.07 33.4939 157.967 33.9178 157.779 34.3068C157.604 34.6942 157.352 35.0419 157.039 35.3288C156.698 35.6313 156.3 35.863 155.869 36.0102C155.379 36.1854 154.862 36.2708 154.343 36.262C153.821 36.2702 153.302 36.1849 152.81 36.0102C152.378 35.863 151.981 35.6313 151.64 35.3288C151.326 35.0419 151.074 34.6942 150.899 34.3068C150.712 33.9178 150.608 33.4939 150.595 33.0625C150.595 32.9218 150.595 32.744 150.595 32.5292C150.595 32.3144 150.595 32.1367 150.595 31.9959C150.6 31.5651 150.698 31.1405 150.884 30.7517C151.06 30.3646 151.312 30.0169 151.625 29.7296C151.971 29.429 152.371 29.1955 152.802 29.0408C153.294 28.8636 153.813 28.7758 154.335 28.7816C154.856 28.7752 155.372 28.8631 155.861 29.0408C156.293 29.1955 156.692 29.429 157.039 29.7296C157.356 30.0131 157.609 30.3617 157.779 30.7517C157.967 31.1405 158.07 31.5645 158.083 31.9959ZM153.047 32.9958C153.05 33.1514 153.085 33.3048 153.15 33.4462C153.215 33.5876 153.308 33.7142 153.424 33.8179C153.676 34.0245 153.995 34.1301 154.321 34.1142C154.644 34.1304 154.961 34.0247 155.209 33.8179C155.325 33.7135 155.419 33.5869 155.485 33.4457C155.551 33.3046 155.588 33.1516 155.595 32.9958C155.624 32.6805 155.624 32.3631 155.595 32.0478C155.588 31.892 155.551 31.7391 155.485 31.5979C155.419 31.4567 155.325 31.3302 155.209 31.2257C154.961 31.0189 154.644 30.9132 154.321 30.9294C153.995 30.9135 153.676 31.0191 153.424 31.2257C153.308 31.3294 153.215 31.456 153.15 31.5974C153.085 31.7389 153.05 31.8922 153.047 32.0478C153.007 32.3626 153.007 32.681 153.047 32.9958Z" fill="#01966B"/>
<path d="M167.785 28.9192H169.489C169.538 28.9185 169.588 28.928 169.634 28.9471C169.679 28.9662 169.721 28.9945 169.755 29.0303C169.791 29.0633 169.819 29.1035 169.838 29.1481C169.857 29.1928 169.867 29.2409 169.866 29.2895V30.6819C169.866 30.7821 169.827 30.8782 169.756 30.949C169.685 31.0198 169.589 31.0596 169.489 31.0596H167.785V35.7405C167.787 35.7892 167.778 35.8376 167.758 35.8824C167.739 35.9272 167.71 35.9672 167.674 35.9997C167.64 36.0355 167.598 36.0638 167.552 36.0829C167.506 36.102 167.457 36.1115 167.407 36.1108H165.667C165.617 36.1115 165.568 36.102 165.522 36.0829C165.476 36.0638 165.435 36.0355 165.4 35.9997C165.364 35.9672 165.335 35.9272 165.316 35.8824C165.297 35.8376 165.288 35.7892 165.289 35.7405V31.067H162.63V35.7479C162.632 35.7966 162.623 35.845 162.604 35.8898C162.584 35.9346 162.556 35.9747 162.519 36.0071C162.486 36.042 162.445 36.0698 162.401 36.0889C162.356 36.108 162.308 36.1179 162.26 36.1182H160.512C160.462 36.1189 160.413 36.1094 160.367 36.0903C160.321 36.0712 160.28 36.0429 160.245 36.0071C160.209 35.9747 160.18 35.9346 160.161 35.8898C160.142 35.845 160.133 35.7966 160.134 35.7479V31.067H159.179C159.131 31.0668 159.083 31.0568 159.038 31.0377C158.994 31.0186 158.953 30.9908 158.92 30.9559C158.884 30.9215 158.856 30.88 158.837 30.8342C158.817 30.7883 158.808 30.739 158.809 30.6893V29.2895C158.808 29.2409 158.818 29.1928 158.837 29.1481C158.856 29.1035 158.884 29.0633 158.92 29.0303C158.953 28.9954 158.994 28.9676 159.038 28.9485C159.083 28.9294 159.131 28.9195 159.179 28.9192H160.134V28.5415C160.13 28.1518 160.208 27.7656 160.364 27.4083C160.509 27.086 160.724 26.8001 160.994 26.5713C161.276 26.3374 161.6 26.159 161.949 26.0455C162.337 25.925 162.742 25.8651 163.149 25.8677H164.467C164.516 25.8672 164.564 25.8767 164.608 25.8959C164.653 25.915 164.693 25.9433 164.726 25.9788C164.762 26.0133 164.79 26.0548 164.81 26.1006C164.829 26.1465 164.838 26.1958 164.837 26.2455V27.6453C164.837 27.6937 164.827 27.7416 164.808 27.7861C164.789 27.8306 164.761 27.8709 164.726 27.9045C164.693 27.9401 164.653 27.9683 164.608 27.9875C164.564 28.0066 164.516 28.0162 164.467 28.0156H163.223C163.137 28.007 163.051 28.0178 162.97 28.0473C162.889 28.0768 162.816 28.1242 162.756 28.1859C162.662 28.3085 162.614 28.461 162.623 28.6155V28.9192H165.282V28.5415C165.274 28.1514 165.352 27.7645 165.511 27.4083C165.656 27.086 165.872 26.8001 166.141 26.5713C166.422 26.3359 166.747 26.1573 167.096 26.0455C167.497 25.9207 167.914 25.8607 168.333 25.8677H169.652C169.7 25.868 169.748 25.878 169.792 25.8971C169.837 25.9162 169.877 25.944 169.911 25.9788C169.947 26.0133 169.975 26.0548 169.994 26.1006C170.013 26.1465 170.023 26.1958 170.022 26.2455V27.6453C170.02 27.7429 169.98 27.836 169.911 27.905C169.842 27.9741 169.749 28.0137 169.652 28.0156H168.4C168.315 28.0064 168.23 28.0171 168.15 28.0466C168.071 28.0762 167.999 28.1239 167.941 28.1859C167.846 28.3085 167.799 28.461 167.807 28.6155L167.785 28.9192Z" fill="#01966B"/>
<path d="M142.189 36.2239C141.97 36.2217 141.757 36.1554 141.575 36.0333C141.394 35.9112 141.252 35.7386 141.168 35.5368C141.084 35.3351 141.06 35.113 141.101 34.8981C141.142 34.6832 141.244 34.4849 141.396 34.3278L164.563 11.0495C164.66 10.9226 164.782 10.8179 164.922 10.7424C165.062 10.6668 165.217 10.6223 165.376 10.6118C165.534 10.6013 165.694 10.625 165.842 10.6814C165.991 10.7377 166.126 10.8254 166.238 10.9385C166.35 11.0516 166.437 11.1874 166.492 11.3368C166.547 11.4862 166.569 11.6456 166.557 11.8043C166.545 11.963 166.499 12.1173 166.422 12.2567C166.345 12.3961 166.239 12.5173 166.111 12.6122L142.974 35.8683C142.874 35.9776 142.753 36.0654 142.618 36.1265C142.483 36.1876 142.337 36.2207 142.189 36.2239Z" fill="#37474F"/>
</svg>
