<svg width="24" height="29" viewBox="0 0 24 29" fill="none" xmlns="http://www.w3.org/2000/svg">
<path d="M16 0.332031C16.736 0.332031 17.3333 0.929365 17.3333 1.66536V8.33203H18.6667V6.9987H21.3333V8.33203H22.6667C23.4027 8.33203 24 8.92937 24 9.66537V25.6654C24 26.4014 23.4027 26.9987 22.6667 26.9987H21.3333V28.332H18.6667V26.9987H5.33333V28.332H2.66667V26.9987H1.33333C0.597333 26.9987 0 26.4014 0 25.6654V9.66537C0 8.92937 0.597333 8.33203 1.33333 8.33203H2.66667V6.9987H5.33333V8.33203H6.66667V1.66536C6.66667 0.929365 7.264 0.332031 8 0.332031H16ZM21.3333 10.9987H2.66667V24.332H21.3333V10.9987ZM8 12.332V22.9987H5.33333V12.332H8ZM13.3333 12.332V22.9987H10.6667V12.332H13.3333ZM18.6667 12.332V22.9987H16V12.332H18.6667ZM14.6667 2.9987H9.33333V8.33203H14.6667V2.9987Z" fill="#FFA600"/>
</svg>
