<svg width="28" height="24" viewBox="0 0 28 24" fill="none" xmlns="http://www.w3.org/2000/svg">
<path d="M1.99996 0H26C26.3536 0 26.6927 0.140476 26.9428 0.390524C27.1928 0.640573 27.3333 0.979711 27.3333 1.33333V22.6667C27.3333 23.0203 27.1928 23.3594 26.9428 23.6095C26.6927 23.8595 26.3536 24 26 24H1.99996C1.64634 24 1.3072 23.8595 1.05715 23.6095C0.807102 23.3594 0.666626 23.0203 0.666626 22.6667V1.33333C0.666626 0.979711 0.807102 0.640573 1.05715 0.390524C1.3072 0.140476 1.64634 0 1.99996 0ZM3.33329 2.66667V21.3333H24.6666V2.66667H3.33329ZM9.33329 14.6667H16.6666C16.8434 14.6667 17.013 14.5964 17.138 14.4714C17.2631 14.3464 17.3333 14.1768 17.3333 14C17.3333 13.8232 17.2631 13.6536 17.138 13.5286C17.013 13.4036 16.8434 13.3333 16.6666 13.3333H11.3333C10.4492 13.3333 9.60139 12.9821 8.97627 12.357C8.35115 11.7319 7.99996 10.8841 7.99996 10C7.99996 9.11594 8.35115 8.2681 8.97627 7.64298C9.60139 7.01786 10.4492 6.66667 11.3333 6.66667H12.6666V4H15.3333V6.66667H18.6666V9.33333H11.3333C11.1565 9.33333 10.9869 9.40357 10.8619 9.52859C10.7369 9.65362 10.6666 9.82319 10.6666 10C10.6666 10.1768 10.7369 10.3464 10.8619 10.4714C10.9869 10.5964 11.1565 10.6667 11.3333 10.6667H16.6666C17.5507 10.6667 18.3985 11.0179 19.0236 11.643C19.6488 12.2681 20 13.1159 20 14C20 14.8841 19.6488 15.7319 19.0236 16.357C18.3985 16.9821 17.5507 17.3333 16.6666 17.3333H15.3333V20H12.6666V17.3333H9.33329V14.6667Z" fill="#01966B"/>
</svg>
