<svg width="162" height="161" viewBox="0 0 162 161" fill="none" xmlns="http://www.w3.org/2000/svg">
<path d="M161 80.5C161 65.9571 157.036 51.6892 149.534 39.2308C142.031 26.7723 131.275 16.5945 118.421 9.7918C105.567 2.98912 91.1024 -0.181069 76.5817 0.622124C62.061 1.42532 48.0339 6.17151 36.0087 14.3503C23.9836 22.5292 14.4154 33.8312 8.33299 47.0411C2.2506 60.251 -0.115857 74.869 1.48808 89.3232C3.09201 103.777 8.60567 117.521 17.4361 129.076C26.2666 140.631 38.0799 149.561 51.6055 154.904L81 80.5H161Z" fill="#D69A00" stroke="white"/>
<path d="M51.6055 154.904C63.7377 159.697 76.858 161.451 89.8232 160.012C102.788 158.573 115.205 153.986 125.991 146.65C136.778 139.313 145.606 129.451 151.708 117.921C157.81 106.392 161 93.5447 161 80.5H81L51.6055 154.904Z" fill="#FFDBD3" stroke="white"/>
</svg>
