<svg width="223" height="223" viewBox="0 0 223 223" fill="none" xmlns="http://www.w3.org/2000/svg">
<path d="M196.583 111.586C196.583 92.1054 189.891 73.2159 177.628 58.0793C165.365 42.9427 148.275 32.4776 129.218 28.4357C110.162 24.3939 90.2949 27.0205 72.9434 35.876C55.5918 44.7315 41.8086 59.2784 33.9008 77.0818C25.993 94.8852 24.4405 114.865 29.5031 133.676C34.5658 152.487 45.9364 168.989 61.7117 180.418C77.487 191.848 96.7095 197.512 116.162 196.463C135.614 195.413 154.116 187.714 168.57 174.653L154.249 158.804C143.427 168.583 129.575 174.347 115.011 175.133C100.447 175.919 86.0551 171.678 74.2442 163.121C62.4332 154.564 53.92 142.209 50.1296 128.125C46.3392 114.041 47.5015 99.0821 53.4221 85.7527C59.3427 72.4232 69.6622 61.5319 82.6534 54.9018C95.6445 48.2717 110.519 46.3052 124.787 49.3313C139.054 52.3575 151.85 60.1927 161.031 71.5255C170.212 82.8583 175.222 97.0009 175.222 111.586H196.583Z" fill="#01966B"/>
<path d="M168.53 174.051C176.777 166.529 183.462 157.456 188.202 147.35C192.943 137.245 195.647 126.304 196.16 115.154C196.672 104.003 194.983 92.8606 191.19 82.3626C187.396 71.8647 181.572 62.2167 174.05 53.9696L158.268 68.3641C163.9 74.5388 168.261 81.7622 171.101 89.622C173.941 97.4819 175.205 105.824 174.822 114.173C174.438 122.521 172.414 130.712 168.864 138.278C165.315 145.844 160.31 152.637 154.135 158.269L168.53 174.051Z" fill="#FFF0F0"/>
<path d="M93.4374 194.365C107.818 197.447 122.751 196.745 136.779 192.328C150.807 187.911 163.448 179.929 173.468 169.164L157.833 154.611C150.331 162.671 140.866 168.646 130.363 171.954C119.861 175.261 108.68 175.786 97.9135 173.479L93.4374 194.365Z" fill="#FFA600"/>
<path d="M194.329 91.3466C190.532 76.0551 182.559 62.1199 171.302 51.0969C160.044 40.0738 145.944 32.3968 130.576 28.9228L125.866 49.7575C137.372 52.3585 147.929 58.1063 156.358 66.3593C164.786 74.6123 170.755 85.0455 173.598 96.4943L194.329 91.3466Z" fill="#DBDBDB"/>
<path d="M102.368 108.35C102.368 114.146 103.988 121.526 111.008 121.526C118.028 121.526 119.648 114.146 119.648 108.35C119.648 102.554 118.028 95.1737 111.008 95.1737C103.988 95.1737 102.368 102.554 102.368 108.35ZM105.392 108.35C105.392 104.606 105.968 97.7657 111.008 97.7657C116.048 97.7657 116.624 104.606 116.624 108.35C116.624 112.094 116.048 118.934 111.008 118.934C105.968 118.934 105.392 112.094 105.392 108.35Z" fill="black"/>
</svg>
