<svg width="24" height="28" viewBox="0 0 24 28" fill="none" xmlns="http://www.w3.org/2000/svg">
<path d="M18.6667 0.667969V3.33464H22.676C23.4067 3.33464 24 3.92797 24 4.65864V26.0106C24 26.7413 23.4067 27.3346 22.676 27.3346H1.324C0.593333 27.3346 0 26.7413 0 26.0106V4.65864C0 3.92797 0.593333 3.33464 1.324 3.33464H5.33333V0.667969H18.6667ZM5.33333 6.0013H2.66667V24.668H21.3333V6.0013H18.6667V8.66797H5.33333V6.0013ZM8 19.3346V22.0013H5.33333V19.3346H8ZM8 15.3346V18.0013H5.33333V15.3346H8ZM8 11.3346V14.0013H5.33333V11.3346H8ZM16 3.33464H8V6.0013H16V3.33464Z" fill="#7987A5"/>
</svg>
