<svg width="20" height="18" viewBox="0 0 20 18" fill="none" xmlns="http://www.w3.org/2000/svg">
<path d="M13.707 4.77876C13.5365 4.77876 13.3891 4.71571 13.2645 4.5896C13.14 4.4635 13.0777 4.31416 13.0777 4.14159C13.0777 3.8031 13.14 3.47788 13.2645 3.16593C13.3891 2.85398 13.5726 2.57854 13.8151 2.3396L14.5919 1.54314C14.841 1.29093 14.9656 0.988938 14.9656 0.637168C14.9656 0.464602 15.0279 0.315266 15.1524 0.189159C15.277 0.0630531 15.4245 0 15.5949 0C15.7653 0 15.9128 0.0630531 16.0374 0.189159C16.1619 0.315266 16.2242 0.464602 16.2242 0.637168C16.2242 0.975664 16.1619 1.30088 16.0374 1.61283C15.9128 1.92478 15.7293 2.20022 15.4867 2.43916L14.7099 3.23562C14.4608 3.48783 14.3363 3.78982 14.3363 4.14159C14.3363 4.31416 14.274 4.4635 14.1495 4.5896C14.0249 4.71571 13.8774 4.77876 13.707 4.77876ZM9.93117 4.77876C9.76073 4.77876 9.61324 4.71571 9.48869 4.5896C9.36414 4.4635 9.30187 4.31416 9.30187 4.14159C9.30187 3.8031 9.36414 3.47788 9.48869 3.16593C9.61324 2.85398 9.79679 2.57854 10.0393 2.3396L10.8161 1.54314C11.0652 1.29093 11.1898 0.988938 11.1898 0.637168C11.1898 0.464602 11.252 0.315266 11.3766 0.189159C11.5011 0.0630531 11.6486 0 11.8191 0C11.9895 0 12.137 0.0630531 12.2616 0.189159C12.3861 0.315266 12.4484 0.464602 12.4484 0.637168C12.4484 0.975664 12.3861 1.30088 12.2616 1.61283C12.137 1.92478 11.9535 2.20022 11.7109 2.43916L10.9341 3.23562C10.685 3.48783 10.5605 3.78982 10.5605 4.14159C10.5605 4.31416 10.4982 4.4635 10.3736 4.5896C10.2491 4.71571 10.1016 4.77876 9.93117 4.77876ZM18.1121 6.53097C18.3743 6.53097 18.6201 6.58075 18.8496 6.68031C19.079 6.77987 19.2789 6.91593 19.4494 7.0885C19.6198 7.26106 19.7542 7.4635 19.8525 7.6958C19.9508 7.9281 20 8.17699 20 8.44248V12.2655C20 12.531 19.9508 12.7799 19.8525 13.0122C19.7542 13.2445 19.6198 13.4469 19.4494 13.6195C19.2789 13.792 19.079 13.9281 18.8496 14.0277C18.6201 14.1272 18.3743 14.177 18.1121 14.177H17.5516C17.5385 14.2235 17.5287 14.2666 17.5221 14.3064C17.5156 14.3462 17.5025 14.3861 17.4828 14.4259V14.8142C17.4828 15.2522 17.4009 15.6637 17.237 16.0487C17.0731 16.4336 16.8469 16.7721 16.5585 17.0642C16.2701 17.3562 15.9358 17.5852 15.5556 17.7511C15.1754 17.917 14.7689 18 14.3363 18H10.5605C10.0492 18 9.57719 17.8839 9.14454 17.6516C8.7119 17.4192 8.35136 17.1106 8.06293 16.7257H3.14651C2.71386 16.7257 2.30744 16.6427 1.92724 16.4768C1.54703 16.3108 1.21272 16.0852 0.924287 15.7998C0.635857 15.5144 0.409702 15.1759 0.245821 14.7843C0.0819404 14.3927 0 13.9779 0 13.5398V12.9027H2.51721C2.51721 12.3783 2.61554 11.8839 2.81219 11.4192C3.00885 10.9546 3.28089 10.5498 3.62832 10.2046C3.97575 9.85951 4.37561 9.58407 4.82793 9.37832C5.28024 9.17257 5.7686 9.07301 6.29302 9.07965C6.48968 9.07965 6.67978 9.09624 6.86332 9.12943C7.04687 9.16261 7.23042 9.20907 7.41396 9.26881V5.25664H17.4828V6.53097H18.1121ZM6.29302 10.354C5.94559 10.354 5.62111 10.4204 5.31957 10.5531C5.01803 10.6858 4.74926 10.8684 4.51327 11.1007C4.27729 11.333 4.09702 11.6018 3.97247 11.9071C3.84792 12.2124 3.78237 12.5442 3.77581 12.9027H7.41396V10.6327C7.24353 10.5465 7.06654 10.4801 6.88299 10.4336C6.69944 10.3872 6.50279 10.3606 6.29302 10.354ZM3.14651 15.4513H7.48279C7.43691 15.2589 7.41396 15.0465 7.41396 14.8142V14.177H1.36676C1.43232 14.3628 1.52409 14.5321 1.64208 14.6847C1.76008 14.8374 1.89446 14.9735 2.04523 15.0929C2.196 15.2124 2.36644 15.2987 2.55654 15.3518C2.74664 15.4049 2.9433 15.4381 3.14651 15.4513ZM7.69911 16.1184V16.1283L7.70895 16.1482V16.1383L7.69911 16.1184ZM16.2242 14.8142V6.53097H8.67257V14.8142C8.67257 15.0796 8.72173 15.3285 8.82006 15.5608C8.91839 15.7931 9.05277 15.9956 9.22321 16.1681C9.39364 16.3407 9.59358 16.4768 9.82301 16.5763C10.0524 16.6759 10.2983 16.7257 10.5605 16.7257H14.3363C14.5985 16.7257 14.8443 16.6759 15.0737 16.5763C15.3032 16.4768 15.5031 16.3407 15.6735 16.1681C15.844 15.9956 15.9784 15.7931 16.0767 15.5608C16.175 15.3285 16.2242 15.0796 16.2242 14.8142ZM18.7414 12.2655V8.44248C18.7414 8.26991 18.6791 8.12058 18.5546 7.99447C18.43 7.86836 18.2825 7.80531 18.1121 7.80531H17.4828V12.9027H18.1121C18.2825 12.9027 18.43 12.8396 18.5546 12.7135C18.6791 12.5874 18.7414 12.4381 18.7414 12.2655Z" fill="#FFA600"/>
</svg>
