<svg width="86" height="187" viewBox="0 0 86 187" fill="none" xmlns="http://www.w3.org/2000/svg">
<path d="M73.6039 29.7156C73.9339 26.8356 76.5239 24.7656 79.4039 25.0956C82.2839 25.4256 84.3539 28.0156 84.0239 30.8956C83.6939 33.7756 81.1039 35.8456 78.2239 35.5156C75.3439 35.1956 73.2739 32.5956 73.6039 29.7156Z" fill="#FCC9A7"/>
<path d="M76.8137 28.5156L70.7637 40.7056L75.7237 43.3356L80.6837 34.5056L76.8137 28.5156Z" fill="#FCC9A7"/>
<path d="M36.7836 49.1055L63.9736 63.3955C65.0536 64.0155 66.4336 63.5955 66.9836 62.4755L79.5936 39.5855L72.3236 34.8555L62.1936 51.8055L43.0536 39.7155C40.2136 37.5255 36.0836 38.4955 34.5136 41.7155C33.2236 44.4055 34.2136 47.6255 36.7836 49.1055Z" fill="#01966B"/>
<path d="M41.1437 119.306C41.1437 119.306 34.3437 131.016 30.4337 138.596C29.8237 139.776 28.8237 140.646 27.9337 141.636C25.2537 144.616 22.7137 147.836 19.7437 153.586C15.3237 162.156 7.9537 179.436 7.9537 179.436L2.80371 177.526L8.3537 158.506C8.3537 158.506 9.28369 141.786 20.0037 132.816C20.0037 132.816 22.9137 127.756 25.4137 117.896L41.1437 119.306Z" fill="#F2C09E"/>
<path d="M50.6636 114.246C50.6636 114.246 43.6036 158.936 44.7836 180.906L38.6837 181.126L36.8936 161.826C36.8936 161.826 31.5737 148.556 36.9637 137.026L34.4736 111.086L50.6636 114.246Z" fill="#FCC9A7"/>
<path d="M33.0337 30.4458C33.0337 30.4458 26.2437 36.5058 27.9637 45.4758C29.6837 54.4558 34.6837 58.3158 33.8437 64.2358L53.2337 63.5358L52.8337 52.5458C52.8337 52.5458 59.1337 47.7358 52.3837 40.0658L46.5737 33.4458L41.3637 34.1158L33.0337 30.4458Z" fill="#E6E6E6"/>
<path d="M43.123 28.9561L47.053 31.2461L49.683 35.6761L44.263 34.0161L43.123 28.9561Z" fill="#F7EBE7"/>
<path d="M41.3742 34.116C40.2042 34.106 38.9642 33.626 38.0442 33.146C37.1342 32.676 36.5742 31.726 36.5742 30.696L36.7642 11.896L44.9842 11.936L44.7942 30.496C44.7842 32.646 43.2442 34.126 41.3742 34.116Z" fill="#FCC9A7"/>
<path d="M44.8442 25.2961L41.4542 20.4961C41.4542 20.4961 39.3742 25.9761 44.8242 27.6761L44.8442 25.2961Z" fill="#F2C09E"/>
<path d="M52.2438 11.976C52.2138 17.576 47.6538 22.086 42.0638 22.066C36.4638 22.036 31.9438 17.476 31.9738 11.886C32.0038 6.28605 36.5638 1.76605 42.1638 1.79605C47.7538 1.82605 52.2738 6.37605 52.2438 11.976Z" fill="#FCC9A7"/>
<path d="M45.5742 25.3561C42.9142 25.3461 40.7742 23.1761 40.7842 20.5161L40.8142 13.5761L52.2442 11.9761L52.2142 18.7761C52.1942 22.4261 49.2242 25.3661 45.5742 25.3561Z" fill="#FCC9A7"/>
<path d="M51.9335 14.2461L54.1335 17.5161C54.4435 18.0461 54.0335 18.6961 53.3835 18.6961L50.8135 19.1661L51.9335 14.2461Z" fill="#FCC9A7"/>
<path d="M36.4432 27.2158L46.5832 33.4558L44.3832 37.7858L33.0332 30.4558C33.0332 30.4458 34.4532 27.9658 36.4432 27.2158Z" fill="#F7EBE7"/>
<path d="M33.8529 64.2459L32.4629 68.9859L53.5229 68.2259L53.2329 63.5459L33.8529 64.2459Z" fill="#F7EBE7"/>
<path d="M53.523 68.2256L54.483 121.516C54.483 121.516 33.263 125.696 21.583 118.456C21.583 118.456 26.143 101.316 25.293 94.3056C23.713 81.4556 25.523 75.9056 32.483 68.9756L53.523 68.2256Z" fill="#01966B"/>
<path d="M36.8133 178.246C36.9633 177.716 37.5233 177.496 37.9333 177.816C38.7233 178.456 40.1233 179.206 42.1233 178.916C44.2033 178.606 44.9333 177.346 45.1833 176.446C45.3133 175.976 45.7533 175.716 46.1633 175.896L59.1133 181.676C59.9033 182.026 60.5333 182.726 60.8733 183.606C61.1933 184.436 60.6733 185.366 59.8733 185.386L37.9733 185.796C37.1133 185.816 36.4133 184.996 36.4433 184.016L36.5833 179.176C36.5833 179.096 36.5933 179.016 36.6233 178.936L36.8133 178.246Z" fill="#1F252A"/>
<path d="M1.95338 173.826C2.24338 173.356 2.84338 173.286 3.14338 173.706C3.73338 174.536 4.88338 175.626 6.89338 175.876C8.97338 176.136 10.0134 175.106 10.5034 174.306C10.7534 173.886 11.2434 173.756 11.5934 174.036L22.5534 183.036C23.2234 183.586 23.6434 184.416 23.7434 185.366C23.8334 186.256 23.0834 187.016 22.3134 186.816L1.08338 181.406C0.253381 181.196 -0.206628 180.226 0.0733716 179.286L1.49338 174.656C1.51338 174.576 1.55339 174.506 1.59339 174.436L1.95338 173.826Z" fill="#1F252A"/>
<path d="M40.8235 16.3558L45.1335 16.1958C45.1335 16.1958 45.5035 12.4558 46.3435 11.5558C47.1835 10.6558 47.6135 6.65583 47.6135 6.65583C47.6135 6.65583 48.3835 9.14583 47.7935 11.7258L54.0135 11.5058C54.0135 11.5058 55.3635 0.545827 41.6835 0.0158268C28.0035 -0.514173 28.3734 12.4258 31.0634 14.9958C33.2034 17.0358 36.6735 20.6658 36.6735 20.6658C36.6735 20.6658 36.5135 16.5058 40.8235 16.3558Z" fill="#4C1827"/>
<path d="M43.9434 15.0258C44.0034 16.6258 42.7534 17.9658 41.1534 18.0258C39.5534 18.0858 38.2134 16.8358 38.1534 15.2358C38.0934 13.6358 39.3434 12.2958 40.9434 12.2358C42.5434 12.1858 43.8834 13.4258 43.9434 15.0258Z" fill="#FCC9A7"/>
<path d="M32.9632 17.0858C33.0932 20.6958 30.2732 23.7358 26.6632 23.8658C23.0532 23.9958 20.0132 21.1758 19.8832 17.5558C19.7532 13.9458 22.5732 10.9058 26.1832 10.7758C29.8032 10.6458 32.8332 13.4658 32.9632 17.0858Z" fill="#4C1827"/>
<path d="M40.2141 75.4257C43.0641 75.9257 44.974 78.6357 44.484 81.4957C43.984 84.3457 41.274 86.2557 38.414 85.7657C35.564 85.2657 33.654 82.5557 34.144 79.6957C34.644 76.8357 37.3641 74.9257 40.2141 75.4257Z" fill="#FCC9A7"/>
<path d="M41.9937 76.0857L30.1837 69.3257L27.2637 74.1157L35.7837 79.5957L41.9937 76.0857Z" fill="#FCC9A7"/>
<path d="M29.5032 34.8061L10.5532 59.7061C9.75319 60.6661 9.92319 62.0961 10.9332 62.8361L31.4132 78.6361L37.3332 72.3061L22.2632 59.9861L37.6432 42.6361C40.2932 40.2261 40.0632 35.9861 37.1632 33.8761C34.7532 32.1161 31.4132 32.5361 29.5032 34.8061Z" fill="#01966B"/>
<path d="M85.9532 18.0259L80.2932 33.0559C80.1432 33.4659 79.6932 33.6759 79.2832 33.5459L71.7332 31.1659C71.2832 31.0259 71.0432 30.5259 71.2232 30.0859L77.0732 15.2559C77.2332 14.8659 77.6532 14.6559 78.0632 14.7759L85.4232 16.9459C85.8832 17.0859 86.1232 17.5759 85.9532 18.0259Z" fill="#1C2226"/>
<path d="M84.0436 18.6659L79.7736 30.8059C79.6736 31.0859 79.3736 31.2459 79.0836 31.1759L73.4236 29.7059C73.0836 29.6159 72.9036 29.2559 73.0336 28.9359L77.8836 16.6859C77.9936 16.4059 78.3036 16.2559 78.5936 16.3459L83.6736 17.9359C83.9836 18.0259 84.1536 18.3559 84.0436 18.6659Z" fill="#EFEFEF"/>
</svg>
