<svg width="62" height="62" viewBox="0 0 62 62" fill="none" xmlns="http://www.w3.org/2000/svg">
<path d="M56.0583 34.4874L53.475 37.0708L48.1792 31.9041L50.7625 29.3208C51.2792 28.7783 52.1575 28.7524 52.7517 29.3208L56.0583 32.6274C56.5492 33.1441 56.5492 33.9708 56.0583 34.4874ZM31 48.9283V54.2499H36.3217L51.9767 38.4399L46.6808 33.2733L31 48.9283ZM12.9167 49.0833H25.8333V54.2499H12.9167C11.5464 54.2499 10.2322 53.7056 9.26328 52.7366C8.29434 51.7677 7.75 50.4535 7.75 49.0833V12.9166C7.75 10.0749 10.075 7.74992 12.9167 7.74992H15.5V2.58325H20.6667V7.74992H41.3333V2.58325H46.5V7.74992H49.0833C50.4536 7.74992 51.7678 8.29426 52.7367 9.2632C53.7057 10.2321 54.25 11.5463 54.25 12.9166V23.2499H12.9167V49.0833ZM12.9167 12.9166V18.0833H49.0833V12.9166H12.9167Z" fill="#3A3A3A" fill-opacity="0.8"/>
</svg>
