<svg width="62" height="62" viewBox="0 0 62 62" fill="none" xmlns="http://www.w3.org/2000/svg">
<path d="M7.75 18.0833V12.9167C7.75 11.5464 8.29434 10.2322 9.26328 9.26328C10.2322 8.29434 11.5464 7.75 12.9167 7.75H18.0833M43.9167 7.75H49.0833C50.4536 7.75 51.7678 8.29434 52.7367 9.26328C53.7057 10.2322 54.25 11.5464 54.25 12.9167V18.0833M54.25 43.9167V49.0833C54.25 50.4536 53.7057 51.7678 52.7367 52.7367C51.7678 53.7057 50.4536 54.25 49.0833 54.25H43.9167M18.0833 54.25H12.9167C11.5464 54.25 10.2322 53.7057 9.26328 52.7367C8.29434 51.7678 7.75 50.4536 7.75 49.0833V43.9167M20.6667 36.1667C20.6667 36.1667 24.5417 41.3333 31 41.3333C37.4583 41.3333 41.3333 36.1667 41.3333 36.1667M23.25 23.25H23.2758M38.75 23.25H38.7758" stroke="#3A3A3A" stroke-opacity="0.8" stroke-width="4" stroke-linecap="round" stroke-linejoin="round"/>
</svg>
