<svg width="62" height="62" viewBox="0 0 62 62" fill="none" xmlns="http://www.w3.org/2000/svg">
<path d="M30.9999 31.0001C32.4208 31.0001 33.6375 30.4937 34.6502 29.4811C35.6611 28.4701 36.1666 27.2542 36.1666 25.8334C36.1666 24.4126 35.6611 23.1958 34.6502 22.1832C33.6375 21.1722 32.4208 20.6667 30.9999 20.6667C29.5791 20.6667 28.3632 21.1722 27.3523 22.1832C26.3396 23.1958 25.8333 24.4126 25.8333 25.8334C25.8333 27.2542 26.3396 28.4701 27.3523 29.4811C28.3632 30.4937 29.5791 31.0001 30.9999 31.0001ZM30.9999 49.9876C36.2527 45.1654 40.1492 40.784 42.6895 36.8436C45.2298 32.9049 46.4999 29.407 46.4999 26.3501C46.4999 21.657 45.0033 17.8139 42.0101 14.8207C39.0186 11.8292 35.3485 10.3334 30.9999 10.3334C26.6513 10.3334 22.9804 11.8292 19.9872 14.8207C16.9957 17.8139 15.4999 21.657 15.4999 26.3501C15.4999 29.407 16.7701 32.9049 19.3103 36.8436C21.8506 40.784 25.7471 45.1654 30.9999 49.9876ZM30.9999 56.8334C24.068 50.9348 18.891 45.4556 15.4689 40.3957C12.0451 35.3375 10.3333 30.6556 10.3333 26.3501C10.3333 19.8917 12.4111 14.7466 16.5668 10.9147C20.7208 7.08272 25.5319 5.16675 30.9999 5.16675C36.468 5.16675 41.279 7.08272 45.433 10.9147C49.5887 14.7466 51.6666 19.8917 51.6666 26.3501C51.6666 30.6556 49.9556 35.3375 46.5335 40.3957C43.1097 45.4556 37.9319 50.9348 30.9999 56.8334Z" fill="#3A3A3A" fill-opacity="0.8"/>
</svg>
