<svg width="537" height="400" viewBox="0 0 537 400" fill="none" xmlns="http://www.w3.org/2000/svg">
<path d="M536.825 351.508H0V351.776H536.825V351.508Z" fill="#EBEBEB"/>
<path d="M91.8835 361.734H56.3242V362.003H91.8835V361.734Z" fill="#EBEBEB"/>
<path d="M241.571 361.875H183.744V362.143H241.571V361.875Z" fill="#EBEBEB"/>
<path d="M134.162 367.273H113.559V367.542H134.162V367.273Z" fill="#EBEBEB"/>
<path d="M478.846 367.148H458.199V367.417H478.846V367.148Z" fill="#EBEBEB"/>
<path d="M448.636 367.148H416.115V367.417H448.636V367.148Z" fill="#EBEBEB"/>
<path d="M398.206 365.375H352.512V365.643H398.206V365.375Z" fill="#EBEBEB"/>
<path d="M254.456 303.628H47.1452C45.5211 303.625 43.9646 302.978 42.8172 301.829C41.6698 300.679 41.0254 299.122 41.0254 297.497V6.07685C41.0395 4.46211 41.6902 2.91816 42.836 1.78034C43.9819 0.642534 45.5304 0.00276614 47.1452 0H254.456C256.082 0 257.641 0.645894 258.791 1.79559C259.941 2.94529 260.587 4.50462 260.587 6.13054V297.497C260.587 299.123 259.941 300.683 258.791 301.832C257.641 302.982 256.082 303.628 254.456 303.628ZM47.1452 0.214731C45.5923 0.217575 44.104 0.836443 43.007 1.9355C41.9099 3.03455 41.2938 4.52398 41.2938 6.07685V297.497C41.2938 299.05 41.9099 300.54 43.007 301.639C44.104 302.738 45.5923 303.357 47.1452 303.36H254.456C256.01 303.357 257.499 302.738 258.598 301.639C259.697 300.541 260.315 299.051 260.318 297.497V6.07685C260.315 4.52299 259.697 3.03359 258.598 1.93484C257.499 0.836094 256.01 0.217569 254.456 0.214731H47.1452Z" fill="#EBEBEB"/>
<path d="M486.696 303.628H279.375C277.75 303.625 276.192 302.978 275.043 301.829C273.894 300.68 273.247 299.123 273.244 297.497V6.07685C273.261 4.46113 273.914 2.91719 275.062 1.77967C276.209 0.642159 277.759 0.00273597 279.375 0H486.696C488.309 0.0055878 489.855 0.646604 490.999 1.78411C492.142 2.92162 492.791 4.46397 492.805 6.07685V297.497C492.805 299.12 492.163 300.676 491.017 301.825C489.872 302.974 488.319 303.622 486.696 303.628ZM279.375 0.214731C277.821 0.217569 276.331 0.836094 275.233 1.93484C274.134 3.03359 273.515 4.52299 273.513 6.07685V297.497C273.515 299.051 274.134 300.541 275.233 301.639C276.331 302.738 277.821 303.357 279.375 303.36H486.696C488.25 303.357 489.74 302.738 490.838 301.639C491.937 300.541 492.556 299.051 492.558 297.497V6.07685C492.556 4.52299 491.937 3.03359 490.838 1.93484C489.74 0.836094 488.25 0.217569 486.696 0.214731H279.375Z" fill="#EBEBEB"/>
<path d="M324.477 351.508H354.883V200.231H324.477V351.508Z" fill="#E6E6E6"/>
<path d="M330.245 351.513H324.469V335.086H336.3L330.245 351.513Z" fill="#F0F0F0"/>
<path d="M438.114 351.508H468.52V200.231H438.114V351.508Z" fill="#E6E6E6"/>
<path d="M324.479 341.43H443.16V200.234L324.479 200.234V341.43Z" fill="#F0F0F0"/>
<path d="M328.955 293.437V320.891H381.875V293.437H328.955Z" fill="#E6E6E6"/>
<path d="M385.752 293.437V320.891H438.672V293.437H385.752Z" fill="#E6E6E6"/>
<path d="M406.978 298.034H417.446C419.697 298.036 421.925 297.578 423.993 296.688C426.06 295.798 427.924 294.495 429.471 292.859H394.953C396.5 294.495 398.364 295.798 400.432 296.688C402.499 297.578 404.727 298.036 406.978 298.034Z" fill="#F0F0F0"/>
<path d="M349.644 298.034H360.112C362.363 298.036 364.591 297.578 366.659 296.688C368.726 295.798 370.59 294.495 372.137 292.859H337.619C339.166 294.495 341.03 295.798 343.098 296.688C345.165 297.578 347.393 298.036 349.644 298.034Z" fill="#F0F0F0"/>
<path d="M328.943 250.758V278.211H381.864V250.758H328.943Z" fill="#E6E6E6"/>
<path d="M385.752 250.773V278.227H438.672V250.773H385.752Z" fill="#E6E6E6"/>
<path d="M406.978 255.361H417.446C419.697 255.356 421.923 254.893 423.988 253.999C426.054 253.106 427.916 251.801 429.46 250.164H394.953C396.499 251.802 398.363 253.108 400.43 254.001C402.498 254.895 404.726 255.357 406.978 255.361Z" fill="#F0F0F0"/>
<path d="M349.644 255.36H360.112C362.362 255.36 364.589 254.903 366.656 254.015C368.724 253.127 370.588 251.828 372.137 250.195H337.619C339.168 251.828 341.033 253.127 343.1 254.015C345.167 254.903 347.394 255.36 349.644 255.36Z" fill="#F0F0F0"/>
<path d="M328.955 208.094V235.547H381.875V208.094H328.955Z" fill="#E6E6E6"/>
<path d="M385.752 208.094V235.547H438.672V208.094H385.752Z" fill="#E6E6E6"/>
<path d="M406.978 212.691H417.446C419.697 212.692 421.925 212.234 423.993 211.344C426.06 210.454 427.924 209.151 429.471 207.516H394.953C396.5 209.151 398.364 210.454 400.432 211.344C402.499 212.234 404.727 212.692 406.978 212.691Z" fill="#F0F0F0"/>
<path d="M349.644 212.691H360.112C362.363 212.692 364.591 212.234 366.659 211.344C368.726 210.454 370.59 209.151 372.137 207.516H337.619C339.166 209.151 341.03 210.454 343.098 211.344C345.165 212.234 347.393 212.692 349.644 212.691Z" fill="#F0F0F0"/>
<path d="M437.384 351.513H443.16V335.086H431.328L437.384 351.513Z" fill="#F0F0F0"/>
<path d="M442.386 96.3828L447.035 109.095H442.386L413.859 96.3828H442.386Z" fill="#F5F5F5"/>
<path d="M447.036 96.3828V109.095L418.52 96.3828H447.036Z" fill="#E6E6E6"/>
<path d="M330.543 96.3828L335.192 109.095H330.543L302.027 96.3828H330.543Z" fill="#F5F5F5"/>
<path d="M335.194 96.3828V109.095L306.678 96.3828H335.194Z" fill="#E6E6E6"/>
<path d="M467.973 87.2969H436.955V96.9705H467.973V87.2969Z" fill="#E6E6E6"/>
<path d="M282.747 96.9844L436.955 96.9844V87.3108L282.747 87.3108V96.9844Z" fill="#F5F5F5"/>
<path d="M405.635 53.6797C405.635 53.6797 405.946 87.3064 417.552 87.3064C429.158 87.3064 429.459 53.6797 429.459 53.6797H405.635Z" fill="#F0F0F0"/>
<path d="M333.67 76.3359C333.67 76.3359 334.486 87.2979 365.708 87.2979C396.929 87.2979 397.745 76.3359 397.745 76.3359H333.67Z" fill="#F0F0F0"/>
<path d="M240.883 351.517H242.955L248.892 322.26L249.966 317.128L256.408 285.24H281.295L294.748 351.517H296.831L283.12 284.027C283.075 283.796 282.951 283.588 282.768 283.439C282.586 283.29 282.357 283.209 282.122 283.211H255.581C255.347 283.21 255.12 283.29 254.939 283.44C254.758 283.589 254.636 283.797 254.593 284.027L248.903 312.028L247.829 317.149L240.883 351.517Z" fill="#F0F0F0"/>
<path d="M201.02 351.508H203.092L216.555 285.231H241.378L247.82 317.14L248.894 322.251L254.842 351.508H256.914L249.935 317.151L248.861 312.051L243.171 284.05C243.115 283.825 242.988 283.623 242.808 283.476C242.628 283.329 242.405 283.244 242.173 283.234H215.729C215.493 283.233 215.264 283.313 215.082 283.462C214.9 283.611 214.775 283.819 214.73 284.05L201.02 351.508Z" fill="#F0F0F0"/>
<path d="M285.012 275.477H212.788C211.131 275.479 209.544 276.139 208.372 277.31C207.201 278.481 206.542 280.069 206.539 281.725V281.94C206.539 282.546 206.78 283.128 207.209 283.557C207.638 283.986 208.219 284.227 208.826 284.227H288.974C289.58 284.227 290.162 283.986 290.591 283.557C291.02 283.128 291.261 282.546 291.261 281.94V281.725C291.258 280.069 290.599 278.481 289.427 277.31C288.256 276.139 286.668 275.479 285.012 275.477Z" fill="#F0F0F0"/>
<path d="M168.4 351.517H170.473L176.41 322.26L177.483 317.128L183.925 285.24H208.748L222.244 351.517H224.327L210.616 284.027C210.571 283.796 210.447 283.588 210.264 283.439C210.082 283.29 209.853 283.209 209.618 283.211H183.099C182.864 283.21 182.637 283.29 182.457 283.44C182.276 283.589 182.154 283.797 182.111 284.027L176.421 312.028L175.347 317.149L168.4 351.517Z" fill="#F0F0F0"/>
<path d="M128.537 351.517H130.62L144.073 285.24H168.906L175.348 317.149L176.422 322.26L182.37 351.517H184.442L177.463 317.16L176.39 312.06L170.71 284.027C170.654 283.801 170.527 283.6 170.347 283.452C170.167 283.305 169.944 283.22 169.712 283.211H143.246C143.011 283.209 142.782 283.29 142.6 283.439C142.417 283.588 142.293 283.796 142.248 284.027L128.537 351.517Z" fill="#F0F0F0"/>
<path d="M212.583 275.477H140.305C138.649 275.479 137.061 276.139 135.89 277.31C134.719 278.481 134.059 280.069 134.057 281.725V281.94C134.057 282.546 134.298 283.128 134.726 283.557C135.155 283.986 135.737 284.227 136.344 284.227H216.502C216.802 284.227 217.099 284.168 217.376 284.053C217.653 283.937 217.904 283.769 218.115 283.556C218.327 283.344 218.494 283.092 218.608 282.814C218.722 282.537 218.78 282.24 218.778 281.94V281.725C218.776 280.078 218.124 278.498 216.964 277.329C215.804 276.159 214.23 275.494 212.583 275.477Z" fill="#F0F0F0"/>
<path d="M90.5404 190.68H194.309L194.309 24.4466H90.5404L90.5404 190.68Z" fill="#E6E6E6"/>
<path d="M83.765 190.68H191.141L191.141 24.4466H83.765L83.765 190.68Z" fill="#F0F0F0"/>
<path d="M90.5404 203.273H194.309V190.669H90.5404V203.273Z" fill="#E6E6E6"/>
<path d="M72.47 203.273H179.846V190.669H72.47V203.273Z" fill="#F0F0F0"/>
<path d="M181.641 181.189V33.9375L93.2471 33.9375L93.2471 181.189H181.641Z" fill="#FAFAFA"/>
<path d="M182.401 181.178L151.308 33.9375H125.004L156.097 181.178H182.401Z" fill="white"/>
<path d="M175.241 163.594C175.42 163.594 175.592 163.523 175.719 163.396C175.846 163.269 175.917 163.097 175.917 162.918V40.1139C175.917 39.9345 175.846 39.7625 175.719 39.6356C175.592 39.5088 175.42 39.4375 175.241 39.4375C175.061 39.4375 174.889 39.5088 174.763 39.6356C174.636 39.7625 174.564 39.9345 174.564 40.1139V162.918C174.564 163.097 174.636 163.269 174.763 163.396C174.889 163.523 175.061 163.594 175.241 163.594Z" fill="#F0F0F0"/>
<path d="M150.45 181.178L119.357 33.9375H109.104L140.186 181.178H150.45Z" fill="white"/>
<path d="M94.4609 181.188L94.4609 33.9375H93.2584L93.2584 181.188H94.4609Z" fill="#E6E6E6"/>
<path opacity="0.6" d="M81.5098 41.2246H185.278L186.158 37.6172H82.3902L81.5098 41.2246Z" fill="#F0F0F0"/>
<path opacity="0.6" d="M81.5098 49.6123H185.278L186.158 46.0156H82.3902L81.5098 49.6123Z" fill="#F0F0F0"/>
<path opacity="0.6" d="M81.5098 58.0137H185.278L186.158 54.4062H82.3902L81.5098 58.0137Z" fill="#F0F0F0"/>
<path opacity="0.6" d="M81.5098 66.3936H185.278L186.158 62.7969H82.3902L81.5098 66.3936Z" fill="#F0F0F0"/>
<path opacity="0.6" d="M81.5098 74.792H185.278L186.158 71.1953H82.3902L81.5098 74.792Z" fill="#F0F0F0"/>
<path opacity="0.6" d="M81.5098 83.1856H185.278L186.158 79.5781H82.3902L81.5098 83.1856Z" fill="#F0F0F0"/>
<path d="M268.412 399.995C383.381 399.995 476.582 394.553 476.582 387.841C476.582 381.129 383.381 375.688 268.412 375.688C153.443 375.688 60.2422 381.129 60.2422 387.841C60.2422 394.553 153.443 399.995 268.412 399.995Z" fill="#F5F5F5"/>
<path d="M261.024 223.023H195.435C194.51 223.023 193.76 223.773 193.76 224.698V252.055C193.76 252.98 194.51 253.73 195.435 253.73H261.024C261.949 253.73 262.699 252.98 262.699 252.055V224.698C262.699 223.773 261.949 223.023 261.024 223.023Z" fill="#01966B"/>
<path opacity="0.6" d="M261.024 223.023H195.435C194.51 223.023 193.76 223.773 193.76 224.698V252.055C193.76 252.98 194.51 253.73 195.435 253.73H261.024C261.949 253.73 262.699 252.98 262.699 252.055V224.698C262.699 223.773 261.949 223.023 261.024 223.023Z" fill="white"/>
<path opacity="0.1" d="M261.014 223.023H195.403C194.959 223.023 194.533 223.2 194.219 223.514C193.905 223.828 193.729 224.254 193.729 224.698V233.47L227.871 240.191C228.08 240.234 228.295 240.234 228.504 240.191L262.657 233.47V224.698C262.657 224.26 262.485 223.838 262.178 223.525C261.87 223.212 261.453 223.032 261.014 223.023Z" fill="black"/>
<path d="M262.453 211.803H242.419V208.443C242.416 207.054 241.863 205.723 240.881 204.741C239.899 203.759 238.568 203.206 237.179 203.203H219.282C217.893 203.206 216.562 203.759 215.58 204.741C214.598 205.723 214.045 207.054 214.042 208.443V211.803H194.019C193.58 211.803 193.16 211.977 192.85 212.287C192.539 212.597 192.365 213.018 192.365 213.456V230.001C192.367 230.383 192.501 230.753 192.743 231.048C192.986 231.343 193.322 231.546 193.697 231.623L227.914 238.354C228.124 238.387 228.337 238.387 228.547 238.354L262.764 231.623C263.14 231.547 263.478 231.344 263.722 231.049C263.966 230.754 264.102 230.384 264.106 230.001V213.456C264.106 213.018 263.932 212.597 263.622 212.287C263.312 211.977 262.892 211.803 262.453 211.803ZM218.025 208.443C218.028 208.109 218.161 207.79 218.396 207.554C218.63 207.317 218.948 207.181 219.282 207.176H237.179C237.513 207.181 237.831 207.317 238.065 207.554C238.3 207.79 238.433 208.109 238.436 208.443V211.803H218.036L218.025 208.443Z" fill="#01966B"/>
<path opacity="0.6" d="M262.453 211.803H242.419V208.443C242.416 207.054 241.863 205.723 240.881 204.741C239.899 203.759 238.568 203.206 237.179 203.203H219.282C217.893 203.206 216.562 203.759 215.58 204.741C214.598 205.723 214.045 207.054 214.042 208.443V211.803H194.019C193.58 211.803 193.16 211.977 192.85 212.287C192.539 212.597 192.365 213.018 192.365 213.456V230.001C192.367 230.383 192.501 230.753 192.743 231.048C192.986 231.343 193.322 231.546 193.697 231.623L227.914 238.354C228.124 238.387 228.337 238.387 228.547 238.354L262.764 231.623C263.14 231.547 263.478 231.344 263.722 231.049C263.966 230.754 264.102 230.384 264.106 230.001V213.456C264.106 213.018 263.932 212.597 263.622 212.287C263.312 211.977 262.892 211.803 262.453 211.803ZM218.025 208.443C218.028 208.109 218.161 207.79 218.396 207.554C218.63 207.317 218.948 207.181 219.282 207.176H237.179C237.513 207.181 237.831 207.317 238.065 207.554C238.3 207.79 238.433 208.109 238.436 208.443V211.803H218.036L218.025 208.443Z" fill="white"/>
<path d="M231.767 233.828H224.702C223.825 233.828 223.113 234.54 223.113 235.417V239.883C223.113 240.761 223.825 241.473 224.702 241.473H231.767C232.644 241.473 233.356 240.761 233.356 239.883V235.417C233.356 234.54 232.644 233.828 231.767 233.828Z" fill="#01966B"/>
<path opacity="0.3" d="M231.767 233.828H224.702C223.825 233.828 223.113 234.54 223.113 235.417V239.883C223.113 240.761 223.825 241.473 224.702 241.473H231.767C232.644 241.473 233.356 240.761 233.356 239.883V235.417C233.356 234.54 232.644 233.828 231.767 233.828Z" fill="white"/>
<path d="M261.024 25.5156H195.435C194.51 25.5156 193.76 26.2655 193.76 27.1905V54.5471C193.76 55.4721 194.51 56.222 195.435 56.222H261.024C261.949 56.222 262.699 55.4721 262.699 54.5471V27.1905C262.699 26.2655 261.949 25.5156 261.024 25.5156Z" fill="#01966B"/>
<path opacity="0.6" d="M261.024 25.5156H195.435C194.51 25.5156 193.76 26.2655 193.76 27.1905V54.5471C193.76 55.4721 194.51 56.222 195.435 56.222H261.024C261.949 56.222 262.699 55.4721 262.699 54.5471V27.1905C262.699 26.2655 261.949 25.5156 261.024 25.5156Z" fill="white"/>
<path opacity="0.1" d="M261.014 25.5156H195.403C194.959 25.5156 194.533 25.6921 194.219 26.0062C193.905 26.3203 193.729 26.7463 193.729 27.1905V35.9622L227.871 42.6833C228.08 42.7261 228.295 42.7261 228.504 42.6833L262.657 35.9622V27.1905C262.657 26.7518 262.485 26.3306 262.178 26.0174C261.87 25.7042 261.453 25.5241 261.014 25.5156Z" fill="black"/>
<path d="M262.453 14.2874H242.419V10.9269C242.416 9.5382 241.863 8.20719 240.881 7.22522C239.899 6.24326 238.568 5.69034 237.179 5.6875H219.282C217.893 5.69034 216.562 6.24326 215.58 7.22522C214.598 8.20719 214.045 9.5382 214.042 10.9269V14.2874H194.019C193.58 14.2874 193.16 14.4616 192.85 14.7717C192.539 15.0818 192.365 15.5023 192.365 15.9409V32.4858C192.365 32.8683 192.498 33.2389 192.741 33.5346C192.984 33.8302 193.321 34.0325 193.697 34.107L227.914 40.7958C228.123 40.8386 228.338 40.8386 228.547 40.7958L262.764 34.0641C263.136 33.9936 263.472 33.7989 263.718 33.5121C263.963 33.2253 264.104 32.8633 264.117 32.4858V15.9409C264.117 15.7228 264.074 15.5069 263.99 15.3056C263.907 15.1043 263.784 14.9216 263.629 14.7679C263.474 14.6142 263.291 14.4927 263.089 14.4102C262.887 14.3277 262.671 14.286 262.453 14.2874ZM218.025 10.9269C218.025 10.5928 218.157 10.2721 218.393 10.0348C218.628 9.79756 218.947 9.66283 219.282 9.66H237.179C237.512 9.66281 237.83 9.79606 238.064 10.031C238.299 10.266 238.433 10.5839 238.436 10.9162V14.2767H218.036L218.025 10.9269Z" fill="#01966B"/>
<path opacity="0.6" d="M262.453 14.2874H242.419V10.9269C242.416 9.5382 241.863 8.20719 240.881 7.22522C239.899 6.24326 238.568 5.69034 237.179 5.6875H219.282C217.893 5.69034 216.562 6.24326 215.58 7.22522C214.598 8.20719 214.045 9.5382 214.042 10.9269V14.2874H194.019C193.58 14.2874 193.16 14.4616 192.85 14.7717C192.539 15.0818 192.365 15.5023 192.365 15.9409V32.4858C192.365 32.8683 192.498 33.2389 192.741 33.5346C192.984 33.8302 193.321 34.0325 193.697 34.107L227.914 40.7958C228.123 40.8386 228.338 40.8386 228.547 40.7958L262.764 34.0641C263.136 33.9936 263.472 33.7989 263.718 33.5121C263.963 33.2253 264.104 32.8633 264.117 32.4858V15.9409C264.117 15.7228 264.074 15.5069 263.99 15.3056C263.907 15.1043 263.784 14.9216 263.629 14.7679C263.474 14.6142 263.291 14.4927 263.089 14.4102C262.887 14.3277 262.671 14.286 262.453 14.2874ZM218.025 10.9269C218.025 10.5928 218.157 10.2721 218.393 10.0348C218.628 9.79756 218.947 9.66283 219.282 9.66H237.179C237.512 9.66281 237.83 9.79606 238.064 10.031C238.299 10.266 238.433 10.5839 238.436 10.9162V14.2767H218.036L218.025 10.9269Z" fill="white"/>
<path d="M231.767 36.3281H224.702C223.825 36.3281 223.113 37.0395 223.113 37.9171V42.3835C223.113 43.2611 223.825 43.9725 224.702 43.9725H231.767C232.644 43.9725 233.356 43.2611 233.356 42.3835V37.9171C233.356 37.0395 232.644 36.3281 231.767 36.3281Z" fill="#01966B"/>
<path opacity="0.3" d="M231.767 36.3281H224.702C223.825 36.3281 223.113 37.0395 223.113 37.9171V42.3835C223.113 43.2611 223.825 43.9725 224.702 43.9725H231.767C232.644 43.9725 233.356 43.2611 233.356 42.3835V37.9171C233.356 37.0395 232.644 36.3281 231.767 36.3281Z" fill="white"/>
<path d="M158.856 223.023H93.2667C92.3417 223.023 91.5918 223.773 91.5918 224.698V252.055C91.5918 252.98 92.3417 253.73 93.2667 253.73H158.856C159.781 253.73 160.531 252.98 160.531 252.055V224.698C160.531 223.773 159.781 223.023 158.856 223.023Z" fill="#01966B"/>
<path opacity="0.6" d="M158.856 223.023H93.2667C92.3417 223.023 91.5918 223.773 91.5918 224.698V252.055C91.5918 252.98 92.3417 253.73 93.2667 253.73H158.856C159.781 253.73 160.531 252.98 160.531 252.055V224.698C160.531 223.773 159.781 223.023 158.856 223.023Z" fill="white"/>
<path opacity="0.1" d="M158.899 223.023H93.2667C92.8225 223.023 92.3965 223.2 92.0824 223.514C91.7683 223.828 91.5918 224.254 91.5918 224.698V233.47L125.734 240.191C125.946 240.234 126.165 240.234 126.378 240.191L160.531 233.47V224.698C160.531 224.261 160.36 223.842 160.056 223.529C159.751 223.216 159.336 223.035 158.899 223.023Z" fill="black"/>
<path d="M160.273 211.803H140.239V208.443C140.236 207.054 139.683 205.723 138.701 204.741C137.719 203.759 136.388 203.206 135 203.203H117.113C115.724 203.206 114.393 203.759 113.411 204.741C112.429 205.723 111.876 207.054 111.873 208.443V211.803H91.839C91.4005 211.803 90.9799 211.977 90.6698 212.287C90.3597 212.597 90.1855 213.018 90.1855 213.456V230.001C90.1877 230.383 90.3212 230.753 90.5636 231.048C90.806 231.343 91.1426 231.546 91.5169 231.623L125.734 238.354C125.948 238.387 126.165 238.387 126.378 238.354L160.595 231.623C160.97 231.546 161.306 231.343 161.549 231.048C161.791 230.753 161.925 230.383 161.927 230.001V213.456C161.927 213.018 161.753 212.597 161.443 212.287C161.132 211.977 160.712 211.803 160.273 211.803ZM115.846 208.443C115.851 208.108 115.987 207.789 116.223 207.553C116.459 207.316 116.778 207.181 117.113 207.176H135C135.334 207.181 135.653 207.316 135.889 207.553C136.126 207.789 136.261 208.108 136.267 208.443V211.803H115.867L115.846 208.443Z" fill="#01966B"/>
<path opacity="0.6" d="M160.273 211.803H140.239V208.443C140.236 207.054 139.683 205.723 138.701 204.741C137.719 203.759 136.388 203.206 135 203.203H117.113C115.724 203.206 114.393 203.759 113.411 204.741C112.429 205.723 111.876 207.054 111.873 208.443V211.803H91.839C91.4005 211.803 90.9799 211.977 90.6698 212.287C90.3597 212.597 90.1855 213.018 90.1855 213.456V230.001C90.1877 230.383 90.3212 230.753 90.5636 231.048C90.806 231.343 91.1426 231.546 91.5169 231.623L125.734 238.354C125.948 238.387 126.165 238.387 126.378 238.354L160.595 231.623C160.97 231.546 161.306 231.343 161.549 231.048C161.791 230.753 161.925 230.383 161.927 230.001V213.456C161.927 213.018 161.753 212.597 161.443 212.287C161.132 211.977 160.712 211.803 160.273 211.803ZM115.846 208.443C115.851 208.108 115.987 207.789 116.223 207.553C116.459 207.316 116.778 207.181 117.113 207.176H135C135.334 207.181 135.653 207.316 135.889 207.553C136.126 207.789 136.261 208.108 136.267 208.443V211.803H115.867L115.846 208.443Z" fill="white"/>
<path d="M129.587 233.828H122.523C121.645 233.828 120.934 234.54 120.934 235.417V239.883C120.934 240.761 121.645 241.473 122.523 241.473H129.587C130.465 241.473 131.176 240.761 131.176 239.883V235.417C131.176 234.54 130.465 233.828 129.587 233.828Z" fill="#01966B"/>
<path opacity="0.3" d="M129.587 233.828H122.523C121.645 233.828 120.934 234.54 120.934 235.417V239.883C120.934 240.761 121.645 241.473 122.523 241.473H129.587C130.465 241.473 131.176 240.761 131.176 239.883V235.417C131.176 234.54 130.465 233.828 129.587 233.828Z" fill="white"/>
<path d="M158.856 25.5156H93.2667C92.3417 25.5156 91.5918 26.2655 91.5918 27.1905V54.5471C91.5918 55.4721 92.3417 56.222 93.2667 56.222H158.856C159.781 56.222 160.531 55.4721 160.531 54.5471V27.1905C160.531 26.2655 159.781 25.5156 158.856 25.5156Z" fill="#01966B"/>
<path opacity="0.6" d="M158.856 25.5156H93.2667C92.3417 25.5156 91.5918 26.2655 91.5918 27.1905V54.5471C91.5918 55.4721 92.3417 56.222 93.2667 56.222H158.856C159.781 56.222 160.531 55.4721 160.531 54.5471V27.1905C160.531 26.2655 159.781 25.5156 158.856 25.5156Z" fill="white"/>
<path opacity="0.1" d="M158.899 25.5156H93.2667C92.8225 25.5156 92.3965 25.6921 92.0824 26.0062C91.7683 26.3203 91.5918 26.7463 91.5918 27.1905V35.9622L125.734 42.6833C125.946 42.7264 126.165 42.7264 126.378 42.6833L160.531 35.9622V27.1905C160.531 26.7537 160.36 26.334 160.056 26.0211C159.751 25.7082 159.336 25.5268 158.899 25.5156Z" fill="black"/>
<path d="M160.273 14.2874H140.239V10.9269C140.236 9.5382 139.683 8.20719 138.701 7.22522C137.719 6.24326 136.388 5.69034 135 5.6875H117.113C115.724 5.69034 114.393 6.24326 113.411 7.22522C112.429 8.20719 111.876 9.5382 111.873 10.9269V14.2874H91.839C91.4005 14.2874 90.9799 14.4616 90.6698 14.7717C90.3597 15.0818 90.1855 15.5023 90.1855 15.9409V32.4858C90.1857 32.8683 90.3184 33.2389 90.5612 33.5346C90.8039 33.8302 91.1417 34.0325 91.5169 34.107L125.734 40.7958C125.947 40.8389 126.166 40.8389 126.378 40.7958L160.595 34.0641C160.971 33.9895 161.308 33.7872 161.551 33.4916C161.794 33.196 161.927 32.8254 161.927 32.4428V15.9409C161.927 15.5023 161.753 15.0818 161.443 14.7717C161.132 14.4616 160.712 14.2874 160.273 14.2874ZM115.846 10.9269C115.849 10.5918 115.983 10.2712 116.22 10.0342C116.457 9.79719 116.778 9.66281 117.113 9.66H135C135.333 9.66276 135.652 9.79566 135.889 10.0303C136.125 10.265 136.261 10.5829 136.267 10.9162V14.2767H115.867L115.846 10.9269Z" fill="#01966B"/>
<path opacity="0.6" d="M160.273 14.2874H140.239V10.9269C140.236 9.5382 139.683 8.20719 138.701 7.22522C137.719 6.24326 136.388 5.69034 135 5.6875H117.113C115.724 5.69034 114.393 6.24326 113.411 7.22522C112.429 8.20719 111.876 9.5382 111.873 10.9269V14.2874H91.839C91.4005 14.2874 90.9799 14.4616 90.6698 14.7717C90.3597 15.0818 90.1855 15.5023 90.1855 15.9409V32.4858C90.1857 32.8683 90.3184 33.2389 90.5612 33.5346C90.8039 33.8302 91.1417 34.0325 91.5169 34.107L125.734 40.7958C125.947 40.8389 126.166 40.8389 126.378 40.7958L160.595 34.0641C160.971 33.9895 161.308 33.7872 161.551 33.4916C161.794 33.196 161.927 32.8254 161.927 32.4428V15.9409C161.927 15.5023 161.753 15.0818 161.443 14.7717C161.132 14.4616 160.712 14.2874 160.273 14.2874ZM115.846 10.9269C115.849 10.5918 115.983 10.2712 116.22 10.0342C116.457 9.79719 116.778 9.66281 117.113 9.66H135C135.333 9.66276 135.652 9.79566 135.889 10.0303C136.125 10.265 136.261 10.5829 136.267 10.9162V14.2767H115.867L115.846 10.9269Z" fill="white"/>
<path d="M129.587 36.3281H122.523C121.645 36.3281 120.934 37.0395 120.934 37.9171V42.3835C120.934 43.2611 121.645 43.9725 122.523 43.9725H129.587C130.465 43.9725 131.176 43.2611 131.176 42.3835V37.9171C131.176 37.0395 130.465 36.3281 129.587 36.3281Z" fill="#01966B"/>
<path opacity="0.3" d="M129.587 36.3281H122.523C121.645 36.3281 120.934 37.0395 120.934 37.9171V42.3835C120.934 43.2611 121.645 43.9725 122.523 43.9725H129.587C130.465 43.9725 131.176 43.2611 131.176 42.3835V37.9171C131.176 37.0395 130.465 36.3281 129.587 36.3281Z" fill="white"/>
<path d="M150.309 154.972H93.2657C92.8187 154.972 92.3899 154.794 92.0738 154.478C91.7577 154.162 91.5801 153.733 91.5801 153.286V125.941C91.5817 125.715 91.6292 125.492 91.7196 125.286C91.7633 125.189 91.8135 125.096 91.87 125.006C91.9297 124.915 92.002 124.831 92.0847 124.76C92.3974 124.445 92.8222 124.267 93.2657 124.266H147.26C146.81 128.013 146.663 131.79 146.819 135.56C146.819 136.172 146.819 136.784 146.916 137.386C146.991 138.513 147.077 139.651 147.206 140.778C147.758 145.602 148.798 150.358 150.309 154.972Z" fill="#01966B"/>
<path opacity="0.6" d="M150.309 154.972H93.2657C92.8187 154.972 92.3899 154.794 92.0738 154.478C91.7577 154.162 91.5801 153.733 91.5801 153.286V125.941C91.5817 125.715 91.6292 125.492 91.7196 125.286C91.7633 125.189 91.8135 125.096 91.87 125.006C91.9297 124.915 92.002 124.831 92.0847 124.76C92.3974 124.445 92.8222 124.267 93.2657 124.266H147.26C146.81 128.013 146.663 131.79 146.819 135.56C146.819 136.172 146.819 136.784 146.916 137.386C146.991 138.513 147.077 139.651 147.206 140.778C147.758 145.602 148.798 150.358 150.309 154.972Z" fill="white"/>
<path opacity="0.1" d="M147.261 124.266C146.811 128.013 146.664 131.79 146.82 135.56C146.82 136.172 146.82 136.784 146.917 137.386L131.177 140.478L126.367 141.423C126.16 141.476 125.942 141.476 125.734 141.423L120.935 140.488L91.5918 134.712V125.93C91.5952 125.709 91.6389 125.491 91.7206 125.286C91.7643 125.189 91.8145 125.096 91.8709 125.006C91.9307 124.915 92.003 124.831 92.0857 124.76C92.3984 124.445 92.8232 124.267 93.2667 124.266H147.261Z" fill="black"/>
<path d="M149.505 113.045H140.25V109.685C140.244 108.295 139.689 106.964 138.705 105.982C137.721 105.001 136.389 104.448 135 104.445H117.113C115.723 104.445 114.39 104.997 113.408 105.98C112.425 106.962 111.873 108.295 111.873 109.685V113.045H91.839C91.6218 113.045 91.4068 113.088 91.2062 113.171C91.0056 113.254 90.8234 113.376 90.6698 113.53C90.5163 113.683 90.3945 113.865 90.3114 114.066C90.2283 114.267 90.1855 114.482 90.1855 114.699V131.233C90.1857 131.618 90.3196 131.992 90.5644 132.289C90.8091 132.587 91.1496 132.79 91.5276 132.865H91.592L120.935 138.652L125.734 139.586C125.943 139.629 126.159 139.629 126.368 139.586L131.177 138.641L146.821 135.56C146.664 131.789 146.812 128.012 147.261 124.265C147.707 120.471 148.457 116.719 149.505 113.045ZM115.846 109.685C115.851 109.351 115.987 109.034 116.224 108.799C116.46 108.564 116.779 108.431 117.113 108.429H135C135.332 108.431 135.65 108.565 135.885 108.8C136.12 109.035 136.253 109.352 136.256 109.685V113.045H115.857L115.846 109.685Z" fill="#01966B"/>
<path opacity="0.6" d="M149.505 113.045H140.25V109.685C140.244 108.295 139.689 106.964 138.705 105.982C137.721 105.001 136.389 104.448 135 104.445H117.113C115.723 104.445 114.39 104.997 113.408 105.98C112.425 106.962 111.873 108.295 111.873 109.685V113.045H91.839C91.6218 113.045 91.4068 113.088 91.2062 113.171C91.0056 113.254 90.8234 113.376 90.6698 113.53C90.5163 113.683 90.3945 113.865 90.3114 114.066C90.2283 114.267 90.1855 114.482 90.1855 114.699V131.233C90.1857 131.618 90.3196 131.992 90.5644 132.289C90.8091 132.587 91.1496 132.79 91.5276 132.865H91.592L120.935 138.652L125.734 139.586C125.943 139.629 126.159 139.629 126.368 139.586L131.177 138.641L146.821 135.56C146.664 131.789 146.812 128.012 147.261 124.265C147.707 120.471 148.457 116.719 149.505 113.045ZM115.846 109.685C115.851 109.351 115.987 109.034 116.224 108.799C116.46 108.564 116.779 108.431 117.113 108.429H135C135.332 108.431 135.65 108.565 135.885 108.8C136.12 109.035 136.253 109.352 136.256 109.685V113.045H115.857L115.846 109.685Z" fill="white"/>
<path d="M129.587 135.078H122.523C121.645 135.078 120.934 135.79 120.934 136.667V141.134C120.934 142.011 121.645 142.723 122.523 142.723H129.587C130.465 142.723 131.176 142.011 131.176 141.134V136.667C131.176 135.79 130.465 135.078 129.587 135.078Z" fill="#01966B"/>
<path opacity="0.3" d="M129.587 135.078H122.523C121.645 135.078 120.934 135.79 120.934 136.667V141.134C120.934 142.011 121.645 142.723 122.523 142.723H129.587C130.465 142.723 131.176 142.011 131.176 141.134V136.667C131.176 135.79 130.465 135.078 129.587 135.078Z" fill="white"/>
<path d="M297.603 253.727H363.192C364.117 253.727 364.867 252.977 364.867 252.052V224.695C364.867 223.77 364.117 223.02 363.192 223.02H297.603C296.678 223.02 295.928 223.77 295.928 224.695V252.052C295.928 252.977 296.678 253.727 297.603 253.727Z" fill="#01966B"/>
<path opacity="0.6" d="M297.603 253.727H363.192C364.117 253.727 364.867 252.977 364.867 252.052V224.695C364.867 223.77 364.117 223.02 363.192 223.02H297.603C296.678 223.02 295.928 223.77 295.928 224.695V252.052C295.928 252.977 296.678 253.727 297.603 253.727Z" fill="white"/>
<path opacity="0.1" d="M297.614 223.024H363.193C363.637 223.024 364.063 223.2 364.377 223.515C364.691 223.829 364.868 224.255 364.868 224.699V233.471L330.683 240.192C330.474 240.234 330.258 240.234 330.049 240.192L295.896 233.471V224.699C295.896 224.475 295.941 224.254 296.028 224.048C296.115 223.842 296.242 223.655 296.402 223.499C296.562 223.343 296.752 223.221 296.96 223.139C297.168 223.057 297.391 223.018 297.614 223.024Z" fill="black"/>
<path d="M296.187 211.803H316.221V208.443C316.224 207.054 316.777 205.723 317.759 204.741C318.741 203.759 320.072 203.206 321.46 203.203H339.358C340.747 203.206 342.078 203.759 343.06 204.741C344.042 205.723 344.595 207.054 344.597 208.443V211.803H364.621C364.838 211.803 365.053 211.846 365.254 211.929C365.454 212.012 365.637 212.134 365.79 212.287C365.944 212.441 366.065 212.623 366.149 212.824C366.232 213.024 366.274 213.239 366.274 213.456V230.001C366.272 230.383 366.139 230.753 365.896 231.048C365.654 231.343 365.317 231.546 364.943 231.623L330.683 238.354C330.469 238.387 330.252 238.387 330.039 238.354L295.822 231.623C295.447 231.546 295.111 231.343 294.868 231.048C294.626 230.753 294.492 230.383 294.49 230.001V213.456C294.49 213.236 294.534 213.017 294.62 212.814C294.706 212.61 294.831 212.426 294.99 212.272C295.148 212.118 295.335 211.997 295.541 211.916C295.746 211.836 295.966 211.797 296.187 211.803ZM340.614 208.443C340.611 208.109 340.479 207.79 340.244 207.554C340.009 207.317 339.691 207.181 339.358 207.176H321.46C321.126 207.181 320.807 207.316 320.571 207.553C320.334 207.789 320.199 208.108 320.193 208.443V211.803H340.593L340.614 208.443Z" fill="#01966B"/>
<path opacity="0.6" d="M296.187 211.803H316.221V208.443C316.224 207.054 316.777 205.723 317.759 204.741C318.741 203.759 320.072 203.206 321.46 203.203H339.358C340.747 203.206 342.078 203.759 343.06 204.741C344.042 205.723 344.595 207.054 344.597 208.443V211.803H364.621C364.838 211.803 365.053 211.846 365.254 211.929C365.454 212.012 365.637 212.134 365.79 212.287C365.944 212.441 366.065 212.623 366.149 212.824C366.232 213.024 366.274 213.239 366.274 213.456V230.001C366.272 230.383 366.139 230.753 365.896 231.048C365.654 231.343 365.317 231.546 364.943 231.623L330.683 238.354C330.469 238.387 330.252 238.387 330.039 238.354L295.822 231.623C295.447 231.546 295.111 231.343 294.868 231.048C294.626 230.753 294.492 230.383 294.49 230.001V213.456C294.49 213.236 294.534 213.017 294.62 212.814C294.706 212.61 294.831 212.426 294.99 212.272C295.148 212.118 295.335 211.997 295.541 211.916C295.746 211.836 295.966 211.797 296.187 211.803ZM340.614 208.443C340.611 208.109 340.479 207.79 340.244 207.554C340.009 207.317 339.691 207.181 339.358 207.176H321.46C321.126 207.181 320.807 207.316 320.571 207.553C320.334 207.789 320.199 208.108 320.193 208.443V211.803H340.593L340.614 208.443Z" fill="white"/>
<path d="M326.872 241.469H333.936C334.814 241.469 335.525 240.757 335.525 239.88V235.413C335.525 234.536 334.814 233.824 333.936 233.824H326.872C325.994 233.824 325.283 234.536 325.283 235.413V239.88C325.283 240.757 325.994 241.469 326.872 241.469Z" fill="#01966B"/>
<path opacity="0.3" d="M326.872 241.469H333.936C334.814 241.469 335.525 240.757 335.525 239.88V235.413C335.525 234.536 334.814 233.824 333.936 233.824H326.872C325.994 233.824 325.283 234.536 325.283 235.413V239.88C325.283 240.757 325.994 241.469 326.872 241.469Z" fill="white"/>
<path d="M297.603 56.2109L363.192 56.2109C364.117 56.2109 364.867 55.4611 364.867 54.536V27.1795C364.867 26.2544 364.117 25.5046 363.192 25.5046L297.603 25.5046C296.678 25.5046 295.928 26.2544 295.928 27.1795V54.536C295.928 55.4611 296.678 56.2109 297.603 56.2109Z" fill="#01966B"/>
<path opacity="0.6" d="M297.603 56.2109L363.192 56.2109C364.117 56.2109 364.867 55.4611 364.867 54.536V27.1795C364.867 26.2544 364.117 25.5046 363.192 25.5046L297.603 25.5046C296.678 25.5046 295.928 26.2544 295.928 27.1795V54.536C295.928 55.4611 296.678 56.2109 297.603 56.2109Z" fill="white"/>
<path opacity="0.1" d="M297.614 25.5156H363.193C363.637 25.5156 364.063 25.6921 364.377 26.0062C364.691 26.3203 364.868 26.7463 364.868 27.1905V35.9622L330.683 42.6833C330.474 42.7261 330.258 42.7261 330.049 42.6833L295.939 35.9622V27.1905C295.939 26.7463 296.116 26.3203 296.43 26.0062C296.744 25.6921 297.17 25.5156 297.614 25.5156Z" fill="black"/>
<path d="M296.187 14.2875H316.221V10.927C316.224 9.5383 316.777 8.20729 317.759 7.22532C318.741 6.24336 320.072 5.69044 321.46 5.6876H339.358C340.049 5.68336 340.735 5.81567 341.375 6.07694C342.015 6.33822 342.597 6.7233 343.087 7.21011C343.578 7.69692 343.968 8.27586 344.235 8.9137C344.501 9.55154 344.639 10.2357 344.64 10.927V14.2875H364.664C365.102 14.2875 365.523 14.4617 365.833 14.7718C366.143 15.0819 366.317 15.5024 366.317 15.9409V32.4859C366.317 32.8684 366.185 33.239 365.942 33.5347C365.699 33.8303 365.361 34.0326 364.986 34.1071L330.683 40.7959C330.47 40.839 330.251 40.839 330.039 40.7959L295.822 34.0642C295.446 33.9896 295.109 33.7873 294.866 33.4917C294.623 33.1961 294.49 32.8255 294.49 32.4429V15.9409C294.49 15.7202 294.534 15.5016 294.62 15.2981C294.706 15.0947 294.831 14.9105 294.99 14.7564C295.148 14.6022 295.335 14.4814 295.541 14.4008C295.746 14.3203 295.966 14.2818 296.187 14.2875ZM340.614 10.927C340.614 10.5929 340.482 10.2722 340.247 10.0349C340.012 9.79766 339.692 9.66293 339.358 9.6601H321.46C321.127 9.66286 320.808 9.79576 320.571 10.0304C320.335 10.2651 320.199 10.583 320.193 10.9163V14.2768H340.593L340.614 10.927Z" fill="#01966B"/>
<path opacity="0.6" d="M296.187 14.2875H316.221V10.927C316.224 9.5383 316.777 8.20729 317.759 7.22532C318.741 6.24336 320.072 5.69044 321.46 5.6876H339.358C340.049 5.68336 340.735 5.81567 341.375 6.07694C342.015 6.33822 342.597 6.7233 343.087 7.21011C343.578 7.69692 343.968 8.27586 344.235 8.9137C344.501 9.55154 344.639 10.2357 344.64 10.927V14.2875H364.664C365.102 14.2875 365.523 14.4617 365.833 14.7718C366.143 15.0819 366.317 15.5024 366.317 15.9409V32.4859C366.317 32.8684 366.185 33.239 365.942 33.5347C365.699 33.8303 365.361 34.0326 364.986 34.1071L330.683 40.7959C330.47 40.839 330.251 40.839 330.039 40.7959L295.822 34.0642C295.446 33.9896 295.109 33.7873 294.866 33.4917C294.623 33.1961 294.49 32.8255 294.49 32.4429V15.9409C294.49 15.7202 294.534 15.5016 294.62 15.2981C294.706 15.0947 294.831 14.9105 294.99 14.7564C295.148 14.6022 295.335 14.4814 295.541 14.4008C295.746 14.3203 295.966 14.2818 296.187 14.2875ZM340.614 10.927C340.614 10.5929 340.482 10.2722 340.247 10.0349C340.012 9.79766 339.692 9.66293 339.358 9.6601H321.46C321.127 9.66286 320.808 9.79576 320.571 10.0304C320.335 10.2651 320.199 10.583 320.193 10.9163V14.2768H340.593L340.614 10.927Z" fill="white"/>
<path d="M326.872 43.9609H333.936C334.814 43.9609 335.525 43.2495 335.525 42.3719V37.9055C335.525 37.028 334.814 36.3166 333.936 36.3166H326.872C325.994 36.3166 325.283 37.028 325.283 37.9055V42.3719C325.283 43.2495 325.994 43.9609 326.872 43.9609Z" fill="#01966B"/>
<path opacity="0.3" d="M326.872 43.9609H333.936C334.814 43.9609 335.525 43.2495 335.525 42.3719V37.9055C335.525 37.028 334.814 36.3166 333.936 36.3166H326.872C325.994 36.3166 325.283 37.028 325.283 37.9055V42.3719C325.283 43.2495 325.994 43.9609 326.872 43.9609Z" fill="white"/>
<path d="M306.195 154.972H363.206C363.651 154.969 364.077 154.79 364.391 154.475C364.705 154.159 364.881 153.732 364.881 153.286V125.941C364.879 125.715 364.832 125.492 364.741 125.286C364.702 125.187 364.652 125.093 364.591 125.006C364.531 124.915 364.459 124.831 364.376 124.76C364.222 124.603 364.038 124.478 363.836 124.394C363.633 124.309 363.415 124.265 363.195 124.266H309.212C309.661 128.013 309.809 131.79 309.652 135.56C309.652 136.172 309.652 136.784 309.556 137.386C309.491 138.513 309.395 139.651 309.266 140.778C308.724 145.601 307.695 150.356 306.195 154.972Z" fill="#01966B"/>
<path opacity="0.6" d="M306.195 154.972H363.206C363.651 154.969 364.077 154.79 364.391 154.475C364.705 154.159 364.881 153.732 364.881 153.286V125.941C364.879 125.715 364.832 125.492 364.741 125.286C364.702 125.187 364.652 125.093 364.591 125.006C364.531 124.915 364.459 124.831 364.376 124.76C364.222 124.603 364.038 124.478 363.836 124.394C363.633 124.309 363.415 124.265 363.195 124.266H309.212C309.661 128.013 309.809 131.79 309.652 135.56C309.652 136.172 309.652 136.784 309.556 137.386C309.491 138.513 309.395 139.651 309.266 140.778C308.724 145.601 307.695 150.356 306.195 154.972Z" fill="white"/>
<path opacity="0.1" d="M309.211 124.266C309.66 128.013 309.807 131.79 309.651 135.56C309.651 136.172 309.651 136.784 309.555 137.386L325.316 140.478L330.126 141.423C330.333 141.476 330.551 141.476 330.759 141.423L335.558 140.488L364.901 134.712V125.93C364.898 125.709 364.854 125.491 364.772 125.286C364.733 125.187 364.683 125.093 364.622 125.006C364.562 124.915 364.49 124.831 364.407 124.76C364.253 124.603 364.069 124.478 363.866 124.394C363.664 124.309 363.446 124.265 363.226 124.266H309.211Z" fill="black"/>
<path d="M306.957 113.045H316.223V109.685C316.225 108.296 316.778 106.965 317.76 105.983C318.742 105.001 320.073 104.448 321.462 104.445H339.349C340.74 104.445 342.073 104.997 343.058 105.979C344.042 106.962 344.596 108.294 344.599 109.685V113.045H364.623C365.061 113.045 365.482 113.219 365.792 113.53C366.102 113.84 366.276 114.26 366.276 114.699V131.233C366.276 131.617 366.144 131.989 365.902 132.286C365.659 132.584 365.321 132.788 364.945 132.865H364.87L335.527 138.652L330.685 139.575C330.476 139.618 330.26 139.618 330.051 139.575L325.241 138.63L309.598 135.549C309.903 127.939 308.997 120.328 306.914 113.002L306.957 113.045ZM340.616 109.685C340.61 109.351 340.475 109.034 340.238 108.799C340.001 108.564 339.682 108.431 339.349 108.429H321.462C321.13 108.431 320.812 108.565 320.577 108.8C320.342 109.035 320.209 109.352 320.206 109.685V113.045H340.605L340.616 109.685Z" fill="#01966B"/>
<path opacity="0.6" d="M306.957 113.045H316.223V109.685C316.225 108.296 316.778 106.965 317.76 105.983C318.742 105.001 320.073 104.448 321.462 104.445H339.349C340.74 104.445 342.073 104.997 343.058 105.979C344.042 106.962 344.596 108.294 344.599 109.685V113.045H364.623C365.061 113.045 365.482 113.219 365.792 113.53C366.102 113.84 366.276 114.26 366.276 114.699V131.233C366.276 131.617 366.144 131.989 365.902 132.286C365.659 132.584 365.321 132.788 364.945 132.865H364.87L335.527 138.652L330.685 139.575C330.476 139.618 330.26 139.618 330.051 139.575L325.241 138.63L309.598 135.549C309.903 127.939 308.997 120.328 306.914 113.002L306.957 113.045ZM340.616 109.685C340.61 109.351 340.475 109.034 340.238 108.799C340.001 108.564 339.682 108.431 339.349 108.429H321.462C321.13 108.431 320.812 108.565 320.577 108.8C320.342 109.035 320.209 109.352 320.206 109.685V113.045H340.605L340.616 109.685Z" fill="white"/>
<path d="M326.872 142.734H333.936C334.814 142.734 335.525 142.023 335.525 141.145V136.679C335.525 135.801 334.814 135.09 333.936 135.09H326.872C325.994 135.09 325.283 135.801 325.283 136.679V141.145C325.283 142.023 325.994 142.734 326.872 142.734Z" fill="#01966B"/>
<path opacity="0.3" d="M326.872 142.734H333.936C334.814 142.734 335.525 142.023 335.525 141.145V136.679C335.525 135.801 334.814 135.09 333.936 135.09H326.872C325.994 135.09 325.283 135.801 325.283 136.679V141.145C325.283 142.023 325.994 142.734 326.872 142.734Z" fill="white"/>
<path d="M278.826 117.609H184.581C183.253 117.609 182.176 118.686 182.176 120.014V159.321C182.176 160.649 183.253 161.726 184.581 161.726H278.826C280.154 161.726 281.231 160.649 281.231 159.321V120.014C281.231 118.686 280.154 117.609 278.826 117.609Z" fill="#01966B"/>
<path d="M244.555 110.585H218.841C216.891 110.583 215.022 109.807 213.644 108.428C212.265 107.05 211.489 105.181 211.486 103.231V96.6279C211.489 94.6783 212.265 92.8093 213.644 91.4307C215.022 90.052 216.891 89.2763 218.841 89.2734H244.555C246.505 89.2734 248.376 90.0483 249.755 91.4275C251.134 92.8068 251.909 94.6774 251.909 96.6279V103.199C251.913 104.167 251.726 105.127 251.359 106.023C250.991 106.919 250.45 107.734 249.767 108.42C249.083 109.106 248.271 109.651 247.377 110.022C246.482 110.394 245.523 110.585 244.555 110.585ZM218.841 94.6739C218.323 94.6794 217.828 94.8867 217.461 95.2517C217.094 95.6167 216.884 96.1105 216.876 96.6279V103.199C216.876 103.725 217.085 104.231 217.458 104.603C217.83 104.976 218.336 105.185 218.862 105.185H244.576C245.103 105.185 245.608 104.976 245.981 104.603C246.353 104.231 246.562 103.725 246.562 103.199V96.6279C246.562 96.1012 246.353 95.5959 245.981 95.2234C245.608 94.851 245.103 94.6417 244.576 94.6417L218.841 94.6739Z" fill="#01966B"/>
<path opacity="0.2" d="M278.815 117.609H184.591C184.275 117.608 183.961 117.669 183.668 117.789C183.375 117.91 183.108 118.087 182.884 118.31C182.66 118.533 182.481 118.799 182.36 119.092C182.238 119.384 182.176 119.698 182.176 120.014V132.63L231.242 142.293C231.542 142.358 231.853 142.358 232.154 142.293L281.231 132.63V120.014C281.231 119.698 281.168 119.384 281.047 119.092C280.925 118.799 280.747 118.533 280.522 118.31C280.298 118.087 280.032 117.91 279.739 117.789C279.446 117.669 279.132 117.608 278.815 117.609Z" fill="black"/>
<path d="M281.295 129.907L232.133 139.57C231.827 139.623 231.515 139.623 231.209 139.57L182.047 129.907C181.507 129.8 181.02 129.51 180.67 129.085C180.319 128.66 180.127 128.128 180.125 127.577V103.849C180.125 103.538 180.186 103.229 180.306 102.941C180.425 102.653 180.6 102.392 180.82 102.172C181.04 101.951 181.302 101.776 181.59 101.657C181.878 101.538 182.186 101.477 182.498 101.477H280.866C281.177 101.477 281.486 101.538 281.774 101.657C282.061 101.776 282.323 101.951 282.543 102.172C282.764 102.392 282.938 102.653 283.058 102.941C283.177 103.229 283.238 103.538 283.238 103.849V127.62C283.227 128.167 283.028 128.693 282.674 129.11C282.32 129.526 281.833 129.808 281.295 129.907Z" fill="#01966B"/>
<path d="M236.793 133.141H226.626C225.369 133.141 224.35 134.16 224.35 135.417V141.848C224.35 143.105 225.369 144.124 226.626 144.124H236.793C238.05 144.124 239.069 143.105 239.069 141.848V135.417C239.069 134.16 238.05 133.141 236.793 133.141Z" fill="#01966B"/>
<path opacity="0.4" d="M236.793 133.141H226.626C225.369 133.141 224.35 134.16 224.35 135.417V141.848C224.35 143.105 225.369 144.124 226.626 144.124H236.793C238.05 144.124 239.069 143.105 239.069 141.848V135.417C239.069 134.16 238.05 133.141 236.793 133.141Z" fill="black"/>
<path d="M408.952 141.938C410.187 144.482 411.1 146.887 412.173 149.399C413.247 151.912 414.031 154.413 414.868 156.979C416.566 162.182 417.819 167.519 418.615 172.934C418.722 173.61 418.776 174.34 418.851 175.081L418.959 176.155C418.959 176.348 418.959 176.488 418.959 176.713V177.411C418.995 179.039 418.854 180.666 418.54 182.264C418.008 185.041 417.25 187.77 416.275 190.423C414.441 195.469 412.156 200.338 409.446 204.971L403.992 202.663C405.205 197.767 406.429 192.775 407.352 187.954C407.804 185.644 408.123 183.311 408.308 180.965C408.371 180.005 408.35 179.043 408.244 178.087L408.126 177.411L407.975 176.552C407.857 175.983 407.782 175.414 407.642 174.834C406.572 170.095 405.188 165.432 403.498 160.877C402.682 158.547 401.78 156.228 400.878 153.898C399.977 151.568 398.978 149.228 398.055 147.08L408.952 141.938Z" fill="#7F3E3B"/>
<path d="M404.23 201.234L400.043 205.314L409.18 209.609C409.18 209.609 411.391 205.744 409.867 202.244L404.23 201.234Z" fill="#7F3E3B"/>
<path d="M396.67 211.4L404.379 214.557L409.178 209.564L400.041 205.312L396.67 211.4Z" fill="#7F3E3B"/>
<path opacity="0.2" d="M240.294 207C255.486 205.299 269.833 199.131 281.521 189.276C293.208 179.421 301.711 166.322 305.954 151.635C310.198 136.949 309.992 121.333 305.361 106.764C300.731 92.1943 291.884 79.3249 279.94 69.7827C267.996 60.2404 253.491 54.4539 238.259 53.1547C223.027 51.8555 207.751 55.1019 194.364 62.4835C180.976 69.8652 170.078 81.0505 163.047 94.6253C156.016 108.2 153.168 123.555 154.863 138.748C155.989 148.84 159.092 158.611 163.995 167.503C168.898 176.396 175.505 184.235 183.439 190.573C191.372 196.911 200.477 201.624 210.232 204.443C219.987 207.261 230.202 208.13 240.294 207Z" fill="#01966B"/>
<path opacity="0.1" d="M184.045 69.2884L301.61 163.19C302.114 162.116 302.587 161.042 303.048 159.969C305.995 152.959 307.876 145.547 308.631 137.98L207.085 56.8984C198.752 59.6776 190.958 63.8686 184.045 69.2884Z" fill="white"/>
<path opacity="0.1" d="M156.926 110.434L267.447 198.741C277.949 193.264 287.051 185.447 294.052 175.894L173.353 79.4375C165.574 88.3742 159.954 98.9794 156.926 110.434Z" fill="white"/>
<path d="M422.127 216.997C421.986 215.043 421.346 213.158 420.27 211.521C419.487 210.317 418.392 209.349 417.102 208.719L409.769 205.122C404.895 202.706 399.988 200.355 395.082 198.004C390.175 195.653 385.236 193.344 380.319 191.014C375.402 188.685 370.441 186.419 365.471 184.197C355.55 179.702 345.565 175.328 335.516 171.077C330.491 168.929 325.456 166.868 320.377 164.85C318.895 164.266 317.689 163.14 317.006 161.701C316.322 160.261 316.211 158.616 316.695 157.098C323.492 135.666 321.944 112.457 312.361 92.1176C302.777 71.7782 285.865 55.809 265.009 47.4068C244.154 39.0046 220.895 38.7894 199.888 46.8043C178.88 54.8192 161.676 70.4727 151.717 90.6314C141.759 110.79 139.782 133.966 146.182 155.52C152.582 177.074 166.886 195.416 186.233 206.873C205.579 218.331 228.538 222.058 250.515 217.31C272.492 212.562 291.865 199.688 304.756 181.266C305.668 179.956 307.044 179.043 308.605 178.71C310.166 178.377 311.795 178.649 313.162 179.473C317.858 182.264 322.575 185.009 327.313 187.708C336.783 193.104 346.324 198.365 355.936 203.49C360.736 206.088 365.599 208.59 370.377 211.135C375.155 213.679 380.04 216.159 384.904 218.65C389.767 221.141 394.566 223.578 399.494 225.983L406.806 229.612C408.091 230.258 409.528 230.54 410.961 230.428C412.912 230.29 414.795 229.65 416.426 228.571C418.371 227.376 419.939 225.655 420.948 223.607C421.957 221.559 422.365 219.267 422.127 216.997ZM200.558 193.248C188.077 187.089 177.703 177.367 170.747 165.312C163.791 153.257 160.567 139.41 161.481 125.522C162.395 111.634 167.408 98.3294 175.884 87.2903C184.36 76.2512 195.919 67.9737 209.1 63.5045C222.281 59.0353 236.491 58.5752 249.933 62.1824C263.376 65.7896 275.447 73.3021 284.619 83.7698C293.792 94.2374 299.654 107.19 301.465 120.99C303.276 134.789 300.954 148.816 294.792 161.296C290.703 169.582 285.022 176.981 278.073 183.071C271.124 189.161 263.044 193.823 254.293 196.79C245.542 199.757 236.293 200.971 227.073 200.363C217.853 199.755 208.843 197.338 200.558 193.248Z" fill="#01966B"/>
<path d="M368.464 108.745C368.464 109.379 368.131 109.894 367.712 109.894C367.294 109.894 366.961 109.379 366.961 108.745C366.961 108.112 367.294 107.586 367.712 107.586C368.131 107.586 368.464 108.101 368.464 108.745Z" fill="#263238"/>
<path d="M368.186 109.898C367.431 111.843 366.413 113.675 365.158 115.342C365.593 115.653 366.09 115.864 366.614 115.963C367.139 116.061 367.679 116.043 368.197 115.911L368.186 109.898Z" fill="#630F0F"/>
<path d="M370.72 105.207C370.798 105.204 370.873 105.178 370.935 105.131C370.998 105.084 371.044 105.019 371.067 104.945C371.091 104.87 371.091 104.79 371.067 104.716C371.043 104.642 370.997 104.577 370.934 104.53C370.46 104.175 369.908 103.937 369.324 103.836C368.74 103.735 368.14 103.774 367.574 103.95C367.523 103.964 367.476 103.988 367.435 104.022C367.394 104.055 367.361 104.096 367.337 104.143C367.314 104.19 367.3 104.241 367.297 104.294C367.295 104.346 367.303 104.399 367.322 104.448C367.341 104.497 367.37 104.541 367.407 104.579C367.444 104.616 367.489 104.645 367.538 104.664C367.587 104.682 367.639 104.691 367.692 104.688C367.744 104.686 367.795 104.672 367.842 104.648C368.293 104.514 368.769 104.488 369.231 104.572C369.694 104.656 370.13 104.848 370.505 105.131C370.565 105.181 370.641 105.207 370.72 105.207Z" fill="#263238"/>
<path d="M390.185 113.539C389.047 119.315 387.92 129.891 391.957 133.734C391.957 133.734 390.378 139.586 379.663 139.586C367.853 139.586 374.027 133.734 374.027 133.734C380.469 132.199 380.297 127.421 379.17 122.998L390.185 113.539Z" fill="#7F3E3B"/>
<path d="M394.029 130.119C394.92 130.409 393.76 135.713 393.76 135.713C393.76 135.713 392.289 139.417 374.016 138.128C372.609 138.021 373.146 132.932 374.488 132.191C378.815 129.829 391.151 129.174 394.029 130.119Z" fill="#263238"/>
<path d="M431.147 351.937C432.134 351.84 433.573 350.026 433.981 349.36C433.999 349.331 434.009 349.298 434.009 349.264C434.009 349.23 433.999 349.196 433.981 349.167C433.964 349.135 433.937 349.11 433.904 349.094C433.871 349.079 433.834 349.074 433.799 349.081C433.691 349.081 431.093 349.575 430.46 350.584C430.393 350.69 430.349 350.809 430.33 350.933C430.312 351.056 430.319 351.183 430.352 351.304C430.492 351.776 430.76 351.905 430.975 351.937H431.147ZM433.412 349.543C432.714 350.509 431.565 351.636 431.018 351.561C430.964 351.561 430.803 351.561 430.707 351.196C430.686 351.126 430.68 351.052 430.692 350.98C430.703 350.907 430.73 350.838 430.771 350.778C431.511 350.116 432.43 349.686 433.412 349.543Z" fill="#01966B"/>
<path d="M433.303 349.549C433.495 349.532 433.686 349.5 433.872 349.452C433.904 349.442 433.932 349.424 433.955 349.399C433.978 349.375 433.993 349.345 434.001 349.312C434.007 349.279 434.005 349.245 433.993 349.213C433.982 349.181 433.962 349.152 433.937 349.13C433.872 349.066 432.133 347.584 430.952 347.702C430.81 347.711 430.671 347.751 430.545 347.817C430.42 347.884 430.309 347.976 430.222 348.089C430.121 348.186 430.058 348.316 430.044 348.456C430.03 348.596 430.067 348.736 430.147 348.851C430.533 349.463 432.23 349.656 433.303 349.549ZM433.389 349.173C432.315 349.302 430.748 349.087 430.447 348.647C430.447 348.647 430.361 348.507 430.512 348.314C430.572 348.243 430.646 348.185 430.729 348.142C430.812 348.1 430.902 348.074 430.995 348.067C431.885 348.19 432.718 348.575 433.389 349.173Z" fill="#01966B"/>
<path d="M357.333 380.18C358.147 380.177 358.958 380.105 359.76 379.965C359.795 379.955 359.828 379.936 359.855 379.91C359.881 379.884 359.9 379.851 359.91 379.815C359.916 379.777 359.911 379.737 359.893 379.702C359.876 379.668 359.848 379.639 359.813 379.622C359.695 379.547 356.947 377.979 355.626 378.333C355.379 378.396 355.166 378.555 355.035 378.773C354.951 378.893 354.906 379.035 354.906 379.181C354.906 379.328 354.951 379.47 355.035 379.589C355.379 380.062 356.324 380.18 357.333 380.18ZM359.158 379.686C357.687 379.89 355.69 379.879 355.325 379.375C355.272 379.31 355.229 379.192 355.325 378.956C355.365 378.89 355.417 378.833 355.48 378.788C355.543 378.744 355.615 378.713 355.69 378.698C356.539 378.473 358.192 379.192 359.158 379.686Z" fill="#01966B"/>
<path d="M359.673 379.963C359.711 379.974 359.752 379.974 359.791 379.963C359.816 379.942 359.835 379.916 359.848 379.886C359.861 379.856 359.867 379.824 359.866 379.791C359.866 379.705 359.641 377.58 358.642 376.753C358.494 376.63 358.323 376.537 358.138 376.482C357.954 376.427 357.76 376.409 357.568 376.431C357.053 376.484 356.914 376.742 356.871 376.957C356.731 377.848 358.621 379.555 359.565 379.985L359.673 379.963ZM357.751 376.742C357.991 376.749 358.221 376.836 358.406 376.989C359.002 377.67 359.376 378.516 359.48 379.416C358.503 378.836 357.225 377.494 357.332 376.957C357.332 376.957 357.332 376.785 357.697 376.753L357.751 376.742Z" fill="#01966B"/>
<path d="M368.39 379.781H360.509L359.715 361.508H367.606L368.39 379.781Z" fill="#7F3E3B"/>
<path d="M440.872 343.592L434.72 348.52L419.066 337.655L425.229 332.727L440.872 343.592Z" fill="#7F3E3B"/>
<path d="M433.594 348.206L439.885 341.969C439.998 341.86 440.144 341.792 440.3 341.777C440.456 341.761 440.612 341.799 440.744 341.883L446.789 345.769C446.936 345.864 447.059 345.991 447.149 346.141C447.239 346.29 447.294 346.458 447.309 346.632C447.325 346.806 447.301 346.981 447.238 347.144C447.176 347.307 447.077 347.454 446.95 347.573C444.717 349.72 443.525 350.644 440.755 353.381C439.059 355.078 434.904 360.124 432.552 362.454C430.201 364.784 427.581 362.765 428.344 361.595C431.726 356.377 432.874 352.072 433.025 349.452C433.057 348.981 433.259 348.539 433.594 348.206Z" fill="#263238"/>
<path d="M360.552 378.867H369.141C369.297 378.866 369.448 378.919 369.57 379.017C369.691 379.115 369.775 379.252 369.807 379.404L371.364 386.415C371.403 386.583 371.403 386.759 371.364 386.927C371.326 387.096 371.249 387.253 371.141 387.388C371.032 387.522 370.894 387.63 370.737 387.704C370.581 387.777 370.409 387.814 370.236 387.811C367.123 387.811 362.635 387.585 358.727 387.585C354.164 387.585 350.223 387.832 344.866 387.832C341.645 387.832 340.732 384.558 342.085 384.257C348.259 382.915 353.294 382.765 358.619 379.479C359.194 379.099 359.863 378.887 360.552 378.867Z" fill="#263238"/>
<path d="M407.505 136.097C414.344 139.318 417.167 161.392 417.167 161.392L401.438 167.566C398.997 161.589 397.019 155.433 395.523 149.152C393.322 139.189 400.472 132.747 407.505 136.097Z" fill="#01966B"/>
<path opacity="0.3" d="M407.505 136.097C414.344 139.318 417.167 161.392 417.167 161.392L401.438 167.566C398.997 161.589 397.019 155.433 395.523 149.152C393.322 139.189 400.472 132.747 407.505 136.097Z" fill="white"/>
<path opacity="0.2" d="M397.315 142.573C396.779 142.313 396.218 142.108 395.64 141.961C395.012 144.315 394.99 146.789 395.575 149.154C397.066 155.435 399.04 161.591 401.481 167.567L406.666 165.538C405.711 159.773 402.78 145.193 397.315 142.573Z" fill="black"/>
<path d="M361.895 135.925C361.895 135.925 353.499 145.405 361.423 204.101H403.617C403.907 197.659 399.838 166.03 406.086 135.517C401.42 134.619 396.7 134.024 391.957 133.734C385.986 133.391 379.999 133.391 374.027 133.734C369.932 134.147 365.876 134.879 361.895 135.925Z" fill="#01966B"/>
<path opacity="0.3" d="M361.895 135.925C361.895 135.925 353.499 145.405 361.423 204.101H403.617C403.907 197.659 399.838 166.03 406.086 135.517C401.42 134.619 396.7 134.024 391.957 133.734C385.986 133.391 379.999 133.391 374.027 133.734C369.932 134.147 365.876 134.879 361.895 135.925Z" fill="white"/>
<path opacity="0.2" d="M370.408 148.514C368.497 142.78 363.902 140.944 359.221 144.348C358.276 149.909 357.61 158.874 358.373 173.089L366.607 173.014C366.607 173.014 373.232 157.049 370.408 148.514Z" fill="black"/>
<path d="M368.863 146.156C368.519 149.034 368.047 151.643 367.521 154.359C366.995 157.075 366.383 159.727 365.685 162.401C364.307 167.865 362.431 173.191 360.08 178.312C359.469 179.633 358.76 180.932 358.008 182.231C357.622 182.886 357.235 183.541 356.795 184.185C356.224 185.08 355.551 185.906 354.787 186.644C353.306 188.018 351.549 189.061 349.634 189.704C348.079 190.249 346.47 190.626 344.835 190.831C341.917 191.193 338.967 191.229 336.041 190.938C334.61 190.824 333.214 190.641 331.854 190.391C330.458 190.144 329.138 189.886 327.699 189.51L328.397 183.627C333.297 183.421 338.163 182.701 342.913 181.479C343.879 181.193 344.817 180.82 345.715 180.363C346.305 180.093 346.82 179.684 347.218 179.171C347.132 179.246 347.916 177.947 348.378 177.024C348.839 176.1 349.355 174.877 349.795 173.803C350.697 171.591 351.47 169.251 352.178 166.856C352.887 164.462 353.51 162.025 354.09 159.556C354.669 157.086 355.163 154.595 355.7 152.04C356.237 149.485 356.623 146.951 357.01 144.578L368.863 146.156Z" fill="#7F3E3B"/>
<path d="M372.438 141.713C374.66 148.917 365.641 170.39 365.641 170.39L346.648 165.612C347.811 158.825 349.768 152.198 352.478 145.868C358.598 132.469 369.764 133.027 372.438 141.713Z" fill="#01966B"/>
<path opacity="0.3" d="M372.438 141.713C374.66 148.917 365.641 170.39 365.641 170.39L346.648 165.612C347.811 158.825 349.768 152.198 352.478 145.868C358.598 132.469 369.764 133.027 372.438 141.713Z" fill="white"/>
<path d="M328.667 183.655L319.734 183.43L324.029 192.717C324.029 192.717 327.658 193.2 330.643 188.293L333.788 184.546L330.17 183.816C329.675 183.72 329.172 183.666 328.667 183.655Z" fill="#7F3E3B"/>
<path d="M314.096 185.158L319.217 192.856L324.038 192.717L319.732 183.43L314.096 185.158Z" fill="#7F3E3B"/>
<path opacity="0.2" d="M359.727 361.516L360.124 370.932H368.015L367.607 361.516H359.727Z" fill="black"/>
<path opacity="0.2" d="M425.229 332.727L419.066 337.655L427.14 343.259L433.303 338.331L425.229 332.727Z" fill="black"/>
<path d="M389.736 107.36C389.264 115.177 389.393 119.772 385.442 123.787C379.515 129.821 369.863 126.257 367.995 118.419C366.309 111.397 367.372 99.8019 375.016 96.6776C376.702 95.9803 378.538 95.7268 380.35 95.9411C382.161 96.1555 383.888 96.8307 385.364 97.9021C386.84 98.9736 388.017 100.406 388.783 102.061C389.548 103.717 389.876 105.542 389.736 107.36Z" fill="#7F3E3B"/>
<path d="M396.049 100.099C396.049 100.099 400.161 101.323 398.873 106.014C396.929 113.143 392.356 121.346 386.451 121.861C379.096 122.516 375.779 114.926 374.812 107.077C370.41 104.06 367.146 101.237 368.199 98.1016C369.809 93.2702 375.65 89.1045 384.947 90.1781C394.245 91.2518 398.873 97.2642 396.049 100.099Z" fill="#263238"/>
<path d="M379.288 108.688C379.145 110.627 378.368 112.464 377.076 113.917C375.358 115.806 373.555 114.625 373.254 112.328C372.986 110.245 373.544 106.756 375.648 105.714C377.753 104.673 379.427 106.348 379.288 108.688Z" fill="#7F3E3B"/>
<path d="M376.389 204.102C376.389 204.102 373.726 257.269 378.912 279.794C387.125 315.46 423.232 344.041 423.232 344.041L434.827 334.754C434.827 334.754 405.119 312.648 402.446 282.95C400.052 256.281 403.595 225.65 403.595 204.102H376.389Z" fill="#01966B"/>
<path opacity="0.2" d="M376.389 204.102C376.389 204.102 373.726 257.269 378.912 279.794C387.125 315.46 423.232 344.041 423.232 344.041L434.827 334.754C434.827 334.754 405.119 312.648 402.446 282.95C400.052 256.281 403.595 225.65 403.595 204.102H376.389Z" fill="black"/>
<path opacity="0.2" d="M380.352 219.85C379.278 217.778 377.185 223.951 375.725 231.875C375.725 242.804 375.918 255.237 376.873 265.77C384.163 252.295 382.617 224.144 380.352 219.85Z" fill="black"/>
<path d="M417.973 341.752L422.375 345.166L435.763 334.312L431.748 330.672L417.973 341.752Z" fill="#2C6BDB"/>
<path opacity="0.4" d="M417.973 341.752L422.375 345.166L435.763 334.312L431.748 330.672L417.973 341.752Z" fill="#FAFAFA"/>
<path d="M361.422 204.102C361.422 204.102 349.547 254.456 348.71 278.505C347.776 305.486 357.181 369.111 357.181 369.111H370.548C370.548 369.111 372.19 304.992 372.792 280.417C373.436 253.629 389.154 204.102 389.154 204.102H361.422Z" fill="#01966B"/>
<path opacity="0.2" d="M361.422 204.102C361.422 204.102 349.547 254.456 348.71 278.505C347.776 305.486 357.181 369.111 357.181 369.111H370.548C370.548 369.111 372.19 304.992 372.792 280.417C373.436 253.629 389.154 204.102 389.154 204.102H361.422Z" fill="black"/>
<path d="M354.615 363.789C354.551 363.789 355.366 369.34 355.366 369.34H371.622L372.062 364.39L354.615 363.789Z" fill="#2C6BDB"/>
<path opacity="0.4" d="M354.615 363.789C354.551 363.789 355.366 369.34 355.366 369.34H371.622L372.062 364.39L354.615 363.789Z" fill="#FAFAFA"/>
</svg>
