<svg width="165" height="175" viewBox="0 0 165 175" fill="none" xmlns="http://www.w3.org/2000/svg">
<path d="M153.682 71.6633C151.238 81.0528 149.646 90.6557 148.928 100.332C146.64 130.44 124.314 149.839 76.2111 156.199C37.023 165.182 17.0169 140.209 19.2037 111.249C20.5471 96.2688 20.5738 81.2246 19.2832 66.3215C15.4935 29.3772 45.3673 3.13908 89.7729 16.3959C95.7593 18.1918 101.967 19.0828 108.223 19.0442C154.807 18.5549 160.047 47.5719 153.682 71.6633Z" fill="#FFF6EE"/>
<path d="M62 104H102V108H62V104ZM66 88H70V102H66V88ZM76 88H80V102H76V88ZM84 88H88V102H84V88ZM94 88H98V102H94V88ZM62 78L82 68L102 78V86H62V78ZM82 80C82.5304 80 83.0391 79.7893 83.4142 79.4142C83.7893 79.0391 84 78.5304 84 78C84 77.4696 83.7893 76.9609 83.4142 76.5858C83.0391 76.2107 82.5304 76 82 76C81.4696 76 80.9609 76.2107 80.5858 76.5858C80.2107 76.9609 80 77.4696 80 78C80 78.5304 80.2107 79.0391 80.5858 79.4142C80.9609 79.7893 81.4696 80 82 80Z" fill="#FFA600"/>
</svg>
