<svg width="165" height="175" viewBox="0 0 165 175" fill="none" xmlns="http://www.w3.org/2000/svg">
<path d="M153.685 71.6633C151.241 81.0528 149.649 90.6557 148.931 100.332C146.643 130.44 124.316 149.839 76.2123 156.199C37.0231 165.182 17.0166 140.209 19.2035 111.249C20.5468 96.2688 20.5735 81.2246 19.2829 66.3215C15.4931 29.3772 45.3677 3.13908 89.7744 16.3959C95.761 18.1918 101.968 19.0828 108.225 19.0442C154.81 18.5549 160.051 47.5719 153.685 71.6633Z" fill="#FFF6EE"/>
<path d="M62 80.3333H100C100.53 80.3333 101.039 80.5675 101.414 80.9842C101.789 81.401 102 81.9662 102 82.5556V104.778C102 105.367 101.789 105.932 101.414 106.349C101.039 106.766 100.53 107 100 107H64C63.4696 107 62.9609 106.766 62.5858 106.349C62.2107 105.932 62 105.367 62 104.778V80.3333ZM64 67H94V75.8889H62V69.2222C62 68.6329 62.2107 68.0676 62.5858 67.6509C62.9609 67.2341 63.4696 67 64 67ZM88 91.4444V95.8889H94V91.4444H88Z" fill="#FFA600"/>
</svg>
