<svg width="48" height="48" viewBox="0 0 48 48" fill="none" xmlns="http://www.w3.org/2000/svg">
<path d="M42 4.8H34.8V1.2C34.8 0.88174 34.6736 0.576516 34.4485 0.351472C34.2235 0.126428 33.9183 0 33.6 0C33.2817 0 32.9765 0.126428 32.7515 0.351472C32.5264 0.576516 32.4 0.88174 32.4 1.2V4.8H15.6V1.2C15.6 0.88174 15.4736 0.576516 15.2485 0.351472C15.0235 0.126428 14.7183 0 14.4 0C14.0817 0 13.7765 0.126428 13.5515 0.351472C13.3264 0.576516 13.2 0.88174 13.2 1.2V4.8H6C4.40929 4.80191 2.88427 5.43466 1.75946 6.55946C0.634658 7.68427 0.00190543 9.20929 0 10.8V42C0.00190543 43.5907 0.634658 45.1157 1.75946 46.2405C2.88427 47.3653 4.40929 47.9981 6 48H42C43.5909 47.9987 45.1163 47.3662 46.2412 46.2412C47.3662 45.1163 47.9987 43.5909 48 42V10.8C47.9987 9.20909 47.3662 7.68371 46.2412 6.55876C45.1163 5.43382 43.5909 4.80127 42 4.8ZM45.6 42C45.6 42.9548 45.2207 43.8705 44.5456 44.5456C43.8705 45.2207 42.9548 45.6 42 45.6H6C5.04522 45.6 4.12955 45.2207 3.45442 44.5456C2.77928 43.8705 2.4 42.9548 2.4 42V21.6H45.6V42ZM45.6 19.2H2.4V10.8C2.4 8.8128 4.008 7.2 6 7.2H13.2V10.8C13.2 11.1183 13.3264 11.4235 13.5515 11.6485C13.7765 11.8736 14.0817 12 14.4 12C14.7183 12 15.0235 11.8736 15.2485 11.6485C15.4736 11.4235 15.6 11.1183 15.6 10.8V7.2H32.4V10.8C32.4 11.1183 32.5264 11.4235 32.7515 11.6485C32.9765 11.8736 33.2817 12 33.6 12C33.9183 12 34.2235 11.8736 34.4485 11.6485C34.6736 11.4235 34.8 11.1183 34.8 10.8V7.2H42C42.9548 7.2 43.8705 7.57928 44.5456 8.25442C45.2207 8.92955 45.6 9.84522 45.6 10.8V19.2Z" fill="#FFA600"/>
</svg>
