<svg width="49" height="46" viewBox="0 0 49 46" fill="none" xmlns="http://www.w3.org/2000/svg">
<path d="M0 46L9.2931 20.1951L25.9784 36.7439L0 46ZM2.60489 43.4055L23.092 36.1829L9.85632 22.9299L2.60489 43.4055ZM24.852 26.9268L23.5848 25.6646L38.8621 10.4482C40.1293 9.23272 41.7016 8.61331 43.579 8.58994C45.4564 8.56656 47.0287 9.18598 48.296 10.4482L49 11.1494L47.8736 12.4116L47.1695 11.6402C46.1839 10.6585 45.0105 10.1677 43.6494 10.1677C42.2883 10.1677 41.1149 10.6585 40.1293 11.6402L24.852 26.9268ZM16.1221 18.3018L14.8549 17.1098L16.6853 15.2866C17.9526 14.0244 18.5745 12.5401 18.551 10.8338C18.5275 9.12754 17.9057 7.66667 16.6853 6.45122L14.9253 4.69817L16.1925 3.5061L17.8822 5.18902C19.478 6.73171 20.2641 8.625 20.2407 10.8689C20.2172 13.1128 19.431 15.0061 17.8822 16.5488L16.1221 18.3018ZM20.4871 22.5793L19.2902 21.3872L28.7241 11.9207C29.7098 10.9858 30.2026 9.80539 30.2026 8.37957C30.2026 6.95376 29.7098 5.75 28.7241 4.76829L25.1336 1.19207L26.3305 0L29.9914 3.57622C31.2586 4.88516 31.904 6.48628 31.9274 8.37957C31.9509 10.2729 31.3056 11.8506 29.9914 13.1128L20.4871 22.5793ZM29.217 31.2744L27.9497 30.0823L29.1466 28.8902C30.7423 27.3008 32.6667 26.4944 34.9195 26.471C37.1724 26.4477 39.0967 27.2307 40.6925 28.8201L41.9598 30.0823L40.7629 31.3445L39.4253 30.0122C38.158 28.75 36.6679 28.1189 34.9547 28.1189C33.2416 28.1189 31.728 28.75 30.4138 30.0122L29.217 31.2744Z" fill="#FFA600"/>
</svg>
