<svg width="49" height="55" viewBox="0 0 49 55" fill="none" xmlns="http://www.w3.org/2000/svg">
<path d="M45.8597 19.1778C44.6669 17.5519 43.0031 15.6475 41.1778 13.8222C39.3525 11.9969 37.4481 10.3331 35.8222 9.14031C33.0516 7.10875 31.7075 6.875 30.9375 6.875H11.1719C8.80344 6.875 6.875 8.80344 6.875 11.1719V50.7031C6.875 53.0716 8.80344 55 11.1719 55H43.8281C46.1966 55 48.125 53.0716 48.125 50.7031V24.0625C48.125 23.2925 47.8913 21.9484 45.8597 19.1778ZM38.7441 16.2559C40.3941 17.9059 41.6866 19.3909 42.6422 20.625H34.3716V12.3578C35.6056 13.3134 37.0941 14.6059 38.7406 16.2559H38.7441ZM44.6875 50.7031C44.6875 51.1706 44.2956 51.5625 43.8281 51.5625H11.1719C10.9448 51.5598 10.7278 51.4684 10.5672 51.3078C10.4066 51.1472 10.3152 50.9302 10.3125 50.7031V11.1719C10.3125 10.7078 10.7044 10.3125 11.1719 10.3125H30.9375V22.3438C30.9375 22.7996 31.1186 23.2368 31.4409 23.5591C31.7632 23.8814 32.2004 24.0625 32.6562 24.0625H44.6875V50.7031Z" fill="#FFA600"/>
<path d="M28.9472 2.26531C26.1766 0.23375 24.8325 0 24.0625 0H4.29688C1.92844 0 0 1.92844 0 4.29688V43.8281C0 45.9044 1.47812 47.6403 3.4375 48.0391V4.29688C3.4375 3.83281 3.83281 3.4375 4.29688 3.4375H30.4459C29.9557 3.03356 29.4548 2.6427 28.9438 2.26531H28.9472Z" fill="#FFA600"/>
</svg>
