<svg width="52" height="55" viewBox="0 0 52 55" fill="none" xmlns="http://www.w3.org/2000/svg">
<circle cx="21.0796" cy="33.7813" r="1.6001" fill="#FFA600"/>
<path d="M22.2187 53.9999C33.9375 53.9999 43.4374 44.5 43.4374 32.7812C43.4374 21.0624 33.9375 11.5625 22.2187 11.5625C10.4999 11.5625 1 21.0624 1 32.7812C1 44.5 10.4999 53.9999 22.2187 53.9999Z" stroke="#FFA600" stroke-width="1.1" stroke-linecap="round" stroke-linejoin="round"/>
<path d="M22.2184 46.8938C30.0127 46.8938 36.3313 40.5752 36.3313 32.7809C36.3313 24.9865 30.0127 18.668 22.2184 18.668C14.424 18.668 8.10547 24.9865 8.10547 32.7809C8.10547 40.5752 14.424 46.8938 22.2184 46.8938Z" stroke="#FFA600" stroke-width="1.1" stroke-linecap="round" stroke-linejoin="round"/>
<path d="M22.2183 40.0944C26.2572 40.0944 29.5314 36.8202 29.5314 32.7813C29.5314 28.7424 26.2572 25.4683 22.2183 25.4683C18.1794 25.4683 14.9053 28.7424 14.9053 32.7813C14.9053 36.8202 18.1794 40.0944 22.2183 40.0944Z" stroke="#FFA600" stroke-width="1.1" stroke-linecap="round" stroke-linejoin="round"/>
<path d="M21.0422 33.4084C20.9717 33.6222 21.0387 33.8574 21.2113 34.0021C21.3839 34.1467 21.6272 34.1715 21.8254 34.0647L51.0981 18.2939C51.32 18.1744 51.4323 17.9191 51.3704 17.6747C51.3085 17.4303 51.0883 17.2592 50.8361 17.2597L35.2914 17.2906L32.5115 1.90227C32.4668 1.65462 32.2596 1.46893 32.0086 1.45138C31.7576 1.43383 31.5266 1.58891 31.4479 1.82792L21.0422 33.4084Z" stroke="#FFA600" stroke-width="1.1" stroke-linejoin="round"/>
</svg>
