<svg width="48" height="49" viewBox="0 0 48 49" fill="none" xmlns="http://www.w3.org/2000/svg">
<path d="M37.7041 49C34.8639 49 32.4497 48.0242 30.4615 46.0725C28.4734 44.1209 27.4793 41.7278 27.4793 38.8933C27.4793 36.1053 28.4734 33.7354 30.4615 31.7838C32.4497 29.8321 34.8639 28.8563 37.7041 28.8563C40.5917 28.8563 43.0296 29.8321 45.0177 31.7838C47.0059 33.7354 48 36.1053 48 38.8933C48 41.7278 47.0059 44.1209 45.0177 46.0725C43.0296 48.0242 40.5917 49 37.7041 49ZM42.2485 45.027L43.6686 43.633L38.5562 38.6145V31.0868H36.568V39.3812L42.2485 45.027ZM3.83432 45.9331C2.84024 45.9331 1.95266 45.5498 1.1716 44.7831C0.390532 44.0164 0 43.1451 0 42.1693V7.10953C0 6.08725 0.35503 5.20436 1.06509 4.46088C1.77515 3.7174 2.57988 3.34566 3.47929 3.34566H17.7515C17.8935 2.41631 18.2959 1.62636 18.9586 0.975818C19.6213 0.325272 20.4734 0 21.5148 0C22.4615 0 23.2781 0.325272 23.9645 0.975818C24.6509 1.62636 25.0651 2.41631 25.2071 3.34566H39.5503C40.5917 3.34566 41.4911 3.7174 42.2485 4.46088C43.0059 5.20436 43.3846 6.08725 43.3846 7.10953V24.6743C43.0059 24.5813 42.7101 24.5 42.497 24.4303C42.284 24.3606 42.0592 24.2793 41.8225 24.1863V7.10953C41.8225 6.50545 41.5976 5.98269 41.1479 5.54125C40.6982 5.09981 40.1657 4.87909 39.5503 4.87909H31.8817V10.6643H11.503V4.87909H3.83432C3.1716 4.87909 2.62722 5.09981 2.20118 5.54125C1.77515 5.98269 1.56213 6.50545 1.56213 7.10953V42.1693C1.56213 42.7733 1.77515 43.2961 2.20118 43.7376C2.62722 44.179 3.1716 44.3997 3.83432 44.3997H23.2189C23.3136 44.6785 23.4201 44.9341 23.5385 45.1664C23.6568 45.3988 23.8106 45.6543 24 45.9331H3.83432ZM21.8698 5.6458C22.4852 5.6458 22.9941 5.44832 23.3964 5.05334C23.7988 4.65837 24 4.15884 24 3.55477C24 2.95069 23.7988 2.45116 23.3964 2.05619C22.9941 1.66121 22.4852 1.46373 21.8698 1.46373C21.2544 1.46373 20.7456 1.66121 20.3432 2.05619C19.9408 2.45116 19.7396 2.95069 19.7396 3.55477C19.7396 4.15884 19.9408 4.65837 20.3432 5.05334C20.7456 5.44832 21.2544 5.6458 21.8698 5.6458Z" fill="#FFA600"/>
</svg>
