<svg width="42" height="44" viewBox="0 0 42 44" fill="none" xmlns="http://www.w3.org/2000/svg">
<circle cx="18.5" cy="25.5" r="18.5" fill="#FFDBD3"/>
<path d="M7.33117 38C6.42641 38 5.64502 37.671 4.98701 37.013C4.329 36.355 4 35.5736 4 34.6688V3.33117C4 2.42641 4.329 1.64502 4.98701 0.987012C5.64502 0.329003 6.42641 0 7.33117 0H38.6688C39.5736 0 40.355 0.329003 41.013 0.987012C41.671 1.64502 42 2.42641 42 3.33117V34.6688C42 35.5736 41.671 36.355 41.013 37.013C40.355 37.671 39.5736 38 38.6688 38H7.33117ZM7.33117 36.6429H22.3831V1.35714H7.33117C6.83766 1.35714 6.38528 1.56277 5.97403 1.97403C5.56277 2.38528 5.35714 2.83766 5.35714 3.33117V34.6688C5.35714 35.1623 5.56277 35.6147 5.97403 36.026C6.38528 36.4372 6.83766 36.6429 7.33117 36.6429ZM23.7403 36.6429H38.6688C39.1623 36.6429 39.6147 36.4372 40.026 36.026C40.4372 35.6147 40.6429 35.1623 40.6429 34.6688V19H23.7403V36.6429ZM23.7403 17.6429H40.6429V3.33117C40.6429 2.83766 40.4372 2.38528 40.026 1.97403C39.6147 1.56277 39.1623 1.35714 38.6688 1.35714H23.7403V17.6429Z" fill="#3A3A3A"/>
</svg>
