<svg width="48" height="41" viewBox="0 0 48 41" fill="none" xmlns="http://www.w3.org/2000/svg">
<circle cx="17" cy="17" r="17" fill="#FFDBD3"/>
<mask id="path-2-inside-1_1420_4382" fill="white">
<rect x="9.13086" width="14.2609" height="14.2609" rx="1"/>
</mask>
<rect x="9.13086" width="14.2609" height="14.2609" rx="1" stroke="#3A3A3A" stroke-width="4" stroke-linejoin="round" mask="url(#path-2-inside-1_1420_4382)"/>
<mask id="path-3-inside-2_1420_4382" fill="white">
<rect x="25.1748" y="28.522" width="12.4783" height="12.4783" rx="1"/>
</mask>
<rect x="25.1748" y="28.522" width="12.4783" height="12.4783" rx="1" stroke="#3A3A3A" stroke-width="4" stroke-linejoin="round" mask="url(#path-3-inside-2_1420_4382)"/>
<path fill-rule="evenodd" clip-rule="evenodd" d="M16.5576 15.9346C17.1099 15.9346 17.5576 16.3823 17.5576 16.9346L17.5576 34.1665H15.5576L15.5576 16.9346C15.5576 16.3823 16.0053 15.9346 16.5576 15.9346ZM24.391 33.8694C24.391 34.4216 23.9432 34.8694 23.391 34.8694H16.2605V32.8694H23.391C23.9432 32.8694 24.391 33.3171 24.391 33.8694Z" fill="#3A3A3A"/>
<path d="M38.8408 33.8696H46.5655" stroke="#3A3A3A" stroke-width="2" stroke-linecap="round"/>
<path d="M25.1748 7.13037H31.711" stroke="#3A3A3A" stroke-width="2" stroke-linecap="round"/>
<path d="M34.0879 7.13037H36.4647" stroke="#3A3A3A" stroke-width="2" stroke-linecap="round"/>
<path d="M39.4355 7.13037L46.566 7.13037" stroke="#3A3A3A" stroke-width="2" stroke-linecap="round"/>
</svg>
