<svg width="48" height="48" viewBox="0 0 48 48" fill="none" xmlns="http://www.w3.org/2000/svg">
<path fill-rule="evenodd" clip-rule="evenodd" d="M38.6663 45.3335C40.4345 45.3335 42.1301 44.6311 43.3804 43.3809C44.6306 42.1306 45.333 40.4349 45.333 38.6668C45.333 36.8987 44.6306 35.203 43.3804 33.9528C42.1301 32.7025 40.4345 32.0002 38.6663 32.0002C36.8982 32.0002 35.2025 32.7025 33.9523 33.9528C32.7021 35.203 31.9997 36.8987 31.9997 38.6668C31.9997 40.4349 32.7021 42.1306 33.9523 43.3809C35.2025 44.6311 36.8982 45.3335 38.6663 45.3335ZM38.6663 48.0002C41.1417 48.0002 43.5157 47.0168 45.266 45.2665C47.0163 43.5162 47.9997 41.1422 47.9997 38.6668C47.9997 36.1915 47.0163 33.8175 45.266 32.0672C43.5157 30.3168 41.1417 29.3335 38.6663 29.3335C36.191 29.3335 33.817 30.3168 32.0667 32.0672C30.3163 33.8175 29.333 36.1915 29.333 38.6668C29.333 41.1422 30.3163 43.5162 32.0667 45.2665C33.817 47.0168 36.191 48.0002 38.6663 48.0002Z" fill="#FFA600"/>
<path fill-rule="evenodd" clip-rule="evenodd" d="M38.6663 34C39.02 34 39.3591 34.1405 39.6091 34.3905C39.8592 34.6406 39.9997 34.9797 39.9997 35.3333V38.1147L40.9423 39.0573C41.1852 39.3088 41.3196 39.6456 41.3166 39.9952C41.3135 40.3448 41.1733 40.6792 40.9261 40.9264C40.6789 41.1736 40.3445 41.3139 39.9949 41.3169C39.6453 41.3199 39.3085 41.1855 39.057 40.9427L37.333 39.2187V35.3333C37.333 34.9797 37.4735 34.6406 37.7235 34.3905C37.9736 34.1405 38.3127 34 38.6663 34ZM10.6663 22.6667H7.99967V25.3333H10.6663V22.6667ZM7.99967 20C7.29243 20 6.61415 20.281 6.11406 20.781C5.61396 21.2811 5.33301 21.9594 5.33301 22.6667V25.3333C5.33301 26.0406 5.61396 26.7189 6.11406 27.219C6.61415 27.719 7.29243 28 7.99967 28H10.6663C11.3736 28 12.0519 27.719 12.552 27.219C13.0521 26.7189 13.333 26.0406 13.333 25.3333V22.6667C13.333 21.9594 13.0521 21.2811 12.552 20.781C12.0519 20.281 11.3736 20 10.6663 20H7.99967ZM21.333 22.6667H18.6663V25.3333H21.333V22.6667ZM18.6663 20C17.9591 20 17.2808 20.281 16.7807 20.781C16.2806 21.2811 15.9997 21.9594 15.9997 22.6667V25.3333C15.9997 26.0406 16.2806 26.7189 16.7807 27.219C17.2808 27.719 17.9591 28 18.6663 28H21.333C22.0403 28 22.7185 27.719 23.2186 27.219C23.7187 26.7189 23.9997 26.0406 23.9997 25.3333V22.6667C23.9997 21.9594 23.7187 21.2811 23.2186 20.781C22.7185 20.281 22.0403 20 21.333 20H18.6663ZM31.9997 22.6667H29.333V25.3333H31.9997V22.6667ZM29.333 20C28.6258 20 27.9475 20.281 27.4474 20.781C26.9473 21.2811 26.6663 21.9594 26.6663 22.6667V25.3333C26.6663 26.0406 26.9473 26.7189 27.4474 27.219C27.9475 27.719 28.6258 28 29.333 28H31.9997C32.7069 28 33.3852 27.719 33.8853 27.219C34.3854 26.7189 34.6663 26.0406 34.6663 25.3333V22.6667C34.6663 21.9594 34.3854 21.2811 33.8853 20.781C33.3852 20.281 32.7069 20 31.9997 20H29.333ZM10.6663 33.3333H7.99967V36H10.6663V33.3333ZM7.99967 30.6667C7.29243 30.6667 6.61415 30.9476 6.11406 31.4477C5.61396 31.9478 5.33301 32.6261 5.33301 33.3333V36C5.33301 36.7072 5.61396 37.3855 6.11406 37.8856C6.61415 38.3857 7.29243 38.6667 7.99967 38.6667H10.6663C11.3736 38.6667 12.0519 38.3857 12.552 37.8856C13.0521 37.3855 13.333 36.7072 13.333 36V33.3333C13.333 32.6261 13.0521 31.9478 12.552 31.4477C12.0519 30.9476 11.3736 30.6667 10.6663 30.6667H7.99967ZM21.333 33.3333H18.6663V36H21.333V33.3333ZM18.6663 30.6667C17.9591 30.6667 17.2808 30.9476 16.7807 31.4477C16.2806 31.9478 15.9997 32.6261 15.9997 33.3333V36C15.9997 36.7072 16.2806 37.3855 16.7807 37.8856C17.2808 38.3857 17.9591 38.6667 18.6663 38.6667H21.333C22.0403 38.6667 22.7185 38.3857 23.2186 37.8856C23.7187 37.3855 23.9997 36.7072 23.9997 36V33.3333C23.9997 32.6261 23.7187 31.9478 23.2186 31.4477C22.7185 30.9476 22.0403 30.6667 21.333 30.6667H18.6663Z" fill="#FFA600"/>
<path fill-rule="evenodd" clip-rule="evenodd" d="M2.66667 8C2.66667 7.64638 2.80714 7.30724 3.05719 7.05719C3.30724 6.80714 3.64638 6.66667 4 6.66667H10.6667V4H4C2.93913 4 1.92172 4.42143 1.17157 5.17157C0.421427 5.92172 0 6.93913 0 8V40C0 41.0609 0.421427 42.0783 1.17157 42.8284C1.92172 43.5786 2.93913 44 4 44H31.0067C30.4381 43.1856 30.0037 42.2853 29.72 41.3333H4C3.64638 41.3333 3.30724 41.1929 3.05719 40.9428C2.80714 40.6928 2.66667 40.3536 2.66667 40V8ZM37.3333 29.4267C38.2177 29.3002 39.1156 29.3002 40 29.4267V8C40 6.93913 39.5786 5.92172 38.8284 5.17157C38.0783 4.42143 37.0609 4 36 4H32V6.66667H36C36.3536 6.66667 36.6928 6.80714 36.9428 7.05719C37.1929 7.30724 37.3333 7.64638 37.3333 8V29.4267ZM13.3333 6.66667H27.4173V4H13.3333V6.66667Z" fill="#FFA600"/>
<path fill-rule="evenodd" clip-rule="evenodd" d="M40.0003 16.0002H2.66699V13.3335H40.0003V16.0002Z" fill="#FFA600"/>
<path d="M8 1.33333C8 0.979711 8.14048 0.640573 8.39052 0.390525C8.64057 0.140476 8.97971 0 9.33333 0C9.68696 0 10.0261 0.140476 10.2761 0.390525C10.5262 0.640573 10.6667 0.979711 10.6667 1.33333V8C10.6667 8.35362 10.5262 8.69276 10.2761 8.94281C10.0261 9.19286 9.68696 9.33333 9.33333 9.33333C8.97971 9.33333 8.64057 9.19286 8.39052 8.94281C8.14048 8.69276 8 8.35362 8 8V1.33333ZM26.6667 1.33333C26.6667 0.979711 26.8071 0.640573 27.0572 0.390525C27.3072 0.140476 27.6464 0 28 0C28.3536 0 28.6928 0.140476 28.9428 0.390525C29.1929 0.640573 29.3333 0.979711 29.3333 1.33333V8C29.3333 8.35362 29.1929 8.69276 28.9428 8.94281C28.6928 9.19286 28.3536 9.33333 28 9.33333C27.6464 9.33333 27.3072 9.19286 27.0572 8.94281C26.8071 8.69276 26.6667 8.35362 26.6667 8V1.33333Z" fill="#FFA600"/>
</svg>
