<svg width="49" height="41" viewBox="0 0 49 41" fill="none" xmlns="http://www.w3.org/2000/svg">
<circle cx="18.5" cy="20.5" r="18.5" fill="#FFDBD3"/>
<path d="M26.5 17.5714C23.9813 17.5714 21.8825 16.7347 20.2034 15.0612C18.5243 13.3878 17.6847 11.2959 17.6847 8.78571C17.6847 6.21973 18.5243 4.11395 20.2034 2.46837C21.8825 0.82279 23.9813 0 26.5 0C29.0187 0 31.1175 0.82279 32.7966 2.46837C34.4757 4.11395 35.3153 6.19184 35.3153 8.70204C35.3153 11.268 34.4757 13.3878 32.7966 15.0612C31.1175 16.7347 29.0187 17.5714 26.5 17.5714ZM4 41V37.0673C4 35.7844 4.39179 34.6129 5.17537 33.5531C5.95895 32.4932 6.9944 31.6565 8.28171 31.0429C11.472 29.6483 14.5784 28.5745 17.6007 27.8214C20.6231 27.0684 23.5896 26.6918 26.5 26.6918C29.4104 26.6918 32.3769 27.0544 35.3993 27.7796C38.4216 28.5048 41.528 29.5925 44.7183 31.0429C46.0056 31.6565 47.041 32.4932 47.8246 33.5531C48.6082 34.6129 49 35.7844 49 37.0673V41H4ZM5.84701 39.1592H47.153V37.0673C47.153 36.2306 46.8591 35.4218 46.2715 34.6408C45.6838 33.8599 44.8862 33.1626 43.8787 32.549C40.9683 31.1544 38.0858 30.1364 35.2313 29.4949C32.3769 28.8534 29.4664 28.5327 26.5 28.5327C23.5336 28.5327 20.6231 28.8534 17.7687 29.4949C14.9142 30.1364 12.0877 31.1544 9.28918 32.549C8.22575 33.1626 7.38619 33.8599 6.77052 34.6408C6.15485 35.4218 5.84701 36.2306 5.84701 37.0673V39.1592ZM26.5 15.7306C28.459 15.7306 30.1101 15.0612 31.4534 13.7224C32.7966 12.3837 33.4683 10.7381 33.4683 8.78571C33.4683 6.83333 32.7966 5.18776 31.4534 3.84898C30.1101 2.5102 28.459 1.84082 26.5 1.84082C24.541 1.84082 22.8899 2.5102 21.5466 3.84898C20.2034 5.18776 19.5317 6.83333 19.5317 8.78571C19.5317 10.7381 20.2034 12.3837 21.5466 13.7224C22.8899 15.0612 24.541 15.7306 26.5 15.7306Z" fill="#3A3A3A"/>
</svg>
