<svg width="32" height="32" viewBox="0 0 32 32" fill="none" xmlns="http://www.w3.org/2000/svg">
<path d="M15.9998 2.66797C23.3598 2.66797 29.3332 8.6413 29.3332 16.0013C29.3332 23.3613 23.3598 29.3346 15.9998 29.3346C8.63984 29.3346 2.6665 23.3613 2.6665 16.0013C2.6665 8.6413 8.63984 2.66797 15.9998 2.66797ZM15.9998 5.33464C10.1132 5.33464 5.33317 10.1146 5.33317 16.0013C5.33317 21.888 10.1132 26.668 15.9998 26.668C21.8865 26.668 26.6665 21.888 26.6665 16.0013C26.6665 10.1146 21.8865 5.33464 15.9998 5.33464ZM15.9998 8.0013C19.6812 8.0013 22.6665 11.5826 22.6665 16.0013C22.6665 20.42 19.6812 24.0013 15.9998 24.0013C13.0972 24.0013 10.6278 21.7746 9.71317 18.668L12.5358 18.6693C13.2265 20.2626 14.5198 21.3346 15.9998 21.3346C18.2092 21.3346 19.9998 18.948 19.9998 16.0013C19.9998 13.0546 18.2092 10.668 15.9998 10.668C14.5198 10.668 13.2265 11.7413 12.5345 13.3346H14.6665L11.3332 17.3346L7.99984 13.3346H9.71184C10.6278 10.228 13.0972 8.0013 15.9998 8.0013Z" fill="white"/>
</svg>
