<svg width="20" height="20" viewBox="0 0 20 20" fill="none" xmlns="http://www.w3.org/2000/svg">
<circle cx="10.5" cy="8.5" r="6.5" fill="#FFDBD3"/>
<path d="M10 20V19.3373H17.2988C17.567 19.3373 17.7874 19.247 17.9598 19.0663C18.1322 18.8855 18.2184 18.6546 18.2184 18.3735V9.27711C18.2184 8.11245 17.9981 7.01305 17.5575 5.97892C17.1169 4.94478 16.523 4.03614 15.7759 3.25301C15.0287 2.46988 14.1571 1.84739 13.1609 1.38554C12.1647 0.923695 11.1111 0.692771 10 0.692771C8.88889 0.692771 7.83525 0.923695 6.83908 1.38554C5.84291 1.84739 4.97126 2.46988 4.22414 3.25301C3.47701 4.03614 2.88314 4.94478 2.44253 5.97892C2.00192 7.01305 1.78161 8.11245 1.78161 9.27711V16.506H1.55172C1.11111 16.506 0.742337 16.3504 0.445402 16.0392C0.148467 15.7279 0 15.3414 0 14.8795V12.4699C0 12.1687 0.105364 11.8775 0.316092 11.5964C0.52682 11.3153 0.804598 11.0643 1.14943 10.8434V9.27711C1.14943 8.01205 1.37931 6.81727 1.83908 5.69277C2.29885 4.56827 2.93103 3.58434 3.73563 2.74096C4.54023 1.89759 5.47893 1.22992 6.55172 0.737951C7.62452 0.245984 8.77394 0 10 0C11.2261 0 12.3755 0.240964 13.4483 0.722891C14.5211 1.20482 15.4598 1.86747 16.2644 2.71084C17.069 3.55422 17.7011 4.53815 18.1609 5.66265C18.6207 6.78715 18.8506 7.99197 18.8506 9.27711V10.8133C19.1954 10.994 19.4732 11.2149 19.6839 11.4759C19.8946 11.7369 20 12.008 20 12.2892V15.0602C20 15.3414 19.8946 15.6125 19.6839 15.8735C19.4732 16.1345 19.1954 16.3554 18.8506 16.5361V18.3735C18.8506 18.8153 18.6973 19.1968 18.3908 19.5181C18.0843 19.8394 17.7203 20 17.2988 20H10ZM7.12644 11.7169C6.93486 11.7169 6.76724 11.6416 6.62356 11.491C6.47988 11.3404 6.40804 11.1546 6.40804 10.9337C6.40804 10.753 6.47988 10.5873 6.62356 10.4367C6.76724 10.2861 6.94444 10.2108 7.15517 10.2108C7.32758 10.2108 7.48563 10.2861 7.62931 10.4367C7.77299 10.5873 7.84483 10.7631 7.84483 10.9639C7.84483 11.1647 7.77299 11.3404 7.62931 11.491C7.48563 11.6416 7.31801 11.7169 7.12644 11.7169ZM12.8736 11.7169C12.682 11.7169 12.5144 11.6416 12.3707 11.491C12.227 11.3404 12.1552 11.1546 12.1552 10.9337C12.1552 10.753 12.227 10.5873 12.3707 10.4367C12.5144 10.2861 12.6916 10.2108 12.9023 10.2108C13.0747 10.2108 13.2328 10.2861 13.3764 10.4367C13.5201 10.5873 13.592 10.7631 13.592 10.9639C13.592 11.1647 13.5201 11.3404 13.3764 11.491C13.2328 11.6416 13.0651 11.7169 12.8736 11.7169ZM4.16667 9.72892C4.1092 8.7249 4.24329 7.81124 4.56896 6.98795C4.89464 6.16466 5.34004 5.46687 5.90517 4.89458C6.47031 4.32229 7.11686 3.88052 7.84483 3.56928C8.5728 3.25803 9.31034 3.10241 10.0575 3.10241C11.5326 3.10241 12.7969 3.59438 13.8506 4.57831C14.9042 5.56225 15.546 6.78715 15.7759 8.25301C14.2433 8.23293 12.8736 7.8012 11.6667 6.95783C10.4598 6.11446 9.54023 5.02008 8.90804 3.6747C8.63985 5.06024 8.08429 6.28514 7.24138 7.3494C6.39847 8.41365 5.37356 9.20683 4.16667 9.72892Z" fill="black"/>
</svg>
