<svg width="19" height="17" viewBox="0 0 19 17" fill="none" xmlns="http://www.w3.org/2000/svg">
<circle cx="7.5" cy="9.5" r="7.5" fill="#FFDBD3"/>
<path d="M4.45967 10.5422H11.3528V9.93622H4.45967V10.5422ZM4.45967 7.32692H15.5403V6.72093H4.45967V7.32692ZM4.45967 4.13756H15.5403V3.53157H4.45967V4.13756ZM1 17V1.47576C1 1.07176 1.13879 0.724701 1.41638 0.434568C1.69397 0.144856 2.03211 0 2.43081 0H17.5692C17.9679 0 18.306 0.144856 18.5836 0.434568C18.8612 0.724701 19 1.06291 19 1.44919V12.6246C19 13.0113 18.8612 13.3495 18.5836 13.6392C18.306 13.9294 17.9679 14.0744 17.5692 14.0744H3.88722L1 17ZM1.59867 15.4977L3.6013 13.4419H17.5692C17.8118 13.4419 18.0112 13.3628 18.1672 13.2047C18.3233 13.0465 18.4013 12.8443 18.4013 12.598V1.47576C18.4013 1.2299 18.3233 1.02791 18.1672 0.869767C18.0112 0.711628 17.8118 0.632558 17.5692 0.632558H2.43081C2.18818 0.632558 1.98883 0.711628 1.83277 0.869767C1.6767 1.02791 1.59867 1.2299 1.59867 1.47576V15.4977ZM1.59867 1.47576V0.632558V15.4977V1.47576Z" fill="black"/>
</svg>
