<svg width="21" height="16" viewBox="0 0 21 16" fill="none" xmlns="http://www.w3.org/2000/svg">
<circle cx="13.5" cy="8.5" r="7.5" fill="#FFDBD3"/>
<path d="M18.1272 2.87875L10.5 8.51013L2.87276 2.87875M1.97286 1.01464C1.71484 1.01464 1.46739 1.11747 1.28494 1.3005C1.1025 1.48353 1 1.73177 1 1.99062V13.024C1 13.2829 1.1025 13.5311 1.28494 13.7141C1.46739 13.8972 1.71484 14 1.97286 14H19.0271C19.2852 14 19.5326 13.8972 19.7151 13.7141C19.8975 13.5311 20 13.2829 20 13.024V1.97598C20 1.71713 19.8975 1.46889 19.7151 1.28586C19.5326 1.10283 19.2852 1 19.0271 1H1.97286V1.01464Z" stroke="black" stroke-linecap="round" stroke-linejoin="round"/>
</svg>
