<svg width="18" height="18" viewBox="0 0 18 18" fill="none" xmlns="http://www.w3.org/2000/svg">
<circle cx="6.5" cy="12.5" r="5.5" fill="#FFDBD3"/>
<path d="M7.11207 12.3362L12.3362 9L7.11207 5.66379V12.3362ZM9 18C7.75862 18 6.59483 17.7629 5.50862 17.2888C4.42241 16.8147 3.46983 16.1681 2.65086 15.3491C1.8319 14.5302 1.18534 13.5776 0.711207 12.4914C0.237069 11.4052 0 10.2414 0 9C0 7.75862 0.237069 6.59483 0.711207 5.50862C1.18534 4.42241 1.8319 3.46983 2.65086 2.65086C3.46983 1.8319 4.42241 1.18534 5.50862 0.711207C6.59483 0.237069 7.75862 0 9 0C10.2414 0 11.4052 0.237069 12.4914 0.711207C13.5776 1.18534 14.5302 1.8319 15.3491 2.65086C16.1681 3.46983 16.8147 4.42241 17.2888 5.50862C17.7629 6.59483 18 7.75862 18 9C18 10.2414 17.7629 11.4052 17.2888 12.4914C16.8147 13.5776 16.1681 14.5302 15.3491 15.3491C14.5302 16.1681 13.5776 16.8147 12.4914 17.2888C11.4052 17.7629 10.2414 18 9 18ZM9 17.431C11.3276 17.431 13.3147 16.6078 14.9612 14.9612C16.6078 13.3147 17.431 11.3276 17.431 9C17.431 6.67241 16.6078 4.68535 14.9612 3.03879C13.3147 1.39224 11.3276 0.568965 9 0.568965C6.67241 0.568965 4.68535 1.39224 3.03879 3.03879C1.39224 4.68535 0.568965 6.67241 0.568965 9C0.568965 11.3276 1.39224 13.3147 3.03879 14.9612C4.68535 16.6078 6.67241 17.431 9 17.431Z" fill="black"/>
</svg>
