<svg width="78" height="62" viewBox="0 0 78 62" fill="none" xmlns="http://www.w3.org/2000/svg">
<path d="M9.96584 31.5337C8.62338 35.0823 5.16618 39.5945 1.70898 41.8993C8.92651 41.8993 14.0317 39.7918 17.8257 34.5735" stroke="#FFA600" stroke-width="2" stroke-miterlimit="10" stroke-linecap="round" stroke-linejoin="round"/>
<path d="M22.4897 34.4605C30.4891 33.1541 36.5939 26.2096 36.5939 17.8409C36.5939 8.53991 29.054 1 19.753 1C10.452 1 2.91211 8.53991 2.91211 17.8409C2.91211 21.8514 4.31351 25.5336 6.6532 28.4266" stroke="#FFA600" stroke-width="2" stroke-miterlimit="10" stroke-linecap="round"/>
<path d="M68.0337 49.9146C69.3762 53.4632 72.8334 57.9753 76.2906 60.2801C69.073 60.2801 63.9678 58.1726 60.1738 52.9543" stroke="#FFA600" stroke-width="2" stroke-miterlimit="10" stroke-linecap="round" stroke-linejoin="round"/>
<path d="M55.5095 52.8411C47.5101 51.5347 41.4053 44.5902 41.4053 36.2215C41.4053 26.9205 48.9452 19.3806 58.2462 19.3806C67.5472 19.3806 75.0871 26.9205 75.0871 36.2215C75.0871 40.2321 73.6857 43.9142 71.346 46.8072" stroke="#FFA600" stroke-width="2" stroke-miterlimit="10" stroke-linecap="round"/>
</svg>
