<svg width="48" height="43" viewBox="0 0 48 43" fill="none" xmlns="http://www.w3.org/2000/svg">
<path d="M6.58286 11.3084H16.7314V9.3539H6.58286V11.3084ZM6.58286 22.4773H16.7314V20.5227H6.58286V22.4773ZM6.58286 33.6461H16.7314V31.6916H6.58286V33.6461ZM30.9943 27.2938L42.0343 16.0552L40.6629 14.6591L30.9943 24.5714L27.0857 20.5925L25.7829 21.9886L30.9943 27.2938ZM3.70286 43C2.65143 43 1.77143 42.6393 1.06286 41.918C0.354286 41.1967 0 40.3009 0 39.2305V3.76948C0 2.69913 0.354286 1.8033 1.06286 1.08198C1.77143 0.36066 2.65143 0 3.70286 0H44.2971C45.3486 0 46.2286 0.36066 46.9371 1.08198C47.6457 1.8033 48 2.69913 48 3.76948V39.2305C48 40.3009 47.6457 41.1967 46.9371 41.918C46.2286 42.6393 45.3486 43 44.2971 43H3.70286ZM3.70286 41.4643H44.2971C44.8457 41.4643 45.3486 41.2316 45.8057 40.7662C46.2629 40.3009 46.4914 39.789 46.4914 39.2305V3.76948C46.4914 3.21104 46.2629 2.69913 45.8057 2.23377C45.3486 1.7684 44.8457 1.53571 44.2971 1.53571H3.70286C3.15429 1.53571 2.65143 1.7684 2.19429 2.23377C1.73714 2.69913 1.50857 3.21104 1.50857 3.76948V39.2305C1.50857 39.789 1.73714 40.3009 2.19429 40.7662C2.65143 41.2316 3.15429 41.4643 3.70286 41.4643Z" fill="#FFA600"/>
</svg>
